# Blender 5.1.1
# www.blender.org
mtllib ARROW8.mtl
o 112691946025878
v -0.106643 -1.961198 0.000040
v 0.031008 -1.901798 -0.074861
v -0.015631 -2.198798 0.037738
v 0.031008 -1.901798 -0.074861
v 0.075382 -1.961198 0.075437
v -0.015631 -2.198798 0.037738
v -0.062272 -1.901798 0.150337
v -0.106643 -1.961198 0.000040
v -0.015631 -2.198798 0.037738
v 0.075382 -1.961198 0.075437
v -0.062272 -1.901798 0.150337
v -0.015631 -2.198798 0.037738
v -0.023285 1.586760 -0.020398
v -0.069805 1.586760 0.015299
v -0.015632 1.637524 0.037738
v -0.062152 1.586760 0.073434
v 0.030888 1.586760 0.002042
v -0.007978 1.586760 0.095874
v 0.038543 1.586760 0.060178
v 0.142852 1.673243 0.204564
v 0.004424 1.536985 0.024158
v -0.036480 1.536985 0.055545
v 0.101950 1.673243 0.235949
v 0.006749 1.536985 0.051072
v 0.100445 1.645273 -0.137590
v 0.093770 1.673243 -0.159016
v 0.020021 1.529607 0.056570
v 0.046137 1.673243 -0.178746
v -0.040884 1.536985 0.031342
v 0.026267 1.645273 -0.168315
v -0.054156 1.529607 0.025845
v -0.040884 1.536985 0.031342
v 0.046137 1.673243 -0.178746
v 0.004424 1.536985 0.024158
v 0.142852 1.673243 0.204564
v 0.143756 1.645273 0.182141
v 0.015821 1.529607 0.015412
v -0.219964 1.645273 0.106744
v -0.011605 1.529607 0.079313
v -0.013481 1.536985 0.065071
v -0.238930 1.673243 0.094752
v -0.036480 1.536985 0.055545
v 0.080058 1.645273 0.231017
v 0.101950 1.673243 0.235949
v -0.047877 1.529607 0.064291
v -0.040884 1.358785 0.031342
v 0.069502 1.441851 -0.100429
v 0.021870 1.441851 -0.120159
v 0.006749 1.358785 0.051072
v -0.238930 1.081043 0.094752
v -0.219964 1.645273 0.106744
v -0.238930 1.673243 0.094752
v -0.219964 1.088493 0.106744
v 0.008597 1.424415 -0.125656
v -0.054156 1.351230 0.025845
v -0.040884 1.358785 0.031342
v 0.021870 1.441851 -0.120159
v 0.101950 1.081043 0.235949
v -0.036480 0.966561 0.055545
v 0.142852 1.081043 0.204564
v 0.004424 0.966561 0.024158
v 0.101950 1.673243 0.235949
v 0.142852 1.673243 0.204564
v 0.093770 1.081043 -0.159016
v 0.006749 0.966561 0.051072
v 0.046137 1.081043 -0.178746
v -0.040884 0.966561 0.031342
v 0.093770 1.673243 -0.159016
v 0.046137 1.673243 -0.178746
v 0.100445 1.645273 -0.137590
v 0.100445 1.088493 -0.137590
v 0.020021 0.994265 0.056570
v 0.006749 1.358785 0.051072
v 0.082775 1.424415 -0.094931
v 0.069502 1.441851 -0.100429
v 0.020021 1.341350 0.056570
v -0.013481 0.966561 0.065071
v -0.219964 1.088493 0.106744
v -0.238930 1.081043 0.094752
v -0.011605 0.994265 0.079313
v -0.040884 0.966561 0.031342
v 0.026267 1.088493 -0.168315
v 0.046137 1.081043 -0.178746
v -0.054156 0.994265 0.025845
v 0.026267 1.645273 -0.168315
v 0.046137 1.673243 -0.178746
v 0.080058 1.088493 0.231017
v -0.036480 0.966561 0.055545
v 0.101950 1.081043 0.235949
v -0.047877 0.994265 0.064291
v 0.080058 1.645273 0.231017
v 0.101950 1.673243 0.235949
v 0.143757 1.088493 0.182141
v 0.004424 0.966561 0.024158
v 0.015821 0.994265 0.015412
v 0.142852 1.081043 0.204564
v 0.143756 1.645273 0.182141
v 0.142852 1.673243 0.204564
v -0.182126 1.112633 0.020782
v -0.182126 1.559436 0.020782
v -0.163158 1.531612 0.032773
v -0.022085 1.473648 -0.000289
v -0.020209 1.445826 0.013955
v -0.022085 1.529607 -0.000289
v -0.163158 1.120645 0.032773
v -0.022085 1.037751 -0.000289
v -0.020209 1.045759 0.013955
v -0.022085 0.994265 -0.000289
v -0.230443 1.088493 0.027143
v -0.020209 0.966561 0.013955
v -0.230443 1.645273 0.027143
v -0.020209 1.536985 0.013955
v -0.245660 1.081043 0.043636
v -0.013481 0.966561 0.065071
v -0.238930 1.081043 0.094752
v -0.245660 1.081043 0.043636
v -0.245660 1.673243 0.043636
v -0.013481 1.536985 0.065071
v -0.238930 1.673243 0.094752
v -0.245660 1.673243 0.043636
v -0.238930 1.081043 0.094752
v -0.238930 1.673243 0.094752
v 0.081794 1.559436 -0.092565
v 0.100445 1.088493 -0.137590
v 0.100445 1.645273 -0.137590
v 0.020021 1.529607 0.056570
v 0.020021 1.473648 0.056570
v 0.081794 1.112633 -0.092565
v 0.020021 0.994265 0.056570
v 0.020021 1.037751 0.056570
v -0.054156 1.529607 0.025845
v 0.007617 1.559436 -0.123290
v -0.054156 1.473648 0.025845
v 0.026267 1.645273 -0.168315
v 0.026267 1.088493 -0.168315
v 0.007617 1.112633 -0.123290
v -0.054156 0.994265 0.025845
v -0.054156 1.037751 0.025845
v -0.054156 1.351230 0.025845
v 0.008597 1.364003 -0.125656
v -0.054156 1.294222 0.025845
v 0.008597 1.424415 -0.125656
v 0.082775 1.424415 -0.094931
v 0.020021 1.341350 0.056570
v 0.082775 1.364003 -0.094931
v 0.020021 1.284803 0.056570
v -0.011605 1.529607 0.079313
v -0.219964 1.645273 0.106744
v -0.171646 1.559436 0.100384
v -0.011605 1.473648 0.079313
v -0.219964 1.088493 0.106744
v -0.171646 1.112633 0.100384
v -0.011605 0.994265 0.079313
v -0.011605 1.037751 0.079313
v 0.050391 1.559436 0.192355
v 0.080058 1.088493 0.231017
v 0.080058 1.645273 0.231017
v -0.047877 1.529607 0.064291
v -0.047877 1.473648 0.064291
v 0.050391 1.112633 0.192355
v -0.047877 0.994265 0.064291
v -0.047877 1.037751 0.064291
v 0.015821 1.529607 0.015412
v 0.114089 1.559436 0.143478
v 0.015821 1.473648 0.015412
v 0.143756 1.645273 0.182141
v 0.143757 1.088493 0.182141
v 0.114089 1.112633 0.143478
v 0.015821 0.994265 0.015412
v 0.015821 1.037751 0.015412
v 0.030888 -1.985417 0.002042
v 0.030888 1.586760 0.002042
v 0.038543 1.586760 0.060178
v -0.023285 -1.985417 -0.020398
v 0.038544 -1.985417 0.060178
v -0.023285 1.586760 -0.020398
v -0.007978 1.586760 0.095874
v -0.069805 -1.985417 0.015299
v -0.007978 -1.985417 0.095874
v -0.069805 1.586760 0.015299
v -0.062152 1.586760 0.073434
v -0.062151 -1.985417 0.073435
v 0.081794 1.112633 -0.092565
v 0.081794 1.559436 -0.092565
v 0.061925 1.531612 -0.082136
v 0.020021 1.473648 0.056570
v 0.006749 1.445826 0.051072
v 0.061925 1.120645 -0.082136
v 0.020021 1.037751 0.056570
v 0.006749 1.045759 0.051072
v -0.054156 1.037751 0.025845
v 0.014292 1.120645 -0.101866
v 0.007617 1.112633 -0.123290
v -0.040884 1.045759 0.031342
v 0.014292 1.531612 -0.101866
v 0.007617 1.559436 -0.123290
v -0.054156 1.473648 0.025845
v -0.040884 1.445826 0.031342
v -0.011605 1.037751 0.079313
v -0.156430 1.120645 0.083891
v -0.171646 1.112633 0.100384
v -0.013481 1.045759 0.065071
v -0.156430 1.531612 0.083891
v -0.171646 1.559436 0.100384
v -0.011605 1.473648 0.079313
v -0.013481 1.445826 0.065071
v 0.050391 1.112633 0.192355
v 0.050391 1.559436 0.192355
v 0.051293 1.531612 0.169933
v -0.047877 1.473648 0.064291
v -0.036480 1.445826 0.055545
v 0.051293 1.120645 0.169933
v -0.047877 1.037751 0.064291
v -0.036480 1.045759 0.055545
v 0.015821 1.037751 0.015412
v 0.092198 1.120645 0.138545
v 0.114089 1.112633 0.143478
v 0.004424 1.045759 0.024158
v 0.092198 1.531612 0.138545
v 0.114089 1.559436 0.143478
v 0.015821 1.473648 0.015412
v 0.004424 1.445826 0.024158
v 0.021870 1.346826 -0.120159
v -0.040884 1.267624 0.031342
v -0.054156 1.294222 0.025845
v 0.008597 1.364003 -0.125656
v 0.020021 1.284803 0.056570
v 0.069502 1.346826 -0.100429
v 0.082775 1.364003 -0.094931
v 0.006749 1.267624 0.051072
v -0.184665 1.444216 0.021116
v -0.022085 1.341350 -0.000289
v -0.184665 1.383805 0.021116
v -0.022085 1.284803 -0.000289
v -0.020209 1.358785 0.013955
v -0.182791 1.366624 0.035359
v -0.182791 1.461651 0.035359
v -0.020209 1.267624 0.013955
v -0.013481 1.358785 0.065071
v -0.013481 1.267624 0.065071
v -0.176061 1.461651 0.086476
v -0.176061 1.366624 0.086476
v -0.174186 1.444216 0.100717
v -0.011605 1.294222 0.079313
v -0.011605 1.351230 0.079313
v -0.174186 1.383805 0.100717
v 0.104250 1.461651 0.154255
v -0.036480 1.358785 0.055545
v 0.063347 1.461651 0.185642
v 0.051950 1.444216 0.194386
v 0.004424 1.358785 0.024158
v -0.047877 1.341350 0.064291
v 0.115648 1.444216 0.145509
v 0.051950 1.383805 0.194386
v 0.015821 1.351230 0.015412
v -0.047877 1.284803 0.064291
v 0.115648 1.383805 0.145509
v 0.063347 1.366624 0.185642
v 0.015821 1.294222 0.015412
v -0.036480 1.267624 0.055545
v 0.104250 1.366624 0.154255
v 0.004424 1.267624 0.024158
v 0.069502 1.346826 -0.100429
v 0.006749 1.267624 0.051072
v 0.021870 1.346826 -0.120159
v -0.040884 1.267624 0.031342
v 0.061925 1.531612 -0.082136
v 0.006749 1.445826 0.051072
v 0.014292 1.531612 -0.101866
v -0.040884 1.445826 0.031342
v 0.061925 1.120645 -0.082136
v 0.014292 1.120645 -0.101866
v -0.040884 1.045759 0.031342
v 0.006749 1.045759 0.051072
v -0.013481 1.045759 0.065071
v -0.163158 1.120645 0.032773
v -0.156430 1.120645 0.083891
v -0.020209 1.045759 0.013955
v -0.156430 1.531612 0.083891
v -0.163158 1.531612 0.032773
v -0.013481 1.445826 0.065071
v -0.020209 1.445826 0.013955
v 0.051293 1.531612 0.169933
v 0.004424 1.445826 0.024158
v 0.092198 1.531612 0.138545
v -0.036480 1.445826 0.055545
v 0.051293 1.120645 0.169933
v 0.092198 1.120645 0.138545
v 0.004424 1.045759 0.024158
v -0.036480 1.045759 0.055545
v 0.075382 -1.961198 0.075437
v -0.106643 -1.961198 0.000040
v -0.062272 -1.901798 0.150337
v 0.031008 -1.901798 -0.074861
v -0.106643 -1.961198 0.000040
v 0.075382 -1.961198 0.075437
vn -0.3628 -0.2800 -0.8888
vn 0.8850 -0.2800 -0.3719
vn -0.8850 -0.2800 0.3719
vn 0.3628 -0.2800 0.8888
vn -0.0857 0.7557 -0.6492
vn -0.6049 0.7560 -0.2500
vn -0.0000 1.0000 -0.0000
vn -0.5197 0.7557 0.3985
vn 0.5195 0.7558 -0.3985
vn 0.0858 0.7555 0.6495
vn 0.6046 0.7560 0.2508
vn -0.3129 0.8578 -0.4078
vn -0.3125 0.8578 -0.4080
vn -0.3126 0.8578 -0.4080
vn -0.3124 0.8578 -0.4081
vn 0.1349 0.8094 0.5715
vn 0.4102 0.6880 0.5987
vn -0.0254 0.8459 0.5327
vn 0.4101 0.6881 0.5986
vn -0.1967 0.8578 0.4749
vn -0.7134 0.6880 0.1332
vn -0.7133 0.6881 0.1333
vn -0.7132 0.6882 0.1333
vn -0.7135 0.6879 0.1332
vn 0.2419 0.6872 -0.6850
vn 0.2420 0.6871 -0.6851
vn 0.4724 0.6874 0.5517
vn 0.4723 0.6875 0.5516
vn 0.4724 0.6875 0.5515
vn -0.7240 0.6875 0.0560
vn -0.7241 0.6874 0.0561
vn -0.1724 0.8921 0.4176
vn -0.5346 0.0003 0.8451
vn -0.5344 -0.0000 0.8452
vn -0.5346 0.0004 0.8451
vn -0.7005 0.7096 0.0762
vn -0.7004 0.7096 0.0763
vn -0.7003 0.7097 0.0763
vn 0.5183 -0.5246 0.6754
vn 0.2737 -0.8932 0.3568
vn 0.6090 0.0004 0.7932
vn 0.6880 -0.4587 -0.5623
vn 0.5102 -0.8281 -0.2322
vn 0.3264 -0.5243 -0.7865
vn 0.1725 -0.8932 -0.4153
vn 0.6023 -0.0000 -0.7983
vn 0.3830 0.0003 -0.9237
vn 0.9547 -0.0000 -0.2974
vn 0.9480 -0.2996 -0.1071
vn 0.8424 -0.5339 0.0736
vn 0.5613 0.6053 0.5644
vn 0.5614 0.6053 0.5644
vn -0.1474 -0.5343 0.8323
vn -0.1475 -0.5343 0.8323
vn -0.1474 -0.5343 0.8324
vn -0.6476 -0.5339 -0.5437
vn -0.5947 -0.2996 -0.7461
vn -0.5797 -0.2565 -0.7734
vn -0.6477 -0.5339 -0.5436
vn -0.4648 -0.0000 -0.8854
vn -0.3818 -0.2996 0.8744
vn -0.4843 -0.5343 0.6928
vn -0.3595 -0.2565 0.8972
vn -0.2198 -0.0000 0.9756
vn 0.9435 -0.2996 -0.1417
vn 0.7947 -0.5339 -0.2888
vn 0.9597 -0.2566 -0.1148
vn 0.9992 -0.0000 0.0403
vn 0.9992 0.0003 0.0401
vn 0.1751 0.1919 -0.9657
vn -0.0153 -0.1530 -0.9881
vn 0.0799 -0.3025 -0.9498
vn -0.3115 -0.3445 -0.8856
vn -0.3887 -0.5078 -0.7688
vn 0.0492 0.3005 -0.9525
vn 0.4301 0.4040 -0.8074
vn 0.0341 0.3208 -0.9465
vn 0.2669 0.7134 -0.6479
vn -0.2869 -0.3513 -0.8912
vn -0.4332 -0.2048 -0.8777
vn -0.4565 -0.8279 -0.3260
vn -0.2423 0.3552 -0.9029
vn 0.4267 0.8095 -0.4033
vn -0.4578 -0.8369 -0.3001
vn -0.4458 -0.8932 0.0587
vn -0.9679 -0.0000 -0.2512
vn 0.4741 0.8459 -0.2443
vn 0.5095 0.8578 -0.0675
vn 0.5096 0.8578 -0.0671
vn -0.9924 0.0002 -0.1228
vn -0.9915 0.0004 0.1302
vn 0.9237 0.0003 0.3830
vn 0.9237 0.0003 0.3831
vn -0.9240 0.0003 -0.3823
vn -0.9241 0.0003 -0.3822
vn 0.1303 0.0004 0.9915
vn 0.1302 0.0005 0.9915
vn 0.1302 0.0004 0.9915
vn 0.1305 -0.0000 0.9914
vn -0.7932 0.0004 0.6090
vn -0.7931 0.0004 0.6091
vn -0.7931 0.0007 0.6091
vn 0.7932 0.0004 -0.6090
vn 0.7932 0.0003 -0.6089
vn 0.7931 0.0004 -0.6091
vn 0.7931 0.0005 -0.6090
vn -0.1302 0.0004 -0.9915
vn -0.1305 -0.0000 -0.9914
vn -0.7934 -0.0000 0.6088
vn 0.4870 0.3539 0.7985
vn 0.7765 -0.2947 0.5570
vn 0.7829 -0.3025 0.5437
vn 0.8601 -0.5080 0.0478
vn 0.8600 -0.5080 0.0478
vn 0.4839 0.4039 0.7763
vn 0.4273 0.7136 0.5551
vn -0.6947 0.7136 0.0904
vn -0.8911 0.4039 0.2068
vn -0.9090 0.3539 0.2202
vn -0.6946 0.7136 0.0904
vn -0.9380 -0.3025 -0.1691
vn -0.9429 -0.2947 -0.1552
vn -0.6419 -0.5080 -0.5744
vn 0.4257 0.7136 0.5564
vn 0.6245 0.4038 0.6685
vn 0.6452 0.3539 0.6771
vn 0.3228 -0.3026 0.8968
vn 0.3367 -0.2948 0.8943
vn -0.1764 -0.5077 0.8433
vn -0.9350 0.3540 0.0224
vn -0.8704 -0.2948 0.3942
vn -0.8624 -0.3026 0.4058
vn -0.4716 -0.5077 0.7210
vn -0.4715 -0.5077 0.7211
vn -0.9143 0.4038 0.0311
vn -0.6944 0.7136 0.0923
vn -0.6944 0.7136 0.0925
vn 0.2694 0.7134 -0.6469
vn 0.2668 0.4040 -0.8750
vn 0.2633 0.3541 -0.8974
vn 0.6151 -0.3025 -0.7281
vn 0.6058 -0.2946 -0.7390
vn 0.8185 -0.5078 -0.2688
vn -0.6571 -0.5322 -0.5339
vn -0.6571 -0.5321 -0.5339
vn 0.7898 -0.6133 0.0072
vn 0.7898 -0.6134 0.0072
vn 0.7899 -0.6132 0.0071
vn 0.7899 -0.6133 0.0072
vn 0.1474 0.4194 -0.8958
vn 0.0118 0.2216 -0.9751
vn -0.2621 -0.2277 -0.9378
vn -0.3660 -0.4217 -0.8296
vn 0.4178 0.7627 -0.4938
vn -0.5185 -0.7720 -0.3677
vn 0.4549 0.8003 -0.3906
vn -0.5268 -0.8083 -0.2630
vn 0.5312 0.8026 0.2713
vn -0.4247 -0.7998 0.4241
vn 0.5361 0.8207 0.1973
vn -0.3737 -0.7478 0.5487
vn 0.3997 0.4945 0.7718
vn -0.0853 -0.3582 0.9297
vn 0.2990 0.2994 0.9061
vn 0.0125 -0.2009 0.9795
vn -0.0971 0.8207 -0.5631
vn -0.6362 0.7629 -0.1151
vn -0.5653 0.8006 -0.1988
vn -0.8495 0.4194 0.3202
vn -0.0308 0.8025 -0.5958
vn -0.8503 0.2216 0.4773
vn 0.4687 0.4948 -0.7318
vn -0.6811 -0.2276 0.6959
vn 0.6349 0.2992 -0.7123
vn -0.5355 -0.4216 0.7318
vn 0.8421 -0.2008 -0.5005
vn -0.0592 -0.7720 0.6329
vn 0.8479 -0.3583 -0.3908
vn 0.0356 -0.8083 0.5878
vn 0.6619 -0.7479 0.0495
vn 0.5792 -0.8002 0.1558
vn 0.1669 -0.9003 -0.4019
vn 0.1664 -0.9005 -0.4018
vn 0.1670 -0.9003 -0.4019
vn -0.1884 -0.8695 0.4565
vn 0.1961 -0.8593 -0.4723
vn -0.1892 -0.8693 0.4567
vn 0.1962 -0.8593 -0.4723
vn -0.3266 0.5193 0.7897
vn -0.1759 0.8875 0.4258
vn 0.4568 0.8875 -0.0599
vn 0.8474 0.5192 -0.1115
vn 0.4570 0.8874 -0.0602
vn 0.4904 -0.8691 -0.0648
vn 0.4901 -0.8693 -0.0645
vn -0.5070 -0.8594 0.0667
vn -0.5071 -0.8593 0.0664
vn -0.3009 -0.8693 -0.3922
vn 0.3117 -0.8593 0.4055
vn -0.3010 -0.8691 -0.3926
vn 0.3113 -0.8594 0.4057
vn -0.5203 0.5192 -0.6781
vn -0.5203 0.5192 -0.6780
vn -0.2806 0.8874 -0.3657
vn -0.2807 0.8875 -0.3654
vn 0.1681 0.8989 -0.4046
vn -0.1672 0.8989 0.4049
vt 0.000000 0.000000
s 1
f 1/1/1 2/1/1 3/1/1
f 4/1/2 5/1/2 6/1/2
f 7/1/3 8/1/3 9/1/3
f 10/1/4 11/1/4 12/1/4
f 13/1/5 14/1/6 15/1/7
f 14/1/6 16/1/8 15/1/7
f 17/1/9 13/1/5 15/1/7
f 16/1/8 18/1/10 15/1/7
f 19/1/11 17/1/9 15/1/7
f 18/1/10 19/1/11 15/1/7
f 20/1/12 21/1/13 22/1/14
f 20/1/12 22/1/14 23/1/15
f 24/1/16 25/1/17 26/1/18
f 25/1/17 24/1/16 27/1/19
f 28/1/20 24/1/16 26/1/18
f 24/1/16 28/1/20 29/1/20
f 30/1/21 31/1/22 32/1/23
f 30/1/21 32/1/23 33/1/24
f 34/1/25 35/1/26 36/1/26
f 36/1/26 37/1/25 34/1/25
f 38/1/27 39/1/28 40/1/29
f 38/1/27 40/1/29 41/1/27
f 42/1/30 43/1/31 44/1/31
f 43/1/31 42/1/30 45/1/30
f 46/1/32 47/1/32 48/1/32
f 47/1/32 46/1/32 49/1/32
f 50/1/33 51/1/34 52/1/34
f 51/1/34 50/1/33 53/1/35
f 54/1/36 55/1/37 56/1/38
f 54/1/36 56/1/38 57/1/36
f 58/1/39 59/1/40 60/1/39
f 61/1/40 60/1/39 59/1/40
f 60/1/39 62/1/41 58/1/39
f 60/1/39 63/1/41 62/1/41
f 64/1/42 65/1/43 66/1/44
f 67/1/45 66/1/44 65/1/43
f 66/1/44 68/1/46 64/1/42
f 66/1/44 69/1/47 68/1/46
f 64/1/42 68/1/46 70/1/48
f 64/1/42 70/1/48 71/1/49
f 65/1/43 64/1/42 71/1/49
f 65/1/43 71/1/49 72/1/50
f 73/1/51 74/1/52 75/1/52
f 74/1/52 73/1/51 76/1/51
f 77/1/53 78/1/54 79/1/54
f 78/1/54 77/1/53 80/1/55
f 81/1/56 82/1/57 83/1/58
f 82/1/57 81/1/56 84/1/59
f 85/1/60 83/1/58 82/1/57
f 83/1/58 85/1/60 86/1/60
f 87/1/61 88/1/62 89/1/63
f 88/1/62 87/1/61 90/1/62
f 89/1/63 91/1/64 87/1/61
f 89/1/63 92/1/64 91/1/64
f 93/1/65 94/1/66 95/1/66
f 94/1/66 93/1/65 96/1/67
f 97/1/68 96/1/67 93/1/65
f 96/1/67 97/1/68 98/1/69
f 99/1/70 100/1/71 101/1/72
f 101/1/72 102/1/73 103/1/74
f 102/1/73 101/1/72 100/1/71
f 100/1/71 104/1/75 102/1/73
f 99/1/70 101/1/72 105/1/76
f 106/1/77 99/1/70 105/1/76
f 105/1/76 107/1/78 106/1/77
f 99/1/70 106/1/77 108/1/79
f 99/1/70 108/1/79 109/1/80
f 109/1/80 100/1/71 99/1/70
f 109/1/80 108/1/79 110/1/81
f 104/1/75 100/1/71 111/1/82
f 100/1/71 109/1/80 111/1/82
f 111/1/82 112/1/83 104/1/75
f 110/1/81 113/1/84 109/1/80
f 114/1/85 113/1/84 110/1/81
f 113/1/84 114/1/85 115/1/85
f 116/1/86 111/1/82 109/1/80
f 112/1/83 111/1/82 117/1/87
f 117/1/87 118/1/88 112/1/83
f 118/1/88 117/1/87 119/1/89
f 116/1/86 120/1/90 111/1/82
f 121/1/91 120/1/90 116/1/86
f 121/1/91 122/1/91 120/1/90
f 123/1/92 124/1/92 125/1/92
f 126/1/92 123/1/92 125/1/92
f 123/1/92 126/1/92 127/1/92
f 124/1/92 123/1/92 128/1/92
f 128/1/92 129/1/92 124/1/92
f 128/1/92 130/1/93 129/1/92
f 131/1/94 132/1/94 133/1/94
f 132/1/94 131/1/94 134/1/94
f 134/1/94 135/1/94 132/1/94
f 136/1/94 132/1/94 135/1/94
f 137/1/94 136/1/94 135/1/94
f 136/1/94 137/1/94 138/1/95
f 139/1/94 140/1/94 141/1/94
f 140/1/94 139/1/94 142/1/94
f 143/1/92 144/1/92 145/1/92
f 145/1/92 144/1/92 146/1/92
f 147/1/96 148/1/97 149/1/97
f 149/1/97 150/1/98 147/1/96
f 148/1/97 151/1/96 149/1/97
f 152/1/99 149/1/97 151/1/96
f 153/1/96 152/1/99 151/1/96
f 152/1/99 153/1/96 154/1/96
f 155/1/100 156/1/100 157/1/101
f 158/1/100 155/1/100 157/1/101
f 155/1/100 158/1/100 159/1/100
f 156/1/100 155/1/100 160/1/100
f 161/1/102 156/1/100 160/1/100
f 161/1/102 160/1/100 162/1/100
f 163/1/103 164/1/104 165/1/103
f 164/1/104 163/1/103 166/1/103
f 166/1/103 167/1/103 164/1/104
f 168/1/103 164/1/104 167/1/103
f 169/1/105 168/1/103 167/1/103
f 168/1/103 169/1/105 170/1/104
f 171/1/104 172/1/106 173/1/93
f 174/1/107 172/1/106 171/1/104
f 171/1/104 173/1/93 175/1/93
f 174/1/107 176/1/108 172/1/106
f 175/1/93 173/1/93 177/1/98
f 178/1/94 176/1/108 174/1/107
f 175/1/93 177/1/98 179/1/97
f 178/1/94 180/1/94 176/1/108
f 181/1/100 179/1/97 177/1/98
f 182/1/109 180/1/94 178/1/94
f 179/1/97 181/1/100 182/1/109
f 182/1/109 181/1/100 180/1/94
f 183/1/110 184/1/111 185/1/112
f 184/1/111 186/1/113 185/1/112
f 187/1/114 185/1/112 186/1/113
f 183/1/110 185/1/112 188/1/115
f 189/1/116 183/1/110 188/1/115
f 188/1/115 190/1/116 189/1/116
f 191/1/117 192/1/118 193/1/119
f 192/1/118 191/1/117 194/1/120
f 195/1/121 193/1/119 192/1/118
f 193/1/119 195/1/121 196/1/122
f 197/1/123 196/1/122 195/1/121
f 195/1/121 198/1/123 197/1/123
f 199/1/124 200/1/125 201/1/126
f 200/1/125 199/1/124 202/1/124
f 203/1/127 201/1/126 200/1/125
f 201/1/126 203/1/127 204/1/128
f 205/1/129 204/1/128 203/1/127
f 205/1/129 203/1/127 206/1/129
f 207/1/130 208/1/131 209/1/132
f 210/1/133 209/1/132 208/1/131
f 209/1/132 210/1/133 211/1/134
f 207/1/130 209/1/132 212/1/135
f 213/1/136 207/1/130 212/1/135
f 212/1/135 214/1/137 213/1/136
f 215/1/138 216/1/139 217/1/140
f 216/1/139 215/1/138 218/1/138
f 219/1/141 217/1/140 216/1/139
f 217/1/140 219/1/141 220/1/142
f 221/1/143 220/1/142 219/1/141
f 219/1/141 222/1/143 221/1/143
f 223/1/144 224/1/145 225/1/145
f 225/1/145 226/1/144 223/1/144
f 227/1/146 228/1/147 229/1/148
f 228/1/147 227/1/146 230/1/149
f 231/1/150 232/1/151 233/1/152
f 233/1/152 232/1/151 234/1/153
f 231/1/150 235/1/154 232/1/151
f 234/1/153 236/1/155 233/1/152
f 235/1/154 231/1/150 237/1/156
f 236/1/155 234/1/153 238/1/157
f 237/1/156 239/1/158 235/1/154
f 240/1/159 236/1/155 238/1/157
f 239/1/158 237/1/156 241/1/160
f 236/1/155 240/1/159 242/1/161
f 243/1/162 239/1/158 241/1/160
f 244/1/163 242/1/161 240/1/159
f 243/1/162 245/1/164 239/1/158
f 244/1/163 246/1/165 242/1/161
f 246/1/165 245/1/164 243/1/162
f 245/1/164 246/1/165 244/1/163
f 247/1/166 248/1/167 249/1/168
f 248/1/167 250/1/169 249/1/168
f 248/1/167 247/1/166 251/1/170
f 250/1/169 248/1/167 252/1/171
f 251/1/170 247/1/166 253/1/172
f 250/1/169 252/1/171 254/1/173
f 253/1/172 255/1/174 251/1/170
f 256/1/175 254/1/173 252/1/171
f 257/1/176 255/1/174 253/1/172
f 256/1/175 258/1/177 254/1/173
f 255/1/174 257/1/176 259/1/178
f 258/1/177 256/1/175 260/1/179
f 261/1/180 259/1/178 257/1/176
f 258/1/177 260/1/179 261/1/180
f 261/1/180 262/1/181 259/1/178
f 262/1/181 261/1/180 260/1/179
f 263/1/182 264/1/183 265/1/183
f 266/1/184 265/1/183 264/1/183
f 267/1/185 268/1/186 269/1/187
f 270/1/188 269/1/187 268/1/186
f 269/1/187 271/1/189 267/1/185
f 269/1/187 272/1/189 271/1/189
f 273/1/190 271/1/189 272/1/189
f 271/1/189 273/1/190 274/1/190
f 275/1/191 276/1/192 277/1/192
f 276/1/192 275/1/191 278/1/193
f 276/1/192 279/1/194 277/1/192
f 279/1/194 276/1/192 280/1/195
f 280/1/195 281/1/196 279/1/194
f 281/1/196 280/1/195 282/1/197
f 283/1/198 284/1/199 285/1/200
f 284/1/199 283/1/198 286/1/201
f 285/1/200 287/1/202 283/1/198
f 287/1/202 285/1/200 288/1/203
f 289/1/204 287/1/202 288/1/203
f 287/1/202 289/1/204 290/1/205
f 291/1/206 292/1/206 293/1/206
f 294/1/207 295/1/207 296/1/207
