# Blender 5.1.1
# www.blender.org
mtllib body NO backsight.mtl
o default_98720125208382.001
v 1.481803 0.182268 0.157955
v 1.510311 0.113873 0.157953
v 1.490975 0.160265 0.136062
v 1.489363 0.164128 0.207954
v 1.490975 0.160274 -0.145154
v 1.510311 0.113884 -0.167047
v 1.481803 0.182279 -0.167045
v 1.489363 0.164143 -0.217046
v 1.353990 0.506223 -0.217034
v 1.361509 0.488175 -0.167035
v 1.353990 0.506208 0.207966
v 1.481803 0.182268 0.157955
v 1.361509 0.488164 0.157965
v 1.333157 0.556210 0.157968
v 1.353990 0.506208 0.207966
v 1.361509 0.488164 0.157965
v 1.352388 0.510057 0.136074
v 1.333157 0.556221 -0.167032
v 1.361509 0.488175 -0.167035
v 1.353990 0.506223 -0.217034
v 1.352388 0.510066 -0.145142
v 1.352388 0.510066 -0.145142
v 1.333157 0.556210 0.157968
v 1.352388 0.510057 0.136074
v 1.333157 0.556221 -0.167032
v 1.190512 0.601198 -0.002959
v 1.196802 0.563250 0.003330
v 1.196802 0.563251 -0.012394
v 1.190512 0.601198 -0.006103
v 1.212940 0.409980 -0.032114
v 1.212940 0.551192 -0.004533
v 1.212940 0.409979 -0.004537
v 1.212940 0.409978 0.023040
v 1.212940 0.562614 0.023045
v 1.212940 0.562616 -0.032109
v 1.212940 0.563193 -0.004532
v 1.212940 0.562614 0.023045
v 1.212940 0.563193 -0.004532
v 1.212940 0.572330 0.017530
v 1.212940 0.577249 0.029409
v 1.212940 0.562614 0.023045
v 1.212940 0.577252 -0.038473
v 1.212940 0.562616 -0.032109
v 1.212940 0.568767 -0.046958
v 1.212940 0.572331 -0.026594
v 1.212940 0.611190 0.043469
v 1.212940 0.632404 0.046683
v 1.212940 0.611190 0.055469
v 1.212940 0.628161 0.036440
v 1.212940 0.568764 0.037894
v 1.212940 0.611190 0.043469
v 1.212940 0.611190 0.055469
v 1.212940 0.577249 0.029409
v 1.212940 0.568767 -0.046958
v 1.212940 0.611194 -0.064530
v 1.212940 0.611193 -0.052531
v 1.212940 0.577252 -0.038473
v 1.212940 0.632407 -0.055743
v 1.212940 0.628164 -0.045501
v 1.212940 0.563193 -0.004532
v 1.212940 0.562616 -0.032109
v 1.212940 0.572331 -0.026594
v 1.212940 0.562614 0.023045
v 1.212940 0.577249 0.029409
v 1.212940 0.568764 0.037894
v -1.371079 -0.129062 -0.004555
v -1.371079 -0.058019 -0.139553
v -1.371079 -0.129059 -0.139555
v -1.371079 -0.058022 -0.004553
v -1.371079 -0.058028 0.130447
v -1.371079 -0.129068 0.130445
v -1.371079 0.013021 -0.139551
v -1.371079 0.013017 -0.004551
v -1.371079 0.084057 -0.004548
v -1.371079 0.084061 -0.139548
v -1.371079 0.013012 0.130449
v -1.371079 0.084052 0.130452
v -1.336920 -0.307568 -0.004561
v -1.336920 0.081336 -0.004548
v -1.336920 -0.307565 -0.117738
v -1.336920 0.081339 -0.117725
v -1.336920 -0.307572 0.108617
v -1.336920 0.081332 0.108630
v 0.986076 0.092247 -0.093359
v 0.824962 -0.417125 -0.004565
v 0.824962 -0.417122 -0.093376
v 0.986076 0.092244 -0.004548
v 0.531725 0.098530 0.084263
v 0.986076 0.092241 0.084263
v 0.986076 0.092244 -0.004548
v 0.824962 -0.417125 -0.004565
v 0.986076 0.092241 0.084263
v 0.824962 -0.417128 0.084246
v 0.746710 -0.493664 -0.004568
v 0.746710 -0.493667 0.084243
v 0.791525 -0.038903 -0.080863
v 0.680944 -0.388509 -0.080875
v 0.680944 -0.388508 -0.093375
v 0.791525 -0.038902 -0.093363
v 0.680944 -0.388514 0.071747
v 0.791525 -0.038908 0.071759
v 0.680944 -0.388514 0.084247
v 0.791525 -0.038908 0.084259
v 0.695402 -0.058262 -0.080864
v 0.590944 -0.388509 -0.080875
v 0.590944 -0.388508 -0.093375
v 0.695402 -0.058261 -0.093364
v 0.590944 -0.388514 0.071747
v 0.695402 -0.058267 0.071758
v 0.590944 -0.388514 0.084247
v 0.695402 -0.058267 0.084258
v -1.140083 -0.128486 -0.105233
v -0.970799 0.137142 -0.105224
v -1.140083 -0.128486 -0.117733
v -0.924581 0.209715 -0.117722
v -0.970799 0.137135 0.096132
v -1.140083 -0.128493 0.096123
v -1.140083 -0.128493 0.108623
v -0.924581 0.209708 0.108634
v 0.824962 -0.417122 -0.093376
v 0.746710 -0.493664 -0.004568
v 0.746710 -0.493661 -0.093379
v 0.824962 -0.417125 -0.004565
v 0.410840 -0.493661 -0.093379
v 0.410840 -0.493664 -0.004568
v 0.746710 -0.493667 0.084243
v 0.410840 -0.493667 0.084243
v 0.746710 -0.493664 -0.004568
v 0.410840 -0.493664 -0.004568
v -0.826425 0.106715 -0.105225
v -0.709291 0.277593 -0.117720
v -0.826425 0.106715 -0.117725
v -0.709291 0.277593 -0.105220
v -0.826425 0.106708 0.108631
v -0.709291 0.277586 0.108636
v -0.826425 0.106708 0.096131
v -0.709291 0.277586 0.096136
v 0.372633 0.006336 -0.004551
v 0.269993 -0.284556 -0.004561
v 0.269993 -0.284552 -0.139561
v 0.372633 0.006340 -0.139551
v 0.269993 -0.284561 0.130439
v 0.372633 0.006331 0.130449
v 1.190512 0.601198 -0.006103
v 1.187368 0.601198 -0.002959
v 1.190512 0.601198 -0.002959
v 1.187368 0.601198 -0.006103
v -0.005007 -0.396176 -0.139564
v 0.269993 -0.284552 -0.139561
v 0.269993 -0.284556 -0.004561
v -0.005007 -0.396176 -0.139564
v 0.269993 -0.284556 -0.004561
v -0.005007 -0.396180 -0.004564
v 0.269993 -0.284556 -0.004561
v -0.005007 -0.396185 0.130436
v -0.005007 -0.396180 -0.004564
v 0.269993 -0.284561 0.130439
v 1.212940 0.632404 0.046683
v 1.164940 0.628161 0.036440
v 1.164940 0.632404 0.046683
v 1.212940 0.628161 0.036440
v 1.212940 0.563193 -0.004532
v 1.164940 0.572331 -0.026594
v 1.164940 0.563193 -0.004532
v 1.212940 0.572331 -0.026594
v 1.164940 0.577252 -0.038473
v 1.212940 0.577252 -0.038473
v 1.212940 0.572330 0.017530
v 1.164940 0.572330 0.017530
v 1.212940 0.577249 0.029409
v 1.164940 0.577249 0.029409
v 1.212940 0.632407 -0.055743
v 1.164940 0.632407 -0.055743
v 1.212940 0.628164 -0.045501
v 1.164940 0.628164 -0.045501
v -0.609291 0.277593 -0.117720
v -0.726425 0.106715 -0.117725
v -0.726425 0.106715 -0.105225
v -0.609291 0.277593 -0.105220
v -0.726425 0.106708 0.108631
v -0.609291 0.277586 0.108636
v -0.726425 0.106708 0.096131
v -0.609291 0.277586 0.096136
v 1.333157 0.556210 0.157968
v 1.333157 0.556221 -0.167032
v 1.111976 0.556210 0.157968
v 1.111976 0.556221 -0.167032
v 0.279270 -0.030793 -0.127052
v 0.197395 -0.232271 -0.127059
v 0.197395 -0.232271 -0.139559
v 0.279270 -0.030793 -0.139552
v 0.197395 -0.232280 0.117941
v 0.279270 -0.030802 0.117948
v 0.197395 -0.232280 0.130441
v 0.279270 -0.030802 0.130448
v 1.132809 0.506208 0.207966
v 1.353990 0.506208 0.207966
v 1.333157 0.556210 0.157968
v 1.111976 0.556210 0.157968
v 1.333157 0.556221 -0.167032
v 1.132809 0.506223 -0.217034
v 1.111976 0.556221 -0.167032
v 1.353990 0.506223 -0.217034
v -0.173014 -0.442143 -0.139566
v -0.071767 -0.508676 -0.139568
v -0.071767 -0.508680 -0.004568
v -0.173014 -0.442147 -0.004566
v -0.173014 -0.442147 -0.004566
v -0.071767 -0.508680 -0.004568
v -0.173014 -0.442152 0.130434
v -0.071767 -0.508685 0.130432
v -0.068087 -0.338464 -0.139562
v 0.197395 -0.232271 -0.139559
v 0.197395 -0.232271 -0.127059
v -0.068087 -0.338464 -0.127062
v 0.197395 -0.232280 0.117941
v -0.068087 -0.338473 0.130438
v -0.068087 -0.338473 0.117938
v 0.197395 -0.232280 0.130441
v 0.273450 0.506336 -0.004534
v 0.107759 0.506340 -0.134534
v 0.107759 0.506336 -0.004534
v 0.369096 0.506340 -0.134534
v 0.369096 0.506336 -0.004534
v 0.107759 0.506331 0.125466
v 0.273450 0.506336 -0.004534
v 0.107759 0.506336 -0.004534
v 0.369096 0.506331 0.125466
v 0.369096 0.506336 -0.004534
v -0.527345 0.245834 -0.117721
v -0.626425 0.106715 -0.117725
v -0.626425 0.106715 -0.105225
v -0.527345 0.245834 -0.105221
v -0.527345 0.245827 0.108635
v -0.626425 0.106708 0.096131
v -0.626425 0.106708 0.108631
v -0.527345 0.245827 0.096135
v 0.121301 0.473841 -0.167035
v 0.369096 0.506340 -0.134534
v 0.382637 0.473841 -0.167035
v 0.107759 0.506340 -0.134534
v 0.369096 0.506331 0.125466
v 0.121301 0.473830 0.157965
v 0.382637 0.473830 0.157965
v 0.107759 0.506331 0.125466
v -0.071767 -0.508680 -0.004568
v -0.071767 -0.508676 -0.139568
v -0.005007 -0.396176 -0.139564
v -0.005007 -0.396180 -0.004564
v -0.071767 -0.508680 -0.004568
v -0.005007 -0.396185 0.130436
v -0.071767 -0.508685 0.130432
v -0.005007 -0.396180 -0.004564
v -0.222461 0.426339 -0.117715
v -0.966919 0.426339 -0.117715
v -0.222461 0.426336 -0.004537
v -0.966919 0.426336 -0.004537
v -1.036920 0.326339 -0.117718
v -1.036919 0.326336 -0.004540
v -1.336919 0.326336 -0.004540
v -1.336920 0.326339 -0.117718
v -0.966919 0.426332 0.108640
v -0.222461 0.426332 0.108640
v -0.222461 0.426336 -0.004537
v -0.966919 0.426336 -0.004537
v -1.036920 0.326332 0.108637
v -1.036919 0.326336 -0.004540
v -1.336919 0.326336 -0.004540
v -1.336920 0.326332 0.108637
v 0.695402 -0.058261 -0.093364
v 0.752601 -0.046741 -0.093364
v 0.752601 -0.046742 -0.080864
v 0.695402 -0.058262 -0.080864
v 0.791525 -0.038902 -0.093363
v 0.848724 -0.027383 -0.093363
v 0.848724 -0.027384 -0.080863
v 0.791525 -0.038903 -0.080863
v 0.752601 -0.046747 0.071758
v 0.695402 -0.058267 0.084258
v 0.695402 -0.058267 0.071758
v 0.752601 -0.046747 0.084258
v 0.848724 -0.027389 0.071759
v 0.791525 -0.038908 0.084259
v 0.791525 -0.038908 0.071759
v 0.848724 -0.027389 0.084259
v -0.068087 -0.338464 -0.127062
v -0.122940 -0.430616 -0.127066
v -0.122940 -0.430616 -0.139566
v -0.068087 -0.338464 -0.139562
v -0.122940 -0.430625 0.117934
v -0.068087 -0.338473 0.117938
v -0.122940 -0.430625 0.130434
v -0.068087 -0.338473 0.130438
v 1.489363 0.164128 0.207954
v 1.307301 0.072988 0.157951
v 1.510311 0.113873 0.157953
v 1.286354 0.123243 0.207953
v 1.307301 0.072999 -0.167049
v 1.510311 0.113884 -0.167047
v 1.489363 0.164143 -0.217046
v 1.286354 0.123258 -0.217047
v -0.596906 -0.182281 -0.128859
v -0.256906 -0.182281 -0.128859
v -0.288384 -0.235169 -0.004559
v -0.628384 -0.235169 -0.004559
v -0.256906 -0.182290 0.119745
v -0.596906 -0.182290 0.119745
v -0.288384 -0.235169 -0.004559
v -0.628384 -0.235169 -0.004559
v -1.371079 0.084057 -0.004548
v -1.341971 0.084061 -0.126678
v -1.371079 0.084061 -0.139548
v -1.341970 0.084061 -0.139548
v -1.341971 0.084057 -0.004548
v -1.223791 0.084061 -0.126678
v -1.341971 0.084052 0.117582
v -1.223791 0.084061 -0.139548
v -1.161252 0.194300 -0.139545
v -1.161252 0.194300 -0.126675
v -1.371079 0.084052 0.130452
v -1.341970 0.084052 0.130452
v -1.223791 0.084052 0.117582
v -1.223791 0.084052 0.130452
v -1.161252 0.194291 0.130455
v -1.161252 0.194291 0.117585
v 1.164940 0.611190 0.055469
v 1.212940 0.611190 0.055469
v 1.212940 0.632404 0.046683
v 1.164940 0.632404 0.046683
v 0.574013 0.009808 -0.167051
v 0.346367 -0.068028 -0.139553
v 0.332756 -0.035371 -0.167052
v 0.587624 -0.022849 -0.139552
v 0.587624 -0.022853 -0.004552
v 0.346367 -0.068032 -0.004553
v 0.574013 0.009797 0.157949
v 0.346367 -0.068037 0.130447
v 0.587624 -0.022858 0.130448
v 0.332756 -0.035382 0.157948
v 0.587624 -0.022853 -0.004552
v 0.346367 -0.068032 -0.004553
v -0.405746 0.138867 -0.128848
v -0.405746 0.138863 -0.004546
v -0.306060 0.306340 -0.128843
v -0.306060 0.306336 -0.004541
v -0.468246 0.033863 -0.004550
v -0.468246 0.033867 -0.128852
v -0.596906 -0.182281 -0.128859
v -0.628384 -0.235169 -0.004559
v -0.306060 0.306331 0.119761
v -0.405746 0.138863 -0.004546
v -0.405746 0.138858 0.119756
v -0.306060 0.306336 -0.004541
v -0.468246 0.033863 -0.004550
v -0.468246 0.033858 0.119752
v -0.596906 -0.182290 0.119745
v -0.628384 -0.235169 -0.004559
v -0.306060 0.306336 -0.004541
v 0.033940 0.306336 -0.004541
v 0.033940 0.306340 -0.128843
v -0.306060 0.306340 -0.128843
v 0.033940 0.306331 0.119761
v -0.306060 0.306336 -0.004541
v -0.306060 0.306331 0.119761
v 0.033940 0.306336 -0.004541
v 1.353990 0.506223 -0.217034
v 1.489363 0.164143 -0.217046
v 1.286354 0.123258 -0.217047
v 1.132809 0.506223 -0.217034
v 1.353990 0.506208 0.207966
v 1.286354 0.123243 0.207953
v 1.489363 0.164128 0.207954
v 1.132809 0.506208 0.207966
v 0.325471 0.127832 -0.167047
v 0.526808 0.127832 -0.167047
v 0.295500 0.055763 -0.167049
v 0.556837 0.055763 -0.167049
v 0.526808 0.127832 -0.167047
v 0.325471 0.127832 -0.167047
v 0.444062 0.326422 -0.167040
v 0.242725 0.326422 -0.167040
v 0.295500 0.055763 -0.167049
v 0.556837 0.055763 -0.167049
v 0.332756 -0.035371 -0.167052
v 0.574013 0.009808 -0.167051
v 0.154329 0.394573 -0.167038
v 0.415666 0.394573 -0.167038
v 0.242725 0.326422 -0.167040
v 0.444062 0.326422 -0.167040
v 0.121301 0.473841 -0.167035
v 0.382637 0.473841 -0.167035
v 0.154329 0.394573 -0.167038
v 0.415666 0.394573 -0.167038
v 0.295500 0.055752 0.157951
v 0.556837 0.055752 0.157951
v 0.526808 0.127821 0.157953
v 0.325471 0.127821 0.157953
v 0.526808 0.127821 0.157953
v 0.444062 0.326411 0.157960
v 0.325471 0.127821 0.157953
v 0.242725 0.326411 0.157960
v 0.556837 0.055752 0.157951
v 0.332756 -0.035382 0.157948
v 0.574013 0.009797 0.157949
v 0.295500 0.055752 0.157951
v 0.242725 0.326411 0.157960
v 0.444062 0.326411 0.157960
v 0.415666 0.394562 0.157962
v 0.154329 0.394562 0.157962
v 0.154329 0.394562 0.157962
v 0.415666 0.394562 0.157962
v 0.382637 0.473830 0.157965
v 0.121301 0.473830 0.157965
v 1.212940 0.577249 0.029409
v 1.164940 0.577249 0.029409
v 1.212940 0.611190 0.043469
v 1.164940 0.611190 0.043469
v -0.093560 -0.308660 -0.139561
v -0.122940 -0.430616 -0.139566
v -0.173014 -0.442143 -0.139566
v -0.068087 -0.338464 -0.139562
v -0.173014 -0.442143 -0.139566
v -0.083862 -0.456296 -0.139566
v -0.071767 -0.508676 -0.139568
v -0.122940 -0.430616 -0.139566
v 0.168940 -0.203660 -0.139558
v 0.254278 0.006340 -0.139551
v 0.279270 -0.030793 -0.139552
v 0.197395 -0.232271 -0.139559
v 0.168940 -0.203660 -0.139558
v -0.068087 -0.338464 -0.139562
v -0.093560 -0.308660 -0.139561
v 0.197395 -0.232271 -0.139559
v 0.320154 -0.030793 -0.139552
v 0.279270 -0.030793 -0.139552
v 0.254278 0.006340 -0.139551
v 0.372633 0.006340 -0.139551
v -0.083862 -0.456296 -0.139566
v -0.030559 -0.366472 -0.139563
v -0.005007 -0.396176 -0.139564
v -0.071767 -0.508676 -0.139568
v -0.005007 -0.396176 -0.139564
v 0.240538 -0.256432 -0.139560
v 0.269993 -0.284552 -0.139561
v -0.030559 -0.366472 -0.139563
v 0.269993 -0.284552 -0.139561
v 0.320154 -0.030793 -0.139552
v 0.372633 0.006340 -0.139551
v 0.240538 -0.256432 -0.139560
v -0.093560 -0.308669 0.130439
v -0.122940 -0.430625 0.130434
v -0.068087 -0.338473 0.130438
v -0.173014 -0.442152 0.130434
v -0.173014 -0.442152 0.130434
v -0.083862 -0.456305 0.130434
v -0.122940 -0.430625 0.130434
v -0.071767 -0.508685 0.130432
v 0.254278 0.006331 0.130449
v 0.168940 -0.203669 0.130442
v 0.279270 -0.030802 0.130448
v 0.197395 -0.232280 0.130441
v 0.168940 -0.203669 0.130442
v -0.068087 -0.338473 0.130438
v 0.197395 -0.232280 0.130441
v -0.093560 -0.308669 0.130439
v 0.372633 0.006331 0.130449
v 0.254278 0.006331 0.130449
v 0.320154 -0.030802 0.130448
v 0.279270 -0.030802 0.130448
v -0.071767 -0.508685 0.130432
v -0.005007 -0.396185 0.130436
v -0.083862 -0.456305 0.130434
v -0.030559 -0.366481 0.130437
v 0.240538 -0.256441 0.130440
v -0.005007 -0.396185 0.130436
v 0.269993 -0.284561 0.130439
v -0.030559 -0.366481 0.130437
v 0.269993 -0.284561 0.130439
v 0.320154 -0.030802 0.130448
v 0.240538 -0.256441 0.130440
v 0.372633 0.006331 0.130449
v -1.341970 0.226141 -0.139543
v -1.111079 0.288740 -0.139541
v -1.111079 0.226141 -0.139543
v -1.411079 0.288740 -0.139541
v -1.161079 0.351340 -0.139539
v -1.371079 0.351340 -0.139539
v -1.371079 0.226141 -0.139543
v -1.371079 0.194300 -0.139545
v -1.341970 0.194300 -0.139545
v -1.161252 0.194300 -0.139545
v -1.111079 0.100942 -0.139548
v -1.223791 0.084061 -0.139548
v -1.167079 0.008942 -0.139551
v -1.264092 0.013021 -0.139551
v -1.211336 -0.063767 -0.139553
v -1.341970 0.084061 -0.139548
v -1.304393 -0.058019 -0.139553
v -1.341970 0.013021 -0.139551
v -1.371079 0.013021 -0.139551
v -1.371079 0.084061 -0.139548
v -1.251079 -0.129058 -0.139555
v -1.341970 -0.129058 -0.139555
v -1.341970 -0.058019 -0.139553
v -1.371079 -0.058019 -0.139553
v -1.371079 -0.129059 -0.139555
v -1.341970 0.226132 0.130457
v -1.111079 0.226132 0.130457
v -1.111079 0.288731 0.130459
v -1.161252 0.194291 0.130455
v -1.111079 0.100933 0.130452
v -1.223791 0.084052 0.130452
v -1.341970 0.194291 0.130455
v -1.167079 0.008933 0.130449
v -1.371079 0.194291 0.130455
v -1.371079 0.226132 0.130457
v -1.411079 0.288731 0.130459
v -1.161079 0.351331 0.130461
v -1.371079 0.351331 0.130461
v -1.264092 0.013012 0.130449
v -1.211336 -0.063776 0.130447
v -1.341970 0.084052 0.130452
v -1.304393 -0.058028 0.130447
v -1.341970 0.013012 0.130449
v -1.371079 0.013012 0.130449
v -1.371079 0.084052 0.130452
v -1.251079 -0.129067 0.130445
v -1.341970 -0.129067 0.130445
v -1.341970 -0.058028 0.130447
v -1.371079 -0.058028 0.130447
v -1.371079 -0.129068 0.130445
v -0.306060 0.306340 -0.128843
v -0.065746 0.138867 -0.128848
v -0.405746 0.138867 -0.128848
v 0.033940 0.306340 -0.128843
v -0.150469 0.061293 -0.128851
v -0.413373 0.061293 -0.128851
v -0.128246 0.033867 -0.128852
v -0.468246 0.033867 -0.128852
v -0.173536 0.022541 -0.128852
v -0.436440 0.022541 -0.128852
v -0.186511 0.000743 -0.128853
v -0.209577 -0.038009 -0.128854
v -0.449415 0.000743 -0.128853
v -0.256906 -0.182281 -0.128859
v -0.472481 -0.038009 -0.128854
v -0.596906 -0.182281 -0.128859
v -0.065746 0.138858 0.119756
v -0.306060 0.306331 0.119761
v -0.405746 0.138858 0.119756
v 0.033940 0.306331 0.119761
v -0.150469 0.061284 0.119753
v -0.413373 0.061284 0.119753
v -0.128246 0.033858 0.119752
v -0.468246 0.033858 0.119752
v -0.173536 0.022533 0.119752
v -0.436440 0.022533 0.119752
v -0.186511 0.000734 0.119751
v -0.209577 -0.038017 0.119750
v -0.449415 0.000734 0.119751
v -0.256906 -0.182290 0.119745
v -0.472481 -0.038017 0.119750
v -0.596906 -0.182290 0.119745
v 0.279270 -0.030793 -0.139552
v 0.320154 -0.030793 -0.139552
v 0.320154 -0.030793 -0.127052
v 0.279270 -0.030793 -0.127052
v 0.320154 -0.030802 0.117948
v 0.279270 -0.030802 0.130448
v 0.279270 -0.030802 0.117948
v 0.320154 -0.030802 0.130448
v -0.726425 0.106715 -0.117725
v -0.609291 0.277593 -0.117720
v -0.669570 0.106715 -0.117725
v -0.570490 0.245834 -0.117721
v -0.527345 0.245834 -0.117721
v -0.946920 0.081339 -0.117726
v -0.222461 0.426339 -0.117715
v -0.342461 0.081339 -0.117725
v -0.626425 0.106715 -0.117725
v -0.966919 0.426339 -0.117715
v -0.769570 0.106715 -0.117725
v -0.652437 0.277593 -0.117720
v -0.709291 0.277593 -0.117720
v -0.826425 0.106715 -0.117725
v -0.709291 0.277593 -0.117720
v -0.869570 0.106715 -0.117725
v -0.752437 0.277593 -0.117720
v -0.924581 0.209715 -0.117722
v -0.996234 0.209715 -0.117722
v -1.036920 0.326339 -0.117718
v -0.996234 0.209715 -0.117722
v -1.336920 0.326339 -0.117718
v -1.336920 0.081339 -0.117725
v -1.211736 -0.128486 -0.117733
v -1.336920 -0.307565 -0.117738
v -1.236920 -0.348661 -0.117740
v -1.295824 -0.348661 -0.117740
v -1.140083 -0.128486 -0.117733
v -0.924581 0.209715 -0.117722
v -0.609291 0.277586 0.108636
v -0.726425 0.106708 0.108631
v -0.669570 0.106708 0.108631
v -0.570490 0.245827 0.108635
v -0.527345 0.245827 0.108635
v -0.946920 0.081332 0.108630
v -0.222461 0.426332 0.108640
v -0.342461 0.081332 0.108630
v -0.626425 0.106708 0.108631
v -0.966919 0.426332 0.108640
v -0.769570 0.106708 0.108631
v -0.652437 0.277586 0.108636
v -0.709291 0.277586 0.108636
v -0.826425 0.106708 0.108631
v -0.709291 0.277586 0.108636
v -0.869570 0.106708 0.108631
v -0.752437 0.277586 0.108636
v -0.924581 0.209708 0.108634
v -0.996234 0.209708 0.108634
v -1.036920 0.326332 0.108637
v -0.924581 0.209708 0.108634
v -1.140083 -0.128493 0.108623
v -1.236920 -0.348668 0.108615
v -1.211736 -0.128493 0.108623
v -1.336920 -0.307572 0.108617
v -1.295824 -0.348668 0.108615
v -1.336920 0.081332 0.108630
v -0.996234 0.209708 0.108634
v -1.336920 0.326332 0.108637
v -1.042452 0.137142 -0.105224
v -0.996234 0.209715 -0.117722
v -0.970799 0.137142 -0.105224
v -0.970799 0.137142 -0.105224
v -0.996234 0.209715 -0.117722
v -0.924581 0.209715 -0.117722
v -0.996234 0.209708 0.108634
v -1.042452 0.137135 0.096132
v -0.970799 0.137135 0.096132
v -0.970799 0.137135 0.096132
v -0.924581 0.209708 0.108634
v -0.996234 0.209708 0.108634
v 0.986076 0.092247 -0.093359
v 0.824962 -0.417122 -0.093376
v 0.848724 -0.027383 -0.093363
v 0.734500 -0.388508 -0.093375
v 0.791525 -0.038902 -0.093363
v 0.746710 -0.493661 -0.093379
v 0.531725 0.098536 -0.093359
v 0.680944 -0.388508 -0.093375
v 0.752601 -0.046741 -0.093364
v 0.644500 -0.388508 -0.093375
v 0.695402 -0.058261 -0.093364
v 0.590944 -0.388508 -0.093375
v 0.356461 -0.417902 -0.093376
v 0.410840 -0.493661 -0.093379
v 0.824962 -0.417128 0.084246
v 0.848724 -0.027389 0.084259
v 0.734500 -0.388514 0.084247
v 0.986076 0.092241 0.084263
v 0.791525 -0.038908 0.084259
v 0.746710 -0.493667 0.084243
v 0.531725 0.098530 0.084263
v 0.680944 -0.388514 0.084247
v 0.752601 -0.046747 0.084258
v 0.695402 -0.058267 0.084258
v 0.644500 -0.388514 0.084247
v 0.356461 -0.417908 0.084246
v 0.590944 -0.388514 0.084247
v 0.410840 -0.493667 0.084243
v 1.187368 0.601198 -0.002959
v 1.181078 0.563250 0.003330
v 1.196802 0.563250 0.003330
v 1.190512 0.601198 -0.002959
v 1.190512 0.601198 -0.006103
v 1.196802 0.563251 -0.012394
v 1.181078 0.563251 -0.012394
v 1.187368 0.601198 -0.006103
v -0.449415 0.000743 -0.128853
v -0.186511 0.000743 -0.128853
v -0.186511 0.000742 -0.116353
v -0.449415 0.000742 -0.116353
v -0.186511 0.000735 0.107251
v -0.449415 0.000734 0.119751
v -0.449415 0.000735 0.107251
v -0.186511 0.000734 0.119751
v -1.371079 -0.058022 -0.004553
v -1.341970 -0.058019 -0.126683
v -1.371079 -0.058019 -0.139553
v -1.341970 -0.058019 -0.139553
v -1.341971 -0.058022 -0.004553
v -1.304393 -0.058019 -0.126683
v -1.341970 -0.058028 0.117577
v -1.304393 -0.058019 -0.139553
v -1.264092 0.013021 -0.139551
v -1.264092 0.013021 -0.126681
v -1.371079 -0.058028 0.130447
v -1.341970 -0.058028 0.130447
v -1.304393 -0.058028 0.117577
v -1.304393 -0.058028 0.130447
v -1.264092 0.013012 0.130449
v -1.264092 0.013012 0.117579
v -1.341970 0.013021 -0.126681
v -1.371079 0.013017 -0.004551
v -1.371079 0.013021 -0.139551
v -1.341970 0.013021 -0.139551
v -1.264092 0.013021 -0.139551
v -1.264092 0.013021 -0.126681
v -1.341971 0.013017 -0.004551
v -1.341970 0.013012 0.117579
v -1.371079 0.013012 0.130449
v -1.341970 0.013012 0.130449
v -1.264092 0.013012 0.130449
v -1.264092 0.013012 0.117579
v -0.091060 0.096336 -0.004548
v -0.065746 0.138867 -0.128848
v 0.033940 0.306336 -0.004541
v 0.033940 0.306340 -0.128843
v -0.128246 0.033867 -0.128852
v -0.128246 0.033863 -0.004550
v -0.256906 -0.182281 -0.128859
v -0.288384 -0.235169 -0.004559
v -0.091060 0.096336 -0.004548
v 0.033940 0.306336 -0.004541
v -0.065746 0.138858 0.119756
v 0.033940 0.306331 0.119761
v -0.128246 0.033858 0.119752
v -0.128246 0.033863 -0.004550
v -0.256906 -0.182290 0.119745
v -0.288384 -0.235169 -0.004559
v 1.212940 0.611193 -0.052531
v 1.164940 0.628164 -0.045501
v 1.164940 0.611193 -0.052531
v 1.212940 0.628164 -0.045501
v 1.212940 0.577252 -0.038473
v 1.164940 0.577252 -0.038473
v 1.212940 0.409978 0.023040
v 1.212940 0.562614 0.023045
v 1.164940 0.409978 0.023040
v 1.164940 0.409978 0.023040
v 1.212940 0.562614 0.023045
v 1.164940 0.562614 0.023045
v 0.986076 0.092247 -0.093359
v 0.531725 0.098536 -0.093359
v 0.986076 0.092244 -0.004548
v 0.531725 0.098533 -0.004548
v 0.531725 0.098530 0.084263
v 0.986076 0.092244 -0.004548
v 0.531725 0.098533 -0.004548
v -0.150469 0.061292 -0.116351
v -0.413373 0.061293 -0.128851
v -0.150469 0.061293 -0.128851
v -0.413373 0.061292 -0.116351
v -0.150469 0.061285 0.107253
v -0.413373 0.061284 0.119753
v -0.413373 0.061285 0.107253
v -0.150469 0.061284 0.119753
v -0.726425 0.106715 -0.105225
v -0.769570 0.106715 -0.117725
v -0.769570 0.106715 -0.105225
v -0.726425 0.106715 -0.117725
v -0.826425 0.106715 -0.105225
v -0.869570 0.106715 -0.117725
v -0.869570 0.106715 -0.105225
v -0.826425 0.106715 -0.117725
v -0.626425 0.106715 -0.105225
v -0.669570 0.106715 -0.117725
v -0.669570 0.106715 -0.105225
v -0.626425 0.106715 -0.117725
v -0.726425 0.106708 0.096131
v -0.769570 0.106708 0.108631
v -0.726425 0.106708 0.108631
v -0.769570 0.106708 0.096131
v -0.869570 0.106708 0.108631
v -0.826425 0.106708 0.108631
v -0.826425 0.106708 0.096131
v -0.869570 0.106708 0.096131
v -0.626425 0.106708 0.096131
v -0.669570 0.106708 0.108631
v -0.626425 0.106708 0.108631
v -0.669570 0.106708 0.096131
v 1.164940 0.409980 -0.032114
v 1.212940 0.562616 -0.032109
v 1.212940 0.409980 -0.032114
v 1.164940 0.562616 -0.032109
v 1.164940 0.568767 -0.046958
v 1.212940 0.562616 -0.032109
v -0.342461 0.081336 -0.004548
v -0.946920 0.081336 -0.004548
v -0.342461 0.081339 -0.117725
v -0.946920 0.081339 -0.117726
v -1.236920 -0.348664 -0.004563
v -1.336920 0.081336 -0.004548
v -1.336920 -0.307568 -0.004561
v -0.946920 0.081336 -0.004548
v -1.295824 -0.348664 -0.004563
v 1.164940 0.568767 -0.046958
v 1.164940 0.611194 -0.064530
v 1.212940 0.568767 -0.046958
v 1.212940 0.611194 -0.064530
v 1.164940 0.632407 -0.055743
v 1.212940 0.632407 -0.055743
v -0.209577 -0.038010 -0.116354
v -0.186511 0.000743 -0.128853
v -0.209577 -0.038009 -0.128854
v -0.186511 0.000742 -0.116353
v -0.173536 0.022540 -0.116352
v -0.150469 0.061293 -0.128851
v -0.173536 0.022541 -0.128852
v -0.150469 0.061292 -0.116351
v -0.209577 -0.038017 0.119750
v -0.186511 0.000734 0.119751
v -0.209577 -0.038016 0.107250
v -0.186511 0.000735 0.107251
v -0.173536 0.022533 0.119752
v -0.150469 0.061284 0.119753
v -0.173536 0.022534 0.107252
v -0.150469 0.061285 0.107253
v -0.436440 0.022540 -0.116352
v -0.173536 0.022540 -0.116352
v -0.173536 0.022541 -0.128852
v -0.436440 0.022541 -0.128852
v -0.173536 0.022534 0.107252
v -0.436440 0.022534 0.107252
v -0.173536 0.022533 0.119752
v -0.436440 0.022533 0.119752
v -1.341971 0.194300 -0.126675
v -1.371079 0.194296 -0.004545
v -1.371079 0.194300 -0.139545
v -1.341970 0.194300 -0.139545
v -1.161252 0.194300 -0.126675
v -1.161252 0.194300 -0.139545
v -1.341971 0.194296 -0.004545
v -1.341971 0.194291 0.117585
v -1.371079 0.194291 0.130455
v -1.341970 0.194291 0.130455
v -1.161252 0.194291 0.117585
v -1.161252 0.194291 0.130455
v -0.472481 -0.038010 -0.116354
v -0.209577 -0.038010 -0.116354
v -0.209577 -0.038009 -0.128854
v -0.472481 -0.038009 -0.128854
v -0.209577 -0.038016 0.107250
v -0.472481 -0.038016 0.107250
v -0.209577 -0.038017 0.119750
v -0.472481 -0.038017 0.119750
v 0.356461 -0.417905 -0.004565
v 0.410840 -0.493661 -0.093379
v 0.410840 -0.493664 -0.004568
v 0.356461 -0.417902 -0.093376
v 0.410840 -0.493664 -0.004568
v 0.410840 -0.493667 0.084243
v 0.356461 -0.417905 -0.004565
v 0.356461 -0.417908 0.084246
v -0.946920 0.081336 -0.004548
v -0.342461 0.081336 -0.004548
v -0.342461 0.081332 0.108630
v -0.946920 0.081332 0.108630
v -1.236920 -0.348664 -0.004563
v -1.236920 -0.348668 0.108615
v -1.295824 -0.348664 -0.004563
v -1.295824 -0.348668 0.108615
v -1.336920 -0.307568 -0.004561
v -1.336920 -0.307572 0.108617
v 1.164940 0.568764 0.037894
v 1.212940 0.568764 0.037894
v 1.212940 0.611190 0.055469
v 1.164940 0.611190 0.055469
v -0.342461 0.081339 -0.117725
v -0.222461 0.426336 -0.004537
v -0.342461 0.081336 -0.004548
v -0.222461 0.426339 -0.117715
v -0.342461 0.081336 -0.004548
v -0.222461 0.426332 0.108640
v -0.342461 0.081332 0.108630
v -0.222461 0.426336 -0.004537
v -0.413373 0.061292 -0.116351
v -0.436440 0.022540 -0.116352
v -0.436440 0.022541 -0.128852
v -0.413373 0.061293 -0.128851
v -0.449415 0.000742 -0.116353
v -0.472481 -0.038010 -0.116354
v -0.472481 -0.038009 -0.128854
v -0.449415 0.000743 -0.128853
v -0.436440 0.022534 0.107252
v -0.413373 0.061285 0.107253
v -0.436440 0.022533 0.119752
v -0.413373 0.061284 0.119753
v -0.472481 -0.038016 0.107250
v -0.449415 0.000735 0.107251
v -0.472481 -0.038017 0.119750
v -0.449415 0.000734 0.119751
v -1.140083 -0.128486 -0.105233
v -1.211736 -0.128486 -0.117733
v -1.211736 -0.128486 -0.105233
v -1.140083 -0.128486 -0.117733
v -1.211736 -0.128493 0.108623
v -1.140083 -0.128493 0.108623
v -1.140083 -0.128493 0.096123
v -1.211736 -0.128493 0.096123
v 1.164940 0.628161 0.036440
v 1.212940 0.628161 0.036440
v 1.164940 0.611190 0.043469
v 1.212940 0.611190 0.043469
v 0.168940 -0.203660 -0.139558
v 0.168940 -0.203664 -0.004558
v 0.254278 0.006340 -0.139551
v 0.254278 0.006336 -0.004551
v 0.372633 0.006340 -0.139551
v 0.372633 0.006336 -0.004551
v -0.093560 -0.308664 -0.004561
v -0.093560 -0.308660 -0.139561
v -0.173014 -0.442147 -0.004566
v -0.173014 -0.442143 -0.139566
v 0.168940 -0.203669 0.130442
v 0.254278 0.006331 0.130449
v 0.168940 -0.203664 -0.004558
v 0.254278 0.006336 -0.004551
v 0.372633 0.006331 0.130449
v 0.372633 0.006336 -0.004551
v -0.093560 -0.308664 -0.004561
v -0.093560 -0.308669 0.130439
v -0.173014 -0.442147 -0.004566
v -0.173014 -0.442152 0.130434
v -0.669570 0.106715 -0.117725
v -0.570490 0.245834 -0.105221
v -0.669570 0.106715 -0.105225
v -0.570490 0.245834 -0.117721
v -0.527345 0.245834 -0.117721
v -0.527345 0.245834 -0.105221
v -0.669570 0.106708 0.096131
v -0.570490 0.245827 0.096135
v -0.669570 0.106708 0.108631
v -0.570490 0.245827 0.108635
v -0.527345 0.245827 0.108635
v -0.527345 0.245827 0.096135
v -0.122940 -0.430616 -0.127066
v -0.083862 -0.456296 -0.127066
v -0.083862 -0.456296 -0.139566
v -0.122940 -0.430616 -0.139566
v -0.083862 -0.456305 0.117934
v -0.122940 -0.430625 0.117934
v -0.083862 -0.456305 0.130434
v -0.122940 -0.430625 0.130434
v 0.154329 0.394568 -0.004538
v 0.107759 0.506340 -0.134534
v 0.154329 0.394573 -0.167038
v 0.121301 0.473841 -0.167035
v 0.107759 0.506336 -0.004534
v 0.154329 0.394568 -0.004538
v 0.107759 0.506331 0.125466
v 0.107759 0.506336 -0.004534
v 0.154329 0.394562 0.157962
v 0.121301 0.473830 0.157965
v 1.164940 0.568767 -0.046958
v 1.212940 0.568767 -0.046958
v 1.212940 0.562616 -0.032109
v 1.164940 0.562614 0.023045
v 1.212940 0.562614 0.023045
v 1.212940 0.568764 0.037894
v 1.164940 0.568764 0.037894
v 0.332756 -0.035371 -0.167052
v 0.295500 0.055758 -0.004549
v 0.295500 0.055763 -0.167049
v 0.346367 -0.068028 -0.139553
v 0.346367 -0.068032 -0.004553
v 0.325471 0.127827 -0.004547
v 0.295500 0.055758 -0.004549
v 0.325471 0.127832 -0.167047
v 0.242725 0.326417 -0.004540
v 0.242725 0.326422 -0.167040
v 0.154329 0.394568 -0.004538
v 0.154329 0.394573 -0.167038
v 0.346367 -0.068037 0.130447
v 0.295500 0.055758 -0.004549
v 0.346367 -0.068032 -0.004553
v 0.332756 -0.035382 0.157948
v 0.295500 0.055752 0.157951
v 0.295500 0.055758 -0.004549
v 0.325471 0.127827 -0.004547
v 0.325471 0.127821 0.157953
v 0.242725 0.326417 -0.004540
v 0.242725 0.326411 0.157960
v 0.154329 0.394568 -0.004538
v 0.154329 0.394562 0.157962
v 0.590944 -0.388509 -0.080875
v 0.644500 -0.388509 -0.080875
v 0.644500 -0.388508 -0.093375
v 0.590944 -0.388508 -0.093375
v 0.680944 -0.388509 -0.080875
v 0.734500 -0.388509 -0.080875
v 0.734500 -0.388508 -0.093375
v 0.680944 -0.388508 -0.093375
v 0.644500 -0.388514 0.071747
v 0.590944 -0.388514 0.071747
v 0.644500 -0.388514 0.084247
v 0.590944 -0.388514 0.084247
v 0.734500 -0.388514 0.071747
v 0.680944 -0.388514 0.071747
v 0.734500 -0.388514 0.084247
v 0.680944 -0.388514 0.084247
v -0.769570 0.106715 -0.117725
v -0.652437 0.277593 -0.105220
v -0.769570 0.106715 -0.105225
v -0.652437 0.277593 -0.117720
v -0.609291 0.277593 -0.105220
v -0.609291 0.277593 -0.117720
v -0.769570 0.106708 0.096131
v -0.652437 0.277586 0.096136
v -0.769570 0.106708 0.108631
v -0.652437 0.277586 0.108636
v -0.609291 0.277586 0.096136
v -0.609291 0.277586 0.108636
v -0.030559 -0.366472 -0.127063
v 0.240538 -0.256432 -0.127060
v 0.240538 -0.256432 -0.139560
v -0.030559 -0.366472 -0.139563
v -0.083862 -0.456296 -0.127066
v -0.083862 -0.456296 -0.139566
v 0.240538 -0.256441 0.117940
v -0.030559 -0.366481 0.117937
v 0.240538 -0.256441 0.130440
v -0.030559 -0.366481 0.130437
v -0.083862 -0.456305 0.117934
v -0.083862 -0.456305 0.130434
v 0.240538 -0.256432 -0.127060
v 0.320154 -0.030793 -0.139552
v 0.240538 -0.256432 -0.139560
v 0.320154 -0.030793 -0.127052
v 0.240538 -0.256441 0.130440
v 0.320154 -0.030802 0.130448
v 0.240538 -0.256441 0.117940
v 0.320154 -0.030802 0.117948
v -1.236920 -0.348661 -0.117740
v -0.946920 0.081336 -0.004548
v -1.236920 -0.348664 -0.004563
v -0.946920 0.081339 -0.117726
v -1.236920 -0.348661 -0.117740
v -1.295824 -0.348664 -0.004563
v -1.295824 -0.348661 -0.117740
v -1.336920 -0.307568 -0.004561
v -1.336920 -0.307565 -0.117738
v -0.869570 0.106715 -0.117725
v -0.752437 0.277593 -0.105220
v -0.869570 0.106715 -0.105225
v -0.752437 0.277593 -0.117720
v -0.709291 0.277593 -0.117720
v -0.709291 0.277593 -0.105220
v -0.869570 0.106708 0.096131
v -0.752437 0.277586 0.096136
v -0.869570 0.106708 0.108631
v -0.752437 0.277586 0.108636
v -0.709291 0.277586 0.108636
v -0.709291 0.277586 0.096136
v 0.356461 -0.417905 -0.004565
v 0.531725 0.098533 -0.004548
v 0.356461 -0.417902 -0.093376
v 0.531725 0.098536 -0.093359
v 0.531725 0.098533 -0.004548
v 0.356461 -0.417905 -0.004565
v 0.356461 -0.417908 0.084246
v 0.531725 0.098530 0.084263
v -1.211736 -0.128486 -0.117733
v -1.042452 0.137142 -0.105224
v -1.211736 -0.128486 -0.105233
v -0.996234 0.209715 -0.117722
v -1.042452 0.137135 0.096132
v -1.211736 -0.128493 0.108623
v -1.211736 -0.128493 0.096123
v -0.996234 0.209708 0.108634
v 0.644500 -0.388509 -0.080875
v 0.752601 -0.046741 -0.093364
v 0.644500 -0.388508 -0.093375
v 0.752601 -0.046742 -0.080864
v 0.644500 -0.388514 0.084247
v 0.752601 -0.046747 0.084258
v 0.644500 -0.388514 0.071747
v 0.752601 -0.046747 0.071758
v 0.734500 -0.388509 -0.080875
v 0.848724 -0.027383 -0.093363
v 0.734500 -0.388508 -0.093375
v 0.848724 -0.027384 -0.080863
v 0.734500 -0.388514 0.084247
v 0.848724 -0.027389 0.084259
v 0.734500 -0.388514 0.071747
v 0.848724 -0.027389 0.071759
v -1.371079 0.351336 -0.004539
v -1.161079 0.351336 -0.004539
v -1.371079 0.351340 -0.139539
v -1.161079 0.351340 -0.139539
v -1.111079 0.288740 -0.139541
v -1.411079 0.288736 -0.004541
v -1.411079 0.288740 -0.139541
v -1.371079 0.351331 0.130461
v -1.161079 0.351331 0.130461
v -1.411079 0.288731 0.130459
v -1.111079 0.288731 0.130459
v -1.371079 0.226137 -0.004543
v -1.371079 0.226141 -0.139543
v -1.371079 0.226132 0.130457
v -1.371079 0.194300 -0.139545
v -1.371079 0.194291 0.130455
v -1.371079 0.194296 -0.004545
v -1.111079 0.288736 -0.004541
v -1.111079 0.226132 0.130457
v -1.111079 0.226141 -0.139543
v -1.111079 0.226137 -0.004543
v -1.111079 0.100933 0.130452
v -1.111079 0.100942 -0.139548
v -1.111079 0.100938 -0.004548
v -1.167079 0.008938 -0.004551
v -1.167079 0.008933 0.130449
v -1.167079 0.008942 -0.139551
v -1.211336 -0.063771 -0.004553
v -1.211336 -0.063776 0.130447
v -1.211336 -0.063767 -0.139553
v -1.251079 -0.129062 -0.004555
v -1.251079 -0.129067 0.130445
v -1.251079 -0.129058 -0.139555
v -1.341970 -0.129067 0.130445
v -1.341970 -0.129058 -0.139555
v -1.341970 -0.129062 -0.004555
v -1.371079 -0.129062 -0.004555
v -1.371079 -0.129068 0.130445
v -1.371079 -0.129059 -0.139555
v 1.187368 0.601198 -0.006103
v 1.181078 0.563251 -0.012394
v 1.181078 0.563250 0.003330
v 1.187368 0.601198 -0.002959
v 1.164940 0.409978 0.023040
v 1.164940 0.551192 -0.004533
v 1.164940 0.409979 -0.004537
v 1.164940 0.562614 0.023045
v 1.164940 0.409980 -0.032114
v 1.164940 0.562616 -0.032109
v 1.164940 0.563193 -0.004532
v 1.164940 0.562614 0.023045
v 1.164940 0.563193 -0.004532
v 1.164940 0.572330 0.017530
v 1.164940 0.562614 0.023045
v 1.164940 0.577249 0.029409
v 1.164940 0.568764 0.037894
v 1.164940 0.611193 -0.052531
v 1.164940 0.632407 -0.055743
v 1.164940 0.611194 -0.064530
v 1.164940 0.628164 -0.045501
v 1.164940 0.568767 -0.046958
v 1.164940 0.577252 -0.038473
v 1.164940 0.562616 -0.032109
v 1.164940 0.563193 -0.004532
v 1.164940 0.572331 -0.026594
v 1.164940 0.568764 0.037894
v 1.164940 0.611190 0.055469
v 1.164940 0.611190 0.043469
v 1.164940 0.577249 0.029409
v 1.164940 0.562616 -0.032109
v 1.164940 0.577252 -0.038473
v 1.164940 0.568767 -0.046958
v 1.164940 0.572331 -0.026594
v 1.164940 0.632404 0.046683
v 1.164940 0.611190 0.043469
v 1.164940 0.611190 0.055469
v 1.164940 0.628161 0.036440
v 1.286354 0.123258 -0.217047
v 1.286354 0.123243 0.207953
v 1.132809 0.506223 -0.217034
v 1.307301 0.072999 -0.167049
v 1.307301 0.072988 0.157951
v 1.132809 0.506208 0.207966
v 1.111976 0.556210 0.157968
v 1.111976 0.556221 -0.167032
vn 0.9267 0.3757 -0.0005
vn 0.9231 0.3846 -0.0004
vn 0.9231 0.3846 -0.0005
vn 0.9268 0.3757 -0.0005
vn 0.9231 0.3846 -0.0003
vn 0.9231 0.3846 -0.0000
vn 0.9865 0.1637 -0.0005
vn 0.9865 0.1637 -0.0006
vn 1.0000 0.0005 -0.0005
vn 1.0000 0.0004 -0.0004
vn -1.0000 0.0005 -0.0005
vn -0.9239 -0.3825 -0.0005
vn 0.8105 0.5858 -0.0005
vn 0.8516 -0.5242 -0.0005
vn 0.8105 0.5858 -0.0004
vn 0.0142 0.9999 -0.0005
vn 0.8105 0.5857 -0.0005
vn 0.8517 -0.5241 -0.0003
vn 0.8516 -0.5241 -0.0004
vn 0.3777 -0.9259 -0.0005
vn 0.9535 -0.3015 -0.0005
vn 0.9535 -0.3015 -0.0007
vn 0.9535 -0.3015 -0.0003
vn 0.9535 -0.3015 -0.0006
vn -0.4811 0.8767 -0.0000
vn -0.8433 0.5374 0.0017
vn -0.4811 0.8767 0.0005
vn -0.8433 0.5374 0.0018
vn -0.8433 0.5374 -0.0017
vn -0.4811 0.8767 -0.0005
vn 0.8515 -0.5243 -0.0005
vn 0.0005 -1.0000 -0.0005
vn -0.4664 0.8845 -0.0000
vn -0.8250 0.5651 -0.0005
vn -0.4664 0.8845 -0.0004
vn -0.8250 0.5652 -0.0004
vn 0.9431 -0.3326 -0.0005
vn 0.7235 -0.6903 -0.0005
vn 0.0005 1.0000 -0.0004
vn 0.0005 1.0000 -0.0005
vn 0.6523 -0.7579 -0.0000
vn 0.6523 -0.7579 -0.0005
vn 0.0005 0.9239 -0.3825
vn 0.0006 0.9239 -0.3825
vn 0.0006 0.9240 -0.3825
vn 0.0005 0.9239 0.3826
vn 0.0003 0.9239 0.3826
vn -0.0000 0.7071 0.7071
vn 0.0005 0.7071 0.7071
vn -0.0000 0.9239 -0.3826
vn 0.0003 0.9239 -0.3826
vn -0.0000 0.7071 -0.7071
vn 0.0005 0.7071 -0.7071
vn 0.0004 0.9239 0.3826
vn 0.0005 0.9100 0.4147
vn 0.0005 0.9100 -0.4146
vn 0.0005 0.9389 0.3442
vn 0.0005 0.9389 -0.3441
vn 0.5582 -0.8297 -0.0000
vn 0.7052 -0.7090 -0.0005
vn 0.5582 -0.8297 -0.0005
vn 0.0005 0.4645 0.8856
vn 0.0005 0.3033 0.9529
vn 0.0005 0.9099 0.4147
vn 0.0005 0.9389 0.3443
vn 0.0005 0.9100 -0.4147
vn 0.0005 0.4646 -0.8855
vn 0.0005 0.9389 -0.3442
vn 0.0005 0.3034 -0.9529
vn -0.5494 -0.8355 -0.0006
vn 0.6492 -0.7606 -0.0000
vn 0.7051 -0.7091 -0.0005
vn 0.6492 -0.7606 -0.0005
vn -0.8146 0.5800 -0.0005
vn -0.4579 0.8890 -0.0004
vn -0.4579 0.8890 -0.0000
vn 0.0005 0.9099 0.4148
vn 0.0006 0.7071 0.7071
vn 0.8600 -0.5103 -0.0005
vn 0.6524 -0.7579 -0.0005
vn 0.6524 -0.7579 -0.0000
vn -0.4618 0.8870 -0.0004
vn -0.4618 0.8870 -0.0000
vn -0.4618 0.8870 -0.0005
vn 0.1978 -0.9802 -0.0006
vn 0.1978 -0.9802 -0.0005
vn 0.6493 -0.7606 -0.0000
vn 0.8593 -0.5115 -0.0005
vn 0.6493 -0.7606 -0.0005
vn 0.0797 -0.3973 0.9142
vn 0.1794 -0.8920 0.4149
vn 0.1827 -0.9073 0.3786
vn 0.0650 -0.3229 0.9442
vn 0.1796 -0.8918 -0.4152
vn 0.1831 -0.9073 -0.3787
vn 0.0796 -0.3973 -0.9142
vn 0.0650 -0.3229 -0.9442
vn 0.0005 -0.9202 -0.3915
vn -0.0000 -0.9202 -0.3915
vn 0.0005 -1.0000 -0.0006
vn -0.0000 -0.9202 0.3915
vn 0.0005 -0.9202 0.3914
vn -0.5035 0.8640 -0.0004
vn -0.5035 0.8640 -0.0005
vn -0.8700 0.4930 -0.0004
vn -0.8701 0.4929 -0.0005
vn 0.0005 0.0005 1.0000
vn 0.0005 0.3825 0.9239
vn 0.1147 -0.6113 -0.7831
vn 0.1636 -0.8749 -0.4557
vn 0.1148 -0.6112 -0.7831
vn 0.1676 -0.8962 -0.4107
vn 0.1841 -0.9829 -0.0000
vn 0.1148 -0.6112 0.7831
vn 0.1637 -0.8749 0.4558
vn 0.1675 -0.8962 0.4107
vn 0.1147 -0.6113 0.7830
vn -0.8593 0.5115 -0.0000
vn -0.8593 0.5115 -0.0005
vn 0.0005 0.3033 -0.9529
vn 0.0797 -0.3972 -0.9143
vn 0.0650 -0.3228 -0.9442
vn 0.0005 0.4645 -0.8856
vn 0.0005 0.3032 0.9529
vn 0.0649 -0.3229 0.9442
vn 0.0005 0.0005 -1.0000
vn 0.0005 0.0006 -1.0000
vn 0.0005 0.0004 1.0000
vn -0.0000 0.0006 -1.0000
vn 0.0003 0.0004 -1.0000
vn 0.0004 0.0004 -1.0000
vn 0.0003 0.0003 1.0000
vn 0.0004 0.0004 1.0000
vn 0.0005 -0.0268 -0.9996
vn 0.0005 -0.0581 -0.9983
vn 0.0005 -0.0269 0.9996
vn 0.0005 -0.0581 0.9983
vn 0.0004 -0.1695 -0.9855
vn 0.0005 -0.0269 -0.9996
vn 0.0005 -0.0582 0.9983
vn 0.0004 -0.1696 0.9855
vn 0.0003 0.1636 0.9865
vn 0.0005 0.1636 0.9865
vn 0.0006 0.1637 0.9865
vn 0.0005 0.1637 -0.9865
vn -0.5036 0.8640 -0.0005
vn -0.5034 0.8640 -0.0003
vn 0.0004 -1.0000 -0.0004
vn 0.8593 -0.5115 -0.0004
vn 0.8593 -0.5115 -0.0000
vn 0.0005 -0.3826 0.9239
vn 0.0006 -0.3826 0.9239
vn -0.0000 0.7071 0.7072
vn 0.0005 0.7071 0.7072
vn 0.0005 -0.5553 0.8317
vn -0.0000 -0.5553 0.8317
vn 0.8105 0.5857 -0.0004
vn 0.0142 0.9999 -0.0004
vn -0.4665 0.8845 -0.0005
vn -0.4665 0.8845 -0.0000
vn -0.4579 0.8890 -0.0005
vn -0.0000 -0.5552 -0.8317
vn 0.0005 -0.5552 -0.8317
vn 0.0005 -0.7071 -0.7071
vn 0.0004 -0.5552 -0.8317
vn 0.4695 -0.8829 -0.0005
vn 0.4695 -0.8829 -0.0000
vn 0.0005 0.3826 -0.9239
vn -0.8593 0.5115 -0.0003
vn -0.8593 0.5115 -0.0006
vn -0.8126 -0.5829 -0.0006
vn -0.8125 -0.5829 -0.0004
vn 0.4695 -0.8829 -0.0004
vn -0.3826 -0.9239 -0.0005
vn -0.3827 -0.9239 -0.0000
vn -0.9239 -0.3826 -0.0005
vn 0.0005 -0.7071 0.7071
vn 0.9444 -0.3288 -0.0004
vn 0.9444 -0.3287 -0.0003
vn 0.9444 -0.3288 -0.0005
vn 0.8593 -0.5115 -0.0006
vn 0.0005 -0.3825 -0.9239
vn 0.0003 -0.3826 -0.9239
vn -0.0000 0.0005 -1.0000
vn -0.7052 0.7090 -0.0000
vn -0.7052 0.7091 -0.0004
vn -0.5582 0.8297 -0.0004
vn -0.5582 0.8297 -0.0005
vn -0.6493 0.7606 -0.0004
vn -0.6492 0.7606 -0.0004
vn -0.5582 0.8297 -0.0003
vn -0.6493 0.7605 -0.0004
vn 0.8146 -0.5801 -0.0003
vn 0.4579 -0.8890 -0.0005
vn 0.8145 -0.5801 -0.0000
vn 0.4579 -0.8890 -0.0006
vn 0.5494 0.8355 -0.0006
vn 0.5494 0.8356 -0.0005
vn 0.5494 0.8356 -0.0004
vn -0.7934 -0.6087 -0.0005
vn -0.9231 -0.3846 -0.0004
vn -0.9231 -0.3846 -0.0003
vn -0.9251 -0.3798 0.0005
vn -1.0000 0.0024 -0.0005
vn -1.0000 0.0024 0.0005
vn -0.9251 -0.3797 0.0005
vn -0.9251 -0.3797 -0.0005
vn -1.0000 -0.0005 -0.0005
vn -1.0000 0.0025 0.0005
vn -1.0000 0.0025 -0.0005
vn -0.7933 -0.6088 -0.0005
vn -0.7933 -0.6088 -0.0006
vn -0.9251 -0.3798 -0.0005
vn -0.7934 -0.6088 -0.0003
vn 0.8250 -0.5652 -0.0004
vn 0.4663 -0.8846 -0.0003
vn 0.4664 -0.8846 -0.0004
vn -0.6524 0.7579 -0.0005
vn -0.7235 0.6903 -0.0005
vn -0.7235 0.6903 -0.0000
vn -0.6523 0.7579 -0.0004
vn -0.8600 0.5103 -0.0005
vn -0.9431 0.3326 -0.0004
vn -0.7235 0.6903 -0.0004
vn 0.4696 -0.8829 -0.0005
vn 0.4696 -0.8829 -0.0000
vn -0.3826 -0.9239 -0.0004
vn -0.9471 0.3209 -0.0005
vn -0.9471 0.3210 -0.0004
vn 0.8432 -0.5376 -0.0015
vn 0.8433 -0.5374 -0.0017
vn 0.8432 -0.5376 -0.0014
vn 0.8433 -0.5374 0.0017
vn 0.8432 -0.5376 0.0015
vn -0.9535 0.3015 -0.0005
vn -0.9535 0.3015 -0.0003
vn -0.9535 0.3015 -0.0006
vn -0.4803 0.8771 -0.0003
vn 0.4333 0.9012 -0.0004
vn -0.4803 0.8771 -0.0004
vn 0.4334 0.9012 -0.0003
vn 0.9437 0.3309 -0.0005
vn -1.0000 0.0004 -0.0004
vn -0.9597 -0.2810 -0.0007
vn -0.9597 -0.2809 -0.0005
vn 1.0000 0.0003 -0.0003
vn 0.9628 -0.2701 -0.0005
vn 0.9628 -0.2701 -0.0003
vn 0.8542 -0.5199 -0.0000
vn 0.8541 -0.5201 -0.0005
vn 0.4899 -0.8718 -0.0000
vn 0.4899 -0.8718 -0.0004
vn -0.9865 0.1637 -0.0005
vn -0.9865 0.1637 -0.0006
vn -0.9272 -0.3744 -0.0005
vn -0.9272 -0.3745 -0.0005
vt 0.383287 0.220674
vt 0.355041 0.220588
vt 0.374158 0.207791
vt 0.375888 0.250000
vt 0.373569 0.042365
vt 0.354318 0.029412
vt 0.382640 0.029492
vt 0.375037 0.000000
vt 0.624940 0.000000
vt 0.617402 0.030001
vt 0.624650 0.250000
vt 0.617178 0.225051
vt 0.645408 0.235294
vt 0.626272 0.215680
vt 0.645725 0.029412
vt 0.626501 0.043271
vt 0.625000 0.250000
vt 0.375000 0.250000
vt 0.375000 0.000000
vt 0.625000 0.000000
vt 0.944309 0.139691
vt 0.990000 0.250000
vt 0.944309 0.360309
vt 0.919706 0.419706
vt 0.919706 0.080294
vt 0.000000 0.500000
vt 0.062500 0.500000
vt 0.875000 0.500000
vt 1.000000 0.500000
vt 0.625000 0.500000
vt 0.500000 0.500000
vt 0.437500 0.500000
vt 0.000000 0.000000
vt 0.125484 0.750000
vt 0.125000 0.625000
vt 0.125000 0.750000
vt 0.125242 0.625000
vt -0.159435 0.125000
vt 0.379824 0.125000
vt -0.159434 0.079476
vt 0.266536 0.079475
vt 0.325384 0.750000
vt 0.325384 0.625000
vt 0.318052 0.125000
vt 0.462040 0.079476
vt 0.318052 0.079476
vt 0.664956 0.125000
vt 0.625000 0.751777
vt 0.461634 0.836586
vt 0.875000 0.750000
vt 0.625000 0.750000
vt 0.410924 0.751660
vt 0.410815 0.735595
vt 0.062500 1.000000
vt 0.444309 0.139691
vt 0.490000 0.250000
vt 0.419706 0.080294
vt 0.444309 0.360309
vt 0.419706 0.419706
vt 0.437500 1.000000
vt 0.664956 0.079476
vt 0.845372 0.529412
vt 0.845372 0.720588
vt 0.595372 0.519608
vt 0.595372 0.730392
vt 0.603558 0.756314
vt 0.486387 0.777484
vt 0.577515 0.500000
vt 0.645068 1.000000
vt 0.577515 0.750000
vt 0.624447 1.000000
vt 0.397144 0.750000
vt 0.376154 0.750902
vt 0.375339 0.631227
vt 0.397144 0.625000
vt 0.428113 0.750247
vt 0.659629 0.625000
vt 0.625000 0.733333
vt 0.625000 0.625000
vt 0.875000 0.725000
vt 0.679619 0.625000
vt 0.600480 0.079477
vt 0.600480 0.125000
vt 0.611458 0.750000
vt 0.625000 1.000000
vt 0.611458 1.000000
vt 0.400434 0.750350
vt 0.118979 0.500000
vt 0.345431 0.529412
vt 0.095431 0.529412
vt 0.357336 0.500000
vt 0.345431 0.720588
vt 0.095431 0.720588
vt 0.118979 0.750000
vt 0.357336 0.750000
vt 0.375000 0.750000
vt 0.148146 0.625000
vt 0.370834 0.625000
vt 0.000000 1.000000
vt 0.128398 0.750000
vt 0.375000 0.725000
vt 0.384028 0.750000
vt 0.125000 0.725000
vt 0.375000 0.625000
vt 0.500000 0.750000
vt 0.500000 0.625000
vt 0.437500 0.625000
vt 0.437500 0.750000
vt 0.875000 0.625000
vt 0.377066 1.000000
vt 0.464368 0.750000
vt 0.467226 0.998939
vt 0.433732 0.750000
vt 0.437259 1.000000
vt 0.550187 0.999436
vt 0.548790 0.750000
vt 0.388542 1.000000
vt 0.577761 0.750000
vt 0.578430 1.000000
vt 0.875000 1.000000
vt 1.000000 1.000000
vt 0.392401 0.750768
vt 0.603845 0.759413
vt 0.420256 0.751465
vt 0.475310 0.809505
vt 0.500000 1.000000
vt 0.480283 0.971656
vt 0.480283 0.778344
vt 0.457217 0.971656
vt 0.457217 0.778344
vt 0.417783 0.971656
vt 0.394717 0.971656
vt 0.417783 0.778344
vt 0.375000 1.000000
vt 0.394717 0.778344
vt 0.509194 0.750000
vt 0.571107 0.750000
vt 0.559600 0.750000
vt 0.531742 0.750000
vt 0.534892 0.750000
vt 0.554945 0.750000
vt 0.543574 0.750000
vt 0.713392 0.625000
vt 0.687171 0.670524
vt 0.651644 0.625000
vt 0.788288 0.670524
vt 0.134292 0.750000
vt 0.151515 0.750000
vt 0.139270 0.750000
vt 0.172737 0.750000
vt 0.143286 0.750000
vt 0.189426 0.750000
vt 0.150601 0.750000
vt 0.215741 0.750000
vt 0.343018 0.750000
vt 0.375000 0.500000
vt 0.500000 0.125000
vt 0.500000 0.000000
vt 0.625000 0.125000
vt 0.437500 0.000000
vt 0.437500 0.125000
vt 0.343521 0.125000
vt 0.831250 1.000000
vt 0.157371 0.625000
vt 0.407371 0.670524
vt 0.407371 0.625000
vt 0.157371 0.670524
vt 0.407371 0.670525
vt 0.668750 1.000000
vt 0.343017 0.625000
vt 0.559366 0.625000
vt 0.809366 0.670523
vt 0.809366 0.625000
vt 0.559366 0.670524
vt 0.626777 0.750000
vt 0.626777 0.625000
vt 0.607615 0.625000
vt 0.607615 0.670524
vt 0.861062 0.670523
vt 0.861062 0.625000
vt 0.578430 0.625000
vt 0.437259 0.625000
vt 0.467288 0.625000
vt 0.550034 0.625000
vt 0.662646 0.625000
vt 0.662646 0.670524
vt 0.916092 0.625000
vt 0.916093 0.670524
vt 0.916093 0.625000
s 1
f 1/1/1 2/2/2 3/3/2
f 2/2/2 1/1/1 4/4/1
f 2/2/2 5/5/3 3/3/2
f 2/2/2 6/6/2 5/5/3
f 7/7/1 5/5/3 6/6/2
f 7/7/1 6/6/2 8/8/1
f 9/9/1 7/7/1 8/8/1
f 7/7/1 9/9/1 10/10/1
f 11/11/4 4/4/1 12/1/1
f 11/11/4 12/1/1 13/12/4
f 14/13/3 15/11/1 16/12/4
f 14/13/3 16/12/4 17/14/5
f 18/15/3 19/10/4 20/9/1
f 19/10/4 18/15/3 21/16/5
f 22/16/5 23/13/6 24/14/5
f 23/13/6 22/16/5 25/15/5
f 26/17/7 27/18/7 28/19/7
f 28/19/7 29/20/8 26/17/7
f 30/21/9 31/22/10 32/22/9
f 32/22/9 31/22/10 33/23/9
f 33/23/9 31/22/10 34/23/9
f 31/22/10 30/21/9 35/21/9
f 35/21/9 36/22/9 31/22/10
f 37/23/9 31/22/9 38/22/9
f 37/23/9 38/22/9 39/23/9
f 40/24/9 41/23/9 39/23/9
f 42/25/9 43/21/9 44/25/9
f 43/21/9 42/25/9 45/21/9
f 46/26/9 47/27/9 48/26/9
f 47/27/9 46/26/9 49/27/9
f 50/28/9 51/29/9 52/29/9
f 51/29/9 50/28/9 53/28/9
f 54/30/9 55/31/9 56/31/9
f 54/30/9 56/31/9 57/30/9
f 58/32/9 56/31/9 55/31/9
f 56/31/9 58/32/9 59/32/9
f 60/22/9 61/21/9 62/21/9
f 63/23/9 64/24/9 65/24/9
f 66/33/11 67/33/11 68/33/11
f 67/33/11 66/33/11 69/33/11
f 66/33/11 70/33/11 69/33/11
f 70/33/11 66/33/11 71/33/11
f 72/33/11 73/33/11 74/33/11
f 72/33/11 74/33/11 75/33/11
f 76/33/11 74/33/11 73/33/11
f 74/33/11 76/33/11 77/33/11
f 78/33/12 79/33/11 80/33/12
f 80/33/12 79/33/11 81/33/11
f 82/33/12 79/33/11 78/33/12
f 79/33/11 82/33/12 83/33/11
f 84/34/13 85/35/14 86/36/14
f 85/35/14 84/34/13 87/37/15
f 88/36/16 89/36/17 90/37/17
f 91/35/18 90/37/13 92/34/13
f 92/34/13 93/36/19 91/35/18
f 91/35/18 93/36/19 94/35/20
f 94/35/20 93/36/19 95/36/20
f 96/33/21 97/33/22 98/33/21
f 98/33/21 99/33/23 96/33/21
f 100/33/22 101/33/21 102/33/21
f 102/33/21 101/33/21 103/33/23
f 104/33/24 105/33/24 106/33/24
f 106/33/24 107/33/24 104/33/24
f 108/33/24 109/33/24 110/33/24
f 110/33/24 109/33/24 111/33/24
f 112/38/25 113/39/26 114/40/27
f 115/41/28 114/40/27 113/39/26
f 116/39/29 117/38/30 118/40/25
f 118/40/25 119/41/29 116/39/29
f 120/36/31 121/35/20 122/36/20
f 121/35/20 120/36/31 123/35/31
f 124/42/32 122/36/20 121/35/20
f 124/42/32 121/35/20 125/43/32
f 126/36/20 127/42/32 128/35/20
f 129/43/32 128/35/20 127/42/32
f 130/44/33 131/45/34 132/46/35
f 131/45/34 130/44/33 133/47/36
f 134/46/33 135/45/34 136/44/35
f 136/44/35 135/45/34 137/47/36
f 138/48/37 139/49/38 140/49/38
f 140/49/38 141/48/37 138/48/37
f 138/48/37 142/49/38 139/49/38
f 142/49/38 138/48/37 143/48/37
f 144/50/39 145/30/39 146/28/40
f 145/30/39 144/50/39 147/51/40
f 148/52/41 149/49/38 150/49/38
f 151/52/42 152/49/38 153/53/42
f 154/49/38 155/52/42 156/53/41
f 155/52/42 154/49/38 157/49/38
f 158/27/43 159/54/43 160/54/44
f 159/54/43 158/27/43 161/27/45
f 162/22/40 163/55/46 164/56/40
f 163/55/46 162/22/40 165/21/47
f 165/21/47 166/57/48 163/55/46
f 166/57/48 165/21/47 167/25/49
f 164/56/40 168/23/50 162/22/40
f 168/23/50 164/56/40 169/58/51
f 169/58/51 170/24/52 168/23/50
f 170/24/52 169/58/51 171/59/53
f 172/32/54 173/60/46 174/32/54
f 175/60/46 174/32/54 173/60/46
f 176/61/34 177/46/35 178/44/33
f 178/44/33 179/47/36 176/61/34
f 180/46/33 181/61/34 182/44/35
f 182/44/35 181/61/34 183/47/36
f 184/62/55 185/63/56 186/64/57
f 186/64/57 185/63/56 187/65/58
f 188/66/59 189/67/60 190/67/60
f 190/67/60 191/66/61 188/66/59
f 192/67/60 193/66/61 194/67/60
f 194/67/60 193/66/61 195/66/59
f 196/68/62 197/11/63 198/13/64
f 198/13/64 199/64/65 196/68/62
f 200/69/66 201/70/67 202/65/68
f 201/70/67 200/69/66 203/71/69
f 204/72/70 205/73/70 206/74/70
f 204/72/70 206/74/70 207/75/70
f 208/75/70 209/74/70 210/72/70
f 209/74/70 211/73/70 210/72/70
f 212/76/71 213/67/72 214/67/72
f 212/76/71 214/67/72 215/76/73
f 216/67/72 217/76/73 218/76/71
f 217/76/73 216/67/72 219/67/72
f 220/77/39 221/78/58 222/79/40
f 221/78/58 220/77/39 223/80/56
f 224/81/39 223/80/56 220/77/39
f 225/78/57 226/77/39 227/79/40
f 226/77/39 225/78/57 228/80/55
f 228/80/55 229/81/39 226/77/39
f 230/82/74 231/46/75 232/44/76
f 232/44/76 233/83/74 230/82/74
f 234/82/74 235/44/75 236/46/76
f 235/44/75 234/82/74 237/83/74
f 238/84/53 239/85/66 240/86/53
f 239/85/66 238/84/53 241/78/68
f 242/85/77 243/84/49 244/86/78
f 243/84/49 242/85/77 245/78/65
f 246/74/79 247/73/79 248/52/80
f 246/74/79 248/52/80 249/53/81
f 250/74/79 251/52/81 252/73/79
f 251/52/81 250/74/79 253/53/80
f 254/51/39 255/51/82 256/79/39
f 257/79/83 256/79/39 255/51/82
f 258/51/84 257/79/83 255/51/82
f 258/51/84 259/79/84 257/79/83
f 258/51/84 260/79/39 259/79/84
f 260/79/39 258/51/84 261/51/40
f 262/51/82 263/51/39 264/79/39
f 262/51/82 264/79/39 265/79/82
f 265/79/82 266/51/84 262/51/82
f 266/51/84 265/79/82 267/79/84
f 268/79/39 266/51/84 267/79/84
f 266/51/84 268/79/39 269/51/39
f 270/33/85 271/33/85 272/33/85
f 270/33/85 272/33/85 273/33/85
f 274/33/85 275/33/86 276/33/85
f 274/33/85 276/33/85 277/33/86
f 278/33/85 279/33/85 280/33/85
f 279/33/85 278/33/85 281/33/85
f 282/33/85 283/33/85 284/33/86
f 283/33/85 282/33/85 285/33/86
f 286/76/87 287/87/88 288/87/88
f 288/87/88 289/76/89 286/76/87
f 290/87/88 291/76/89 292/87/88
f 292/87/88 291/76/89 293/76/87
f 294/88/90 295/89/91 296/90/92
f 295/89/91 294/88/90 297/91/93
f 298/92/94 296/90/92 295/89/91
f 298/92/94 299/93/95 296/90/92
f 298/92/94 300/94/96 299/93/95
f 300/94/96 298/92/94 301/95/97
f 302/96/98 303/36/99 304/97/100
f 304/97/100 305/98/100 302/96/98
f 306/36/101 307/96/102 308/97/32
f 309/98/32 308/97/32 307/96/102
f 310/33/39 311/33/39 312/33/39
f 312/33/39 311/33/39 313/33/39
f 311/33/39 310/33/39 314/33/39
f 315/33/103 313/33/39 311/33/39
f 310/33/39 316/33/39 314/33/39
f 313/33/39 315/33/103 317/33/104
f 318/33/105 317/33/104 315/33/103
f 315/33/103 319/33/106 318/33/105
f 316/33/39 310/33/39 320/33/39
f 320/33/39 321/33/39 316/33/39
f 321/33/39 322/33/104 316/33/39
f 321/33/39 323/33/104 322/33/104
f 323/33/104 324/33/105 322/33/104
f 322/33/104 324/33/105 325/33/106
f 326/99/107 327/26/107 328/27/108
f 326/99/107 328/27/108 329/54/108
f 330/100/109 331/101/110 332/102/111
f 331/101/110 330/100/109 333/103/112
f 331/101/110 333/103/112 334/35/113
f 331/101/110 334/35/113 335/104/113
f 336/100/114 337/101/115 338/103/116
f 337/101/115 336/100/114 339/102/117
f 338/103/116 337/101/115 340/35/113
f 341/104/113 340/35/113 337/101/115
f 342/105/118 343/106/119 344/51/119
f 343/106/119 345/79/119 344/51/119
f 346/107/119 343/106/119 342/105/118
f 347/108/118 346/107/119 342/105/118
f 348/96/119 346/107/119 347/108/118
f 346/107/119 348/96/119 349/98/119
f 350/51/119 351/106/119 352/105/118
f 351/106/119 350/51/119 353/79/119
f 354/107/119 352/105/118 351/106/119
f 355/108/118 352/105/118 354/107/119
f 354/107/119 356/96/119 355/108/118
f 356/96/119 354/107/119 357/98/119
f 358/79/39 359/109/39 360/50/39
f 358/79/39 360/50/39 361/51/39
f 362/50/39 363/79/39 364/51/39
f 363/79/39 362/50/39 365/109/39
f 366/71/120 367/110/121 368/95/122
f 368/95/122 369/70/123 366/71/120
f 370/11/124 371/91/125 372/4/90
f 371/91/125 370/11/124 373/68/62
f 374/111/126 375/112/126 376/113/126
f 377/114/126 376/113/126 375/112/126
f 378/112/127 379/111/126 380/115/126
f 379/111/126 381/116/126 380/115/126
f 382/113/126 383/114/126 384/102/126
f 385/117/126 384/102/126 383/114/126
f 386/118/126 387/119/126 388/116/126
f 389/115/126 388/116/126 387/119/126
f 390/84/126 391/86/126 392/118/126
f 393/119/126 392/118/126 391/86/126
f 394/113/128 395/114/128 396/112/128
f 394/113/128 396/112/128 397/111/128
f 398/112/107 399/115/128 400/111/128
f 400/111/128 399/115/128 401/116/128
f 402/114/128 403/102/128 404/117/128
f 403/102/128 402/114/128 405/113/128
f 406/116/128 407/115/128 408/119/128
f 406/116/128 408/119/128 409/118/128
f 410/118/128 411/119/128 412/86/128
f 410/118/128 412/86/128 413/84/128
f 414/28/53 415/120/52 416/29/129
f 415/120/52 417/121/127 416/29/129
f 418/108/126 419/87/126 420/72/126
f 419/87/126 418/108/126 421/76/126
f 422/72/126 423/122/126 424/73/126
f 423/122/126 422/72/126 425/87/127
f 426/105/126 427/51/126 428/66/126
f 428/66/126 429/67/126 426/105/126
f 430/105/126 431/76/126 432/108/126
f 431/76/126 430/105/126 433/67/127
f 434/123/126 435/66/126 436/51/126
f 434/123/126 436/51/126 437/48/126
f 438/122/126 439/124/127 440/52/126
f 438/122/126 440/52/126 441/73/126
f 442/52/126 443/125/126 444/49/126
f 443/125/126 442/52/126 445/124/126
f 446/49/126 447/123/126 448/48/126
f 447/123/126 446/49/126 449/125/126
f 450/108/128 451/87/128 452/76/128
f 451/87/128 450/108/128 453/72/128
f 454/72/128 455/122/128 456/87/107
f 455/122/128 454/72/128 457/73/128
f 458/51/128 459/105/128 460/66/128
f 460/66/128 459/105/128 461/67/128
f 462/105/128 463/76/128 464/67/107
f 463/76/128 462/105/128 465/108/128
f 466/48/128 467/51/128 468/123/128
f 468/123/128 467/51/128 469/66/128
f 470/73/128 471/52/128 472/122/128
f 473/124/107 472/122/128 471/52/128
f 474/125/128 475/52/128 476/49/128
f 475/52/128 474/125/128 477/124/128
f 478/49/128 479/123/128 480/125/128
f 479/123/128 478/49/128 481/48/107
f 482/33/130 483/33/126 484/33/126
f 483/33/126 482/33/130 485/33/126
f 483/33/126 485/33/126 486/33/126
f 486/33/126 485/33/126 487/33/126
f 488/33/126 485/33/126 482/33/130
f 489/33/126 488/33/126 482/33/130
f 490/33/126 489/33/126 482/33/130
f 482/33/130 491/33/126 490/33/126
f 491/33/126 482/33/130 484/33/126
f 484/33/126 492/33/126 491/33/126
f 493/33/126 491/33/126 492/33/126
f 494/33/126 493/33/126 492/33/126
f 495/33/131 493/33/126 494/33/126
f 496/33/126 495/33/131 494/33/126
f 495/33/131 497/33/126 493/33/126
f 498/33/126 495/33/131 496/33/126
f 497/33/126 495/33/131 499/33/126
f 497/33/126 499/33/126 500/33/126
f 500/33/126 501/33/126 497/33/126
f 502/33/126 498/33/126 496/33/126
f 502/33/126 503/33/126 498/33/126
f 503/33/126 504/33/126 498/33/126
f 503/33/126 505/33/126 504/33/126
f 505/33/126 503/33/126 506/33/126
f 507/33/132 508/33/128 509/33/128
f 507/33/132 510/33/128 508/33/128
f 511/33/128 508/33/128 510/33/128
f 512/33/128 511/33/128 510/33/128
f 510/33/128 507/33/132 513/33/128
f 514/33/128 511/33/128 512/33/128
f 513/33/128 507/33/132 515/33/128
f 515/33/128 507/33/132 516/33/128
f 507/33/132 517/33/128 516/33/128
f 517/33/128 507/33/132 509/33/128
f 517/33/128 509/33/128 518/33/128
f 517/33/128 518/33/128 519/33/128
f 520/33/133 514/33/128 512/33/128
f 521/33/128 514/33/128 520/33/133
f 522/33/128 520/33/133 512/33/128
f 523/33/128 521/33/128 520/33/133
f 520/33/133 522/33/128 524/33/128
f 524/33/128 522/33/128 525/33/128
f 525/33/128 522/33/128 526/33/128
f 527/33/128 521/33/128 523/33/128
f 527/33/128 523/33/128 528/33/128
f 528/33/128 523/33/128 529/33/128
f 530/33/128 528/33/128 529/33/128
f 528/33/128 530/33/128 531/33/128
f 532/51/126 533/126/126 534/105/126
f 533/126/126 532/51/126 535/85/126
f 534/105/126 533/126/126 536/127/126
f 536/127/126 537/128/126 534/105/126
f 538/60/131 536/127/126 533/126/126
f 534/105/126 537/128/126 539/108/131
f 536/127/126 538/60/131 540/129/126
f 539/108/131 537/128/126 541/130/126
f 540/129/126 538/60/131 542/131/126
f 542/131/126 541/130/126 540/129/126
f 538/60/131 543/132/126 542/131/126
f 542/131/126 544/133/126 541/130/126
f 539/108/131 541/130/126 544/133/126
f 538/60/131 545/134/126 543/132/126
f 546/135/126 539/108/131 544/133/126
f 545/134/126 546/135/126 543/132/126
f 539/108/131 546/135/126 547/96/126
f 547/96/126 546/135/126 545/134/126
f 548/126/128 549/51/128 550/105/128
f 549/51/128 548/126/128 551/85/128
f 550/105/128 552/127/128 548/126/128
f 552/127/128 550/105/128 553/128/128
f 548/126/128 552/127/128 554/60/133
f 550/105/128 555/108/133 553/128/128
f 556/129/128 554/60/133 552/127/128
f 555/108/133 557/130/128 553/128/128
f 556/129/128 558/131/128 554/60/133
f 556/129/128 557/130/128 558/131/128
f 559/132/128 554/60/133 558/131/128
f 560/133/128 558/131/128 557/130/128
f 555/108/133 560/133/128 557/130/128
f 561/134/128 554/60/133 559/132/128
f 555/108/133 562/135/128 560/133/128
f 561/134/128 559/132/128 562/135/128
f 555/108/133 563/96/128 562/135/128
f 563/96/128 561/134/128 562/135/128
f 564/66/59 565/123/32 566/123/32
f 564/66/59 566/123/32 567/66/61
f 568/123/32 569/66/61 570/66/59
f 569/66/61 568/123/32 571/123/32
f 572/136/126 573/137/130 574/136/126
f 574/136/126 573/137/130 575/138/126
f 573/137/130 576/138/126 575/138/126
f 577/105/130 572/136/126 574/136/126
f 576/138/126 573/137/130 578/51/126
f 579/105/126 576/138/126 578/51/126
f 576/138/126 579/105/126 580/136/126
f 577/105/130 574/136/126 580/136/126
f 577/105/130 580/136/126 579/105/126
f 581/51/130 578/51/126 573/137/130
f 572/136/126 577/105/130 582/136/126
f 581/51/130 573/137/130 583/139/126
f 582/136/126 584/140/126 583/139/126
f 584/140/126 582/136/126 585/136/126
f 577/105/130 585/136/126 582/136/126
f 581/51/130 583/139/126 586/137/126
f 585/136/126 577/105/130 587/136/126
f 586/137/126 588/137/126 581/51/130
f 589/141/134 588/137/126 587/136/126
f 577/105/130 589/141/134 587/136/126
f 589/141/134 581/51/130 588/137/126
f 581/51/130 589/141/134 590/142/135
f 590/142/135 591/51/126 581/51/130
f 592/105/135 593/51/126 591/51/126
f 593/51/126 592/105/135 594/105/126
f 592/105/135 595/105/126 594/105/126
f 595/105/126 596/105/126 594/105/126
f 596/105/126 595/105/126 597/105/126
f 596/105/126 597/105/126 598/105/126
f 597/105/126 595/105/126 599/105/126
f 577/105/126 597/105/126 599/105/126
f 599/105/126 600/105/134 577/105/126
f 601/137/132 602/136/128 603/136/128
f 601/137/132 603/136/128 604/138/128
f 601/137/132 604/138/128 605/138/128
f 602/136/128 606/105/132 603/136/128
f 605/138/128 607/51/128 601/137/132
f 608/105/128 607/51/128 605/138/128
f 608/105/128 605/138/128 609/136/128
f 603/136/128 606/105/132 609/136/128
f 609/136/128 606/105/132 608/105/128
f 610/51/132 601/137/132 607/51/128
f 606/105/132 602/136/128 611/136/128
f 601/137/132 610/51/132 612/139/128
f 613/140/128 611/136/128 612/139/128
f 611/136/128 613/140/128 614/136/128
f 606/105/132 611/136/128 614/136/128
f 612/139/128 610/51/132 615/137/128
f 606/105/132 614/136/128 616/136/128
f 615/137/128 610/51/132 617/137/128
f 618/141/136 616/136/128 617/137/128
f 616/136/128 618/141/136 606/105/132
f 610/51/132 618/141/136 617/137/128
f 610/51/132 619/142/137 618/141/136
f 619/142/137 610/51/132 620/51/128
f 621/105/136 622/105/128 606/105/128
f 623/105/128 606/105/128 622/105/128
f 624/105/128 623/105/128 622/105/128
f 625/105/128 623/105/128 624/105/128
f 623/105/128 625/105/128 626/105/128
f 627/105/128 625/105/128 624/105/128
f 624/105/128 628/105/137 627/105/128
f 628/105/137 629/51/128 627/105/128
f 629/51/128 628/105/137 620/51/128
f 630/143/138 631/144/135 632/145/138
f 633/145/138 634/144/135 635/146/139
f 636/144/140 637/143/141 638/145/141
f 639/145/141 640/146/136 641/144/140
f 642/34/126 643/36/126 644/147/126
f 645/148/126 644/147/126 643/36/126
f 646/149/126 642/34/126 644/147/126
f 645/148/126 643/36/126 647/36/131
f 642/34/126 646/149/126 648/36/126
f 645/148/126 647/36/131 649/150/126
f 646/149/126 649/150/126 650/151/126
f 648/36/126 646/149/126 650/151/126
f 651/152/126 650/151/126 649/150/126
f 647/36/131 651/152/126 649/150/126
f 652/153/126 648/36/126 650/151/126
f 647/36/131 653/154/126 651/152/126
f 652/153/126 654/155/126 648/36/126
f 654/155/126 652/153/126 653/154/126
f 653/154/126 647/36/131 655/42/126
f 653/154/126 655/42/126 654/155/126
f 656/36/128 657/147/128 658/148/128
f 656/36/128 659/34/128 657/147/128
f 659/34/128 660/149/128 657/147/128
f 656/36/128 658/148/128 661/36/133
f 662/36/128 660/149/128 659/34/128
f 663/150/128 661/36/133 658/148/128
f 660/149/128 662/36/128 664/151/128
f 664/151/128 663/150/128 660/149/128
f 664/151/128 662/36/128 665/153/128
f 663/150/128 664/151/128 666/152/128
f 666/152/128 661/36/133 663/150/128
f 662/36/128 667/155/128 665/153/128
f 668/154/128 661/36/133 666/152/128
f 668/154/128 665/153/128 667/155/128
f 661/36/133 668/154/128 669/42/128
f 668/154/128 667/155/128 669/42/128
f 670/30/142 671/156/142 672/18/143
f 672/18/143 673/17/144 670/30/142
f 674/85/145 675/134/145 676/96/145
f 676/96/145 677/51/145 674/85/145
f 678/133/32 679/131/32 680/131/32
f 678/133/32 680/131/32 681/133/32
f 682/131/32 683/133/32 684/133/32
f 683/133/32 682/131/32 685/131/32
f 686/33/39 687/33/39 688/33/39
f 688/33/39 687/33/39 689/33/39
f 687/33/39 686/33/39 690/33/39
f 691/33/146 689/33/39 687/33/39
f 686/33/39 692/33/39 690/33/39
f 689/33/39 691/33/146 693/33/147
f 694/33/106 693/33/147 691/33/146
f 691/33/146 695/33/106 694/33/106
f 692/33/39 686/33/39 696/33/39
f 696/33/39 697/33/39 692/33/39
f 697/33/39 698/33/146 692/33/39
f 698/33/146 697/33/39 699/33/147
f 699/33/147 700/33/106 698/33/146
f 698/33/146 700/33/106 701/33/106
f 702/33/148 703/33/32 704/33/32
f 705/33/32 702/33/148 704/33/32
f 706/33/32 702/33/148 705/33/32
f 702/33/148 706/33/32 707/33/32
f 703/33/32 702/33/148 708/33/32
f 709/33/148 703/33/32 708/33/32
f 710/33/32 703/33/32 709/33/148
f 711/33/32 710/33/32 709/33/148
f 709/33/148 712/33/32 711/33/32
f 709/33/148 713/33/32 712/33/32
f 714/157/88 715/158/88 716/159/149
f 715/158/88 717/20/88 716/159/149
f 715/158/88 714/157/88 718/160/150
f 719/161/88 718/160/150 714/157/88
f 720/19/88 718/160/150 719/161/88
f 719/161/88 721/162/88 720/19/88
f 722/157/88 723/159/149 724/158/88
f 724/158/88 723/159/149 725/20/88
f 726/160/88 722/157/88 724/158/88
f 726/160/88 727/161/149 722/157/88
f 728/19/88 727/161/149 726/160/88
f 729/162/88 727/161/149 728/19/88
f 730/31/107 731/60/151 732/126/107
f 731/60/151 730/31/107 733/32/152
f 732/126/107 734/30/153 730/31/107
f 734/30/153 732/126/107 735/85/154
f 736/23/128 737/23/155 738/163/128
f 739/163/128 740/23/155 741/58/156
f 742/36/157 743/36/158 744/37/17
f 745/35/16 744/37/17 743/36/158
f 746/36/16 747/37/17 748/35/16
f 749/127/32 750/128/32 751/127/32
f 750/128/32 749/127/32 752/128/32
f 753/127/32 754/128/32 755/128/32
f 754/128/32 753/127/32 756/127/32
f 757/164/159 758/165/39 759/166/39
f 758/165/39 757/164/159 760/167/160
f 761/164/159 762/168/39 763/166/39
f 762/168/39 761/164/159 764/167/160
f 765/164/161 766/165/39 767/166/39
f 766/165/39 765/164/161 768/167/76
f 769/164/160 770/165/39 771/167/159
f 770/165/39 769/164/160 772/166/39
f 773/168/39 774/167/159 775/164/160
f 773/168/39 775/164/160 776/166/39
f 777/164/76 778/165/39 779/167/161
f 778/165/39 777/164/76 780/166/39
f 781/169/126 782/21/162 783/21/126
f 782/21/162 781/169/126 784/55/163
f 785/57/164 786/21/165 784/55/162
f 787/106/32 788/106/166 789/105/32
f 790/105/167 789/105/32 788/106/166
f 791/33/128 792/33/128 793/33/128
f 792/33/128 791/33/128 794/33/128
f 791/33/128 793/33/128 795/33/128
f 796/85/164 797/126/126 798/30/164
f 798/30/164 797/126/126 799/31/126
f 800/60/168 799/31/126 797/126/126
f 799/31/126 800/60/168 801/32/168
f 802/132/118 803/131/119 804/132/118
f 803/131/119 802/132/118 805/131/169
f 806/129/119 807/127/119 808/129/119
f 807/127/119 806/129/119 809/127/170
f 810/132/170 811/131/119 812/132/119
f 812/132/119 811/131/119 813/131/118
f 814/129/118 815/127/118 816/129/118
f 816/129/118 815/127/118 817/127/169
f 818/130/39 819/129/39 820/129/39
f 818/130/39 820/129/39 821/130/39
f 822/129/39 823/130/39 824/129/39
f 825/130/39 824/129/39 823/130/39
f 826/33/32 827/33/32 828/33/32
f 829/33/32 826/33/32 828/33/32
f 829/33/32 830/33/32 826/33/32
f 830/33/32 829/33/32 831/33/32
f 827/33/32 826/33/32 832/33/32
f 833/33/32 827/33/32 832/33/32
f 834/33/32 827/33/32 833/33/32
f 835/33/32 834/33/32 833/33/32
f 836/33/32 835/33/32 833/33/32
f 835/33/32 836/33/32 837/33/32
f 838/135/39 839/132/39 840/132/39
f 838/135/39 840/132/39 841/135/39
f 842/132/39 843/135/39 844/132/39
f 845/135/39 844/132/39 843/135/39
f 846/170/171 847/42/171 848/43/172
f 847/42/171 846/170/171 849/155/172
f 850/43/172 851/42/171 852/170/171
f 851/42/171 853/155/172 852/170/171
f 854/106/166 855/106/32 856/105/32
f 854/106/166 856/105/32 857/105/173
f 857/105/173 858/106/173 854/106/166
f 858/106/173 857/105/173 859/105/173
f 858/106/173 859/105/173 860/106/174
f 860/106/174 859/105/173 861/105/175
f 860/106/174 861/105/175 862/106/176
f 863/105/176 862/106/176 861/105/175
f 864/120/177 865/28/177 866/29/128
f 864/120/177 866/29/128 867/121/128
f 868/105/178 869/79/178 870/106/178
f 869/79/178 868/105/178 871/51/178
f 872/106/178 873/51/179 874/105/178
f 873/51/179 872/106/178 875/79/180
f 876/128/88 877/130/88 878/130/149
f 878/130/149 879/128/181 876/128/88
f 880/133/88 881/135/149 882/135/88
f 882/135/88 883/133/149 880/133/88
f 884/130/150 885/128/150 886/130/150
f 886/130/150 885/128/150 887/128/88
f 888/135/150 889/133/88 890/135/88
f 890/135/88 889/133/88 891/133/150
f 892/171/27 893/172/39 894/173/39
f 893/172/39 892/171/27 895/174/25
f 896/172/39 897/174/30 898/171/25
f 896/172/39 898/171/25 899/173/39
f 900/54/182 901/27/183 902/99/184
f 903/26/126 902/99/184 901/27/183
f 904/105/185 905/106/186 906/51/187
f 905/106/186 907/79/188 906/51/187
f 907/79/188 908/175/39 906/51/187
f 909/176/39 908/175/39 907/79/188
f 910/107/189 905/106/186 904/105/185
f 910/107/189 904/105/185 911/108/190
f 912/75/119 910/107/189 911/108/190
f 913/72/169 912/75/119 911/108/190
f 914/105/185 915/51/187 916/106/186
f 916/106/186 915/51/187 917/79/191
f 918/175/39 917/79/191 915/51/187
f 917/79/191 918/175/39 919/176/39
f 920/107/189 914/105/185 916/106/186
f 914/105/185 920/107/189 921/108/192
f 922/75/119 921/108/192 920/107/189
f 923/72/169 921/108/192 922/75/119
f 924/165/193 925/177/194 926/166/195
f 925/177/194 924/165/193 927/178/196
f 927/178/196 928/179/32 925/177/194
f 929/180/32 925/177/194 928/179/32
f 930/166/195 931/177/194 932/165/193
f 932/165/193 931/177/194 933/178/196
f 931/177/194 934/179/32 933/178/196
f 931/177/194 935/180/32 934/179/32
f 936/87/197 937/122/198 938/122/198
f 936/87/197 938/122/198 939/87/199
f 940/122/198 941/87/197 942/122/198
f 943/87/199 942/122/198 941/87/197
f 944/181/200 945/78/201 946/118/200
f 946/118/200 945/78/201 947/84/201
f 945/78/201 944/181/200 948/79/202
f 949/181/200 950/78/202 951/79/202
f 950/78/202 949/181/200 952/118/200
f 950/78/202 952/118/200 953/84/202
f 954/57/164 955/30/164 956/21/163
f 957/58/155 958/23/156 959/24/177
f 957/58/155 959/24/177 960/59/177
f 961/102/203 962/182/204 963/113/205
f 964/101/206 962/182/204 961/102/203
f 962/182/204 964/101/206 965/104/207
f 966/183/208 963/113/209 967/182/210
f 963/113/209 966/183/208 968/111/208
f 966/183/208 969/184/211 968/111/208
f 968/111/208 969/184/211 970/116/212
f 970/116/212 969/184/211 971/181/211
f 971/181/211 972/118/211 970/116/212
f 973/101/207 974/182/204 975/104/207
f 976/102/213 974/182/204 973/101/207
f 974/182/204 976/102/213 977/113/204
f 978/182/210 977/113/210 979/183/208
f 980/111/208 979/183/208 977/113/210
f 979/183/208 980/111/208 981/184/214
f 980/111/208 982/116/212 981/184/214
f 981/184/214 982/116/212 983/181/211
f 983/181/211 982/116/212 984/118/211
f 985/33/39 986/33/39 987/33/39
f 985/33/39 987/33/39 988/33/39
f 989/33/39 990/33/39 991/33/39
f 989/33/39 991/33/39 992/33/39
f 993/33/39 994/33/39 995/33/39
f 996/33/39 995/33/39 994/33/39
f 997/33/39 998/33/39 999/33/39
f 1000/33/39 999/33/39 998/33/39
f 1001/165/215 1002/185/216 1003/166/215
f 1002/185/216 1001/165/215 1004/186/217
f 1004/186/217 1005/187/32 1002/185/216
f 1004/186/217 1006/188/32 1005/187/32
f 1007/166/215 1008/185/217 1009/165/215
f 1009/165/215 1008/185/217 1010/186/217
f 1008/185/217 1011/187/32 1010/186/217
f 1012/188/32 1010/186/217 1011/187/32
f 1013/124/218 1014/125/219 1015/125/220
f 1013/124/218 1015/125/220 1016/124/221
f 1016/124/221 1017/122/222 1013/124/218
f 1017/122/222 1016/124/221 1018/122/222
f 1019/125/220 1020/124/221 1021/125/219
f 1022/124/221 1021/125/219 1020/124/221
f 1023/122/222 1022/124/221 1020/124/221
f 1024/122/222 1022/124/221 1023/122/222
f 1025/125/220 1026/123/223 1027/125/224
f 1026/123/223 1025/125/220 1028/123/223
f 1029/125/220 1030/123/223 1031/125/224
f 1031/125/224 1030/123/223 1032/123/223
f 1033/105/225 1034/106/226 1035/106/225
f 1034/106/226 1033/105/225 1036/105/225
f 1037/105/166 1035/106/166 1038/106/227
f 1038/106/227 1039/105/227 1037/105/166
f 1039/105/227 1038/106/227 1040/106/176
f 1039/105/227 1040/106/176 1041/105/176
f 1042/168/215 1043/185/217 1044/166/215
f 1043/185/217 1042/168/215 1045/186/217
f 1045/186/217 1046/188/32 1043/185/217
f 1047/189/32 1043/185/217 1046/188/32
f 1048/166/215 1049/185/217 1050/168/215
f 1050/168/215 1049/185/217 1051/186/217
f 1049/185/217 1052/188/32 1051/186/217
f 1049/185/217 1053/189/32 1052/188/32
f 1054/170/228 1055/35/229 1056/155/228
f 1056/155/228 1055/35/229 1057/36/229
f 1058/35/229 1059/170/228 1060/155/228
f 1060/155/228 1061/36/229 1058/35/229
f 1062/172/230 1063/143/231 1064/173/230
f 1062/172/230 1065/144/232 1063/143/231
f 1066/143/233 1067/172/234 1068/173/234
f 1069/144/233 1067/172/234 1066/143/233
f 1070/33/235 1071/33/235 1072/33/235
f 1071/33/235 1070/33/235 1073/33/235
f 1074/33/235 1075/33/235 1076/33/235
f 1076/33/235 1075/33/235 1077/33/235
f 1078/33/236 1079/33/237 1080/33/235
f 1079/33/237 1078/33/236 1081/33/235
f 1082/33/235 1083/33/237 1084/33/236
f 1084/33/236 1083/33/237 1085/33/235
f 1086/33/238 1087/33/239 1088/33/240
f 1087/33/239 1089/33/241 1088/33/240
f 1087/33/239 1090/33/242 1089/33/241
f 1088/33/240 1091/33/243 1086/33/238
f 1091/33/243 1088/33/240 1092/33/11
f 1091/33/243 1093/33/240 1086/33/238
f 1093/33/240 1087/33/239 1086/33/238
f 1093/33/240 1094/33/241 1087/33/239
f 1091/33/243 1095/33/11 1093/33/240
f 1096/33/242 1087/33/239 1094/33/241
f 1092/33/11 1097/33/244 1091/33/243
f 1097/33/244 1095/33/11 1091/33/243
f 1097/33/244 1092/33/11 1098/33/245
f 1097/33/244 1099/33/245 1095/33/11
f 1100/33/11 1097/33/244 1098/33/245
f 1097/33/244 1101/33/11 1099/33/245
f 1100/33/11 1102/33/11 1097/33/244
f 1101/33/11 1097/33/244 1102/33/11
f 1096/33/242 1103/33/242 1087/33/239
f 1090/33/242 1087/33/239 1103/33/242
f 1104/33/9 1103/33/242 1096/33/242
f 1103/33/242 1105/33/9 1090/33/242
f 1104/33/9 1106/33/246 1103/33/242
f 1105/33/9 1103/33/242 1106/33/246
f 1107/33/247 1106/33/246 1104/33/9
f 1106/33/246 1108/33/248 1105/33/9
f 1107/33/247 1109/33/247 1106/33/246
f 1108/33/248 1106/33/246 1109/33/247
f 1107/33/247 1110/33/249 1109/33/247
f 1110/33/249 1108/33/248 1109/33/247
f 1110/33/249 1107/33/247 1111/33/249
f 1110/33/249 1112/33/250 1108/33/248
f 1111/33/249 1113/33/249 1110/33/249
f 1113/33/249 1112/33/250 1110/33/249
f 1113/33/249 1111/33/249 1114/33/249
f 1113/33/249 1115/33/249 1112/33/250
f 1114/33/249 1116/33/251 1113/33/249
f 1116/33/251 1115/33/249 1113/33/249
f 1116/33/251 1114/33/249 1117/33/252
f 1116/33/251 1118/33/252 1115/33/249
f 1116/33/251 1117/33/252 1119/33/32
f 1120/33/32 1118/33/252 1116/33/251
f 1121/33/32 1116/33/251 1119/33/32
f 1120/33/32 1116/33/251 1121/33/32
f 1121/33/32 1119/33/32 1122/33/32
f 1120/33/32 1121/33/32 1122/33/32
f 1122/33/32 1119/33/32 1123/33/32
f 1122/33/32 1124/33/32 1120/33/32
f 1125/51/253 1126/96/253 1127/156/253
f 1127/156/253 1128/30/254 1125/51/253
f 1129/58/11 1130/56/243 1131/56/11
f 1130/56/243 1129/58/11 1132/58/11
f 1131/56/11 1130/56/243 1133/55/11
f 1133/55/11 1130/56/243 1134/55/11
f 1134/55/11 1130/56/243 1135/56/11
f 1136/58/11 1137/56/11 1130/56/11
f 1137/56/11 1136/58/11 1138/58/11
f 1139/58/11 1140/59/11 1138/58/11
f 1140/59/11 1139/58/11 1141/59/11
f 1142/126/11 1143/60/11 1144/126/11
f 1143/60/11 1142/126/11 1145/60/11
f 1146/85/11 1142/126/11 1144/126/11
f 1142/126/11 1146/85/11 1147/85/11
f 1148/55/11 1149/56/11 1150/55/11
f 1151/120/11 1152/121/11 1153/121/11
f 1151/120/11 1153/121/11 1154/120/11
f 1155/55/11 1156/57/11 1157/57/11
f 1156/57/11 1155/55/11 1158/55/11
f 1159/54/11 1160/99/11 1161/99/11
f 1160/99/11 1159/54/11 1162/54/11
f 1163/95/255 1164/91/256 1165/70/256
f 1166/92/256 1164/91/256 1163/95/255
f 1164/91/256 1166/92/256 1167/89/256
f 1165/70/256 1164/91/256 1168/68/256
f 1165/70/256 1168/68/256 1169/64/256
f 1165/70/256 1169/64/256 1170/65/256
