# Blender 5.1.1
# www.blender.org
mtllib body + backsight8.mtl
o sight.001
v -0.445802 0.590910 -0.088411
v -0.417824 0.590910 -0.088411
v -0.417824 0.517080 -0.097996
v -0.445802 0.517080 -0.097996
v -0.445802 0.664740 -0.078827
v -0.417824 0.664740 -0.078827
v -0.445802 0.517074 0.088928
v -0.417824 0.517074 0.088928
v -0.417824 0.590904 0.079349
v -0.445802 0.590904 0.079349
v -0.417824 0.664735 0.069769
v -0.445802 0.664735 0.069769
v -0.445802 0.664740 -0.078827
v -0.417824 0.682619 -0.004528
v -0.417824 0.664740 -0.078827
v -0.445802 0.682619 -0.004528
v -0.417824 0.664735 0.069769
v -0.445802 0.664735 0.069769
v -0.417824 0.655456 -0.004529
v -0.417824 0.637414 0.039022
v -0.417824 0.641864 -0.004530
v -0.417824 0.637417 -0.048082
v -0.417824 0.627804 0.029411
v -0.417824 0.627806 -0.038471
v -0.417824 0.593862 0.057061
v -0.417824 0.593862 0.043469
v -0.417824 0.593866 -0.066123
v -0.417824 0.593865 -0.052531
v -0.417824 0.559924 -0.038473
v -0.417824 0.550310 0.039019
v -0.417824 0.590904 0.079349
v -0.417824 0.517074 0.088928
v -0.417824 0.532272 -0.004533
v -0.417824 0.545864 -0.004533
v -0.417824 0.550310 0.039019
v -0.445802 0.637414 0.039022
v -0.445802 0.641864 -0.004530
v -0.445802 0.627804 0.029411
v -0.445802 0.593862 0.057061
v -0.445802 0.593862 0.043469
v -0.445802 0.590904 0.079349
v -0.445802 0.550310 0.039019
v -0.445802 0.517074 0.088928
v -0.445802 0.559922 0.029409
v -0.445802 0.593862 0.057061
v -0.445802 0.593862 0.043469
v -0.445802 0.655456 -0.004529
v -0.445802 0.664735 0.069769
v -0.445802 0.682619 -0.004528
v -0.445802 0.664740 -0.078827
v -0.445802 0.637417 -0.048082
v -0.445802 0.627806 -0.038471
v -0.445802 0.590910 -0.088411
v -0.445802 0.593866 -0.066123
v -0.445802 0.593865 -0.052531
v -0.445802 0.559924 -0.038473
v -0.445802 0.550313 -0.048085
v -0.445802 0.517080 -0.097996
v -0.417824 0.550313 -0.048085
v -0.417824 0.593866 -0.066123
v -0.417824 0.559924 -0.038473
v -0.417824 0.590910 -0.088411
v -0.417824 0.637417 -0.048082
v -0.417824 0.664740 -0.078827
v -0.417824 0.655456 -0.004529
v -0.417824 0.682619 -0.004528
v -0.417824 0.664735 0.069769
v -0.417824 0.637414 0.039022
v -0.417824 0.590904 0.079349
v -0.417824 0.593862 0.057061
v -0.417824 0.517074 0.088928
v -0.417824 0.550310 0.039019
v -0.417824 0.559922 0.029409
v -0.417824 0.593862 0.057061
v -0.417824 0.593862 0.043469
v -0.417824 0.532272 -0.004533
v -0.417824 0.550313 -0.048085
v -0.417824 0.545864 -0.004533
v -0.417824 0.517080 -0.097996
v -0.417824 0.590910 -0.088411
v -0.417824 0.550313 -0.048085
v -0.417824 0.559924 -0.038473
v -0.417824 0.545864 -0.004533
v -0.417824 0.550313 -0.048085
v -0.445802 0.550313 -0.048085
v -0.445802 0.545864 -0.004533
v -0.445802 0.559924 -0.038473
v -0.445802 0.545864 -0.004533
v -0.445802 0.550313 -0.048085
v -0.445802 0.532272 -0.004533
v -0.445802 0.550313 -0.048085
v -0.445802 0.517080 -0.097996
v -0.417824 0.550310 0.039019
v -0.417824 0.545864 -0.004533
v -0.417824 0.559922 0.029409
v -0.445802 0.532272 -0.004533
v -0.445802 0.550310 0.039019
v -0.445802 0.545864 -0.004533
v -0.445802 0.559922 0.029409
v -0.445802 0.550310 0.039019
v -0.445802 0.517074 0.088928
v -0.445802 0.590904 0.079349
v -0.445802 0.593862 0.057061
v -0.445802 0.664735 0.069769
v -0.445802 0.637414 0.039022
v -0.445802 0.593865 -0.052531
v -0.417824 0.627806 -0.038471
v -0.445802 0.627806 -0.038471
v -0.445802 0.641864 -0.004530
v -0.417824 0.593865 -0.052531
v -0.445802 0.559924 -0.038473
v -0.417824 0.559924 -0.038473
v -0.417824 0.641864 -0.004530
v -0.445802 0.627804 0.029411
v -0.417824 0.627804 0.029411
v -0.445802 0.593862 0.043469
v -0.417824 0.593862 0.043469
v -0.417824 0.593862 0.043469
v -0.445802 0.559922 0.029409
v -0.445802 0.593862 0.043469
v -0.417824 0.559922 0.029409
v -0.445802 0.545864 -0.004533
v -0.417824 0.545864 -0.004533
v -0.445802 0.559924 -0.038473
v -0.417824 0.559924 -0.038473
v -0.445802 0.559922 0.029409
v -0.417824 0.559922 0.029409
v -0.445802 0.545864 -0.004533
v -0.417824 0.545864 -0.004533
vn 0.0005 0.1286 -0.9917
vn 0.0003 0.1286 -0.9917
vn -0.0005 0.1285 0.9917
vn -0.0003 0.1286 0.9917
vn 0.0005 0.1285 0.9917
vn 0.0003 0.9723 -0.2339
vn 0.0005 1.0000 0.0005
vn 0.0005 0.9723 -0.2339
vn 0.0003 0.9722 0.2340
vn 0.0005 0.9722 0.2339
vn 1.0000 0.0005 -0.0005
vn 1.0000 0.0005 0.0005
vn 1.0000 -0.0005 -0.0005
vn -1.0000 0.0004 -0.0004
vn -1.0000 0.0005 -0.0005
vn -1.0000 0.0005 0.0005
vn -1.0000 -0.0005 -0.0005
vn -1.0000 -0.0005 0.0005
vn -1.0000 0.0003 -0.0003
vn 1.0000 -0.0005 0.0005
vn 0.0005 -0.0005 1.0000
vn -0.0005 -0.7330 0.6802
vn -0.0000 -0.7330 0.6802
vn -0.0005 -1.0000 -0.0005
vn 0.0005 0.7329 0.6803
vn -0.0000 0.7329 0.6803
vn -0.0005 -0.7330 -0.6803
vn -0.0000 -0.7329 -0.6803
vn -0.0000 0.0005 -1.0000
vn 0.0005 0.0005 -1.0000
vn -0.0000 0.0006 -1.0000
vn -0.0000 0.7330 -0.6802
vn 0.0005 0.0006 -1.0000
vn 0.0005 0.7330 -0.6802
vn 0.0005 1.0000 0.0006
vn -0.0000 1.0000 0.0006
vn -0.0000 0.7330 0.6803
vn 0.0005 0.7330 0.6803
vn -0.0000 1.0000 0.0005
vt 0.620435 0.615065
vt 0.875000 0.580916
vt 0.875000 0.696988
vt 0.623569 0.707695
vt 0.617302 0.522434
vt 0.875000 0.464843
vt 0.376431 0.707695
vt 0.125000 0.696988
vt 0.125000 0.580916
vt 0.379565 0.615065
vt 0.125000 0.464843
vt 0.382698 0.522434
vt 0.500000 0.250000
vt 0.617302 0.227566
vt 0.500000 0.500000
vt 0.382698 0.227566
vt 0.250000 0.604285
vt 0.125000 0.604285
vt 0.375000 0.604285
vt 0.000000 0.604285
vt 0.500000 0.604285
vt 0.625000 0.604285
vt 0.875000 0.604285
vt 0.885715 0.250000
vt 0.840024 0.360309
vt 0.125000 0.895716
vt 0.250000 0.895716
vt 0.000000 0.895716
vt 0.875000 0.895716
vt 1.000000 0.895716
vt 0.375000 0.895716
vt 0.500000 0.895716
vt 0.625000 0.895716
vt 1.000000 0.604285
vt 0.840024 0.139691
vt 0.815421 0.080294
vt 0.000000 0.000000
vt 0.523990 0.080294
vt 0.548593 0.139691
vt 0.594285 0.250000
vt 0.548593 0.360309
s 1
f 1/1/1 2/2/2 3/3/1
f 1/1/1 3/3/1 4/4/1
f 5/5/1 2/2/2 1/1/1
f 5/5/1 6/6/1 2/2/2
f 7/7/3 8/8/3 9/9/3
f 7/7/3 9/9/3 10/10/4
f 10/10/4 9/9/3 11/11/5
f 10/10/4 11/11/5 12/12/5
f 13/5/6 14/13/7 15/14/8
f 14/13/7 13/5/6 16/15/7
f 16/15/7 17/16/9 14/13/7
f 17/16/9 16/15/7 18/12/10
f 19/17/11 20/18/11 21/17/11
f 21/17/11 22/19/11 19/17/11
f 21/17/11 20/18/11 23/18/12
f 22/19/11 21/17/11 24/19/11
f 23/18/12 20/18/11 25/20/12
f 26/20/12 23/18/12 25/20/12
f 24/19/11 27/21/11 22/19/11
f 27/21/11 24/19/11 28/21/11
f 29/22/13 27/21/11 28/21/11
f 30/23/13 25/20/12 31/9/11
f 30/23/13 32/8/11 33/24/13
f 34/24/13 35/25/13 33/24/13
f 36/26/14 37/27/15 38/26/16
f 38/26/16 39/28/16 36/26/14
f 39/28/16 38/26/16 40/28/16
f 36/26/14 39/28/16 41/10/15
f 41/10/15 42/29/17 43/7/15
f 44/29/18 42/29/17 45/30/16
f 46/30/16 44/29/18 45/30/16
f 37/27/15 36/26/14 47/27/19
f 48/12/17 47/27/19 36/26/14
f 47/27/19 48/12/17 49/15/17
f 50/5/15 47/27/19 49/15/17
f 47/27/19 51/31/19 37/27/15
f 47/27/19 50/5/15 51/31/19
f 52/31/15 37/27/15 51/31/19
f 50/5/15 53/1/15 51/31/19
f 51/31/19 54/32/19 52/31/15
f 53/1/15 54/32/19 51/31/19
f 52/31/15 54/32/19 55/32/15
f 54/32/19 56/33/17 55/32/15
f 56/33/17 54/32/19 57/33/17
f 53/1/15 57/33/17 54/32/19
f 58/4/15 57/33/17 53/1/15
f 59/22/13 60/21/11 61/22/13
f 62/2/11 60/21/11 59/22/13
f 62/2/11 63/19/11 60/21/11
f 63/19/11 62/2/11 64/6/13
f 64/6/13 65/17/11 63/19/11
f 64/6/13 66/13/13 65/17/11
f 66/13/13 67/16/13 65/17/11
f 67/16/13 68/18/11 65/17/11
f 69/9/11 68/18/11 67/16/13
f 68/18/11 69/9/11 70/20/12
f 69/9/11 71/8/11 72/23/13
f 73/23/20 74/34/12 72/23/13
f 74/34/12 73/23/20 75/34/12
f 76/35/13 77/36/13 78/35/13
f 76/35/13 79/37/11 77/36/13
f 79/37/11 80/2/11 81/22/13
f 82/36/13 83/35/13 84/36/13
f 85/38/17 86/39/17 87/38/17
f 88/39/17 89/38/17 90/39/17
f 91/33/17 92/4/15 90/39/17
f 93/25/13 94/24/13 95/25/20
f 96/40/17 97/41/17 98/40/17
f 98/40/17 97/41/17 99/41/18
f 100/29/17 96/40/17 101/7/15
f 100/29/17 102/10/15 103/28/16
f 102/10/15 104/12/17 105/26/15
f 106/32/21 107/19/22 108/31/23
f 107/19/22 109/27/24 108/31/23
f 107/19/22 106/32/21 110/21/21
f 111/33/25 110/21/21 106/32/21
f 110/21/21 111/33/25 112/22/26
f 109/27/24 107/19/22 113/17/24
f 113/17/24 114/26/27 109/27/24
f 114/26/27 113/17/24 115/18/28
f 115/18/28 116/28/29 114/26/27
f 116/28/29 115/18/28 117/20/30
f 118/34/31 119/29/32 120/30/33
f 119/29/32 118/34/31 121/23/34
f 122/39/35 123/35/36 124/38/37
f 125/36/38 124/38/37 123/35/36
f 126/41/34 127/25/32 128/40/39
f 129/24/7 128/40/39 127/25/32
o default_98720125208382.001
v 1.481803 0.182268 0.157955
v 1.510311 0.113873 0.157953
v 1.490975 0.160265 0.136062
v 1.489363 0.164128 0.207954
v 1.490975 0.160274 -0.145154
v 1.510311 0.113884 -0.167047
v 1.481803 0.182279 -0.167045
v 1.489363 0.164143 -0.217046
v 1.353990 0.506223 -0.217034
v 1.361509 0.488175 -0.167035
v 1.353990 0.506208 0.207966
v 1.481803 0.182268 0.157955
v 1.361509 0.488164 0.157965
v 1.333157 0.556210 0.157968
v 1.353990 0.506208 0.207966
v 1.361509 0.488164 0.157965
v 1.352388 0.510057 0.136074
v 1.333157 0.556221 -0.167032
v 1.361509 0.488175 -0.167035
v 1.353990 0.506223 -0.217034
v 1.352388 0.510066 -0.145142
v 1.352388 0.510066 -0.145142
v 1.333157 0.556210 0.157968
v 1.352388 0.510057 0.136074
v 1.333157 0.556221 -0.167032
v 1.190512 0.601198 -0.002959
v 1.196802 0.563250 0.003330
v 1.196802 0.563251 -0.012394
v 1.190512 0.601198 -0.006103
v 1.212940 0.409980 -0.032114
v 1.212940 0.551192 -0.004533
v 1.212940 0.409979 -0.004537
v 1.212940 0.409978 0.023040
v 1.212940 0.562614 0.023045
v 1.212940 0.562616 -0.032109
v 1.212940 0.563193 -0.004532
v 1.212940 0.562614 0.023045
v 1.212940 0.563193 -0.004532
v 1.212940 0.572330 0.017530
v 1.212940 0.577249 0.029409
v 1.212940 0.562614 0.023045
v 1.212940 0.577252 -0.038473
v 1.212940 0.562616 -0.032109
v 1.212940 0.568767 -0.046958
v 1.212940 0.572331 -0.026594
v 1.212940 0.611190 0.043469
v 1.212940 0.632404 0.046683
v 1.212940 0.611190 0.055469
v 1.212940 0.628161 0.036440
v 1.212940 0.568764 0.037894
v 1.212940 0.611190 0.043469
v 1.212940 0.611190 0.055469
v 1.212940 0.577249 0.029409
v 1.212940 0.568767 -0.046958
v 1.212940 0.611194 -0.064530
v 1.212940 0.611193 -0.052531
v 1.212940 0.577252 -0.038473
v 1.212940 0.632407 -0.055743
v 1.212940 0.628164 -0.045501
v 1.212940 0.563193 -0.004532
v 1.212940 0.562616 -0.032109
v 1.212940 0.572331 -0.026594
v 1.212940 0.562614 0.023045
v 1.212940 0.577249 0.029409
v 1.212940 0.568764 0.037894
v -1.371079 -0.129062 -0.004555
v -1.371079 -0.058019 -0.139553
v -1.371079 -0.129059 -0.139555
v -1.371079 -0.058022 -0.004553
v -1.371079 -0.058028 0.130447
v -1.371079 -0.129068 0.130445
v -1.371079 0.013021 -0.139551
v -1.371079 0.013017 -0.004551
v -1.371079 0.084057 -0.004548
v -1.371079 0.084061 -0.139548
v -1.371079 0.013012 0.130449
v -1.371079 0.084052 0.130452
v -1.336920 -0.307568 -0.004561
v -1.336920 0.081336 -0.004548
v -1.336920 -0.307565 -0.117738
v -1.336920 0.081339 -0.117725
v -1.336920 -0.307572 0.108617
v -1.336920 0.081332 0.108630
v 0.986076 0.092247 -0.093359
v 0.824962 -0.417125 -0.004565
v 0.824962 -0.417122 -0.093376
v 0.986076 0.092244 -0.004548
v 0.531725 0.098530 0.084263
v 0.986076 0.092241 0.084263
v 0.986076 0.092244 -0.004548
v 0.824962 -0.417125 -0.004565
v 0.986076 0.092241 0.084263
v 0.824962 -0.417128 0.084246
v 0.746710 -0.493664 -0.004568
v 0.746710 -0.493667 0.084243
v 0.791525 -0.038903 -0.080863
v 0.680944 -0.388509 -0.080875
v 0.680944 -0.388508 -0.093375
v 0.791525 -0.038902 -0.093363
v 0.680944 -0.388514 0.071747
v 0.791525 -0.038908 0.071759
v 0.680944 -0.388514 0.084247
v 0.791525 -0.038908 0.084259
v 0.695402 -0.058262 -0.080864
v 0.590944 -0.388509 -0.080875
v 0.590944 -0.388508 -0.093375
v 0.695402 -0.058261 -0.093364
v 0.590944 -0.388514 0.071747
v 0.695402 -0.058267 0.071758
v 0.590944 -0.388514 0.084247
v 0.695402 -0.058267 0.084258
v -1.140083 -0.128486 -0.105233
v -0.970799 0.137142 -0.105224
v -1.140083 -0.128486 -0.117733
v -0.924581 0.209715 -0.117722
v -0.970799 0.137135 0.096132
v -1.140083 -0.128493 0.096123
v -1.140083 -0.128493 0.108623
v -0.924581 0.209708 0.108634
v 0.824962 -0.417122 -0.093376
v 0.746710 -0.493664 -0.004568
v 0.746710 -0.493661 -0.093379
v 0.824962 -0.417125 -0.004565
v 0.410840 -0.493661 -0.093379
v 0.410840 -0.493664 -0.004568
v 0.746710 -0.493667 0.084243
v 0.410840 -0.493667 0.084243
v 0.746710 -0.493664 -0.004568
v 0.410840 -0.493664 -0.004568
v -0.826425 0.106715 -0.105225
v -0.709291 0.277593 -0.117720
v -0.826425 0.106715 -0.117725
v -0.709291 0.277593 -0.105220
v -0.826425 0.106708 0.108631
v -0.709291 0.277586 0.108636
v -0.826425 0.106708 0.096131
v -0.709291 0.277586 0.096136
v 0.372633 0.006336 -0.004551
v 0.269993 -0.284556 -0.004561
v 0.269993 -0.284552 -0.139561
v 0.372633 0.006340 -0.139551
v 0.269993 -0.284561 0.130439
v 0.372633 0.006331 0.130449
v 1.190512 0.601198 -0.006103
v 1.187368 0.601198 -0.002959
v 1.190512 0.601198 -0.002959
v 1.187368 0.601198 -0.006103
v -0.005007 -0.396176 -0.139564
v 0.269993 -0.284552 -0.139561
v 0.269993 -0.284556 -0.004561
v -0.005007 -0.396176 -0.139564
v 0.269993 -0.284556 -0.004561
v -0.005007 -0.396180 -0.004564
v 0.269993 -0.284556 -0.004561
v -0.005007 -0.396185 0.130436
v -0.005007 -0.396180 -0.004564
v 0.269993 -0.284561 0.130439
v 1.212940 0.632404 0.046683
v 1.164940 0.628161 0.036440
v 1.164940 0.632404 0.046683
v 1.212940 0.628161 0.036440
v 1.212940 0.563193 -0.004532
v 1.164940 0.572331 -0.026594
v 1.164940 0.563193 -0.004532
v 1.212940 0.572331 -0.026594
v 1.164940 0.577252 -0.038473
v 1.212940 0.577252 -0.038473
v 1.212940 0.572330 0.017530
v 1.164940 0.572330 0.017530
v 1.212940 0.577249 0.029409
v 1.164940 0.577249 0.029409
v 1.212940 0.632407 -0.055743
v 1.164940 0.632407 -0.055743
v 1.212940 0.628164 -0.045501
v 1.164940 0.628164 -0.045501
v -0.609291 0.277593 -0.117720
v -0.726425 0.106715 -0.117725
v -0.726425 0.106715 -0.105225
v -0.609291 0.277593 -0.105220
v -0.726425 0.106708 0.108631
v -0.609291 0.277586 0.108636
v -0.726425 0.106708 0.096131
v -0.609291 0.277586 0.096136
v 1.333157 0.556210 0.157968
v 1.333157 0.556221 -0.167032
v 1.111976 0.556210 0.157968
v 1.111976 0.556221 -0.167032
v 0.279270 -0.030793 -0.127052
v 0.197395 -0.232271 -0.127059
v 0.197395 -0.232271 -0.139559
v 0.279270 -0.030793 -0.139552
v 0.197395 -0.232280 0.117941
v 0.279270 -0.030802 0.117948
v 0.197395 -0.232280 0.130441
v 0.279270 -0.030802 0.130448
v 1.132809 0.506208 0.207966
v 1.353990 0.506208 0.207966
v 1.333157 0.556210 0.157968
v 1.111976 0.556210 0.157968
v 1.333157 0.556221 -0.167032
v 1.132809 0.506223 -0.217034
v 1.111976 0.556221 -0.167032
v 1.353990 0.506223 -0.217034
v -0.173014 -0.442143 -0.139566
v -0.071767 -0.508676 -0.139568
v -0.071767 -0.508680 -0.004568
v -0.173014 -0.442147 -0.004566
v -0.173014 -0.442147 -0.004566
v -0.071767 -0.508680 -0.004568
v -0.173014 -0.442152 0.130434
v -0.071767 -0.508685 0.130432
v -0.068087 -0.338464 -0.139562
v 0.197395 -0.232271 -0.139559
v 0.197395 -0.232271 -0.127059
v -0.068087 -0.338464 -0.127062
v 0.197395 -0.232280 0.117941
v -0.068087 -0.338473 0.130438
v -0.068087 -0.338473 0.117938
v 0.197395 -0.232280 0.130441
v 0.273450 0.506336 -0.004534
v 0.107759 0.506340 -0.134534
v 0.107759 0.506336 -0.004534
v 0.369096 0.506340 -0.134534
v 0.369096 0.506336 -0.004534
v 0.107759 0.506331 0.125466
v 0.273450 0.506336 -0.004534
v 0.107759 0.506336 -0.004534
v 0.369096 0.506331 0.125466
v 0.369096 0.506336 -0.004534
v -0.527345 0.245834 -0.117721
v -0.626425 0.106715 -0.117725
v -0.626425 0.106715 -0.105225
v -0.527345 0.245834 -0.105221
v -0.527345 0.245827 0.108635
v -0.626425 0.106708 0.096131
v -0.626425 0.106708 0.108631
v -0.527345 0.245827 0.096135
v 0.121301 0.473841 -0.167035
v 0.369096 0.506340 -0.134534
v 0.382637 0.473841 -0.167035
v 0.107759 0.506340 -0.134534
v 0.369096 0.506331 0.125466
v 0.121301 0.473830 0.157965
v 0.382637 0.473830 0.157965
v 0.107759 0.506331 0.125466
v -0.071767 -0.508680 -0.004568
v -0.071767 -0.508676 -0.139568
v -0.005007 -0.396176 -0.139564
v -0.005007 -0.396180 -0.004564
v -0.071767 -0.508680 -0.004568
v -0.005007 -0.396185 0.130436
v -0.071767 -0.508685 0.130432
v -0.005007 -0.396180 -0.004564
v -0.222461 0.426339 -0.117715
v -0.966919 0.426339 -0.117715
v -0.222461 0.426336 -0.004537
v -0.966919 0.426336 -0.004537
v -1.036920 0.326339 -0.117718
v -1.036919 0.326336 -0.004540
v -1.336919 0.326336 -0.004540
v -1.336920 0.326339 -0.117718
v -0.966919 0.426332 0.108640
v -0.222461 0.426332 0.108640
v -0.222461 0.426336 -0.004537
v -0.966919 0.426336 -0.004537
v -1.036920 0.326332 0.108637
v -1.036919 0.326336 -0.004540
v -1.336919 0.326336 -0.004540
v -1.336920 0.326332 0.108637
v 0.695402 -0.058261 -0.093364
v 0.752601 -0.046741 -0.093364
v 0.752601 -0.046742 -0.080864
v 0.695402 -0.058262 -0.080864
v 0.791525 -0.038902 -0.093363
v 0.848724 -0.027383 -0.093363
v 0.848724 -0.027384 -0.080863
v 0.791525 -0.038903 -0.080863
v 0.752601 -0.046747 0.071758
v 0.695402 -0.058267 0.084258
v 0.695402 -0.058267 0.071758
v 0.752601 -0.046747 0.084258
v 0.848724 -0.027389 0.071759
v 0.791525 -0.038908 0.084259
v 0.791525 -0.038908 0.071759
v 0.848724 -0.027389 0.084259
v -0.068087 -0.338464 -0.127062
v -0.122940 -0.430616 -0.127066
v -0.122940 -0.430616 -0.139566
v -0.068087 -0.338464 -0.139562
v -0.122940 -0.430625 0.117934
v -0.068087 -0.338473 0.117938
v -0.122940 -0.430625 0.130434
v -0.068087 -0.338473 0.130438
v 1.489363 0.164128 0.207954
v 1.307301 0.072988 0.157951
v 1.510311 0.113873 0.157953
v 1.286354 0.123243 0.207953
v 1.307301 0.072999 -0.167049
v 1.510311 0.113884 -0.167047
v 1.489363 0.164143 -0.217046
v 1.286354 0.123258 -0.217047
v -0.596906 -0.182281 -0.128859
v -0.256906 -0.182281 -0.128859
v -0.288384 -0.235169 -0.004559
v -0.628384 -0.235169 -0.004559
v -0.256906 -0.182290 0.119745
v -0.596906 -0.182290 0.119745
v -0.288384 -0.235169 -0.004559
v -0.628384 -0.235169 -0.004559
v -1.371079 0.084057 -0.004548
v -1.341971 0.084061 -0.126678
v -1.371079 0.084061 -0.139548
v -1.341970 0.084061 -0.139548
v -1.341971 0.084057 -0.004548
v -1.223791 0.084061 -0.126678
v -1.341971 0.084052 0.117582
v -1.223791 0.084061 -0.139548
v -1.161252 0.194300 -0.139545
v -1.161252 0.194300 -0.126675
v -1.371079 0.084052 0.130452
v -1.341970 0.084052 0.130452
v -1.223791 0.084052 0.117582
v -1.223791 0.084052 0.130452
v -1.161252 0.194291 0.130455
v -1.161252 0.194291 0.117585
v 1.164940 0.611190 0.055469
v 1.212940 0.611190 0.055469
v 1.212940 0.632404 0.046683
v 1.164940 0.632404 0.046683
v 0.574013 0.009808 -0.167051
v 0.346367 -0.068028 -0.139553
v 0.332756 -0.035371 -0.167052
v 0.587624 -0.022849 -0.139552
v 0.587624 -0.022853 -0.004552
v 0.346367 -0.068032 -0.004553
v 0.574013 0.009797 0.157949
v 0.346367 -0.068037 0.130447
v 0.587624 -0.022858 0.130448
v 0.332756 -0.035382 0.157948
v 0.587624 -0.022853 -0.004552
v 0.346367 -0.068032 -0.004553
v -0.405746 0.138867 -0.128848
v -0.405746 0.138863 -0.004546
v -0.306060 0.306340 -0.128843
v -0.306060 0.306336 -0.004541
v -0.468246 0.033863 -0.004550
v -0.468246 0.033867 -0.128852
v -0.596906 -0.182281 -0.128859
v -0.628384 -0.235169 -0.004559
v -0.306060 0.306331 0.119761
v -0.405746 0.138863 -0.004546
v -0.405746 0.138858 0.119756
v -0.306060 0.306336 -0.004541
v -0.468246 0.033863 -0.004550
v -0.468246 0.033858 0.119752
v -0.596906 -0.182290 0.119745
v -0.628384 -0.235169 -0.004559
v -0.306060 0.306336 -0.004541
v 0.033940 0.306336 -0.004541
v 0.033940 0.306340 -0.128843
v -0.306060 0.306340 -0.128843
v 0.033940 0.306331 0.119761
v -0.306060 0.306336 -0.004541
v -0.306060 0.306331 0.119761
v 0.033940 0.306336 -0.004541
v 1.353990 0.506223 -0.217034
v 1.489363 0.164143 -0.217046
v 1.286354 0.123258 -0.217047
v 1.132809 0.506223 -0.217034
v 1.353990 0.506208 0.207966
v 1.286354 0.123243 0.207953
v 1.489363 0.164128 0.207954
v 1.132809 0.506208 0.207966
v 0.325471 0.127832 -0.167047
v 0.526808 0.127832 -0.167047
v 0.295500 0.055763 -0.167049
v 0.556837 0.055763 -0.167049
v 0.526808 0.127832 -0.167047
v 0.325471 0.127832 -0.167047
v 0.444062 0.326422 -0.167040
v 0.242725 0.326422 -0.167040
v 0.295500 0.055763 -0.167049
v 0.556837 0.055763 -0.167049
v 0.332756 -0.035371 -0.167052
v 0.574013 0.009808 -0.167051
v 0.154329 0.394573 -0.167038
v 0.415666 0.394573 -0.167038
v 0.242725 0.326422 -0.167040
v 0.444062 0.326422 -0.167040
v 0.121301 0.473841 -0.167035
v 0.382637 0.473841 -0.167035
v 0.154329 0.394573 -0.167038
v 0.415666 0.394573 -0.167038
v 0.295500 0.055752 0.157951
v 0.556837 0.055752 0.157951
v 0.526808 0.127821 0.157953
v 0.325471 0.127821 0.157953
v 0.526808 0.127821 0.157953
v 0.444062 0.326411 0.157960
v 0.325471 0.127821 0.157953
v 0.242725 0.326411 0.157960
v 0.556837 0.055752 0.157951
v 0.332756 -0.035382 0.157948
v 0.574013 0.009797 0.157949
v 0.295500 0.055752 0.157951
v 0.242725 0.326411 0.157960
v 0.444062 0.326411 0.157960
v 0.415666 0.394562 0.157962
v 0.154329 0.394562 0.157962
v 0.154329 0.394562 0.157962
v 0.415666 0.394562 0.157962
v 0.382637 0.473830 0.157965
v 0.121301 0.473830 0.157965
v 1.212940 0.577249 0.029409
v 1.164940 0.577249 0.029409
v 1.212940 0.611190 0.043469
v 1.164940 0.611190 0.043469
v -0.093560 -0.308660 -0.139561
v -0.122940 -0.430616 -0.139566
v -0.173014 -0.442143 -0.139566
v -0.068087 -0.338464 -0.139562
v -0.173014 -0.442143 -0.139566
v -0.083862 -0.456296 -0.139566
v -0.071767 -0.508676 -0.139568
v -0.122940 -0.430616 -0.139566
v 0.168940 -0.203660 -0.139558
v 0.254278 0.006340 -0.139551
v 0.279270 -0.030793 -0.139552
v 0.197395 -0.232271 -0.139559
v 0.168940 -0.203660 -0.139558
v -0.068087 -0.338464 -0.139562
v -0.093560 -0.308660 -0.139561
v 0.197395 -0.232271 -0.139559
v 0.320154 -0.030793 -0.139552
v 0.279270 -0.030793 -0.139552
v 0.254278 0.006340 -0.139551
v 0.372633 0.006340 -0.139551
v -0.083862 -0.456296 -0.139566
v -0.030559 -0.366472 -0.139563
v -0.005007 -0.396176 -0.139564
v -0.071767 -0.508676 -0.139568
v -0.005007 -0.396176 -0.139564
v 0.240538 -0.256432 -0.139560
v 0.269993 -0.284552 -0.139561
v -0.030559 -0.366472 -0.139563
v 0.269993 -0.284552 -0.139561
v 0.320154 -0.030793 -0.139552
v 0.372633 0.006340 -0.139551
v 0.240538 -0.256432 -0.139560
v -0.093560 -0.308669 0.130439
v -0.122940 -0.430625 0.130434
v -0.068087 -0.338473 0.130438
v -0.173014 -0.442152 0.130434
v -0.173014 -0.442152 0.130434
v -0.083862 -0.456305 0.130434
v -0.122940 -0.430625 0.130434
v -0.071767 -0.508685 0.130432
v 0.254278 0.006331 0.130449
v 0.168940 -0.203669 0.130442
v 0.279270 -0.030802 0.130448
v 0.197395 -0.232280 0.130441
v 0.168940 -0.203669 0.130442
v -0.068087 -0.338473 0.130438
v 0.197395 -0.232280 0.130441
v -0.093560 -0.308669 0.130439
v 0.372633 0.006331 0.130449
v 0.254278 0.006331 0.130449
v 0.320154 -0.030802 0.130448
v 0.279270 -0.030802 0.130448
v -0.071767 -0.508685 0.130432
v -0.005007 -0.396185 0.130436
v -0.083862 -0.456305 0.130434
v -0.030559 -0.366481 0.130437
v 0.240538 -0.256441 0.130440
v -0.005007 -0.396185 0.130436
v 0.269993 -0.284561 0.130439
v -0.030559 -0.366481 0.130437
v 0.269993 -0.284561 0.130439
v 0.320154 -0.030802 0.130448
v 0.240538 -0.256441 0.130440
v 0.372633 0.006331 0.130449
v -1.341970 0.226141 -0.139543
v -1.111079 0.288740 -0.139541
v -1.111079 0.226141 -0.139543
v -1.411079 0.288740 -0.139541
v -1.161079 0.351340 -0.139539
v -1.371079 0.351340 -0.139539
v -1.371079 0.226141 -0.139543
v -1.371079 0.194300 -0.139545
v -1.341970 0.194300 -0.139545
v -1.161252 0.194300 -0.139545
v -1.111079 0.100942 -0.139548
v -1.223791 0.084061 -0.139548
v -1.167079 0.008942 -0.139551
v -1.264092 0.013021 -0.139551
v -1.211336 -0.063767 -0.139553
v -1.341970 0.084061 -0.139548
v -1.304393 -0.058019 -0.139553
v -1.341970 0.013021 -0.139551
v -1.371079 0.013021 -0.139551
v -1.371079 0.084061 -0.139548
v -1.251079 -0.129058 -0.139555
v -1.341970 -0.129058 -0.139555
v -1.341970 -0.058019 -0.139553
v -1.371079 -0.058019 -0.139553
v -1.371079 -0.129059 -0.139555
v -1.341970 0.226132 0.130457
v -1.111079 0.226132 0.130457
v -1.111079 0.288731 0.130459
v -1.161252 0.194291 0.130455
v -1.111079 0.100933 0.130452
v -1.223791 0.084052 0.130452
v -1.341970 0.194291 0.130455
v -1.167079 0.008933 0.130449
v -1.371079 0.194291 0.130455
v -1.371079 0.226132 0.130457
v -1.411079 0.288731 0.130459
v -1.161079 0.351331 0.130461
v -1.371079 0.351331 0.130461
v -1.264092 0.013012 0.130449
v -1.211336 -0.063776 0.130447
v -1.341970 0.084052 0.130452
v -1.304393 -0.058028 0.130447
v -1.341970 0.013012 0.130449
v -1.371079 0.013012 0.130449
v -1.371079 0.084052 0.130452
v -1.251079 -0.129067 0.130445
v -1.341970 -0.129067 0.130445
v -1.341970 -0.058028 0.130447
v -1.371079 -0.058028 0.130447
v -1.371079 -0.129068 0.130445
v -0.306060 0.306340 -0.128843
v -0.065746 0.138867 -0.128848
v -0.405746 0.138867 -0.128848
v 0.033940 0.306340 -0.128843
v -0.150469 0.061293 -0.128851
v -0.413373 0.061293 -0.128851
v -0.128246 0.033867 -0.128852
v -0.468246 0.033867 -0.128852
v -0.173536 0.022541 -0.128852
v -0.436440 0.022541 -0.128852
v -0.186511 0.000743 -0.128853
v -0.209577 -0.038009 -0.128854
v -0.449415 0.000743 -0.128853
v -0.256906 -0.182281 -0.128859
v -0.472481 -0.038009 -0.128854
v -0.596906 -0.182281 -0.128859
v -0.065746 0.138858 0.119756
v -0.306060 0.306331 0.119761
v -0.405746 0.138858 0.119756
v 0.033940 0.306331 0.119761
v -0.150469 0.061284 0.119753
v -0.413373 0.061284 0.119753
v -0.128246 0.033858 0.119752
v -0.468246 0.033858 0.119752
v -0.173536 0.022533 0.119752
v -0.436440 0.022533 0.119752
v -0.186511 0.000734 0.119751
v -0.209577 -0.038017 0.119750
v -0.449415 0.000734 0.119751
v -0.256906 -0.182290 0.119745
v -0.472481 -0.038017 0.119750
v -0.596906 -0.182290 0.119745
v 0.279270 -0.030793 -0.139552
v 0.320154 -0.030793 -0.139552
v 0.320154 -0.030793 -0.127052
v 0.279270 -0.030793 -0.127052
v 0.320154 -0.030802 0.117948
v 0.279270 -0.030802 0.130448
v 0.279270 -0.030802 0.117948
v 0.320154 -0.030802 0.130448
v -0.726425 0.106715 -0.117725
v -0.609291 0.277593 -0.117720
v -0.669570 0.106715 -0.117725
v -0.570490 0.245834 -0.117721
v -0.527345 0.245834 -0.117721
v -0.946920 0.081339 -0.117726
v -0.222461 0.426339 -0.117715
v -0.342461 0.081339 -0.117725
v -0.626425 0.106715 -0.117725
v -0.966919 0.426339 -0.117715
v -0.769570 0.106715 -0.117725
v -0.652437 0.277593 -0.117720
v -0.709291 0.277593 -0.117720
v -0.826425 0.106715 -0.117725
v -0.709291 0.277593 -0.117720
v -0.869570 0.106715 -0.117725
v -0.752437 0.277593 -0.117720
v -0.924581 0.209715 -0.117722
v -0.996234 0.209715 -0.117722
v -1.036920 0.326339 -0.117718
v -0.996234 0.209715 -0.117722
v -1.336920 0.326339 -0.117718
v -1.336920 0.081339 -0.117725
v -1.211736 -0.128486 -0.117733
v -1.336920 -0.307565 -0.117738
v -1.236920 -0.348661 -0.117740
v -1.295824 -0.348661 -0.117740
v -1.140083 -0.128486 -0.117733
v -0.924581 0.209715 -0.117722
v -0.609291 0.277586 0.108636
v -0.726425 0.106708 0.108631
v -0.669570 0.106708 0.108631
v -0.570490 0.245827 0.108635
v -0.527345 0.245827 0.108635
v -0.946920 0.081332 0.108630
v -0.222461 0.426332 0.108640
v -0.342461 0.081332 0.108630
v -0.626425 0.106708 0.108631
v -0.966919 0.426332 0.108640
v -0.769570 0.106708 0.108631
v -0.652437 0.277586 0.108636
v -0.709291 0.277586 0.108636
v -0.826425 0.106708 0.108631
v -0.709291 0.277586 0.108636
v -0.869570 0.106708 0.108631
v -0.752437 0.277586 0.108636
v -0.924581 0.209708 0.108634
v -0.996234 0.209708 0.108634
v -1.036920 0.326332 0.108637
v -0.924581 0.209708 0.108634
v -1.140083 -0.128493 0.108623
v -1.236920 -0.348668 0.108615
v -1.211736 -0.128493 0.108623
v -1.336920 -0.307572 0.108617
v -1.295824 -0.348668 0.108615
v -1.336920 0.081332 0.108630
v -0.996234 0.209708 0.108634
v -1.336920 0.326332 0.108637
v -1.042452 0.137142 -0.105224
v -0.996234 0.209715 -0.117722
v -0.970799 0.137142 -0.105224
v -0.970799 0.137142 -0.105224
v -0.996234 0.209715 -0.117722
v -0.924581 0.209715 -0.117722
v -0.996234 0.209708 0.108634
v -1.042452 0.137135 0.096132
v -0.970799 0.137135 0.096132
v -0.970799 0.137135 0.096132
v -0.924581 0.209708 0.108634
v -0.996234 0.209708 0.108634
v 0.986076 0.092247 -0.093359
v 0.824962 -0.417122 -0.093376
v 0.848724 -0.027383 -0.093363
v 0.734500 -0.388508 -0.093375
v 0.791525 -0.038902 -0.093363
v 0.746710 -0.493661 -0.093379
v 0.531725 0.098536 -0.093359
v 0.680944 -0.388508 -0.093375
v 0.752601 -0.046741 -0.093364
v 0.644500 -0.388508 -0.093375
v 0.695402 -0.058261 -0.093364
v 0.590944 -0.388508 -0.093375
v 0.356461 -0.417902 -0.093376
v 0.410840 -0.493661 -0.093379
v 0.824962 -0.417128 0.084246
v 0.848724 -0.027389 0.084259
v 0.734500 -0.388514 0.084247
v 0.986076 0.092241 0.084263
v 0.791525 -0.038908 0.084259
v 0.746710 -0.493667 0.084243
v 0.531725 0.098530 0.084263
v 0.680944 -0.388514 0.084247
v 0.752601 -0.046747 0.084258
v 0.695402 -0.058267 0.084258
v 0.644500 -0.388514 0.084247
v 0.356461 -0.417908 0.084246
v 0.590944 -0.388514 0.084247
v 0.410840 -0.493667 0.084243
v 1.187368 0.601198 -0.002959
v 1.181078 0.563250 0.003330
v 1.196802 0.563250 0.003330
v 1.190512 0.601198 -0.002959
v 1.190512 0.601198 -0.006103
v 1.196802 0.563251 -0.012394
v 1.181078 0.563251 -0.012394
v 1.187368 0.601198 -0.006103
v -0.449415 0.000743 -0.128853
v -0.186511 0.000743 -0.128853
v -0.186511 0.000742 -0.116353
v -0.449415 0.000742 -0.116353
v -0.186511 0.000735 0.107251
v -0.449415 0.000734 0.119751
v -0.449415 0.000735 0.107251
v -0.186511 0.000734 0.119751
v -1.371079 -0.058022 -0.004553
v -1.341970 -0.058019 -0.126683
v -1.371079 -0.058019 -0.139553
v -1.341970 -0.058019 -0.139553
v -1.341971 -0.058022 -0.004553
v -1.304393 -0.058019 -0.126683
v -1.341970 -0.058028 0.117577
v -1.304393 -0.058019 -0.139553
v -1.264092 0.013021 -0.139551
v -1.264092 0.013021 -0.126681
v -1.371079 -0.058028 0.130447
v -1.341970 -0.058028 0.130447
v -1.304393 -0.058028 0.117577
v -1.304393 -0.058028 0.130447
v -1.264092 0.013012 0.130449
v -1.264092 0.013012 0.117579
v -1.341970 0.013021 -0.126681
v -1.371079 0.013017 -0.004551
v -1.371079 0.013021 -0.139551
v -1.341970 0.013021 -0.139551
v -1.264092 0.013021 -0.139551
v -1.264092 0.013021 -0.126681
v -1.341971 0.013017 -0.004551
v -1.341970 0.013012 0.117579
v -1.371079 0.013012 0.130449
v -1.341970 0.013012 0.130449
v -1.264092 0.013012 0.130449
v -1.264092 0.013012 0.117579
v -0.091060 0.096336 -0.004548
v -0.065746 0.138867 -0.128848
v 0.033940 0.306336 -0.004541
v 0.033940 0.306340 -0.128843
v -0.128246 0.033867 -0.128852
v -0.128246 0.033863 -0.004550
v -0.256906 -0.182281 -0.128859
v -0.288384 -0.235169 -0.004559
v -0.091060 0.096336 -0.004548
v 0.033940 0.306336 -0.004541
v -0.065746 0.138858 0.119756
v 0.033940 0.306331 0.119761
v -0.128246 0.033858 0.119752
v -0.128246 0.033863 -0.004550
v -0.256906 -0.182290 0.119745
v -0.288384 -0.235169 -0.004559
v 1.212940 0.611193 -0.052531
v 1.164940 0.628164 -0.045501
v 1.164940 0.611193 -0.052531
v 1.212940 0.628164 -0.045501
v 1.212940 0.577252 -0.038473
v 1.164940 0.577252 -0.038473
v 1.212940 0.409978 0.023040
v 1.212940 0.562614 0.023045
v 1.164940 0.409978 0.023040
v 1.164940 0.409978 0.023040
v 1.212940 0.562614 0.023045
v 1.164940 0.562614 0.023045
v 0.986076 0.092247 -0.093359
v 0.531725 0.098536 -0.093359
v 0.986076 0.092244 -0.004548
v 0.531725 0.098533 -0.004548
v 0.531725 0.098530 0.084263
v 0.986076 0.092244 -0.004548
v 0.531725 0.098533 -0.004548
v -0.150469 0.061292 -0.116351
v -0.413373 0.061293 -0.128851
v -0.150469 0.061293 -0.128851
v -0.413373 0.061292 -0.116351
v -0.150469 0.061285 0.107253
v -0.413373 0.061284 0.119753
v -0.413373 0.061285 0.107253
v -0.150469 0.061284 0.119753
v -0.726425 0.106715 -0.105225
v -0.769570 0.106715 -0.117725
v -0.769570 0.106715 -0.105225
v -0.726425 0.106715 -0.117725
v -0.826425 0.106715 -0.105225
v -0.869570 0.106715 -0.117725
v -0.869570 0.106715 -0.105225
v -0.826425 0.106715 -0.117725
v -0.626425 0.106715 -0.105225
v -0.669570 0.106715 -0.117725
v -0.669570 0.106715 -0.105225
v -0.626425 0.106715 -0.117725
v -0.726425 0.106708 0.096131
v -0.769570 0.106708 0.108631
v -0.726425 0.106708 0.108631
v -0.769570 0.106708 0.096131
v -0.869570 0.106708 0.108631
v -0.826425 0.106708 0.108631
v -0.826425 0.106708 0.096131
v -0.869570 0.106708 0.096131
v -0.626425 0.106708 0.096131
v -0.669570 0.106708 0.108631
v -0.626425 0.106708 0.108631
v -0.669570 0.106708 0.096131
v 1.164940 0.409980 -0.032114
v 1.212940 0.562616 -0.032109
v 1.212940 0.409980 -0.032114
v 1.164940 0.562616 -0.032109
v 1.164940 0.568767 -0.046958
v 1.212940 0.562616 -0.032109
v -0.342461 0.081336 -0.004548
v -0.946920 0.081336 -0.004548
v -0.342461 0.081339 -0.117725
v -0.946920 0.081339 -0.117726
v -1.236920 -0.348664 -0.004563
v -1.336920 0.081336 -0.004548
v -1.336920 -0.307568 -0.004561
v -0.946920 0.081336 -0.004548
v -1.295824 -0.348664 -0.004563
v 1.164940 0.568767 -0.046958
v 1.164940 0.611194 -0.064530
v 1.212940 0.568767 -0.046958
v 1.212940 0.611194 -0.064530
v 1.164940 0.632407 -0.055743
v 1.212940 0.632407 -0.055743
v -0.209577 -0.038010 -0.116354
v -0.186511 0.000743 -0.128853
v -0.209577 -0.038009 -0.128854
v -0.186511 0.000742 -0.116353
v -0.173536 0.022540 -0.116352
v -0.150469 0.061293 -0.128851
v -0.173536 0.022541 -0.128852
v -0.150469 0.061292 -0.116351
v -0.209577 -0.038017 0.119750
v -0.186511 0.000734 0.119751
v -0.209577 -0.038016 0.107250
v -0.186511 0.000735 0.107251
v -0.173536 0.022533 0.119752
v -0.150469 0.061284 0.119753
v -0.173536 0.022534 0.107252
v -0.150469 0.061285 0.107253
v -0.436440 0.022540 -0.116352
v -0.173536 0.022540 -0.116352
v -0.173536 0.022541 -0.128852
v -0.436440 0.022541 -0.128852
v -0.173536 0.022534 0.107252
v -0.436440 0.022534 0.107252
v -0.173536 0.022533 0.119752
v -0.436440 0.022533 0.119752
v -1.341971 0.194300 -0.126675
v -1.371079 0.194296 -0.004545
v -1.371079 0.194300 -0.139545
v -1.341970 0.194300 -0.139545
v -1.161252 0.194300 -0.126675
v -1.161252 0.194300 -0.139545
v -1.341971 0.194296 -0.004545
v -1.341971 0.194291 0.117585
v -1.371079 0.194291 0.130455
v -1.341970 0.194291 0.130455
v -1.161252 0.194291 0.117585
v -1.161252 0.194291 0.130455
v -0.472481 -0.038010 -0.116354
v -0.209577 -0.038010 -0.116354
v -0.209577 -0.038009 -0.128854
v -0.472481 -0.038009 -0.128854
v -0.209577 -0.038016 0.107250
v -0.472481 -0.038016 0.107250
v -0.209577 -0.038017 0.119750
v -0.472481 -0.038017 0.119750
v 0.356461 -0.417905 -0.004565
v 0.410840 -0.493661 -0.093379
v 0.410840 -0.493664 -0.004568
v 0.356461 -0.417902 -0.093376
v 0.410840 -0.493664 -0.004568
v 0.410840 -0.493667 0.084243
v 0.356461 -0.417905 -0.004565
v 0.356461 -0.417908 0.084246
v -0.946920 0.081336 -0.004548
v -0.342461 0.081336 -0.004548
v -0.342461 0.081332 0.108630
v -0.946920 0.081332 0.108630
v -1.236920 -0.348664 -0.004563
v -1.236920 -0.348668 0.108615
v -1.295824 -0.348664 -0.004563
v -1.295824 -0.348668 0.108615
v -1.336920 -0.307568 -0.004561
v -1.336920 -0.307572 0.108617
v 1.164940 0.568764 0.037894
v 1.212940 0.568764 0.037894
v 1.212940 0.611190 0.055469
v 1.164940 0.611190 0.055469
v -0.342461 0.081339 -0.117725
v -0.222461 0.426336 -0.004537
v -0.342461 0.081336 -0.004548
v -0.222461 0.426339 -0.117715
v -0.342461 0.081336 -0.004548
v -0.222461 0.426332 0.108640
v -0.342461 0.081332 0.108630
v -0.222461 0.426336 -0.004537
v -0.413373 0.061292 -0.116351
v -0.436440 0.022540 -0.116352
v -0.436440 0.022541 -0.128852
v -0.413373 0.061293 -0.128851
v -0.449415 0.000742 -0.116353
v -0.472481 -0.038010 -0.116354
v -0.472481 -0.038009 -0.128854
v -0.449415 0.000743 -0.128853
v -0.436440 0.022534 0.107252
v -0.413373 0.061285 0.107253
v -0.436440 0.022533 0.119752
v -0.413373 0.061284 0.119753
v -0.472481 -0.038016 0.107250
v -0.449415 0.000735 0.107251
v -0.472481 -0.038017 0.119750
v -0.449415 0.000734 0.119751
v -1.140083 -0.128486 -0.105233
v -1.211736 -0.128486 -0.117733
v -1.211736 -0.128486 -0.105233
v -1.140083 -0.128486 -0.117733
v -1.211736 -0.128493 0.108623
v -1.140083 -0.128493 0.108623
v -1.140083 -0.128493 0.096123
v -1.211736 -0.128493 0.096123
v 1.164940 0.628161 0.036440
v 1.212940 0.628161 0.036440
v 1.164940 0.611190 0.043469
v 1.212940 0.611190 0.043469
v 0.168940 -0.203660 -0.139558
v 0.168940 -0.203664 -0.004558
v 0.254278 0.006340 -0.139551
v 0.254278 0.006336 -0.004551
v 0.372633 0.006340 -0.139551
v 0.372633 0.006336 -0.004551
v -0.093560 -0.308664 -0.004561
v -0.093560 -0.308660 -0.139561
v -0.173014 -0.442147 -0.004566
v -0.173014 -0.442143 -0.139566
v 0.168940 -0.203669 0.130442
v 0.254278 0.006331 0.130449
v 0.168940 -0.203664 -0.004558
v 0.254278 0.006336 -0.004551
v 0.372633 0.006331 0.130449
v 0.372633 0.006336 -0.004551
v -0.093560 -0.308664 -0.004561
v -0.093560 -0.308669 0.130439
v -0.173014 -0.442147 -0.004566
v -0.173014 -0.442152 0.130434
v -0.669570 0.106715 -0.117725
v -0.570490 0.245834 -0.105221
v -0.669570 0.106715 -0.105225
v -0.570490 0.245834 -0.117721
v -0.527345 0.245834 -0.117721
v -0.527345 0.245834 -0.105221
v -0.669570 0.106708 0.096131
v -0.570490 0.245827 0.096135
v -0.669570 0.106708 0.108631
v -0.570490 0.245827 0.108635
v -0.527345 0.245827 0.108635
v -0.527345 0.245827 0.096135
v -0.122940 -0.430616 -0.127066
v -0.083862 -0.456296 -0.127066
v -0.083862 -0.456296 -0.139566
v -0.122940 -0.430616 -0.139566
v -0.083862 -0.456305 0.117934
v -0.122940 -0.430625 0.117934
v -0.083862 -0.456305 0.130434
v -0.122940 -0.430625 0.130434
v 0.154329 0.394568 -0.004538
v 0.107759 0.506340 -0.134534
v 0.154329 0.394573 -0.167038
v 0.121301 0.473841 -0.167035
v 0.107759 0.506336 -0.004534
v 0.154329 0.394568 -0.004538
v 0.107759 0.506331 0.125466
v 0.107759 0.506336 -0.004534
v 0.154329 0.394562 0.157962
v 0.121301 0.473830 0.157965
v 1.164940 0.568767 -0.046958
v 1.212940 0.568767 -0.046958
v 1.212940 0.562616 -0.032109
v 1.164940 0.562614 0.023045
v 1.212940 0.562614 0.023045
v 1.212940 0.568764 0.037894
v 1.164940 0.568764 0.037894
v 0.332756 -0.035371 -0.167052
v 0.295500 0.055758 -0.004549
v 0.295500 0.055763 -0.167049
v 0.346367 -0.068028 -0.139553
v 0.346367 -0.068032 -0.004553
v 0.325471 0.127827 -0.004547
v 0.295500 0.055758 -0.004549
v 0.325471 0.127832 -0.167047
v 0.242725 0.326417 -0.004540
v 0.242725 0.326422 -0.167040
v 0.154329 0.394568 -0.004538
v 0.154329 0.394573 -0.167038
v 0.346367 -0.068037 0.130447
v 0.295500 0.055758 -0.004549
v 0.346367 -0.068032 -0.004553
v 0.332756 -0.035382 0.157948
v 0.295500 0.055752 0.157951
v 0.295500 0.055758 -0.004549
v 0.325471 0.127827 -0.004547
v 0.325471 0.127821 0.157953
v 0.242725 0.326417 -0.004540
v 0.242725 0.326411 0.157960
v 0.154329 0.394568 -0.004538
v 0.154329 0.394562 0.157962
v 0.590944 -0.388509 -0.080875
v 0.644500 -0.388509 -0.080875
v 0.644500 -0.388508 -0.093375
v 0.590944 -0.388508 -0.093375
v 0.680944 -0.388509 -0.080875
v 0.734500 -0.388509 -0.080875
v 0.734500 -0.388508 -0.093375
v 0.680944 -0.388508 -0.093375
v 0.644500 -0.388514 0.071747
v 0.590944 -0.388514 0.071747
v 0.644500 -0.388514 0.084247
v 0.590944 -0.388514 0.084247
v 0.734500 -0.388514 0.071747
v 0.680944 -0.388514 0.071747
v 0.734500 -0.388514 0.084247
v 0.680944 -0.388514 0.084247
v -0.769570 0.106715 -0.117725
v -0.652437 0.277593 -0.105220
v -0.769570 0.106715 -0.105225
v -0.652437 0.277593 -0.117720
v -0.609291 0.277593 -0.105220
v -0.609291 0.277593 -0.117720
v -0.769570 0.106708 0.096131
v -0.652437 0.277586 0.096136
v -0.769570 0.106708 0.108631
v -0.652437 0.277586 0.108636
v -0.609291 0.277586 0.096136
v -0.609291 0.277586 0.108636
v -0.030559 -0.366472 -0.127063
v 0.240538 -0.256432 -0.127060
v 0.240538 -0.256432 -0.139560
v -0.030559 -0.366472 -0.139563
v -0.083862 -0.456296 -0.127066
v -0.083862 -0.456296 -0.139566
v 0.240538 -0.256441 0.117940
v -0.030559 -0.366481 0.117937
v 0.240538 -0.256441 0.130440
v -0.030559 -0.366481 0.130437
v -0.083862 -0.456305 0.117934
v -0.083862 -0.456305 0.130434
v 0.240538 -0.256432 -0.127060
v 0.320154 -0.030793 -0.139552
v 0.240538 -0.256432 -0.139560
v 0.320154 -0.030793 -0.127052
v 0.240538 -0.256441 0.130440
v 0.320154 -0.030802 0.130448
v 0.240538 -0.256441 0.117940
v 0.320154 -0.030802 0.117948
v -1.236920 -0.348661 -0.117740
v -0.946920 0.081336 -0.004548
v -1.236920 -0.348664 -0.004563
v -0.946920 0.081339 -0.117726
v -1.236920 -0.348661 -0.117740
v -1.295824 -0.348664 -0.004563
v -1.295824 -0.348661 -0.117740
v -1.336920 -0.307568 -0.004561
v -1.336920 -0.307565 -0.117738
v -0.869570 0.106715 -0.117725
v -0.752437 0.277593 -0.105220
v -0.869570 0.106715 -0.105225
v -0.752437 0.277593 -0.117720
v -0.709291 0.277593 -0.117720
v -0.709291 0.277593 -0.105220
v -0.869570 0.106708 0.096131
v -0.752437 0.277586 0.096136
v -0.869570 0.106708 0.108631
v -0.752437 0.277586 0.108636
v -0.709291 0.277586 0.108636
v -0.709291 0.277586 0.096136
v 0.356461 -0.417905 -0.004565
v 0.531725 0.098533 -0.004548
v 0.356461 -0.417902 -0.093376
v 0.531725 0.098536 -0.093359
v 0.531725 0.098533 -0.004548
v 0.356461 -0.417905 -0.004565
v 0.356461 -0.417908 0.084246
v 0.531725 0.098530 0.084263
v -1.211736 -0.128486 -0.117733
v -1.042452 0.137142 -0.105224
v -1.211736 -0.128486 -0.105233
v -0.996234 0.209715 -0.117722
v -1.042452 0.137135 0.096132
v -1.211736 -0.128493 0.108623
v -1.211736 -0.128493 0.096123
v -0.996234 0.209708 0.108634
v 0.644500 -0.388509 -0.080875
v 0.752601 -0.046741 -0.093364
v 0.644500 -0.388508 -0.093375
v 0.752601 -0.046742 -0.080864
v 0.644500 -0.388514 0.084247
v 0.752601 -0.046747 0.084258
v 0.644500 -0.388514 0.071747
v 0.752601 -0.046747 0.071758
v 0.734500 -0.388509 -0.080875
v 0.848724 -0.027383 -0.093363
v 0.734500 -0.388508 -0.093375
v 0.848724 -0.027384 -0.080863
v 0.734500 -0.388514 0.084247
v 0.848724 -0.027389 0.084259
v 0.734500 -0.388514 0.071747
v 0.848724 -0.027389 0.071759
v -1.371079 0.351336 -0.004539
v -1.161079 0.351336 -0.004539
v -1.371079 0.351340 -0.139539
v -1.161079 0.351340 -0.139539
v -1.111079 0.288740 -0.139541
v -1.411079 0.288736 -0.004541
v -1.411079 0.288740 -0.139541
v -1.371079 0.351331 0.130461
v -1.161079 0.351331 0.130461
v -1.411079 0.288731 0.130459
v -1.111079 0.288731 0.130459
v -1.371079 0.226137 -0.004543
v -1.371079 0.226141 -0.139543
v -1.371079 0.226132 0.130457
v -1.371079 0.194300 -0.139545
v -1.371079 0.194291 0.130455
v -1.371079 0.194296 -0.004545
v -1.111079 0.288736 -0.004541
v -1.111079 0.226132 0.130457
v -1.111079 0.226141 -0.139543
v -1.111079 0.226137 -0.004543
v -1.111079 0.100933 0.130452
v -1.111079 0.100942 -0.139548
v -1.111079 0.100938 -0.004548
v -1.167079 0.008938 -0.004551
v -1.167079 0.008933 0.130449
v -1.167079 0.008942 -0.139551
v -1.211336 -0.063771 -0.004553
v -1.211336 -0.063776 0.130447
v -1.211336 -0.063767 -0.139553
v -1.251079 -0.129062 -0.004555
v -1.251079 -0.129067 0.130445
v -1.251079 -0.129058 -0.139555
v -1.341970 -0.129067 0.130445
v -1.341970 -0.129058 -0.139555
v -1.341970 -0.129062 -0.004555
v -1.371079 -0.129062 -0.004555
v -1.371079 -0.129068 0.130445
v -1.371079 -0.129059 -0.139555
v 1.187368 0.601198 -0.006103
v 1.181078 0.563251 -0.012394
v 1.181078 0.563250 0.003330
v 1.187368 0.601198 -0.002959
v 1.164940 0.409978 0.023040
v 1.164940 0.551192 -0.004533
v 1.164940 0.409979 -0.004537
v 1.164940 0.562614 0.023045
v 1.164940 0.409980 -0.032114
v 1.164940 0.562616 -0.032109
v 1.164940 0.563193 -0.004532
v 1.164940 0.562614 0.023045
v 1.164940 0.563193 -0.004532
v 1.164940 0.572330 0.017530
v 1.164940 0.562614 0.023045
v 1.164940 0.577249 0.029409
v 1.164940 0.568764 0.037894
v 1.164940 0.611193 -0.052531
v 1.164940 0.632407 -0.055743
v 1.164940 0.611194 -0.064530
v 1.164940 0.628164 -0.045501
v 1.164940 0.568767 -0.046958
v 1.164940 0.577252 -0.038473
v 1.164940 0.562616 -0.032109
v 1.164940 0.563193 -0.004532
v 1.164940 0.572331 -0.026594
v 1.164940 0.568764 0.037894
v 1.164940 0.611190 0.055469
v 1.164940 0.611190 0.043469
v 1.164940 0.577249 0.029409
v 1.164940 0.562616 -0.032109
v 1.164940 0.577252 -0.038473
v 1.164940 0.568767 -0.046958
v 1.164940 0.572331 -0.026594
v 1.164940 0.632404 0.046683
v 1.164940 0.611190 0.043469
v 1.164940 0.611190 0.055469
v 1.164940 0.628161 0.036440
v 1.286354 0.123258 -0.217047
v 1.286354 0.123243 0.207953
v 1.132809 0.506223 -0.217034
v 1.307301 0.072999 -0.167049
v 1.307301 0.072988 0.157951
v 1.132809 0.506208 0.207966
v 1.111976 0.556210 0.157968
v 1.111976 0.556221 -0.167032
vn 0.9267 0.3757 -0.0005
vn 0.9231 0.3846 -0.0004
vn 0.9231 0.3846 -0.0005
vn 0.9268 0.3757 -0.0005
vn 0.9231 0.3846 -0.0003
vn 0.9231 0.3846 -0.0000
vn 0.9865 0.1637 -0.0005
vn 0.9865 0.1637 -0.0006
vn 1.0000 0.0005 -0.0005
vn 1.0000 0.0004 -0.0004
vn -1.0000 0.0005 -0.0005
vn -0.9239 -0.3825 -0.0005
vn 0.8105 0.5858 -0.0005
vn 0.8516 -0.5242 -0.0005
vn 0.8105 0.5858 -0.0004
vn 0.0142 0.9999 -0.0005
vn 0.8105 0.5857 -0.0005
vn 0.8517 -0.5241 -0.0003
vn 0.8516 -0.5241 -0.0004
vn 0.3777 -0.9259 -0.0005
vn 0.9535 -0.3015 -0.0005
vn 0.9535 -0.3015 -0.0007
vn 0.9535 -0.3015 -0.0003
vn 0.9535 -0.3015 -0.0006
vn -0.4811 0.8767 -0.0000
vn -0.8433 0.5374 0.0017
vn -0.4811 0.8767 0.0005
vn -0.8433 0.5374 0.0018
vn -0.8433 0.5374 -0.0017
vn -0.4811 0.8767 -0.0005
vn 0.8515 -0.5243 -0.0005
vn 0.0005 -1.0000 -0.0005
vn -0.4664 0.8845 -0.0000
vn -0.8250 0.5651 -0.0005
vn -0.4664 0.8845 -0.0004
vn -0.8250 0.5652 -0.0004
vn 0.9431 -0.3326 -0.0005
vn 0.7235 -0.6903 -0.0005
vn 0.0005 1.0000 -0.0004
vn 0.0005 1.0000 -0.0005
vn 0.6523 -0.7579 -0.0000
vn 0.6523 -0.7579 -0.0005
vn 0.0005 0.9239 -0.3825
vn 0.0006 0.9239 -0.3825
vn 0.0006 0.9240 -0.3825
vn 0.0005 0.9239 0.3826
vn 0.0003 0.9239 0.3826
vn -0.0000 0.7071 0.7071
vn 0.0005 0.7071 0.7071
vn -0.0000 0.9239 -0.3826
vn 0.0003 0.9239 -0.3826
vn -0.0000 0.7071 -0.7071
vn 0.0005 0.7071 -0.7071
vn 0.0004 0.9239 0.3826
vn 0.0005 0.9100 0.4147
vn 0.0005 0.9100 -0.4146
vn 0.0005 0.9389 0.3442
vn 0.0005 0.9389 -0.3441
vn 0.5582 -0.8297 -0.0000
vn 0.7052 -0.7090 -0.0005
vn 0.5582 -0.8297 -0.0005
vn 0.0005 0.4645 0.8856
vn 0.0005 0.3033 0.9529
vn 0.0005 0.9099 0.4147
vn 0.0005 0.9389 0.3443
vn 0.0005 0.9100 -0.4147
vn 0.0005 0.4646 -0.8855
vn 0.0005 0.9389 -0.3442
vn 0.0005 0.3034 -0.9529
vn -0.5494 -0.8355 -0.0006
vn 0.6492 -0.7606 -0.0000
vn 0.7051 -0.7091 -0.0005
vn 0.6492 -0.7606 -0.0005
vn -0.8146 0.5800 -0.0005
vn -0.4579 0.8890 -0.0004
vn -0.4579 0.8890 -0.0000
vn 0.0005 0.9099 0.4148
vn 0.0006 0.7071 0.7071
vn 0.8600 -0.5103 -0.0005
vn 0.6524 -0.7579 -0.0005
vn 0.6524 -0.7579 -0.0000
vn -0.4618 0.8870 -0.0004
vn -0.4618 0.8870 -0.0000
vn -0.4618 0.8870 -0.0005
vn 0.1978 -0.9802 -0.0006
vn 0.1978 -0.9802 -0.0005
vn 0.6493 -0.7606 -0.0000
vn 0.8593 -0.5115 -0.0005
vn 0.6493 -0.7606 -0.0005
vn 0.0797 -0.3973 0.9142
vn 0.1794 -0.8920 0.4149
vn 0.1827 -0.9073 0.3786
vn 0.0650 -0.3229 0.9442
vn 0.1796 -0.8918 -0.4152
vn 0.1831 -0.9073 -0.3787
vn 0.0796 -0.3973 -0.9142
vn 0.0650 -0.3229 -0.9442
vn 0.0005 -0.9202 -0.3915
vn -0.0000 -0.9202 -0.3915
vn 0.0005 -1.0000 -0.0006
vn -0.0000 -0.9202 0.3915
vn 0.0005 -0.9202 0.3914
vn -0.5035 0.8640 -0.0004
vn -0.5035 0.8640 -0.0005
vn -0.8700 0.4930 -0.0004
vn -0.8701 0.4929 -0.0005
vn 0.0005 0.0005 1.0000
vn 0.0005 0.3825 0.9239
vn 0.1147 -0.6113 -0.7831
vn 0.1636 -0.8749 -0.4557
vn 0.1148 -0.6112 -0.7831
vn 0.1676 -0.8962 -0.4107
vn 0.1841 -0.9829 -0.0000
vn 0.1148 -0.6112 0.7831
vn 0.1637 -0.8749 0.4558
vn 0.1675 -0.8962 0.4107
vn 0.1147 -0.6113 0.7830
vn -0.8593 0.5115 -0.0000
vn -0.8593 0.5115 -0.0005
vn 0.0005 0.3033 -0.9529
vn 0.0797 -0.3972 -0.9143
vn 0.0650 -0.3228 -0.9442
vn 0.0005 0.4645 -0.8856
vn 0.0005 0.3032 0.9529
vn 0.0649 -0.3229 0.9442
vn 0.0005 0.0005 -1.0000
vn 0.0005 0.0006 -1.0000
vn 0.0005 0.0004 1.0000
vn -0.0000 0.0006 -1.0000
vn 0.0003 0.0004 -1.0000
vn 0.0004 0.0004 -1.0000
vn 0.0003 0.0003 1.0000
vn 0.0004 0.0004 1.0000
vn 0.0005 -0.0268 -0.9996
vn 0.0005 -0.0581 -0.9983
vn 0.0005 -0.0269 0.9996
vn 0.0005 -0.0581 0.9983
vn 0.0004 -0.1695 -0.9855
vn 0.0005 -0.0269 -0.9996
vn 0.0005 -0.0582 0.9983
vn 0.0004 -0.1696 0.9855
vn 0.0003 0.1636 0.9865
vn 0.0005 0.1636 0.9865
vn 0.0006 0.1637 0.9865
vn 0.0005 0.1637 -0.9865
vn -0.5036 0.8640 -0.0005
vn -0.5034 0.8640 -0.0003
vn 0.0004 -1.0000 -0.0004
vn 0.8593 -0.5115 -0.0004
vn 0.8593 -0.5115 -0.0000
vn 0.0005 -0.3826 0.9239
vn 0.0006 -0.3826 0.9239
vn -0.0000 0.7071 0.7072
vn 0.0005 0.7071 0.7072
vn 0.0005 -0.5553 0.8317
vn -0.0000 -0.5553 0.8317
vn 0.8105 0.5857 -0.0004
vn 0.0142 0.9999 -0.0004
vn -0.4665 0.8845 -0.0005
vn -0.4665 0.8845 -0.0000
vn -0.4579 0.8890 -0.0005
vn -0.0000 -0.5552 -0.8317
vn 0.0005 -0.5552 -0.8317
vn 0.0005 -0.7071 -0.7071
vn 0.0004 -0.5552 -0.8317
vn 0.4695 -0.8829 -0.0005
vn 0.4695 -0.8829 -0.0000
vn 0.0005 0.3826 -0.9239
vn -0.8593 0.5115 -0.0003
vn -0.8593 0.5115 -0.0006
vn -0.8126 -0.5829 -0.0006
vn -0.8125 -0.5829 -0.0004
vn 0.4695 -0.8829 -0.0004
vn -0.3826 -0.9239 -0.0005
vn -0.3827 -0.9239 -0.0000
vn -0.9239 -0.3826 -0.0005
vn 0.0005 -0.7071 0.7071
vn 0.9444 -0.3288 -0.0004
vn 0.9444 -0.3287 -0.0003
vn 0.9444 -0.3288 -0.0005
vn 0.8593 -0.5115 -0.0006
vn 0.0005 -0.3825 -0.9239
vn 0.0003 -0.3826 -0.9239
vn -0.0000 0.0005 -1.0000
vn -0.7052 0.7090 -0.0000
vn -0.7052 0.7091 -0.0004
vn -0.5582 0.8297 -0.0004
vn -0.5582 0.8297 -0.0005
vn -0.6493 0.7606 -0.0004
vn -0.6492 0.7606 -0.0004
vn -0.5582 0.8297 -0.0003
vn -0.6493 0.7605 -0.0004
vn 0.8146 -0.5801 -0.0003
vn 0.4579 -0.8890 -0.0005
vn 0.8145 -0.5801 -0.0000
vn 0.4579 -0.8890 -0.0006
vn 0.5494 0.8355 -0.0006
vn 0.5494 0.8356 -0.0005
vn 0.5494 0.8356 -0.0004
vn -0.7934 -0.6087 -0.0005
vn -0.9231 -0.3846 -0.0004
vn -0.9231 -0.3846 -0.0003
vn -0.9251 -0.3798 0.0005
vn -1.0000 0.0024 -0.0005
vn -1.0000 0.0024 0.0005
vn -0.9251 -0.3797 0.0005
vn -0.9251 -0.3797 -0.0005
vn -1.0000 -0.0005 -0.0005
vn -1.0000 0.0025 0.0005
vn -1.0000 0.0025 -0.0005
vn -0.7933 -0.6088 -0.0005
vn -0.7933 -0.6088 -0.0006
vn -0.9251 -0.3798 -0.0005
vn -0.7934 -0.6088 -0.0003
vn 0.8250 -0.5652 -0.0004
vn 0.4663 -0.8846 -0.0003
vn 0.4664 -0.8846 -0.0004
vn -0.6524 0.7579 -0.0005
vn -0.7235 0.6903 -0.0005
vn -0.7235 0.6903 -0.0000
vn -0.6523 0.7579 -0.0004
vn -0.8600 0.5103 -0.0005
vn -0.9431 0.3326 -0.0004
vn -0.7235 0.6903 -0.0004
vn 0.4696 -0.8829 -0.0005
vn 0.4696 -0.8829 -0.0000
vn -0.3826 -0.9239 -0.0004
vn -0.9471 0.3209 -0.0005
vn -0.9471 0.3210 -0.0004
vn 0.8432 -0.5376 -0.0015
vn 0.8433 -0.5374 -0.0017
vn 0.8432 -0.5376 -0.0014
vn 0.8433 -0.5374 0.0017
vn 0.8432 -0.5376 0.0015
vn -0.9535 0.3015 -0.0005
vn -0.9535 0.3015 -0.0003
vn -0.9535 0.3015 -0.0006
vn -0.4803 0.8771 -0.0003
vn 0.4333 0.9012 -0.0004
vn -0.4803 0.8771 -0.0004
vn 0.4334 0.9012 -0.0003
vn 0.9437 0.3309 -0.0005
vn -1.0000 0.0004 -0.0004
vn -0.9597 -0.2810 -0.0007
vn -0.9597 -0.2809 -0.0005
vn 1.0000 0.0003 -0.0003
vn 0.9628 -0.2701 -0.0005
vn 0.9628 -0.2701 -0.0003
vn 0.8542 -0.5199 -0.0000
vn 0.8541 -0.5201 -0.0005
vn 0.4899 -0.8718 -0.0000
vn 0.4899 -0.8718 -0.0004
vn -0.9865 0.1637 -0.0005
vn -0.9865 0.1637 -0.0006
vn -0.9272 -0.3744 -0.0005
vn -0.9272 -0.3745 -0.0005
vt 0.383287 0.220674
vt 0.355041 0.220588
vt 0.374158 0.207791
vt 0.375888 0.250000
vt 0.373569 0.042365
vt 0.354318 0.029412
vt 0.382640 0.029492
vt 0.375037 0.000000
vt 0.624940 0.000000
vt 0.617402 0.030001
vt 0.624650 0.250000
vt 0.617178 0.225051
vt 0.645408 0.235294
vt 0.626272 0.215680
vt 0.645725 0.029412
vt 0.626501 0.043271
vt 0.625000 0.250000
vt 0.375000 0.250000
vt 0.375000 0.000000
vt 0.625000 0.000000
vt 0.944309 0.139691
vt 0.990000 0.250000
vt 0.944309 0.360309
vt 0.919706 0.419706
vt 0.919706 0.080294
vt 0.000000 0.500000
vt 0.062500 0.500000
vt 0.875000 0.500000
vt 1.000000 0.500000
vt 0.625000 0.500000
vt 0.500000 0.500000
vt 0.437500 0.500000
vt 0.000000 0.000000
vt 0.125484 0.750000
vt 0.125000 0.625000
vt 0.125000 0.750000
vt 0.125242 0.625000
vt -0.159435 0.125000
vt 0.379824 0.125000
vt -0.159434 0.079476
vt 0.266536 0.079475
vt 0.325384 0.750000
vt 0.325384 0.625000
vt 0.318052 0.125000
vt 0.462040 0.079476
vt 0.318052 0.079476
vt 0.664956 0.125000
vt 0.625000 0.751777
vt 0.461634 0.836586
vt 0.875000 0.750000
vt 0.625000 0.750000
vt 0.410924 0.751660
vt 0.410815 0.735595
vt 0.062500 1.000000
vt 0.444309 0.139691
vt 0.490000 0.250000
vt 0.419706 0.080294
vt 0.444309 0.360309
vt 0.419706 0.419706
vt 0.437500 1.000000
vt 0.664956 0.079476
vt 0.845372 0.529412
vt 0.845372 0.720588
vt 0.595372 0.519608
vt 0.595372 0.730392
vt 0.603558 0.756314
vt 0.486387 0.777484
vt 0.577515 0.500000
vt 0.645068 1.000000
vt 0.577515 0.750000
vt 0.624447 1.000000
vt 0.397144 0.750000
vt 0.376154 0.750902
vt 0.375339 0.631227
vt 0.397144 0.625000
vt 0.428113 0.750247
vt 0.659629 0.625000
vt 0.625000 0.733333
vt 0.625000 0.625000
vt 0.875000 0.725000
vt 0.679619 0.625000
vt 0.600480 0.079477
vt 0.600480 0.125000
vt 0.611458 0.750000
vt 0.625000 1.000000
vt 0.611458 1.000000
vt 0.400434 0.750350
vt 0.118979 0.500000
vt 0.345431 0.529412
vt 0.095431 0.529412
vt 0.357336 0.500000
vt 0.345431 0.720588
vt 0.095431 0.720588
vt 0.118979 0.750000
vt 0.357336 0.750000
vt 0.375000 0.750000
vt 0.148146 0.625000
vt 0.370834 0.625000
vt 0.000000 1.000000
vt 0.128398 0.750000
vt 0.375000 0.725000
vt 0.384028 0.750000
vt 0.125000 0.725000
vt 0.375000 0.625000
vt 0.500000 0.750000
vt 0.500000 0.625000
vt 0.437500 0.625000
vt 0.437500 0.750000
vt 0.875000 0.625000
vt 0.377066 1.000000
vt 0.464368 0.750000
vt 0.467226 0.998939
vt 0.433732 0.750000
vt 0.437259 1.000000
vt 0.550187 0.999436
vt 0.548790 0.750000
vt 0.388542 1.000000
vt 0.577761 0.750000
vt 0.578430 1.000000
vt 0.875000 1.000000
vt 1.000000 1.000000
vt 0.392401 0.750768
vt 0.603845 0.759413
vt 0.420256 0.751465
vt 0.475310 0.809505
vt 0.500000 1.000000
vt 0.480283 0.971656
vt 0.480283 0.778344
vt 0.457217 0.971656
vt 0.457217 0.778344
vt 0.417783 0.971656
vt 0.394717 0.971656
vt 0.417783 0.778344
vt 0.375000 1.000000
vt 0.394717 0.778344
vt 0.509194 0.750000
vt 0.571107 0.750000
vt 0.559600 0.750000
vt 0.531742 0.750000
vt 0.534892 0.750000
vt 0.554945 0.750000
vt 0.543574 0.750000
vt 0.713392 0.625000
vt 0.687171 0.670524
vt 0.651644 0.625000
vt 0.788288 0.670524
vt 0.134292 0.750000
vt 0.151515 0.750000
vt 0.139270 0.750000
vt 0.172737 0.750000
vt 0.143286 0.750000
vt 0.189426 0.750000
vt 0.150601 0.750000
vt 0.215741 0.750000
vt 0.343018 0.750000
vt 0.375000 0.500000
vt 0.500000 0.125000
vt 0.500000 0.000000
vt 0.625000 0.125000
vt 0.437500 0.000000
vt 0.437500 0.125000
vt 0.343521 0.125000
vt 0.831250 1.000000
vt 0.157371 0.625000
vt 0.407371 0.670524
vt 0.407371 0.625000
vt 0.157371 0.670524
vt 0.407371 0.670525
vt 0.668750 1.000000
vt 0.343017 0.625000
vt 0.559366 0.625000
vt 0.809366 0.670523
vt 0.809366 0.625000
vt 0.559366 0.670524
vt 0.626777 0.750000
vt 0.626777 0.625000
vt 0.607615 0.625000
vt 0.607615 0.670524
vt 0.861062 0.670523
vt 0.861062 0.625000
vt 0.578430 0.625000
vt 0.437259 0.625000
vt 0.467288 0.625000
vt 0.550034 0.625000
vt 0.662646 0.625000
vt 0.662646 0.670524
vt 0.916092 0.625000
vt 0.916093 0.670524
vt 0.916093 0.625000
s 1
f 130/42/40 131/43/41 132/44/41
f 131/43/41 130/42/40 133/45/40
f 131/43/41 134/46/42 132/44/41
f 131/43/41 135/47/41 134/46/42
f 136/48/40 134/46/42 135/47/41
f 136/48/40 135/47/41 137/49/40
f 138/50/40 136/48/40 137/49/40
f 136/48/40 138/50/40 139/51/40
f 140/52/43 133/45/40 141/42/40
f 140/52/43 141/42/40 142/53/43
f 143/54/42 144/52/40 145/53/43
f 143/54/42 145/53/43 146/55/44
f 147/56/42 148/51/43 149/50/40
f 148/51/43 147/56/42 150/57/44
f 151/57/44 152/54/45 153/55/44
f 152/54/45 151/57/44 154/56/44
f 155/58/46 156/59/46 157/60/46
f 157/60/46 158/61/47 155/58/46
f 159/62/48 160/63/49 161/63/48
f 161/63/48 160/63/49 162/64/48
f 162/64/48 160/63/49 163/64/48
f 160/63/49 159/62/48 164/62/48
f 164/62/48 165/63/48 160/63/49
f 166/64/48 160/63/48 167/63/48
f 166/64/48 167/63/48 168/64/48
f 169/65/48 170/64/48 168/64/48
f 171/66/48 172/62/48 173/66/48
f 172/62/48 171/66/48 174/62/48
f 175/67/48 176/68/48 177/67/48
f 176/68/48 175/67/48 178/68/48
f 179/69/48 180/70/48 181/70/48
f 180/70/48 179/69/48 182/69/48
f 183/71/48 184/72/48 185/72/48
f 183/71/48 185/72/48 186/71/48
f 187/73/48 185/72/48 184/72/48
f 185/72/48 187/73/48 188/73/48
f 189/63/48 190/62/48 191/62/48
f 192/64/48 193/65/48 194/65/48
f 195/74/50 196/74/50 197/74/50
f 196/74/50 195/74/50 198/74/50
f 195/74/50 199/74/50 198/74/50
f 199/74/50 195/74/50 200/74/50
f 201/74/50 202/74/50 203/74/50
f 201/74/50 203/74/50 204/74/50
f 205/74/50 203/74/50 202/74/50
f 203/74/50 205/74/50 206/74/50
f 207/74/51 208/74/50 209/74/51
f 209/74/51 208/74/50 210/74/50
f 211/74/51 208/74/50 207/74/51
f 208/74/50 211/74/51 212/74/50
f 213/75/52 214/76/53 215/77/53
f 214/76/53 213/75/52 216/78/54
f 217/77/55 218/77/56 219/78/56
f 220/76/57 219/78/52 221/75/52
f 221/75/52 222/77/58 220/76/57
f 220/76/57 222/77/58 223/76/59
f 223/76/59 222/77/58 224/77/59
f 225/74/60 226/74/61 227/74/60
f 227/74/60 228/74/62 225/74/60
f 229/74/61 230/74/60 231/74/60
f 231/74/60 230/74/60 232/74/62
f 233/74/63 234/74/63 235/74/63
f 235/74/63 236/74/63 233/74/63
f 237/74/63 238/74/63 239/74/63
f 239/74/63 238/74/63 240/74/63
f 241/79/64 242/80/65 243/81/66
f 244/82/67 243/81/66 242/80/65
f 245/80/68 246/79/69 247/81/64
f 247/81/64 248/82/68 245/80/68
f 249/77/70 250/76/59 251/77/59
f 250/76/59 249/77/70 252/76/70
f 253/83/71 251/77/59 250/76/59
f 253/83/71 250/76/59 254/84/71
f 255/77/59 256/83/71 257/76/59
f 258/84/71 257/76/59 256/83/71
f 259/85/72 260/86/73 261/87/74
f 260/86/73 259/85/72 262/88/75
f 263/87/72 264/86/73 265/85/74
f 265/85/74 264/86/73 266/88/75
f 267/89/76 268/90/77 269/90/77
f 269/90/77 270/89/76 267/89/76
f 267/89/76 271/90/77 268/90/77
f 271/90/77 267/89/76 272/89/76
f 273/91/78 274/71/78 275/69/79
f 274/71/78 273/91/78 276/92/79
f 277/93/80 278/90/77 279/90/77
f 280/93/81 281/90/77 282/94/81
f 283/90/77 284/93/81 285/94/80
f 284/93/81 283/90/77 286/90/77
f 287/68/82 288/95/82 289/95/83
f 288/95/82 287/68/82 290/68/84
f 291/63/79 292/96/85 293/97/79
f 292/96/85 291/63/79 294/62/86
f 294/62/86 295/98/87 292/96/85
f 295/98/87 294/62/86 296/66/88
f 293/97/79 297/64/89 291/63/79
f 297/64/89 293/97/79 298/99/90
f 298/99/90 299/65/91 297/64/89
f 299/65/91 298/99/90 300/100/92
f 301/73/93 302/101/85 303/73/93
f 304/101/85 303/73/93 302/101/85
f 305/102/73 306/87/74 307/85/72
f 307/85/72 308/88/75 305/102/73
f 309/87/72 310/102/73 311/85/74
f 311/85/74 310/102/73 312/88/75
f 313/103/94 314/104/95 315/105/96
f 315/105/96 314/104/95 316/106/97
f 317/107/98 318/108/99 319/108/99
f 319/108/99 320/107/100 317/107/98
f 321/108/99 322/107/100 323/108/99
f 323/108/99 322/107/100 324/107/98
f 325/109/101 326/52/102 327/54/103
f 327/54/103 328/105/104 325/109/101
f 329/110/105 330/111/106 331/106/107
f 330/111/106 329/110/105 332/112/108
f 333/113/109 334/114/109 335/115/109
f 333/113/109 335/115/109 336/116/109
f 337/116/109 338/115/109 339/113/109
f 338/115/109 340/114/109 339/113/109
f 341/117/110 342/108/111 343/108/111
f 341/117/110 343/108/111 344/117/112
f 345/108/111 346/117/112 347/117/110
f 346/117/112 345/108/111 348/108/111
f 349/118/78 350/119/97 351/120/79
f 350/119/97 349/118/78 352/121/95
f 353/122/78 352/121/95 349/118/78
f 354/119/96 355/118/78 356/120/79
f 355/118/78 354/119/96 357/121/94
f 357/121/94 358/122/78 355/118/78
f 359/123/113 360/87/114 361/85/115
f 361/85/115 362/124/113 359/123/113
f 363/123/113 364/85/114 365/87/115
f 364/85/114 363/123/113 366/124/113
f 367/125/92 368/126/105 369/127/92
f 368/126/105 367/125/92 370/119/107
f 371/126/116 372/125/88 373/127/117
f 372/125/88 371/126/116 374/119/104
f 375/115/118 376/114/118 377/93/119
f 375/115/118 377/93/119 378/94/120
f 379/115/118 380/93/120 381/114/118
f 380/93/120 379/115/118 382/94/119
f 383/92/78 384/92/121 385/120/78
f 386/120/122 385/120/78 384/92/121
f 387/92/123 386/120/122 384/92/121
f 387/92/123 388/120/123 386/120/122
f 387/92/123 389/120/78 388/120/123
f 389/120/78 387/92/123 390/92/79
f 391/92/121 392/92/78 393/120/78
f 391/92/121 393/120/78 394/120/121
f 394/120/121 395/92/123 391/92/121
f 395/92/123 394/120/121 396/120/123
f 397/120/78 395/92/123 396/120/123
f 395/92/123 397/120/78 398/92/78
f 399/74/124 400/74/124 401/74/124
f 399/74/124 401/74/124 402/74/124
f 403/74/124 404/74/125 405/74/124
f 403/74/124 405/74/124 406/74/125
f 407/74/124 408/74/124 409/74/124
f 408/74/124 407/74/124 410/74/124
f 411/74/124 412/74/124 413/74/125
f 412/74/124 411/74/124 414/74/125
f 415/117/126 416/128/127 417/128/127
f 417/128/127 418/117/128 415/117/126
f 419/128/127 420/117/128 421/128/127
f 421/128/127 420/117/128 422/117/126
f 423/129/129 424/130/130 425/131/131
f 424/130/130 423/129/129 426/132/132
f 427/133/133 425/131/131 424/130/130
f 427/133/133 428/134/134 425/131/131
f 427/133/133 429/135/135 428/134/134
f 429/135/135 427/133/133 430/136/136
f 431/137/137 432/77/138 433/138/139
f 433/138/139 434/139/139 431/137/137
f 435/77/140 436/137/141 437/138/71
f 438/139/71 437/138/71 436/137/141
f 439/74/78 440/74/78 441/74/78
f 441/74/78 440/74/78 442/74/78
f 440/74/78 439/74/78 443/74/78
f 444/74/142 442/74/78 440/74/78
f 439/74/78 445/74/78 443/74/78
f 442/74/78 444/74/142 446/74/143
f 447/74/144 446/74/143 444/74/142
f 444/74/142 448/74/145 447/74/144
f 445/74/78 439/74/78 449/74/78
f 449/74/78 450/74/78 445/74/78
f 450/74/78 451/74/143 445/74/78
f 450/74/78 452/74/143 451/74/143
f 452/74/143 453/74/144 451/74/143
f 451/74/143 453/74/144 454/74/145
f 455/140/146 456/67/146 457/68/147
f 455/140/146 457/68/147 458/95/147
f 459/141/148 460/142/149 461/143/150
f 460/142/149 459/141/148 462/144/151
f 460/142/149 462/144/151 463/76/152
f 460/142/149 463/76/152 464/145/152
f 465/141/153 466/142/154 467/144/155
f 466/142/154 465/141/153 468/143/156
f 467/144/155 466/142/154 469/76/152
f 470/145/152 469/76/152 466/142/154
f 471/146/157 472/147/158 473/92/158
f 472/147/158 474/120/158 473/92/158
f 475/148/158 472/147/158 471/146/157
f 476/149/157 475/148/158 471/146/157
f 477/137/158 475/148/158 476/149/157
f 475/148/158 477/137/158 478/139/158
f 479/92/158 480/147/158 481/146/157
f 480/147/158 479/92/158 482/120/158
f 483/148/158 481/146/157 480/147/158
f 484/149/157 481/146/157 483/148/158
f 483/148/158 485/137/158 484/149/157
f 485/137/158 483/148/158 486/139/158
f 487/120/78 488/150/78 489/91/78
f 487/120/78 489/91/78 490/92/78
f 491/91/78 492/120/78 493/92/78
f 492/120/78 491/91/78 494/150/78
f 495/112/159 496/151/160 497/136/161
f 497/136/161 498/111/162 495/112/159
f 499/52/163 500/132/164 501/45/129
f 500/132/164 499/52/163 502/109/101
f 503/152/165 504/153/165 505/154/165
f 506/155/165 505/154/165 504/153/165
f 507/153/166 508/152/165 509/156/165
f 508/152/165 510/157/165 509/156/165
f 511/154/165 512/155/165 513/143/165
f 514/158/165 513/143/165 512/155/165
f 515/159/165 516/160/165 517/157/165
f 518/156/165 517/157/165 516/160/165
f 519/125/165 520/127/165 521/159/165
f 522/160/165 521/159/165 520/127/165
f 523/154/167 524/155/167 525/153/167
f 523/154/167 525/153/167 526/152/167
f 527/153/146 528/156/167 529/152/167
f 529/152/167 528/156/167 530/157/167
f 531/155/167 532/143/167 533/158/167
f 532/143/167 531/155/167 534/154/167
f 535/157/167 536/156/167 537/160/167
f 535/157/167 537/160/167 538/159/167
f 539/159/167 540/160/167 541/127/167
f 539/159/167 541/127/167 542/125/167
f 543/69/92 544/161/91 545/70/168
f 544/161/91 546/162/166 545/70/168
f 547/149/165 548/128/165 549/113/165
f 548/128/165 547/149/165 550/117/165
f 551/113/165 552/163/165 553/114/165
f 552/163/165 551/113/165 554/128/166
f 555/146/165 556/92/165 557/107/165
f 557/107/165 558/108/165 555/146/165
f 559/146/165 560/117/165 561/149/165
f 560/117/165 559/146/165 562/108/166
f 563/164/165 564/107/165 565/92/165
f 563/164/165 565/92/165 566/89/165
f 567/163/165 568/165/166 569/93/165
f 567/163/165 569/93/165 570/114/165
f 571/93/165 572/166/165 573/90/165
f 572/166/165 571/93/165 574/165/165
f 575/90/165 576/164/165 577/89/165
f 576/164/165 575/90/165 578/166/165
f 579/149/167 580/128/167 581/117/167
f 580/128/167 579/149/167 582/113/167
f 583/113/167 584/163/167 585/128/146
f 584/163/167 583/113/167 586/114/167
f 587/92/167 588/146/167 589/107/167
f 589/107/167 588/146/167 590/108/167
f 591/146/167 592/117/167 593/108/146
f 592/117/167 591/146/167 594/149/167
f 595/89/167 596/92/167 597/164/167
f 597/164/167 596/92/167 598/107/167
f 599/114/167 600/93/167 601/163/167
f 602/165/146 601/163/167 600/93/167
f 603/166/167 604/93/167 605/90/167
f 604/93/167 603/166/167 606/165/167
f 607/90/167 608/164/167 609/166/167
f 608/164/167 607/90/167 610/89/146
f 611/74/169 612/74/165 613/74/165
f 612/74/165 611/74/169 614/74/165
f 612/74/165 614/74/165 615/74/165
f 615/74/165 614/74/165 616/74/165
f 617/74/165 614/74/165 611/74/169
f 618/74/165 617/74/165 611/74/169
f 619/74/165 618/74/165 611/74/169
f 611/74/169 620/74/165 619/74/165
f 620/74/165 611/74/169 613/74/165
f 613/74/165 621/74/165 620/74/165
f 622/74/165 620/74/165 621/74/165
f 623/74/165 622/74/165 621/74/165
f 624/74/170 622/74/165 623/74/165
f 625/74/165 624/74/170 623/74/165
f 624/74/170 626/74/165 622/74/165
f 627/74/165 624/74/170 625/74/165
f 626/74/165 624/74/170 628/74/165
f 626/74/165 628/74/165 629/74/165
f 629/74/165 630/74/165 626/74/165
f 631/74/165 627/74/165 625/74/165
f 631/74/165 632/74/165 627/74/165
f 632/74/165 633/74/165 627/74/165
f 632/74/165 634/74/165 633/74/165
f 634/74/165 632/74/165 635/74/165
f 636/74/171 637/74/167 638/74/167
f 636/74/171 639/74/167 637/74/167
f 640/74/167 637/74/167 639/74/167
f 641/74/167 640/74/167 639/74/167
f 639/74/167 636/74/171 642/74/167
f 643/74/167 640/74/167 641/74/167
f 642/74/167 636/74/171 644/74/167
f 644/74/167 636/74/171 645/74/167
f 636/74/171 646/74/167 645/74/167
f 646/74/167 636/74/171 638/74/167
f 646/74/167 638/74/167 647/74/167
f 646/74/167 647/74/167 648/74/167
f 649/74/172 643/74/167 641/74/167
f 650/74/167 643/74/167 649/74/172
f 651/74/167 649/74/172 641/74/167
f 652/74/167 650/74/167 649/74/172
f 649/74/172 651/74/167 653/74/167
f 653/74/167 651/74/167 654/74/167
f 654/74/167 651/74/167 655/74/167
f 656/74/167 650/74/167 652/74/167
f 656/74/167 652/74/167 657/74/167
f 657/74/167 652/74/167 658/74/167
f 659/74/167 657/74/167 658/74/167
f 657/74/167 659/74/167 660/74/167
f 661/92/165 662/167/165 663/146/165
f 662/167/165 661/92/165 664/126/165
f 663/146/165 662/167/165 665/168/165
f 665/168/165 666/169/165 663/146/165
f 667/101/170 665/168/165 662/167/165
f 663/146/165 666/169/165 668/149/170
f 665/168/165 667/101/170 669/170/165
f 668/149/170 666/169/165 670/171/165
f 669/170/165 667/101/170 671/172/165
f 671/172/165 670/171/165 669/170/165
f 667/101/170 672/173/165 671/172/165
f 671/172/165 673/174/165 670/171/165
f 668/149/170 670/171/165 673/174/165
f 667/101/170 674/175/165 672/173/165
f 675/176/165 668/149/170 673/174/165
f 674/175/165 675/176/165 672/173/165
f 668/149/170 675/176/165 676/137/165
f 676/137/165 675/176/165 674/175/165
f 677/167/167 678/92/167 679/146/167
f 678/92/167 677/167/167 680/126/167
f 679/146/167 681/168/167 677/167/167
f 681/168/167 679/146/167 682/169/167
f 677/167/167 681/168/167 683/101/172
f 679/146/167 684/149/172 682/169/167
f 685/170/167 683/101/172 681/168/167
f 684/149/172 686/171/167 682/169/167
f 685/170/167 687/172/167 683/101/172
f 685/170/167 686/171/167 687/172/167
f 688/173/167 683/101/172 687/172/167
f 689/174/167 687/172/167 686/171/167
f 684/149/172 689/174/167 686/171/167
f 690/175/167 683/101/172 688/173/167
f 684/149/172 691/176/167 689/174/167
f 690/175/167 688/173/167 691/176/167
f 684/149/172 692/137/167 691/176/167
f 692/137/167 690/175/167 691/176/167
f 693/107/98 694/164/71 695/164/71
f 693/107/98 695/164/71 696/107/100
f 697/164/71 698/107/100 699/107/98
f 698/107/100 697/164/71 700/164/71
f 701/177/165 702/178/169 703/177/165
f 703/177/165 702/178/169 704/179/165
f 702/178/169 705/179/165 704/179/165
f 706/146/169 701/177/165 703/177/165
f 705/179/165 702/178/169 707/92/165
f 708/146/165 705/179/165 707/92/165
f 705/179/165 708/146/165 709/177/165
f 706/146/169 703/177/165 709/177/165
f 706/146/169 709/177/165 708/146/165
f 710/92/169 707/92/165 702/178/169
f 701/177/165 706/146/169 711/177/165
f 710/92/169 702/178/169 712/180/165
f 711/177/165 713/181/165 712/180/165
f 713/181/165 711/177/165 714/177/165
f 706/146/169 714/177/165 711/177/165
f 710/92/169 712/180/165 715/178/165
f 714/177/165 706/146/169 716/177/165
f 715/178/165 717/178/165 710/92/169
f 718/182/173 717/178/165 716/177/165
f 706/146/169 718/182/173 716/177/165
f 718/182/173 710/92/169 717/178/165
f 710/92/169 718/182/173 719/183/174
f 719/183/174 720/92/165 710/92/169
f 721/146/174 722/92/165 720/92/165
f 722/92/165 721/146/174 723/146/165
f 721/146/174 724/146/165 723/146/165
f 724/146/165 725/146/165 723/146/165
f 725/146/165 724/146/165 726/146/165
f 725/146/165 726/146/165 727/146/165
f 726/146/165 724/146/165 728/146/165
f 706/146/165 726/146/165 728/146/165
f 728/146/165 729/146/173 706/146/165
f 730/178/171 731/177/167 732/177/167
f 730/178/171 732/177/167 733/179/167
f 730/178/171 733/179/167 734/179/167
f 731/177/167 735/146/171 732/177/167
f 734/179/167 736/92/167 730/178/171
f 737/146/167 736/92/167 734/179/167
f 737/146/167 734/179/167 738/177/167
f 732/177/167 735/146/171 738/177/167
f 738/177/167 735/146/171 737/146/167
f 739/92/171 730/178/171 736/92/167
f 735/146/171 731/177/167 740/177/167
f 730/178/171 739/92/171 741/180/167
f 742/181/167 740/177/167 741/180/167
f 740/177/167 742/181/167 743/177/167
f 735/146/171 740/177/167 743/177/167
f 741/180/167 739/92/171 744/178/167
f 735/146/171 743/177/167 745/177/167
f 744/178/167 739/92/171 746/178/167
f 747/182/175 745/177/167 746/178/167
f 745/177/167 747/182/175 735/146/171
f 739/92/171 747/182/175 746/178/167
f 739/92/171 748/183/176 747/182/175
f 748/183/176 739/92/171 749/92/167
f 750/146/175 751/146/167 735/146/167
f 752/146/167 735/146/167 751/146/167
f 753/146/167 752/146/167 751/146/167
f 754/146/167 752/146/167 753/146/167
f 752/146/167 754/146/167 755/146/167
f 756/146/167 754/146/167 753/146/167
f 753/146/167 757/146/176 756/146/167
f 757/146/176 758/92/167 756/146/167
f 758/92/167 757/146/176 749/92/167
f 759/184/177 760/185/174 761/186/177
f 762/186/177 763/185/174 764/187/178
f 765/185/179 766/184/180 767/186/180
f 768/186/180 769/187/175 770/185/179
f 771/75/165 772/77/165 773/188/165
f 774/189/165 773/188/165 772/77/165
f 775/190/165 771/75/165 773/188/165
f 774/189/165 772/77/165 776/77/170
f 771/75/165 775/190/165 777/77/165
f 774/189/165 776/77/170 778/191/165
f 775/190/165 778/191/165 779/192/165
f 777/77/165 775/190/165 779/192/165
f 780/193/165 779/192/165 778/191/165
f 776/77/170 780/193/165 778/191/165
f 781/194/165 777/77/165 779/192/165
f 776/77/170 782/195/165 780/193/165
f 781/194/165 783/196/165 777/77/165
f 783/196/165 781/194/165 782/195/165
f 782/195/165 776/77/170 784/83/165
f 782/195/165 784/83/165 783/196/165
f 785/77/167 786/188/167 787/189/167
f 785/77/167 788/75/167 786/188/167
f 788/75/167 789/190/167 786/188/167
f 785/77/167 787/189/167 790/77/172
f 791/77/167 789/190/167 788/75/167
f 792/191/167 790/77/172 787/189/167
f 789/190/167 791/77/167 793/192/167
f 793/192/167 792/191/167 789/190/167
f 793/192/167 791/77/167 794/194/167
f 792/191/167 793/192/167 795/193/167
f 795/193/167 790/77/172 792/191/167
f 791/77/167 796/196/167 794/194/167
f 797/195/167 790/77/172 795/193/167
f 797/195/167 794/194/167 796/196/167
f 790/77/172 797/195/167 798/83/167
f 797/195/167 796/196/167 798/83/167
f 799/71/181 800/197/181 801/59/182
f 801/59/182 802/58/183 799/71/181
f 803/126/184 804/175/184 805/137/184
f 805/137/184 806/92/184 803/126/184
f 807/174/71 808/172/71 809/172/71
f 807/174/71 809/172/71 810/174/71
f 811/172/71 812/174/71 813/174/71
f 812/174/71 811/172/71 814/172/71
f 815/74/78 816/74/78 817/74/78
f 817/74/78 816/74/78 818/74/78
f 816/74/78 815/74/78 819/74/78
f 820/74/185 818/74/78 816/74/78
f 815/74/78 821/74/78 819/74/78
f 818/74/78 820/74/185 822/74/186
f 823/74/145 822/74/186 820/74/185
f 820/74/185 824/74/145 823/74/145
f 821/74/78 815/74/78 825/74/78
f 825/74/78 826/74/78 821/74/78
f 826/74/78 827/74/185 821/74/78
f 827/74/185 826/74/78 828/74/186
f 828/74/186 829/74/145 827/74/185
f 827/74/185 829/74/145 830/74/145
f 831/74/187 832/74/71 833/74/71
f 834/74/71 831/74/187 833/74/71
f 835/74/71 831/74/187 834/74/71
f 831/74/187 835/74/71 836/74/71
f 832/74/71 831/74/187 837/74/71
f 838/74/187 832/74/71 837/74/71
f 839/74/71 832/74/71 838/74/187
f 840/74/71 839/74/71 838/74/187
f 838/74/187 841/74/71 840/74/71
f 838/74/187 842/74/71 841/74/71
f 843/198/127 844/199/127 845/200/188
f 844/199/127 846/61/127 845/200/188
f 844/199/127 843/198/127 847/201/189
f 848/202/127 847/201/189 843/198/127
f 849/60/127 847/201/189 848/202/127
f 848/202/127 850/203/127 849/60/127
f 851/198/127 852/200/188 853/199/127
f 853/199/127 852/200/188 854/61/127
f 855/201/127 851/198/127 853/199/127
f 855/201/127 856/202/188 851/198/127
f 857/60/127 856/202/188 855/201/127
f 858/203/127 856/202/188 857/60/127
f 859/72/146 860/101/190 861/167/146
f 860/101/190 859/72/146 862/73/191
f 861/167/146 863/71/192 859/72/146
f 863/71/192 861/167/146 864/126/193
f 865/64/167 866/64/194 867/204/167
f 868/204/167 869/64/194 870/99/195
f 871/77/196 872/77/197 873/78/56
f 874/76/55 873/78/56 872/77/197
f 875/77/55 876/78/56 877/76/55
f 878/168/71 879/169/71 880/168/71
f 879/169/71 878/168/71 881/169/71
f 882/168/71 883/169/71 884/169/71
f 883/169/71 882/168/71 885/168/71
f 886/205/198 887/206/78 888/207/78
f 887/206/78 886/205/198 889/208/199
f 890/205/198 891/209/78 892/207/78
f 891/209/78 890/205/198 893/208/199
f 894/205/200 895/206/78 896/207/78
f 895/206/78 894/205/200 897/208/115
f 898/205/199 899/206/78 900/208/198
f 899/206/78 898/205/199 901/207/78
f 902/209/78 903/208/198 904/205/199
f 902/209/78 904/205/199 905/207/78
f 906/205/115 907/206/78 908/208/200
f 907/206/78 906/205/115 909/207/78
f 910/210/165 911/62/201 912/62/165
f 911/62/201 910/210/165 913/96/202
f 914/98/203 915/62/204 913/96/201
f 916/147/71 917/147/205 918/146/71
f 919/146/206 918/146/71 917/147/205
f 920/74/167 921/74/167 922/74/167
f 921/74/167 920/74/167 923/74/167
f 920/74/167 922/74/167 924/74/167
f 925/126/203 926/167/165 927/71/203
f 927/71/203 926/167/165 928/72/165
f 929/101/207 928/72/165 926/167/165
f 928/72/165 929/101/207 930/73/207
f 931/173/157 932/172/158 933/173/157
f 932/172/158 931/173/157 934/172/208
f 935/170/158 936/168/158 937/170/158
f 936/168/158 935/170/158 938/168/209
f 939/173/209 940/172/158 941/173/158
f 941/173/158 940/172/158 942/172/157
f 943/170/157 944/168/157 945/170/157
f 945/170/157 944/168/157 946/168/208
f 947/171/78 948/170/78 949/170/78
f 947/171/78 949/170/78 950/171/78
f 951/170/78 952/171/78 953/170/78
f 954/171/78 953/170/78 952/171/78
f 955/74/71 956/74/71 957/74/71
f 958/74/71 955/74/71 957/74/71
f 958/74/71 959/74/71 955/74/71
f 959/74/71 958/74/71 960/74/71
f 956/74/71 955/74/71 961/74/71
f 962/74/71 956/74/71 961/74/71
f 963/74/71 956/74/71 962/74/71
f 964/74/71 963/74/71 962/74/71
f 965/74/71 964/74/71 962/74/71
f 964/74/71 965/74/71 966/74/71
f 967/176/78 968/173/78 969/173/78
f 967/176/78 969/173/78 970/176/78
f 971/173/78 972/176/78 973/173/78
f 974/176/78 973/173/78 972/176/78
f 975/211/210 976/83/210 977/84/211
f 976/83/210 975/211/210 978/196/211
f 979/84/211 980/83/210 981/211/210
f 980/83/210 982/196/211 981/211/210
f 983/147/205 984/147/71 985/146/71
f 983/147/205 985/146/71 986/146/212
f 986/146/212 987/147/212 983/147/205
f 987/147/212 986/146/212 988/146/212
f 987/147/212 988/146/212 989/147/213
f 989/147/213 988/146/212 990/146/214
f 989/147/213 990/146/214 991/147/215
f 992/146/215 991/147/215 990/146/214
f 993/161/216 994/69/216 995/70/167
f 993/161/216 995/70/167 996/162/167
f 997/146/217 998/120/217 999/147/217
f 998/120/217 997/146/217 1000/92/217
f 1001/147/217 1002/92/218 1003/146/217
f 1002/92/218 1001/147/217 1004/120/219
f 1005/169/127 1006/171/127 1007/171/188
f 1007/171/188 1008/169/220 1005/169/127
f 1009/174/127 1010/176/188 1011/176/127
f 1011/176/127 1012/174/188 1009/174/127
f 1013/171/189 1014/169/189 1015/171/189
f 1015/171/189 1014/169/189 1016/169/127
f 1017/176/189 1018/174/127 1019/176/127
f 1019/176/127 1018/174/127 1020/174/189
f 1021/212/66 1022/213/78 1023/214/78
f 1022/213/78 1021/212/66 1024/215/64
f 1025/213/78 1026/215/69 1027/212/64
f 1025/213/78 1027/212/64 1028/214/78
f 1029/95/221 1030/68/222 1031/140/223
f 1032/67/165 1031/140/223 1030/68/222
f 1033/146/224 1034/147/225 1035/92/226
f 1034/147/225 1036/120/227 1035/92/226
f 1036/120/227 1037/216/78 1035/92/226
f 1038/217/78 1037/216/78 1036/120/227
f 1039/148/228 1034/147/225 1033/146/224
f 1039/148/228 1033/146/224 1040/149/229
f 1041/116/158 1039/148/228 1040/149/229
f 1042/113/208 1041/116/158 1040/149/229
f 1043/146/224 1044/92/226 1045/147/225
f 1045/147/225 1044/92/226 1046/120/230
f 1047/216/78 1046/120/230 1044/92/226
f 1046/120/230 1047/216/78 1048/217/78
f 1049/148/228 1043/146/224 1045/147/225
f 1043/146/224 1049/148/228 1050/149/231
f 1051/116/158 1050/149/231 1049/148/228
f 1052/113/208 1050/149/231 1051/116/158
f 1053/206/232 1054/218/233 1055/207/234
f 1054/218/233 1053/206/232 1056/219/235
f 1056/219/235 1057/220/71 1054/218/233
f 1058/221/71 1054/218/233 1057/220/71
f 1059/207/234 1060/218/233 1061/206/232
f 1061/206/232 1060/218/233 1062/219/235
f 1060/218/233 1063/220/71 1062/219/235
f 1060/218/233 1064/221/71 1063/220/71
f 1065/128/236 1066/163/237 1067/163/237
f 1065/128/236 1067/163/237 1068/128/238
f 1069/163/237 1070/128/236 1071/163/237
f 1072/128/238 1071/163/237 1070/128/236
f 1073/222/239 1074/119/240 1075/159/239
f 1075/159/239 1074/119/240 1076/125/240
f 1074/119/240 1073/222/239 1077/120/241
f 1078/222/239 1079/119/241 1080/120/241
f 1079/119/241 1078/222/239 1081/159/239
f 1079/119/241 1081/159/239 1082/125/241
f 1083/98/203 1084/71/203 1085/62/202
f 1086/99/194 1087/64/195 1088/65/216
f 1086/99/194 1088/65/216 1089/100/216
f 1090/143/242 1091/223/243 1092/154/244
f 1093/142/245 1091/223/243 1090/143/242
f 1091/223/243 1093/142/245 1094/145/246
f 1095/224/247 1092/154/248 1096/223/249
f 1092/154/248 1095/224/247 1097/152/247
f 1095/224/247 1098/225/250 1097/152/247
f 1097/152/247 1098/225/250 1099/157/251
f 1099/157/251 1098/225/250 1100/222/250
f 1100/222/250 1101/159/250 1099/157/251
f 1102/142/246 1103/223/243 1104/145/246
f 1105/143/252 1103/223/243 1102/142/246
f 1103/223/243 1105/143/252 1106/154/243
f 1107/223/249 1106/154/249 1108/224/247
f 1109/152/247 1108/224/247 1106/154/249
f 1108/224/247 1109/152/247 1110/225/253
f 1109/152/247 1111/157/251 1110/225/253
f 1110/225/253 1111/157/251 1112/222/250
f 1112/222/250 1111/157/251 1113/159/250
f 1114/74/78 1115/74/78 1116/74/78
f 1114/74/78 1116/74/78 1117/74/78
f 1118/74/78 1119/74/78 1120/74/78
f 1118/74/78 1120/74/78 1121/74/78
f 1122/74/78 1123/74/78 1124/74/78
f 1125/74/78 1124/74/78 1123/74/78
f 1126/74/78 1127/74/78 1128/74/78
f 1129/74/78 1128/74/78 1127/74/78
f 1130/206/254 1131/226/255 1132/207/254
f 1131/226/255 1130/206/254 1133/227/256
f 1133/227/256 1134/228/71 1131/226/255
f 1133/227/256 1135/229/71 1134/228/71
f 1136/207/254 1137/226/256 1138/206/254
f 1138/206/254 1137/226/256 1139/227/256
f 1137/226/256 1140/228/71 1139/227/256
f 1141/229/71 1139/227/256 1140/228/71
f 1142/165/257 1143/166/258 1144/166/259
f 1142/165/257 1144/166/259 1145/165/260
f 1145/165/260 1146/163/261 1142/165/257
f 1146/163/261 1145/165/260 1147/163/261
f 1148/166/259 1149/165/260 1150/166/258
f 1151/165/260 1150/166/258 1149/165/260
f 1152/163/261 1151/165/260 1149/165/260
f 1153/163/261 1151/165/260 1152/163/261
f 1154/166/259 1155/164/262 1156/166/263
f 1155/164/262 1154/166/259 1157/164/262
f 1158/166/259 1159/164/262 1160/166/263
f 1160/166/263 1159/164/262 1161/164/262
f 1162/146/264 1163/147/265 1164/147/264
f 1163/147/265 1162/146/264 1165/146/264
f 1166/146/205 1164/147/205 1167/147/266
f 1167/147/266 1168/146/266 1166/146/205
f 1168/146/266 1167/147/266 1169/147/215
f 1168/146/266 1169/147/215 1170/146/215
f 1171/209/254 1172/226/256 1173/207/254
f 1172/226/256 1171/209/254 1174/227/256
f 1174/227/256 1175/229/71 1172/226/256
f 1176/230/71 1172/226/256 1175/229/71
f 1177/207/254 1178/226/256 1179/209/254
f 1179/209/254 1178/226/256 1180/227/256
f 1178/226/256 1181/229/71 1180/227/256
f 1178/226/256 1182/230/71 1181/229/71
f 1183/211/267 1184/76/268 1185/196/267
f 1185/196/267 1184/76/268 1186/77/268
f 1187/76/268 1188/211/267 1189/196/267
f 1189/196/267 1190/77/268 1187/76/268
f 1191/213/269 1192/184/270 1193/214/269
f 1191/213/269 1194/185/271 1192/184/270
f 1195/184/272 1196/213/273 1197/214/273
f 1198/185/272 1196/213/273 1195/184/272
f 1199/74/274 1200/74/274 1201/74/274
f 1200/74/274 1199/74/274 1202/74/274
f 1203/74/274 1204/74/274 1205/74/274
f 1205/74/274 1204/74/274 1206/74/274
f 1207/74/275 1208/74/276 1209/74/274
f 1208/74/276 1207/74/275 1210/74/274
f 1211/74/274 1212/74/276 1213/74/275
f 1213/74/275 1212/74/276 1214/74/274
f 1215/74/277 1216/74/278 1217/74/279
f 1216/74/278 1218/74/280 1217/74/279
f 1216/74/278 1219/74/281 1218/74/280
f 1217/74/279 1220/74/282 1215/74/277
f 1220/74/282 1217/74/279 1221/74/50
f 1220/74/282 1222/74/279 1215/74/277
f 1222/74/279 1216/74/278 1215/74/277
f 1222/74/279 1223/74/280 1216/74/278
f 1220/74/282 1224/74/50 1222/74/279
f 1225/74/281 1216/74/278 1223/74/280
f 1221/74/50 1226/74/283 1220/74/282
f 1226/74/283 1224/74/50 1220/74/282
f 1226/74/283 1221/74/50 1227/74/284
f 1226/74/283 1228/74/284 1224/74/50
f 1229/74/50 1226/74/283 1227/74/284
f 1226/74/283 1230/74/50 1228/74/284
f 1229/74/50 1231/74/50 1226/74/283
f 1230/74/50 1226/74/283 1231/74/50
f 1225/74/281 1232/74/281 1216/74/278
f 1219/74/281 1216/74/278 1232/74/281
f 1233/74/48 1232/74/281 1225/74/281
f 1232/74/281 1234/74/48 1219/74/281
f 1233/74/48 1235/74/285 1232/74/281
f 1234/74/48 1232/74/281 1235/74/285
f 1236/74/286 1235/74/285 1233/74/48
f 1235/74/285 1237/74/287 1234/74/48
f 1236/74/286 1238/74/286 1235/74/285
f 1237/74/287 1235/74/285 1238/74/286
f 1236/74/286 1239/74/288 1238/74/286
f 1239/74/288 1237/74/287 1238/74/286
f 1239/74/288 1236/74/286 1240/74/288
f 1239/74/288 1241/74/289 1237/74/287
f 1240/74/288 1242/74/288 1239/74/288
f 1242/74/288 1241/74/289 1239/74/288
f 1242/74/288 1240/74/288 1243/74/288
f 1242/74/288 1244/74/288 1241/74/289
f 1243/74/288 1245/74/290 1242/74/288
f 1245/74/290 1244/74/288 1242/74/288
f 1245/74/290 1243/74/288 1246/74/291
f 1245/74/290 1247/74/291 1244/74/288
f 1245/74/290 1246/74/291 1248/74/71
f 1249/74/71 1247/74/291 1245/74/290
f 1250/74/71 1245/74/290 1248/74/71
f 1249/74/71 1245/74/290 1250/74/71
f 1250/74/71 1248/74/71 1251/74/71
f 1249/74/71 1250/74/71 1251/74/71
f 1251/74/71 1248/74/71 1252/74/71
f 1251/74/71 1253/74/71 1249/74/71
f 1254/92/292 1255/137/292 1256/197/292
f 1256/197/292 1257/71/293 1254/92/292
f 1258/99/50 1259/97/282 1260/97/50
f 1259/97/282 1258/99/50 1261/99/50
f 1260/97/50 1259/97/282 1262/96/50
f 1262/96/50 1259/97/282 1263/96/50
f 1263/96/50 1259/97/282 1264/97/50
f 1265/99/50 1266/97/50 1259/97/50
f 1266/97/50 1265/99/50 1267/99/50
f 1268/99/50 1269/100/50 1267/99/50
f 1269/100/50 1268/99/50 1270/100/50
f 1271/167/50 1272/101/50 1273/167/50
f 1272/101/50 1271/167/50 1274/101/50
f 1275/126/50 1271/167/50 1273/167/50
f 1271/167/50 1275/126/50 1276/126/50
f 1277/96/50 1278/97/50 1279/96/50
f 1280/161/50 1281/162/50 1282/162/50
f 1280/161/50 1282/162/50 1283/161/50
f 1284/96/50 1285/98/50 1286/98/50
f 1285/98/50 1284/96/50 1287/96/50
f 1288/95/50 1289/140/50 1290/140/50
f 1289/140/50 1288/95/50 1291/95/50
f 1292/136/294 1293/132/295 1294/111/295
f 1295/133/295 1293/132/295 1292/136/294
f 1293/132/295 1295/133/295 1296/130/295
f 1294/111/295 1293/132/295 1297/109/295
f 1294/111/295 1297/109/295 1298/105/295
f 1294/111/295 1298/105/295 1299/106/295
