# Blender 5.1.1
# www.blender.org
mtllib eyes19.mtl
o 98864840795036.001
v 0.647425 0.075441 -0.049299
v 0.624800 0.095008 -0.009244
v 0.649929 0.086265 -0.012576
v 0.668104 0.063897 -0.026142
v 0.670425 0.048293 -0.028127
v 0.656208 0.073146 0.022927
v 0.670652 0.063231 -0.005184
v 0.673263 0.047552 -0.004791
v 0.662584 0.043770 0.036413
v 0.650162 0.047014 -0.065730
v 0.673035 0.032614 -0.027735
v 0.665320 0.015343 0.019983
v 0.675584 0.031948 -0.006777
v 0.641333 0.039485 0.054764
v 0.662816 0.004519 -0.016740
v 0.633004 0.077868 0.037144
v 0.614690 0.034843 0.063443
v 0.605674 0.076388 0.044370
v 0.596794 0.094941 -0.005839
v 0.644909 0.002344 0.033298
v 0.618561 -0.005358 0.040206
v 0.615019 -0.020666 -0.011727
v 0.621528 0.080865 -0.057223
v 0.593252 0.079633 -0.057773
v 0.625104 0.043724 -0.078691
v 0.597123 0.039431 -0.081010
v 0.606139 -0.002114 -0.061936
v 0.641637 -0.011799 -0.014683
v 0.633433 0.005342 -0.061071
v 0.656537 0.017637 -0.052243
v 0.427739 0.056219 0.161575
v 0.463212 0.069928 0.166653
v 0.466660 0.081171 0.142555
v 0.451072 0.044907 0.182186
v 0.450426 0.029044 0.183048
v 0.499503 0.059436 0.173347
v 0.471896 0.045841 0.185601
v 0.473613 0.030083 0.186851
v 0.413866 0.026339 0.161088
v 0.452143 0.013287 0.184298
v 0.515355 0.030888 0.177737
v 0.501482 0.001008 0.177250
v 0.472967 0.014220 0.187714
v 0.534789 0.030163 0.157036
v 0.466009 -0.012701 0.172173
v 0.514078 0.067462 0.151301
v 0.544826 0.028730 0.130504
v 0.522408 0.069103 0.124297
v 0.471084 0.083942 0.114830
v 0.516663 -0.008877 0.156401
v 0.525206 -0.013526 0.129817
v 0.475041 -0.032914 0.122636
v 0.420314 0.063260 0.135921
v 0.420919 0.064554 0.107650
v 0.470316 -0.026789 0.149767
v 0.402187 0.024220 0.135285
v 0.401298 0.022298 0.106962
v 0.423716 -0.018075 0.113170
v 0.422898 -0.013079 0.141021
v 0.429718 -0.002208 0.165478
vn 0.5419 0.6588 -0.5218
vn 0.1567 0.9876 0.0123
vn 0.4777 0.8780 -0.0298
vn 0.7794 0.4719 -0.4121
vn 0.8450 0.1593 -0.5104
vn 0.6558 0.6290 0.4175
vn 0.8589 0.4513 0.2419
vn 0.9440 0.1332 0.3018
vn 0.7942 0.0947 0.6002
vn 0.6278 0.1381 -0.7660
vn 0.8801 -0.1667 -0.4445
vn 0.8237 -0.4359 0.3626
vn 0.9596 -0.1880 0.2093
vn 0.4688 0.0291 0.8829
vn 0.7232 -0.6818 -0.1099
vn 0.2931 0.7381 0.6077
vn 0.3096 0.0004 0.9509
vn 0.1340 0.7402 0.6590
vn 0.0017 0.9995 0.0317
vn 0.5148 -0.6688 0.5364
vn 0.3655 -0.7252 0.5835
vn 0.3086 -0.9488 -0.0677
vn 0.1446 0.7766 -0.6132
vn -0.0219 0.7812 -0.6239
vn 0.2440 0.0879 -0.9658
vn 0.0732 0.0618 -0.9954
vn 0.2091 -0.6844 -0.6985
vn 0.4520 -0.8881 -0.0829
vn 0.3663 -0.6300 -0.6848
vn 0.7097 -0.4059 -0.5758
vn -0.5994 0.5588 0.5731
vn -0.1278 0.8253 0.5500
vn -0.0831 0.9667 0.2420
vn -0.4813 0.3617 0.7984
vn -0.5529 0.0368 0.8324
vn 0.3335 0.6011 0.7262
vn 0.1678 0.3909 0.9050
vn 0.2536 0.0734 0.9645
vn -0.7978 0.0136 0.6028
vn -0.4591 -0.2843 0.8417
vn 0.5593 0.0744 0.8256
vn 0.3704 -0.4756 0.7979
vn 0.1899 -0.2545 0.9482
vn 0.8585 0.0631 0.5089
vn -0.0735 -0.7514 0.6558
vn 0.5274 0.7583 0.3831
vn 0.9349 0.0551 0.3507
vn 0.5833 0.7798 0.2273
vn -0.0589 0.9942 0.0896
vn 0.5756 -0.6634 0.4781
vn 0.6339 -0.7014 0.3260
vn 0.0074 -0.9751 0.2214
vn -0.6860 0.7039 0.1841
vn -0.6909 0.7227 0.0183
vn -0.0189 -0.9292 0.3691
vn -0.9781 -0.0192 0.2072
vn -0.9989 -0.0316 0.0335
vn -0.6408 -0.7587 0.1173
vn -0.6379 -0.7178 0.2791
vn -0.5625 -0.5170 0.6452
vt 0.000000 0.000000
s 1
f 1/1/1 2/1/2 3/1/3
f 4/1/4 1/1/1 3/1/3
f 5/1/5 1/1/1 4/1/4
f 2/1/2 6/1/6 3/1/3
f 6/1/6 7/1/7 3/1/3
f 6/1/6 8/1/8 7/1/7
f 8/1/8 6/1/6 9/1/9
f 5/1/5 10/1/10 1/1/1
f 11/1/11 10/1/10 5/1/5
f 9/1/9 12/1/12 8/1/8
f 12/1/12 13/1/13 8/1/8
f 14/1/14 9/1/9 6/1/6
f 14/1/14 12/1/12 9/1/9
f 15/1/15 13/1/13 12/1/12
f 16/1/16 14/1/14 6/1/6
f 6/1/6 2/1/2 16/1/16
f 17/1/17 14/1/14 16/1/16
f 18/1/18 17/1/17 16/1/16
f 16/1/16 19/1/19 18/1/18
f 19/1/19 16/1/16 2/1/2
f 17/1/17 20/1/20 14/1/14
f 12/1/12 14/1/14 20/1/20
f 20/1/20 17/1/17 21/1/21
f 20/1/20 21/1/21 22/1/22
f 23/1/23 19/1/19 2/1/2
f 19/1/19 23/1/23 24/1/24
f 2/1/2 1/1/1 23/1/23
f 25/1/25 24/1/24 23/1/23
f 1/1/1 25/1/25 23/1/23
f 25/1/25 26/1/26 24/1/24
f 25/1/25 1/1/1 10/1/10
f 25/1/25 27/1/27 26/1/26
f 12/1/12 20/1/20 28/1/28
f 20/1/20 22/1/22 28/1/28
f 12/1/12 28/1/28 15/1/15
f 29/1/29 22/1/22 27/1/27
f 27/1/27 25/1/25 29/1/29
f 22/1/22 29/1/29 28/1/28
f 28/1/28 30/1/30 15/1/15
f 30/1/30 28/1/28 29/1/29
f 25/1/25 30/1/30 29/1/29
f 30/1/30 25/1/25 10/1/10
f 30/1/30 11/1/11 15/1/15
f 10/1/10 11/1/11 30/1/30
f 31/1/31 32/1/32 33/1/33
f 34/1/34 32/1/32 31/1/31
f 34/1/34 31/1/31 35/1/35
f 36/1/36 33/1/33 32/1/32
f 36/1/36 32/1/32 37/1/37
f 38/1/38 36/1/36 37/1/37
f 31/1/31 39/1/39 35/1/35
f 35/1/35 39/1/39 40/1/40
f 36/1/36 38/1/38 41/1/41
f 38/1/38 42/1/42 41/1/41
f 42/1/42 38/1/38 43/1/43
f 36/1/36 41/1/41 44/1/44
f 42/1/42 44/1/44 41/1/41
f 45/1/45 42/1/42 43/1/43
f 44/1/44 46/1/46 36/1/36
f 33/1/33 36/1/36 46/1/46
f 46/1/46 44/1/44 47/1/47
f 46/1/46 47/1/47 48/1/48
f 49/1/49 46/1/46 48/1/48
f 46/1/46 49/1/49 33/1/33
f 50/1/50 47/1/47 44/1/44
f 44/1/44 42/1/42 50/1/50
f 47/1/47 50/1/50 51/1/51
f 52/1/52 51/1/51 50/1/50
f 53/1/53 33/1/33 49/1/49
f 33/1/33 53/1/53 31/1/31
f 53/1/53 49/1/49 54/1/54
f 55/1/55 50/1/50 42/1/42
f 50/1/50 55/1/55 52/1/52
f 42/1/42 45/1/45 55/1/55
f 56/1/56 53/1/53 54/1/54
f 56/1/56 31/1/31 53/1/53
f 56/1/56 54/1/54 57/1/57
f 31/1/31 56/1/56 39/1/39
f 58/1/58 56/1/56 57/1/57
f 52/1/52 59/1/59 58/1/58
f 56/1/56 58/1/58 59/1/59
f 59/1/59 52/1/52 55/1/55
f 60/1/60 39/1/39 56/1/56
f 56/1/56 59/1/59 60/1/60
f 55/1/55 60/1/60 59/1/59
f 60/1/60 55/1/55 45/1/45
f 40/1/40 39/1/39 60/1/60
f 60/1/60 45/1/45 40/1/40
