# Blender 5.1.1
# www.blender.org
mtllib kracken mag.mtl
o 106844153954525
v -0.220168 -0.299775 -0.100690
v -0.226800 -0.236968 0.103723
v -0.226800 -0.236968 -0.103723
v -0.220168 -0.299775 0.100690
v 0.220168 -0.299775 0.100690
v 0.220168 -0.299775 -0.100690
v 0.226800 -0.236968 -0.103723
v 0.226800 -0.236968 0.103723
v -0.226800 -0.236968 -0.103723
v -0.189000 -0.219775 0.074088
v -0.189000 -0.219775 -0.074088
v -0.226800 -0.236968 0.103723
v 0.226800 -0.236968 0.103723
v 0.226800 -0.236968 -0.103723
v 0.189000 -0.219775 -0.074088
v 0.189000 -0.219775 0.074088
v 0.220168 -0.299775 0.100690
v -0.226800 -0.236968 0.103723
v -0.220168 -0.299775 0.100690
v 0.226800 -0.236968 0.103723
v 0.220168 -0.299775 -0.100690
v -0.226800 -0.236968 -0.103723
v 0.226800 -0.236968 -0.103723
v -0.220168 -0.299775 -0.100690
v 0.226800 -0.236968 0.103723
v -0.189000 -0.219775 0.074088
v -0.226800 -0.236968 0.103723
v 0.189000 -0.219775 0.074088
v 0.226800 -0.236968 -0.103723
v -0.226800 -0.236968 -0.103723
v -0.189000 -0.219775 -0.074088
v 0.189000 -0.219775 -0.074088
v -0.220168 -0.299775 -0.100690
v 0.220168 -0.299775 -0.100690
v 0.220168 -0.299775 0.100690
v -0.220168 -0.299775 0.100690
vn -0.9945 -0.1051 0.0005
vn -0.9945 -0.1051 0.0006
vn 0.9945 -0.1051 0.0003
vn 0.9945 -0.1051 0.0005
vn -0.4140 0.9103 0.0005
vn 0.4140 0.9103 0.0003
vn 0.4140 0.9103 -0.0000
vn 0.4140 0.9103 0.0005
vn -0.0000 -0.0482 0.9988
vn -0.0000 -0.0482 -0.9988
vn -0.0000 0.8650 0.5018
vn -0.0000 0.8650 -0.5018
vn -0.0000 -1.0000 0.0005
vt 0.000000 0.000000
s 1
f 1/1/1 2/1/2 3/1/2
f 2/1/2 1/1/1 4/1/1
f 5/1/3 6/1/3 7/1/4
f 7/1/4 8/1/3 5/1/3
f 9/1/5 10/1/5 11/1/5
f 9/1/5 12/1/5 10/1/5
f 13/1/6 14/1/7 15/1/8
f 13/1/6 15/1/8 16/1/8
f 17/1/9 18/1/9 19/1/9
f 18/1/9 17/1/9 20/1/9
f 21/1/10 22/1/10 23/1/10
f 22/1/10 21/1/10 24/1/10
f 25/1/11 26/1/11 27/1/11
f 26/1/11 25/1/11 28/1/11
f 29/1/12 30/1/12 31/1/12
f 29/1/12 31/1/12 32/1/12
f 33/1/13 34/1/13 35/1/13
f 33/1/13 35/1/13 36/1/13
o 115810187583339
v 0.105840 0.235000 -0.084672
v 0.105840 0.235000 0.084672
v 0.151200 0.235000 -0.084672
v 0.151200 0.235000 0.084672
v -0.099792 0.235000 0.084672
v -0.099792 0.235000 -0.084672
v -0.151200 0.235000 0.084672
v -0.151200 0.235000 -0.084672
v -0.154980 0.188000 -0.083614
v -0.154980 0.188000 0.083614
v -0.151200 0.235000 -0.084672
v -0.151200 0.235000 0.084672
v -0.185598 -0.192700 0.075041
v -0.185598 -0.192700 -0.075041
v -0.189000 -0.235000 0.074088
v -0.189000 -0.235000 -0.074088
v 0.151200 0.235000 -0.084672
v 0.151200 0.235000 0.084672
v 0.154980 0.188000 -0.083614
v 0.154980 0.188000 0.083614
v 0.185598 -0.192700 -0.075041
v 0.185598 -0.192700 0.075041
v 0.189000 -0.235000 -0.074088
v 0.189000 -0.235000 0.074088
v -0.154980 0.188000 0.083614
v -0.102287 0.188000 0.083614
v -0.151200 0.235000 0.084672
v -0.099792 0.235000 0.084672
v 0.105840 0.235000 0.084672
v -0.122495 -0.192700 0.075041
v 0.108486 0.188000 0.083614
v 0.151200 0.235000 0.084672
v 0.154980 0.188000 0.083614
v -0.185598 -0.192700 0.075041
v -0.124740 -0.235000 0.074088
v -0.189000 -0.235000 0.074088
v 0.129919 -0.192700 0.075041
v 0.132300 -0.235000 0.074088
v 0.185598 -0.192700 0.075041
v 0.189000 -0.235000 0.074088
v 0.151200 0.235000 -0.084672
v 0.108486 0.188000 -0.083614
v 0.105840 0.235000 -0.084672
v 0.154980 0.188000 -0.083614
v -0.102287 0.188000 -0.083614
v -0.099792 0.235000 -0.084672
v -0.151200 0.235000 -0.084672
v -0.154980 0.188000 -0.083614
v -0.122495 -0.192700 -0.075041
v 0.129919 -0.192700 -0.075041
v -0.185598 -0.192700 -0.075041
v 0.185598 -0.192700 -0.075041
v -0.124740 -0.235000 -0.074088
v -0.189000 -0.235000 -0.074088
v 0.132300 -0.235000 -0.074088
v 0.189000 -0.235000 -0.074088
v 0.087531 0.163931 -0.070572
v -0.097253 -0.168632 -0.063336
v -0.081087 0.163931 -0.070572
v 0.104677 -0.168632 -0.063336
v 0.129919 -0.192700 0.075041
v -0.097253 -0.168632 0.063336
v -0.122495 -0.192700 0.075041
v 0.104677 -0.168632 0.063336
v 0.087531 0.163931 0.070572
v -0.081087 0.163931 0.070572
v 0.108486 0.188000 -0.083614
v -0.081087 0.163931 -0.070572
v -0.102287 0.188000 -0.083614
v 0.087531 0.163931 -0.070572
v -0.097253 -0.168632 -0.063336
v -0.122495 -0.192700 -0.075041
v -0.102287 0.188000 0.083614
v -0.122495 -0.192700 0.075041
v -0.097253 -0.168632 0.063336
v -0.081087 0.163931 0.070572
v 0.108486 0.188000 0.083614
v 0.104677 -0.168632 0.063336
v 0.129919 -0.192700 0.075041
v 0.087531 0.163931 0.070572
v 0.108486 0.188000 -0.083614
v 0.129919 -0.192700 -0.075041
v 0.104677 -0.168632 -0.063336
v 0.087531 0.163931 -0.070572
v 0.108486 0.188000 0.083614
v -0.102287 0.188000 0.083614
v -0.081087 0.163931 0.070572
v 0.087531 0.163931 0.070572
v 0.129919 -0.192700 -0.075041
v -0.122495 -0.192700 -0.075041
v -0.097253 -0.168632 -0.063336
v 0.104677 -0.168632 -0.063336
vn -0.0003 1.0000 0.0004
vn -0.0004 1.0000 0.0004
vn -0.9968 0.0802 -0.0000
vn -0.9968 0.0803 0.0004
vn -0.9968 0.0803 0.0003
vn -0.9968 0.0804 0.0005
vn 0.9968 0.0803 0.0003
vn 0.9968 0.0803 0.0004
vn 0.9968 0.0802 -0.0000
vn -0.0004 -0.0222 0.9998
vn -0.0000 -0.0225 0.9997
vn -0.0003 -0.0223 0.9998
vn -0.0005 -0.0222 0.9998
vn -0.0004 -0.0222 -0.9998
vn -0.0005 -0.0222 -0.9998
vn -0.0000 -0.0225 -0.9997
vn -0.0003 -0.0223 -0.9998
vn -0.0003 -0.0221 -0.9998
vn -0.0004 0.4371 0.8994
vn -0.0004 0.2376 0.9714
vn -0.0005 0.4370 0.8995
vn -0.0000 -0.4764 -0.8792
vn 0.3003 -0.2243 -0.9271
vn 0.0426 -0.4452 -0.8944
vn -0.0003 -0.4763 -0.8793
vn 0.4695 -0.0437 -0.8818
vn 0.4695 -0.0437 0.8818
vn 0.4696 -0.0437 0.8818
vn -0.4714 -0.0447 0.8808
vn -0.4714 -0.0447 -0.8808
vn -0.0003 -0.4763 0.8793
vn -0.0000 -0.4764 0.8792
vn -0.0004 -0.4762 0.8793
vn -0.0005 0.4370 -0.8994
vn -0.0005 0.4370 -0.8995
vt 0.000000 0.000000
s 1
f 37/2/14 38/2/14 39/2/15
f 39/2/15 38/2/14 40/2/15
f 37/2/14 41/2/14 38/2/14
f 37/2/14 42/2/14 41/2/14
f 42/2/14 43/2/15 41/2/14
f 44/2/15 43/2/15 42/2/14
f 45/2/16 46/2/16 47/2/17
f 47/2/17 46/2/16 48/2/18
f 45/2/16 49/2/18 46/2/16
f 45/2/16 50/2/18 49/2/18
f 50/2/18 51/2/17 49/2/18
f 52/2/19 51/2/17 50/2/18
f 53/2/20 54/2/20 55/2/20
f 55/2/20 54/2/20 56/2/21
f 57/2/20 55/2/20 56/2/21
f 57/2/20 56/2/21 58/2/22
f 57/2/20 58/2/22 59/2/20
f 59/2/20 58/2/22 60/2/22
f 61/2/23 62/2/24 63/2/23
f 62/2/24 64/2/23 63/2/23
f 62/2/24 65/2/23 64/2/23
f 66/2/25 62/2/24 61/2/23
f 65/2/23 62/2/24 67/2/26
f 67/2/26 68/2/23 65/2/23
f 68/2/23 67/2/26 69/2/23
f 61/2/23 70/2/23 66/2/25
f 71/2/25 66/2/25 70/2/23
f 72/2/26 71/2/25 70/2/23
f 71/2/25 73/2/23 66/2/25
f 73/2/23 69/2/23 67/2/26
f 73/2/23 71/2/25 74/2/25
f 69/2/23 73/2/23 75/2/25
f 74/2/25 75/2/25 73/2/23
f 75/2/25 74/2/25 76/2/23
f 77/2/27 78/2/28 79/2/27
f 78/2/28 77/2/27 80/2/27
f 81/2/29 79/2/27 78/2/28
f 79/2/27 81/2/29 82/2/27
f 81/2/29 83/2/27 82/2/27
f 83/2/27 81/2/29 84/2/27
f 85/2/30 84/2/27 81/2/29
f 80/2/27 86/2/29 78/2/28
f 84/2/27 85/2/30 87/2/27
f 86/2/29 80/2/27 88/2/27
f 89/2/27 87/2/27 85/2/30
f 86/2/29 89/2/27 85/2/30
f 87/2/27 89/2/27 90/2/28
f 89/2/27 86/2/29 91/2/30
f 88/2/27 91/2/30 86/2/29
f 91/2/30 88/2/27 92/2/27
f 93/2/27 94/2/28 95/2/27
f 94/2/28 93/2/27 96/2/31
f 97/2/32 98/2/33 99/2/34
f 98/2/33 97/2/32 100/2/33
f 101/2/23 98/2/33 100/2/33
f 98/2/33 101/2/23 102/2/23
f 103/2/35 104/2/36 105/2/37
f 104/2/36 103/2/35 106/2/38
f 107/2/39 105/2/37 104/2/36
f 105/2/37 107/2/39 108/2/39
f 109/2/40 110/2/40 111/2/40
f 109/2/40 111/2/40 112/2/41
f 113/2/42 114/2/42 115/2/42
f 114/2/42 113/2/42 116/2/42
f 117/2/43 118/2/43 119/2/43
f 117/2/43 119/2/43 120/2/43
f 121/2/44 122/2/45 123/2/44
f 121/2/44 123/2/44 124/2/46
f 125/2/47 126/2/48 127/2/48
f 125/2/47 127/2/48 128/2/47
