# Blender 5.1.1
# www.blender.org
mtllib mainbodykraken5.mtl
o 122188989005800
v 2.729522 0.274361 -0.109828
v 2.739583 0.364361 0.120684
v 2.729583 0.274361 0.120687
v 2.739522 0.364361 -0.109831
v -2.725837 0.066190 0.006906
v -2.725848 0.100046 -0.033271
v -2.725852 0.086566 -0.048435
v -2.725837 0.085254 0.006906
v -2.725852 0.135758 -0.049911
v -2.725827 0.100046 0.047081
v -2.725858 0.135758 -0.071358
v -2.725823 0.086566 0.062246
v -2.725822 0.135758 0.063723
v -2.725816 0.135758 0.085169
v -2.725852 0.184949 -0.048435
v -2.725848 0.171469 -0.033271
v -2.725837 0.205325 0.006906
v -2.725837 0.186261 0.006906
v -2.725827 0.171469 0.047081
v -2.725823 0.184949 0.062246
v -2.725822 0.135758 0.063723
v -2.725816 0.135758 0.085169
v -2.725823 0.184949 0.062246
v -2.691437 0.233152 0.006897
v -2.725837 0.205325 0.006906
v -2.725852 0.184949 -0.048435
v -2.691416 0.204626 0.084374
v -2.691408 0.135758 0.116465
v -2.725816 0.135758 0.085169
v -2.691458 0.204626 -0.070580
v -2.691465 0.135758 -0.102672
v -2.725858 0.135758 -0.071358
v -2.725852 0.086566 -0.048435
v -2.691458 0.066889 -0.070580
v -2.691436 0.038363 0.006897
v -2.725837 0.066190 0.006906
v -2.725823 0.086566 0.062246
v -2.691417 0.066889 0.084374
v -2.691408 0.135758 0.116465
v -2.725816 0.135758 0.085169
v -2.725827 0.100046 0.047081
v -2.725822 0.135758 0.063723
v -2.527666 0.135758 0.006853
v -2.725837 0.085254 0.006906
v -2.527666 0.135758 0.006853
v -2.725848 0.100046 -0.033271
v -2.527666 0.135758 0.006853
v -2.725852 0.135758 -0.049911
v -2.527666 0.135758 0.006853
v -2.725848 0.171469 -0.033271
v -2.527666 0.135758 0.006853
v -2.725837 0.186261 0.006906
v -2.527666 0.135758 0.006853
v -2.725827 0.171469 0.047081
v -2.527666 0.135758 0.006853
v -2.725822 0.135758 0.063723
v -2.527666 0.135758 0.006853
v 2.656999 0.281701 0.111289
v 2.656944 0.281701 -0.100391
v 2.666999 0.361701 0.111286
v 2.666944 0.361701 -0.100394
v 2.519522 -0.485639 -0.109773
v 2.649522 -0.025639 -0.109807
v 2.519583 -0.485639 0.120742
v 2.649583 -0.025639 0.120708
v 2.599522 0.024361 -0.109794
v 2.599583 0.024361 0.120721
v 2.669522 0.234361 -0.109812
v 2.669583 0.234361 0.120703
v 2.729522 0.274361 -0.109828
v 2.729583 0.274361 0.120687
v 2.739522 0.364361 -0.109831
v 2.693422 0.399893 0.131631
v 2.739583 0.364361 0.120684
v 2.693355 0.399893 -0.120754
v 1.296774 -0.428299 0.136255
v 1.636774 -0.428299 0.136165
v 1.636705 -0.428299 -0.124729
v 1.296705 -0.428299 -0.124639
v 1.664774 -0.398299 0.136158
v 1.664705 -0.398299 -0.124736
v 1.727789 -0.398299 0.136141
v 1.727720 -0.398299 -0.124753
v 1.750804 -0.438299 0.136135
v 1.750735 -0.438299 -0.124759
v 1.716705 -0.488299 -0.124750
v 1.716774 -0.488299 0.136144
v 1.256906 -0.488299 -0.124629
v 1.256975 -0.488299 0.136265
v -1.475836 0.222717 0.006576
v -1.475818 0.197247 0.075750
v -1.475816 0.212619 0.083438
v -1.475807 0.135758 0.115275
v -1.475810 0.135758 0.104405
v -1.475836 0.244457 0.006576
v -1.475856 0.212619 -0.070286
v -1.475854 0.197247 -0.062600
v -1.475865 0.135758 -0.102123
v -1.475862 0.135758 -0.091253
v -1.475854 0.074268 -0.062600
v -1.475856 0.058896 -0.070286
v -1.475836 0.048798 0.006576
v -1.475836 0.027058 0.006576
v -1.475816 0.058896 0.083438
v -1.475818 0.074268 0.075750
v -1.475807 0.135758 0.115275
v -1.475810 0.135758 0.104405
v -1.180941 0.357446 0.114845
v -1.180951 0.357446 0.073766
v -1.186936 0.332135 0.114847
v -1.186946 0.332135 0.073768
v -1.192932 0.306824 0.114848
v -1.192942 0.306824 0.073769
v -1.180951 0.357446 0.073766
v -1.180969 0.357446 0.006461
v -1.186946 0.332135 0.073768
v -1.186964 0.332135 0.006463
v -1.192942 0.306824 0.073769
v -1.192960 0.306824 0.006464
v -1.192979 0.306824 -0.063036
v -1.186983 0.332135 -0.063037
v -1.180987 0.357446 -0.063039
v -1.180987 0.357446 -0.063039
v -1.186993 0.332135 -0.104116
v -1.186983 0.332135 -0.063037
v -1.180998 0.357446 -0.104118
v -1.192989 0.306824 -0.104115
v -1.192979 0.306824 -0.063036
v -1.204053 0.229534 0.112307
v -1.220085 0.171701 -0.099368
v -1.220029 0.171701 0.112312
v -1.204109 0.229534 -0.099373
v -1.184601 0.203847 0.108483
v -1.184601 0.317846 0.108483
v -1.184609 0.317846 0.078483
v -1.184609 0.203847 0.078483
v -1.184648 0.317846 -0.067753
v -1.184656 0.203847 -0.097754
v -1.184648 0.203847 -0.067753
v -1.184656 0.317846 -0.097754
v -0.934609 0.293129 0.078417
v -0.934601 0.179129 0.108417
v -0.934601 0.293129 0.108417
v -0.934609 0.179129 0.078417
v -0.934648 0.293129 -0.067819
v -0.934656 0.179129 -0.097820
v -0.934648 0.179129 -0.067819
v -0.934656 0.293129 -0.097820
v -0.684601 0.164701 0.108351
v -0.684601 0.278701 0.108351
v -0.684609 0.278701 0.078351
v -0.684609 0.164701 0.078351
v -0.684648 0.278701 -0.067885
v -0.684656 0.164701 -0.097886
v -0.684648 0.164701 -0.067885
v -0.684656 0.278701 -0.097886
v 1.926952 0.101701 -0.064359
v 1.846952 0.011701 -0.064337
v 1.846943 0.011701 -0.100178
v 1.926943 0.101701 -0.100199
v 2.186943 0.101701 -0.100267
v 2.186952 0.101701 -0.064427
v 2.276952 0.221701 -0.064451
v 2.276942 0.221701 -0.100291
v 2.566625 0.267439 -0.064527
v 2.656944 0.281701 -0.100391
v 2.566662 0.267439 0.075473
v 2.656999 0.281701 0.111289
v 2.276998 0.221701 0.111389
v 2.276989 0.221701 0.075549
v 2.186989 0.101701 0.075573
v 2.186998 0.101701 0.111413
v 1.926989 0.101701 0.075641
v 1.926998 0.101701 0.111481
v 1.846989 0.011701 0.075662
v 1.846999 0.011701 0.111502
v 2.519522 -0.485639 -0.109773
v 2.519583 -0.485639 0.120742
v 2.384096 -0.480990 0.131713
v 2.384029 -0.480990 -0.120672
v -0.437146 -0.099506 -0.108441
v -0.317086 -0.229587 0.120939
v -0.437086 -0.099506 0.120971
v -0.317147 -0.229587 -0.108473
v -0.434601 0.164701 0.108285
v -0.434601 0.278701 0.108285
v -0.434609 0.278701 0.078285
v -0.434609 0.164701 0.078285
v -0.434648 0.278701 -0.067951
v -0.434656 0.164701 -0.097952
v -0.434648 0.164701 -0.067951
v -0.434656 0.278701 -0.097952
v 0.151804 0.544657 0.029081
v 0.428318 0.374434 0.158931
v 0.159575 0.521940 -0.004251
v 0.420547 0.397151 0.192263
v 0.282914 -0.229587 0.120781
v -0.317086 -0.229587 0.120939
v -0.317147 -0.229587 -0.108473
v 0.282853 -0.229587 -0.108631
v 0.402914 -0.099506 0.120749
v 0.402853 -0.099506 -0.108663
v 0.428318 0.374434 0.158931
v 0.388981 0.359720 0.210414
v 0.396752 0.337003 0.177082
v 0.420547 0.397151 0.192263
v 0.420547 0.397151 0.192263
v 0.151804 0.544657 0.029081
v 0.388981 0.359720 0.210414
v 0.134239 0.526919 0.037074
v 0.103128 0.516616 0.036843
v 0.192680 0.486084 0.070685
v 0.095832 0.428334 0.087465
v 0.110606 0.408489 0.104435
v 0.207453 0.466240 0.087655
v 0.159575 0.521940 -0.004251
v 0.134239 0.526919 0.037074
v 0.151804 0.544657 0.029081
v 0.142010 0.504202 0.003742
v 0.110899 0.493900 0.003510
v 0.134239 0.526919 0.037074
v 0.103128 0.516616 0.036843
v -0.295217 0.311919 -0.104351
v -0.591514 0.311919 -0.104273
v -0.295207 0.311919 -0.063272
v -0.591504 0.311919 -0.063194
v -0.184601 0.164701 0.108219
v -0.184601 0.278701 0.108219
v -0.184609 0.278701 0.078219
v -0.184609 0.164701 0.078219
v -0.591457 0.311919 0.114690
v 0.038268 0.291919 0.114524
v 0.038257 0.291919 0.073445
v -0.591467 0.311919 0.073611
v -1.065973 0.340693 0.073736
v -1.065963 0.340693 0.114815
v -1.137377 0.351841 0.073755
v -1.137367 0.351841 0.114834
v -1.180951 0.357446 0.073766
v -1.180941 0.357446 0.114845
v -0.317086 0.030576 0.120939
v -0.317147 0.030576 -0.108473
v -0.437086 -0.099506 0.120971
v -0.437146 -0.099506 -0.108441
v -1.180987 0.357446 -0.063039
v -1.137414 0.351841 -0.063050
v -1.137424 0.351841 -0.104129
v -1.180998 0.357446 -0.104118
v -1.066020 0.340693 -0.104148
v -1.066010 0.340693 -0.063069
v -0.591514 0.311919 -0.104273
v -0.591504 0.311919 -0.063194
v 1.296705 -0.428299 -0.124639
v 1.636705 -0.428299 -0.124729
v 1.256906 -0.488299 -0.124629
v 1.256906 -0.452299 -0.124629
v 1.716705 -0.488299 -0.124750
v 1.664705 -0.398299 -0.124736
v 1.727720 -0.398299 -0.124753
v 1.750735 -0.438299 -0.124759
v 1.256975 -0.452299 0.136265
v 1.256975 -0.488299 0.136265
v 1.296774 -0.428299 0.136255
v 1.636774 -0.428299 0.136165
v 1.716774 -0.488299 0.136144
v 1.664774 -0.398299 0.136158
v 1.727789 -0.398299 0.136141
v 1.750804 -0.438299 0.136135
v 2.693355 0.399893 -0.120754
v 2.384029 -0.480990 -0.120672
v 2.349522 -0.435639 -0.109728
v 2.629522 0.394361 -0.109802
v 2.649522 -0.025639 -0.109807
v 2.519522 -0.485639 -0.109773
v 2.599522 0.024361 -0.109794
v 2.669522 0.234361 -0.109812
v 2.729522 0.274361 -0.109828
v 2.739522 0.364361 -0.109831
v 0.282853 -0.229587 -0.108631
v -0.317147 -0.229587 -0.108473
v -0.281146 -0.177555 -0.108482
v 0.246854 -0.177555 -0.108621
v 0.318853 -0.099506 -0.108640
v 0.402853 -0.099506 -0.108663
v 0.282853 0.030576 -0.108631
v 0.246854 -0.021457 -0.108621
v -0.281146 -0.021457 -0.108482
v -0.317147 0.030576 -0.108473
v -0.317147 0.030576 -0.108473
v -0.353146 -0.099506 -0.108463
v -0.437146 -0.099506 -0.108441
v -0.281146 -0.021457 -0.108482
v -0.317147 -0.229587 -0.108473
v -0.281146 -0.177555 -0.108482
v 2.729583 0.274361 0.120687
v 2.739583 0.364361 0.120684
v 2.693422 0.399893 0.131631
v 2.669583 0.234361 0.120703
v 2.599583 0.024361 0.120721
v 2.384096 -0.480990 0.131713
v 2.649583 -0.025639 0.120708
v 2.519583 -0.485639 0.120742
v 2.349583 -0.435639 0.120787
v 2.629583 0.394361 0.120713
v 1.276940 -0.458299 -0.108662
v 1.207274 -0.221299 -0.108644
v 1.327274 -0.413299 -0.108675
v 1.126940 -0.218299 -0.108623
v 1.716941 -0.458299 -0.108778
v 1.286940 -0.018299 -0.108665
v 1.679274 -0.413299 -0.108768
v 1.335274 -0.061299 -0.108678
v 1.839275 -0.229299 -0.108810
v 1.783275 -0.061299 -0.108796
v 1.916940 -0.228299 -0.108831
v 1.846941 -0.018299 -0.108813
v 1.846999 0.011701 0.111502
v 1.179971 0.011701 0.111678
v 1.179961 0.011701 0.075838
v 1.846989 0.011701 0.075662
v 1.846952 0.011701 -0.064337
v 1.179924 0.011701 -0.064162
v 1.179915 0.011701 -0.100002
v 1.846943 0.011701 -0.100178
v -1.180998 0.357446 -0.104118
v -1.143303 0.326503 -0.104128
v -1.186993 0.332135 -0.104116
v -1.137424 0.351841 -0.104129
v -1.066020 0.340693 -0.104148
v -1.149182 0.301165 -0.104126
v -1.192989 0.306824 -0.104115
v -1.067940 0.314751 -0.104148
v -0.591514 0.311919 -0.104273
v -1.069860 0.288808 -0.104147
v -0.591514 0.285809 -0.104273
v -0.591514 0.259698 -0.104273
v -0.310374 0.285809 -0.104347
v -0.591514 0.285809 -0.104273
v -0.591514 0.311919 -0.104273
v -0.295217 0.311919 -0.104351
v -0.591514 0.285809 -0.104273
v -0.310374 0.285809 -0.104347
v -0.345523 0.259698 -0.104338
v -0.591514 0.259698 -0.104273
v -0.281086 -0.021457 0.120930
v 0.282914 0.030576 0.120781
v -0.317086 0.030576 0.120939
v 0.246915 -0.021457 0.120791
v 0.318914 -0.099506 0.120772
v 0.402914 -0.099506 0.120749
v 0.282914 -0.229587 0.120781
v 0.246915 -0.177555 0.120791
v -0.281086 -0.177555 0.120930
v -0.317086 -0.229587 0.120939
v -0.317086 0.030576 0.120939
v -0.437086 -0.099506 0.120971
v -0.353086 -0.099506 0.120949
v -0.281086 -0.021457 0.120930
v -0.317086 -0.229587 0.120939
v -0.281086 -0.177555 0.120930
v 2.186943 0.101701 -0.100267
v 1.996943 0.181701 -0.100217
v 2.126944 0.191701 -0.100251
v 2.276942 0.221701 -0.100291
v 2.196943 0.281701 -0.100270
v 2.666944 0.361701 -0.100394
v 2.656944 0.281701 -0.100391
v 1.926943 0.101701 -0.100199
v 1.966943 0.211701 -0.100209
v 1.856944 0.211701 -0.100180
v 1.756944 0.101701 -0.100154
v 1.846943 0.011701 -0.100178
v 1.276943 0.101701 -0.100027
v 1.179915 0.011701 -0.100002
v 1.129915 0.091701 -0.099988
v 1.226943 0.171701 -0.100014
v -0.573057 0.171701 -0.099539
v -0.590085 0.111701 -0.099535
v -0.833960 0.180545 -0.099470
v -1.030085 0.141701 -0.099419
v -1.013607 0.201293 -0.099423
v -1.204109 0.229534 -0.099373
v -1.220085 0.171701 -0.099368
v 1.717001 -0.458299 0.120171
v 1.327335 -0.413299 0.120274
v 1.277001 -0.458299 0.120287
v 1.679335 -0.413299 0.120181
v 1.207335 -0.221299 0.120305
v 1.839335 -0.229299 0.120138
v 1.127001 -0.218299 0.120326
v 1.917001 -0.228299 0.120118
v 1.287001 -0.018299 0.120284
v 1.847001 -0.018299 0.120136
v 1.335335 -0.061299 0.120271
v 1.783335 -0.061299 0.120153
v -0.434656 0.278701 -0.097952
v -0.404656 0.164701 -0.097960
v -0.434656 0.164701 -0.097952
v -0.404656 0.278701 -0.097960
v -0.684656 0.278701 -0.097886
v -0.654656 0.164701 -0.097894
v -0.684656 0.164701 -0.097886
v -0.654656 0.278701 -0.097894
v -0.934656 0.293129 -0.097820
v -0.904656 0.179129 -0.097828
v -0.934656 0.179129 -0.097820
v -0.904656 0.293129 -0.097828
v -1.184656 0.317846 -0.097754
v -1.154656 0.203847 -0.097762
v -1.184656 0.203847 -0.097754
v -1.154656 0.317846 -0.097762
v -1.180941 0.357446 0.114845
v -1.143245 0.326503 0.114835
v -1.137367 0.351841 0.114834
v -1.065963 0.340693 0.114815
v -1.186936 0.332135 0.114847
v -1.149125 0.301165 0.114837
v -1.192932 0.306824 0.114848
v -1.067883 0.314751 0.114815
v -0.591457 0.311919 0.114690
v -1.069803 0.288808 0.114816
v -0.591457 0.285809 0.114690
v -0.591457 0.259698 0.114690
v -0.591457 0.285809 0.114690
v 0.038268 0.291919 0.114524
v -0.591457 0.311919 0.114690
v 0.056233 0.265809 0.114519
v -0.591457 0.285809 0.114690
v 0.047942 0.239698 0.114521
v 0.056233 0.265809 0.114519
v -0.591457 0.259698 0.114690
v -1.204053 0.229534 0.112307
v -1.030029 0.141701 0.112261
v -1.013551 0.201293 0.112257
v -1.220029 0.171701 0.112312
v -0.833904 0.180545 0.112210
v -0.590029 0.111701 0.112145
v -0.573001 0.171701 0.112141
v 1.129971 0.091701 0.111692
v 1.226999 0.171701 0.111666
v 1.276999 0.101701 0.111653
v 1.179971 0.011701 0.111678
v 1.846999 0.011701 0.111502
v 1.756999 0.101701 0.111526
v 1.926998 0.101701 0.111481
v 1.857000 0.211701 0.111500
v 1.966999 0.211701 0.111471
v 1.996999 0.181701 0.111463
v 2.186998 0.101701 0.111413
v 2.126999 0.191701 0.111429
v 2.276998 0.221701 0.111389
v 2.196998 0.281701 0.111410
v 2.666999 0.361701 0.111286
v 2.656999 0.281701 0.111289
v 0.192680 0.486084 0.070685
v 0.101508 0.411744 0.063123
v 0.095832 0.428334 0.087465
v 0.198354 0.469494 0.046343
v -0.434601 0.278701 0.108285
v -0.404601 0.164701 0.108277
v -0.404601 0.278701 0.108277
v -0.434601 0.164701 0.108285
v -0.684601 0.278701 0.108351
v -0.654601 0.164701 0.108343
v -0.654601 0.278701 0.108343
v -0.684601 0.164701 0.108351
v -0.934601 0.293129 0.108417
v -0.904601 0.179129 0.108409
v -0.904601 0.293129 0.108409
v -0.934601 0.179129 0.108417
v -1.184601 0.317846 0.108483
v -1.154601 0.203847 0.108475
v -1.154601 0.317846 0.108475
v -1.184601 0.203847 0.108483
v -0.184601 0.278701 0.108219
v -0.154601 0.164701 0.108211
v -0.154601 0.278701 0.108211
v -0.184601 0.164701 0.108219
v 0.010263 0.168172 0.108168
v -0.039077 0.275230 0.108181
v -0.019282 0.162962 0.108176
v -0.009533 0.280440 0.108173
v 0.038268 0.291919 0.114524
v 0.056233 0.265809 0.114519
v 0.056222 0.265809 0.073440
v 0.038257 0.291919 0.073445
v 0.047931 0.239698 0.073442
v 0.047942 0.239698 0.114521
v -1.137377 0.351841 0.073755
v -1.137395 0.351841 0.006450
v -1.180951 0.357446 0.073766
v -1.180969 0.357446 0.006461
v -1.180987 0.357446 -0.063039
v -1.137414 0.351841 -0.063050
v 2.693422 0.399893 0.131631
v 2.693355 0.399893 -0.120754
v 2.629583 0.394361 0.120713
v 2.629522 0.394361 -0.109802
v 2.566662 0.336758 0.075473
v 2.196989 0.281701 0.075570
v 2.196998 0.281701 0.111410
v 2.666999 0.361701 0.111286
v 2.126999 0.191701 0.111429
v 2.566625 0.336758 -0.064527
v 2.126990 0.191701 0.075589
v 2.666944 0.361701 -0.100394
v 1.996989 0.181701 0.075623
v 2.196943 0.281701 -0.100270
v 1.996999 0.181701 0.111463
v 2.196952 0.281701 -0.064430
v 1.966999 0.211701 0.111471
v 2.126953 0.191701 -0.064411
v 1.966989 0.211701 0.075631
v 2.126944 0.191701 -0.100251
v 1.856990 0.211701 0.075660
v 1.996943 0.181701 -0.100217
v 1.857000 0.211701 0.111500
v 1.996952 0.181701 -0.064377
v 1.756999 0.101701 0.111526
v 1.966952 0.211701 -0.064369
v 1.756990 0.101701 0.075686
v 1.966943 0.211701 -0.100209
v 1.276989 0.101701 0.075813
v 1.856944 0.211701 -0.100180
v 1.276999 0.101701 0.111653
v 1.856953 0.211701 -0.064340
v 1.226999 0.171701 0.111666
v 1.756953 0.101701 -0.064314
v 1.226989 0.171701 0.075826
v 1.756944 0.101701 -0.100154
v -0.573011 0.171701 0.076301
v 1.276943 0.101701 -0.100027
v -0.573001 0.171701 0.112141
v 1.276952 0.101701 -0.064187
v -0.833914 0.180545 0.076370
v 1.226952 0.171701 -0.064174
v -0.833904 0.180545 0.112210
v 1.226943 0.171701 -0.100014
v -1.013561 0.201293 0.076417
v -0.573057 0.171701 -0.099539
v -1.013551 0.201293 0.112257
v -0.573048 0.171701 -0.063699
v -1.113339 0.216084 0.076443
v -0.833960 0.180545 -0.099470
v -1.204053 0.229534 0.112307
v -0.833951 0.180545 -0.063630
v -1.204109 0.229534 -0.099373
v -1.013607 0.201293 -0.099423
v -1.113376 0.216084 -0.063557
v -1.013598 0.201293 -0.063583
v -0.009533 0.280440 0.108173
v 0.010263 0.168172 0.108168
v 0.010255 0.168172 0.078168
v -0.009541 0.280440 0.078173
v 1.179971 0.011701 0.111678
v 1.129971 0.091701 0.111692
v 1.129961 0.091701 0.075852
v 1.179961 0.011701 0.075838
v -0.590039 0.111701 0.076305
v -0.590029 0.111701 0.112145
v -1.030039 0.141701 0.076421
v -1.030029 0.141701 0.112261
v -1.113339 0.154854 0.076443
v -1.220029 0.171701 0.112312
v -1.220085 0.171701 -0.099368
v -1.113376 0.154854 -0.063557
v -1.030085 0.141701 -0.099419
v -1.030076 0.141701 -0.063579
v -0.590085 0.111701 -0.099535
v -0.590076 0.111701 -0.063695
v 1.129924 0.091701 -0.064148
v 1.129915 0.091701 -0.099988
v 1.179924 0.011701 -0.064162
v 1.179915 0.011701 -0.100002
v -2.691416 0.204626 0.084374
v -2.330208 0.135758 0.116369
v -2.330216 0.204626 0.084278
v -2.691408 0.135758 0.116465
v -2.330237 0.233152 0.006801
v -2.691437 0.233152 0.006897
v -2.691458 0.204626 -0.070580
v -2.330258 0.204626 -0.070676
v -2.691465 0.135758 -0.102672
v -2.330265 0.135758 -0.102768
v -2.330258 0.066889 -0.070676
v -2.691458 0.066889 -0.070580
v -2.691436 0.038363 0.006897
v -2.330236 0.038363 0.006801
v -2.330217 0.066889 0.084278
v -2.691417 0.066889 0.084374
v -2.691408 0.135758 0.116465
v -2.330208 0.135758 0.116369
v 1.783335 -0.061299 0.120153
v 1.839275 -0.229299 -0.108810
v 1.839335 -0.229299 0.120138
v 1.679274 -0.413299 -0.108768
v 1.783275 -0.061299 -0.108796
v 1.679335 -0.413299 0.120181
v 1.335335 -0.061299 0.120271
v 1.327274 -0.413299 -0.108675
v 1.335274 -0.061299 -0.108678
v 1.327335 -0.413299 0.120274
v 1.207335 -0.221299 0.120305
v 1.207274 -0.221299 -0.108644
v -0.019282 0.162962 0.108176
v -0.039077 0.275230 0.108181
v -0.039085 0.275230 0.078181
v -0.019290 0.162962 0.078176
v -1.335857 0.212619 -0.070323
v -1.475856 0.212619 -0.070286
v -1.335837 0.244457 0.006539
v -1.475836 0.244457 0.006576
v -1.475865 0.135758 -0.102123
v -1.335817 0.212619 0.083401
v -1.335866 0.135758 -0.102160
v -1.475816 0.212619 0.083438
v -1.335808 0.135758 0.115238
v -1.475807 0.135758 0.115275
v -1.475856 0.058896 -0.070286
v -1.335857 0.058896 -0.070323
v -1.475836 0.027058 0.006576
v -1.335837 0.027058 0.006539
v -1.475816 0.058896 0.083438
v -1.335817 0.058896 0.083401
v -1.475807 0.135758 0.115275
v -1.335808 0.135758 0.115238
v -1.192942 0.306824 0.073769
v -1.192960 0.306824 0.006464
v -1.149135 0.301165 0.073758
v -1.149153 0.301165 0.006453
v -1.149171 0.301165 -0.063047
v -1.192979 0.306824 -0.063036
v 0.246915 -0.021457 0.120791
v 0.246854 -0.021457 -0.108621
v 0.318914 -0.099506 0.120772
v -0.281146 -0.021457 -0.108482
v -0.281086 -0.021457 0.120930
v 0.318853 -0.099506 -0.108640
v 0.246915 -0.177555 0.120791
v 0.246854 -0.177555 -0.108621
v -0.281086 -0.177555 0.120930
v -0.281146 -0.177555 -0.108482
v -0.591467 0.311919 0.073611
v 0.038257 0.291919 0.073445
v -0.591467 0.285809 0.073611
v 0.056222 0.265809 0.073440
v -0.591467 0.285809 0.073611
v 0.047931 0.239698 0.073442
v -0.591467 0.259698 0.073611
v 0.056222 0.265809 0.073440
v 1.276989 0.101701 0.075813
v 1.846989 0.011701 0.075662
v 1.179961 0.011701 0.075838
v 1.129961 0.091701 0.075852
v 1.756990 0.101701 0.075686
v 1.226989 0.171701 0.075826
v -0.573011 0.171701 0.076301
v -0.590039 0.111701 0.076305
v -0.833914 0.180545 0.076370
v -1.030039 0.141701 0.076421
v -1.013561 0.201293 0.076417
v -1.113339 0.154854 0.076443
v -1.113339 0.216084 0.076443
v 1.926989 0.101701 0.075641
v 1.856990 0.211701 0.075660
v 1.966989 0.211701 0.075631
v 1.996989 0.181701 0.075623
v 2.186989 0.101701 0.075573
v 2.126990 0.191701 0.075589
v 2.276989 0.221701 0.075549
v 2.196989 0.281701 0.075570
v 2.566662 0.336758 0.075473
v 2.566662 0.267439 0.075473
v -0.404609 0.278701 0.078277
v -0.404609 0.164701 0.078277
v -0.434609 0.164701 0.078285
v -0.434609 0.278701 0.078285
v -0.654609 0.278701 0.078343
v -0.654609 0.164701 0.078343
v -0.684609 0.164701 0.078351
v -0.684609 0.278701 0.078351
v -0.904609 0.293129 0.078409
v -0.904609 0.179129 0.078409
v -0.934609 0.179129 0.078417
v -0.934609 0.293129 0.078417
v -1.154609 0.317846 0.078475
v -1.154609 0.203847 0.078475
v -1.184609 0.203847 0.078483
v -1.184609 0.317846 0.078483
v -0.154609 0.278701 0.078211
v -0.154609 0.164701 0.078211
v -0.184609 0.164701 0.078219
v -0.184609 0.278701 0.078219
v 0.010255 0.168172 0.078168
v -0.039085 0.275230 0.078181
v -0.009541 0.280440 0.078173
v -0.019290 0.162962 0.078176
v 0.207453 0.466240 0.087655
v 0.110606 0.408489 0.104435
v 0.116280 0.391899 0.080092
v 0.213128 0.449649 0.063313
v -0.591504 0.311919 -0.063194
v -0.310364 0.285809 -0.063268
v -0.295207 0.311919 -0.063272
v -0.591504 0.285809 -0.063194
v -0.591504 0.285809 -0.063194
v -0.345513 0.259698 -0.063259
v -0.310364 0.285809 -0.063268
v -0.591504 0.259698 -0.063194
v -0.590076 0.111701 -0.063695
v -0.833951 0.180545 -0.063630
v -1.030076 0.141701 -0.063579
v -1.013598 0.201293 -0.063583
v -1.113376 0.154854 -0.063557
v -1.113376 0.216084 -0.063557
v -0.573048 0.171701 -0.063699
v 1.129924 0.091701 -0.064148
v 1.226952 0.171701 -0.064174
v 1.276952 0.101701 -0.064187
v 1.179924 0.011701 -0.064162
v 1.846952 0.011701 -0.064337
v 1.756953 0.101701 -0.064314
v 1.926952 0.101701 -0.064359
v 1.856953 0.211701 -0.064340
v 1.966952 0.211701 -0.064369
v 1.996952 0.181701 -0.064377
v 2.186952 0.101701 -0.064427
v 2.126953 0.191701 -0.064411
v 2.276952 0.221701 -0.064451
v 2.196952 0.281701 -0.064430
v 2.566625 0.336758 -0.064527
v 2.566625 0.267439 -0.064527
v -0.434648 0.278701 -0.067951
v -0.434648 0.164701 -0.067951
v -0.404648 0.278701 -0.067959
v -0.404648 0.164701 -0.067959
v -0.684648 0.278701 -0.067885
v -0.684648 0.164701 -0.067885
v -0.654648 0.278701 -0.067893
v -0.654648 0.164701 -0.067893
v -0.934648 0.293129 -0.067819
v -0.934648 0.179129 -0.067819
v -0.904648 0.293129 -0.067827
v -0.904648 0.179129 -0.067827
v -1.184648 0.317846 -0.067753
v -1.184648 0.203847 -0.067753
v -1.154648 0.317846 -0.067761
v -1.154648 0.203847 -0.067761
v -1.192979 0.306824 -0.063036
v -1.192989 0.306824 -0.104115
v -1.149171 0.301165 -0.063047
v -1.149182 0.301165 -0.104126
v -1.069849 0.288808 -0.063068
v -1.069860 0.288808 -0.104147
v -0.591504 0.259698 -0.063194
v -0.591514 0.259698 -0.104273
v 0.402914 -0.099506 0.120749
v 0.402853 -0.099506 -0.108663
v 0.282914 0.030576 0.120781
v 0.282853 0.030576 -0.108631
v -0.317086 0.030576 0.120939
v -0.317147 0.030576 -0.108473
v 0.047942 0.239698 0.114521
v -0.591457 0.259698 0.114690
v -0.591467 0.259698 0.073611
v 0.047931 0.239698 0.073442
v -1.069803 0.288808 0.114816
v -1.069813 0.288808 0.073737
v -1.149125 0.301165 0.114837
v -1.149135 0.301165 0.073758
v -1.192932 0.306824 0.114848
v -1.192942 0.306824 0.073769
v -0.591514 0.259698 -0.104273
v -0.345523 0.259698 -0.104338
v -0.591504 0.259698 -0.063194
v -0.345513 0.259698 -0.063259
v -0.154601 0.278701 0.108211
v -0.154601 0.164701 0.108211
v -0.154609 0.164701 0.078211
v -0.154609 0.278701 0.078211
v 0.159575 0.521940 -0.004251
v 0.396752 0.337003 0.177082
v 0.142010 0.504202 0.003742
v 0.110899 0.493900 0.003510
v 0.428318 0.374434 0.158931
v 0.198354 0.469494 0.046343
v 0.116280 0.391899 0.080092
v 0.101508 0.411744 0.063123
v 0.213128 0.449649 0.063313
v 0.116280 0.391899 0.080092
v 0.095832 0.428334 0.087465
v 0.101508 0.411744 0.063123
v 0.110606 0.408489 0.104435
v -0.281086 -0.177555 0.120930
v -0.281146 -0.177555 -0.108482
v -0.353086 -0.099506 0.120949
v -0.353146 -0.099506 -0.108463
v -0.281086 -0.021457 0.120930
v -0.281146 -0.021457 -0.108482
v -0.295207 0.311919 -0.063272
v -0.310364 0.285809 -0.063268
v -0.295217 0.311919 -0.104351
v -0.310374 0.285809 -0.104347
v -0.345513 0.259698 -0.063259
v -0.345523 0.259698 -0.104338
v 0.103128 0.516616 0.036843
v 0.396752 0.337003 0.177082
v 0.388981 0.359720 0.210414
v 0.110899 0.493900 0.003510
v 1.277001 -0.458299 0.120287
v 1.716941 -0.458299 -0.108778
v 1.717001 -0.458299 0.120171
v 1.917001 -0.228299 0.120118
v 1.276940 -0.458299 -0.108662
v 1.916940 -0.228299 -0.108831
v 1.127001 -0.218299 0.120326
v 1.847001 -0.018299 0.120136
v 1.126940 -0.218299 -0.108623
v 1.846941 -0.018299 -0.108813
v 1.286940 -0.018299 -0.108665
v 1.287001 -0.018299 0.120284
v -0.404601 0.278701 0.108277
v -0.404601 0.164701 0.108277
v -0.404609 0.164701 0.078277
v -0.404609 0.278701 0.078277
v -0.404656 0.164701 -0.097960
v -0.404656 0.278701 -0.097960
v -0.404648 0.164701 -0.067959
v -0.404648 0.278701 -0.067959
v -0.654601 0.278701 0.108343
v -0.654601 0.164701 0.108343
v -0.654609 0.164701 0.078343
v -0.654609 0.278701 0.078343
v -0.654656 0.164701 -0.097894
v -0.654656 0.278701 -0.097894
v -0.654648 0.164701 -0.067893
v -0.654648 0.278701 -0.067893
v -0.904601 0.293129 0.108409
v -0.904601 0.179129 0.108409
v -0.904609 0.179129 0.078409
v -0.904609 0.293129 0.078409
v -0.904656 0.179129 -0.097828
v -0.904656 0.293129 -0.097828
v -0.904648 0.179129 -0.067827
v -0.904648 0.293129 -0.067827
v -1.149135 0.301165 0.073758
v -1.067893 0.314751 0.073736
v -1.069813 0.288808 0.073737
v -0.591467 0.285809 0.073611
v -0.591467 0.259698 0.073611
v -0.591467 0.311919 0.073611
v -1.065973 0.340693 0.073736
v -1.143256 0.326503 0.073756
v -1.149153 0.301165 0.006453
v -1.137377 0.351841 0.073755
v -1.143274 0.326503 0.006451
v -1.137395 0.351841 0.006450
v -1.137414 0.351841 -0.063050
v -1.143292 0.326503 -0.063049
v -1.149171 0.301165 -0.063047
v -1.066010 0.340693 -0.063069
v -1.067930 0.314751 -0.063069
v -0.591504 0.311919 -0.063194
v -1.069849 0.288808 -0.063068
v -0.591504 0.285809 -0.063194
v -0.591504 0.259698 -0.063194
v -1.113376 0.154854 -0.063557
v -1.113339 0.216084 0.076443
v -1.113339 0.154854 0.076443
v -1.113376 0.216084 -0.063557
v -1.154601 0.317846 0.108475
v -1.154601 0.203847 0.108475
v -1.154609 0.203847 0.078475
v -1.154609 0.317846 0.078475
v -1.154656 0.203847 -0.097762
v -1.154656 0.317846 -0.097762
v -1.154648 0.203847 -0.067761
v -1.154648 0.317846 -0.067761
v -1.335857 0.058896 -0.070323
v -1.335837 0.058115 0.006539
v -1.335837 0.027058 0.006539
v -1.335823 0.080856 0.061440
v -1.335852 0.080856 -0.048364
v -1.335817 0.058896 0.083401
v -1.335817 0.135758 0.084181
v -1.335808 0.135758 0.115238
v -1.335866 0.135758 -0.102160
v -1.335858 0.135758 -0.071103
v -1.335852 0.190659 -0.048364
v -1.335857 0.212619 -0.070323
v -1.335837 0.213400 0.006539
v -1.335837 0.244457 0.006539
v -1.335823 0.190659 0.061440
v -1.335817 0.212619 0.083401
v -1.335817 0.135758 0.084181
v -1.335808 0.135758 0.115238
v 1.296774 -0.428299 0.136255
v 1.296705 -0.428299 -0.124639
v 1.256975 -0.452299 0.136265
v 1.256906 -0.452299 -0.124629
v 1.256975 -0.488299 0.136265
v 1.256906 -0.488299 -0.124629
v 2.384029 -0.480990 -0.120672
v 2.384096 -0.480990 0.131713
v 2.349583 -0.435639 0.120787
v 2.349522 -0.435639 -0.109728
v -2.295823 0.184949 0.062132
v -2.330208 0.135758 0.116369
v -2.295816 0.135758 0.085055
v -2.330216 0.204626 0.084278
v -2.330237 0.233152 0.006801
v -2.295837 0.205325 0.006792
v -2.295852 0.184949 -0.048549
v -2.330258 0.204626 -0.070676
v -2.330265 0.135758 -0.102768
v -2.295858 0.135758 -0.071472
v -2.295852 0.086566 -0.048549
v -2.330258 0.066889 -0.070676
v -2.330236 0.038363 0.006801
v -2.295837 0.066190 0.006792
v -2.295823 0.086566 0.062132
v -2.330217 0.066889 0.084278
v -2.330208 0.135758 0.116369
v -2.295816 0.135758 0.085055
v 2.629522 0.394361 -0.109802
v 2.349522 -0.435639 -0.109728
v 2.629583 0.394361 0.120713
v 2.349583 -0.435639 0.120787
v 2.566662 0.336758 0.075473
v 2.566625 0.267439 -0.064527
v 2.566662 0.267439 0.075473
v 2.566625 0.336758 -0.064527
vn 0.8018 -0.5976 -0.0007
vn 0.9939 -0.1099 -0.0007
vn -1.0000 0.0005 -0.0002
vn -0.6519 0.5182 0.5536
vn -0.6289 0.7775 0.0002
vn -0.6522 0.5183 -0.5532
vn -0.6200 0.7109 0.3320
vn -0.6729 0.0005 0.7397
vn -0.6729 0.0006 0.7397
vn -0.6202 0.7109 -0.3317
vn -0.6733 0.0005 -0.7394
vn -0.6733 0.0003 -0.7394
vn -0.6522 -0.5183 -0.5532
vn -0.6202 -0.7109 -0.3317
vn -0.6289 -0.7775 0.0002
vn -0.6289 -0.7775 -0.0002
vn -0.6519 -0.5182 0.5536
vn -0.6200 -0.7109 0.3320
vn -0.2477 0.8492 -0.4663
vn -0.2764 0.0005 -0.9611
vn -1.0000 0.0005 -0.0003
vn -0.2468 0.9691 -0.0005
vn -0.2475 0.8493 0.4664
vn -0.2468 0.9691 -0.0004
vn -0.2758 0.0005 0.9612
vn -0.2475 0.8492 0.4664
vn -0.2475 -0.8492 0.4664
vn -0.2758 0.0004 0.9612
vn -0.2468 -0.9691 -0.0004
vn -0.2475 -0.8493 0.4664
vn -0.2477 -0.8492 -0.4663
vn -0.2468 -0.9691 -0.0005
vn -0.2763 0.0005 -0.9611
vn 0.9923 -0.1237 -0.0006
vn 0.9923 -0.1237 -0.0007
vn 0.9622 -0.2723 -0.0008
vn 0.9487 0.3162 -0.0003
vn 0.9487 0.3162 -0.0007
vn 0.9557 0.2945 -0.0003
vn 0.9557 0.2944 -0.0007
vn 0.7547 -0.6560 -0.0007
vn 0.7547 -0.6560 -0.0002
vn 0.6099 0.7924 -0.0002
vn 0.1969 0.9804 -0.0005
vn 0.6099 0.7925 -0.0006
vn -0.2172 0.9761 -0.0004
vn -0.2809 0.9597 0.0001
vn -0.2809 0.9597 -0.0004
vn 0.3209 0.9471 -0.0006
vn 0.3209 0.9471 -0.0001
vn 0.9988 -0.0493 -0.0008
vn 0.3083 -0.9513 -0.0006
vn 0.3083 -0.9513 -0.0001
vn -0.3979 -0.9174 -0.0004
vn -0.9731 0.2302 -0.0002
vn -0.9731 0.2303 -0.0000
vn -0.9731 0.2303 -0.0002
vn -0.9731 0.2303 -0.0001
vn -0.9639 0.2663 -0.0002
vn -0.9639 0.2663 -0.0001
vn -0.9639 0.2663 -0.0003
vn 0.2850 -0.9585 -0.0001
vn 0.2850 -0.9585 -0.0006
vn 0.2850 -0.9585 -0.0005
vn 0.3004 -0.9538 -0.0006
vn 0.3004 -0.9538 -0.0001
vn 0.4099 -0.9121 -0.0001
vn 0.4099 -0.9121 -0.0006
vn -0.2906 -0.9569 0.0001
vn 0.1559 -0.9878 -0.0004
vn -0.2906 -0.9569 -0.0004
vn -0.0347 -0.9994 -0.0004
vn -0.3218 -0.9468 -0.0004
vn -0.7353 -0.6777 -0.0003
vn -0.2817 -0.9595 -0.0004
vn 0.6045 0.7168 -0.3476
vn 0.2818 -0.9595 -0.0001
vn 0.2818 -0.9595 -0.0006
vn 0.7353 -0.6777 -0.0007
vn 0.7737 -0.4247 0.4702
vn 0.7736 -0.4246 0.4703
vn -0.1889 0.5527 0.8117
vn -0.1890 0.5528 0.8116
vn -0.7177 0.4860 -0.4986
vn -0.6066 0.5840 -0.5394
vn -0.3749 0.7235 -0.5797
vn -0.2508 0.7715 -0.5847
vn -0.6064 0.5839 -0.5397
vn -0.3747 0.7231 -0.5802
vn -0.2509 0.7715 -0.5846
vn -0.0005 1.0000 -0.0005
vn 0.0298 0.9996 -0.0005
vn 0.0464 0.9989 -0.0006
vn 0.0318 0.9995 -0.0003
vn 0.0318 0.9995 -0.0005
vn 0.1071 0.9943 -0.0004
vn 0.1070 0.9943 -0.0005
vn 0.1363 0.9907 -0.0005
vn 0.1411 0.9900 -0.0005
vn 0.1275 0.9918 -0.0005
vn 0.1274 0.9918 -0.0006
vn -0.2818 0.9595 -0.0004
vn -0.7353 0.6778 -0.0002
vn -0.7353 0.6777 -0.0003
vn 0.1364 0.9907 -0.0005
vn 0.1275 0.9918 -0.0004
vn -0.0007 0.0005 -1.0000
vn -0.0002 0.0005 1.0000
vn -0.0828 0.0298 -0.9961
vn 0.0471 -0.0132 -0.9988
vn -0.1912 0.0659 -0.9793
vn 0.1224 -0.0376 -0.9918
vn 0.1225 -0.0376 -0.9918
vn 0.1225 -0.0377 -0.9918
vn -0.0008 0.0005 -1.0000
vn 0.1229 -0.0376 0.9917
vn 0.1230 -0.0376 0.9917
vn -0.0823 0.0298 0.9962
vn 0.1230 -0.0377 0.9917
vn 0.0476 -0.0132 0.9988
vn -0.1907 0.0659 0.9794
vn 0.2849 -0.9586 -0.0006
vn -0.3150 -0.9491 -0.0004
vn -0.0006 0.0003 -1.0000
vn -0.0003 0.0005 1.0000
vn -0.0007 0.0004 -1.0000
vn -0.0001 0.0003 1.0000
vn -0.0001 0.0004 1.0000
vn -0.4920 0.6616 -0.5658
vn 0.8238 0.5669 -0.0007
vn 0.9847 0.1745 -0.0007
vn 0.9847 0.1744 -0.0007
vn 0.9532 -0.3024 -0.0008
vn 0.9532 -0.3024 -0.0009
vn 0.1968 0.9804 -0.0006
vn -0.0865 0.9963 -0.0004
vn -0.1901 0.9818 -0.0005
vn -0.4302 0.9027 -0.0004
vn -0.4301 0.9028 -0.0004
vn -0.1901 0.9818 -0.0004
vn -0.3495 0.9369 0.0001
vn -0.3495 0.9369 -0.0004
vn 0.2272 0.9738 -0.0001
vn 0.2273 0.9738 -0.0005
vn -0.4301 0.9028 0.0001
vn 0.2741 0.9617 -0.0006
vn 0.2740 0.9617 -0.0001
vn -0.2829 0.9591 -0.0004
vn -0.2829 0.9591 0.0001
vn 0.3045 0.9525 -0.0001
vn 0.3045 0.9525 -0.0006
vn 0.0170 0.9999 -0.0003
vn 0.0171 0.9999 -0.0005
vn 0.0738 0.9973 -0.0005
vn 0.1306 0.9914 -0.0003
vn 0.1305 0.9914 -0.0005
vn 0.1471 0.9891 -0.0006
vn 0.1470 0.9891 -0.0005
vn 0.1469 0.9892 -0.0003
vn 0.1304 0.9915 -0.0006
vn 0.1469 0.9891 -0.0004
vn 0.9848 0.1735 -0.0007
vn -0.3230 -0.9464 -0.0004
vn -0.3230 -0.9464 0.0001
vn -0.0397 -0.9992 -0.0003
vn -0.0396 -0.9992 -0.0004
vn -0.1109 -0.9938 -0.0004
vn -0.1108 -0.9938 -0.0005
vn -0.1559 -0.9878 -0.0003
vn -0.1560 -0.9878 -0.0000
vn -0.1110 -0.9938 -0.0004
vn -0.0395 -0.9992 -0.0006
vn -0.0396 -0.9992 -0.0005
vn -0.0004 0.8417 0.5399
vn 0.0001 0.8418 0.5399
vn -0.0001 0.8418 -0.5399
vn -0.0006 0.8418 -0.5399
vn -0.0001 -0.8418 -0.5399
vn -0.0006 -0.8417 -0.5399
vn -0.0005 -1.0000 -0.0005
vn -0.0004 -0.8417 0.5399
vn 0.0001 -0.8418 0.5399
vn -0.3512 -0.9363 -0.0004
vn -0.9698 0.2438 -0.0002
vn -0.9698 0.2438 0.0003
vn -0.2877 0.9577 -0.0004
vn -0.3512 -0.9363 0.0001
vn -0.2877 0.9577 0.0001
vn 0.2945 -0.9557 -0.0001
vn 0.3151 0.9491 -0.0001
vn 0.2945 -0.9557 -0.0006
vn 0.3151 0.9491 -0.0006
vn 0.9968 -0.0796 -0.0008
vn -0.9848 -0.1736 -0.0001
vn -0.0006 0.8120 -0.5836
vn -0.0002 0.8120 -0.5836
vn 0.0002 0.8120 0.5836
vn -0.0003 0.8120 0.5836
vn -0.0006 -0.8120 -0.5836
vn -0.0002 -0.8121 -0.5836
vn 0.0002 -0.8121 0.5836
vn -0.0003 -0.8120 0.5836
vn -0.0002 0.0004 1.0000
vn -0.0003 0.0004 1.0000
vn -0.1284 -0.9917 -0.0004
vn -0.1364 -0.9907 -0.0005
vn -0.1285 -0.9917 -0.0005
vn -0.2818 -0.9595 -0.0004
vn -0.2818 -0.9595 0.0001
vn 0.2817 -0.9595 -0.0001
vn 0.2817 -0.9595 -0.0006
vn -0.2818 0.9595 0.0001
vn 0.2817 0.9595 -0.0001
vn 0.2817 0.9595 -0.0006
vn 0.4920 -0.6616 0.5658
vn 0.4920 -0.6617 0.5658
vn 0.4919 -0.6617 0.5658
vn 0.4919 -0.6617 0.5659
vn -0.1363 -0.9907 -0.0005
vn -0.1411 -0.9900 -0.0003
vn -0.1071 -0.9942 -0.0003
vn -0.0308 -0.9995 -0.0005
vn 0.7353 0.6777 -0.0007
vn 0.7353 0.6778 -0.0006
vn 0.2818 0.9595 -0.0006
vn 0.2818 0.9595 -0.0001
vn -0.2817 0.9595 -0.0004
vn -0.0317 -0.9995 -0.0005
vn -0.0464 -0.9989 -0.0004
vn -0.0464 -0.9989 -0.0005
vn -0.0316 -0.9995 -0.0003
vn -0.1411 -0.9900 -0.0004
vn 1.0000 0.0005 -0.0007
vn 0.1889 -0.5527 -0.8117
vn 0.1892 -0.5530 -0.8114
vn 0.1890 -0.5528 -0.8116
vn 0.1888 -0.5526 -0.8118
vn 0.1889 -0.5526 -0.8117
vn -0.8495 -0.5066 0.1472
vn -0.8494 -0.5067 0.1476
vn 1.0000 0.0005 -0.0008
vn 0.8651 -0.5016 -0.0007
vn 0.7283 -0.6853 -0.0007
vn 0.8650 -0.5017 -0.0006
vn 0.5965 -0.8026 -0.0007
vn -0.6045 -0.7168 0.3476
vn -0.3151 -0.9491 -0.0004
vn 0.2877 -0.9577 -0.0006
vn 0.2877 -0.9577 -0.0001
vn 0.9698 -0.2438 -0.0003
vn -0.3151 -0.9491 0.0001
vn 0.9698 -0.2438 -0.0007
vn -0.9968 0.0796 -0.0002
vn 0.3512 0.9363 -0.0006
vn 0.3512 0.9363 -0.0001
vn -0.2945 0.9557 -0.0004
vn -0.2945 0.9556 0.0001
vn 0.9224 -0.2144 -0.3211
vn 0.9344 -0.2173 -0.2821
vn 0.9741 -0.2261 -0.0006
vn 0.9454 -0.2194 -0.2411
vn 0.9741 -0.2260 -0.0003
vn 0.9455 -0.2194 0.2406
vn 0.9346 -0.2173 0.2816
vn 0.9226 -0.2144 0.3206
vn -0.2173 0.9761 -0.0004
vn -0.8026 0.5965 0.0002
vn -0.8027 0.5964 -0.0003
vn -0.3980 -0.9174 -0.0003
vn -0.3980 -0.9174 -0.0004
vn -0.7959 -0.6054 -0.0001
vn -0.7959 -0.6054 -0.0002
vn 0.6522 0.5182 0.5532
vn 0.6733 0.0005 0.7394
vn 0.6202 0.7109 0.3317
vn 0.6289 0.7775 -0.0002
vn 0.6519 0.5182 -0.5536
vn 0.6200 0.7109 -0.3320
vn 0.6729 0.0003 -0.7397
vn 0.6519 -0.5183 -0.5535
vn 0.6200 -0.7109 -0.3320
vn 0.6289 -0.7775 -0.0006
vn 0.6522 -0.5183 0.5532
vn 0.6202 -0.7109 0.3316
vn -0.9474 0.3199 -0.0001
vn -0.2907 -0.9568 -0.0004
vt 0.000000 1.000000
vt 1.000000 0.000000
vt 0.000000 0.000000
vt 1.000000 1.000000
vt 0.750000 1.000000
vt 0.625000 1.000000
vt 0.500000 1.000000
vt 0.875000 1.000000
vt 0.375000 1.000000
vt 0.250000 1.000000
vt 0.125000 1.000000
vt 0.500000 0.000000
vt 0.875000 0.750000
vt 0.625000 0.750000
vt 0.625000 0.500000
vt 0.875000 0.500000
vt 0.375000 0.500000
vt 0.375000 0.750000
vt 0.125000 0.500000
vt 0.125000 0.750000
vt 0.625000 0.000000
vt 0.625000 0.250000
vt 0.500000 0.250000
vt 0.375000 0.000000
vt 0.375000 0.250000
vt 1.000000 0.830688
vt 1.000000 0.169312
vt 0.500000 0.750000
vt 0.500000 0.500000
vt 0.525000 0.250000
vt 0.525000 1.000000
vt 0.000000 0.169312
vt 0.000000 0.830688
vt 0.569882 0.840331
vt 0.561921 0.798891
vt 0.561921 0.844205
vt 0.568997 0.847602
vt 0.569882 0.805005
vt 0.576074 0.843728
vt 0.576074 0.963293
vt 0.570766 0.964450
vt 0.576856 0.981017
vt 0.573420 0.994341
vt 0.578274 0.993222
vt 0.574584 1.000000
vt 0.579583 1.000000
vt 0.569882 0.793456
vt 0.579612 0.798211
vt 0.579612 0.790739
vt 0.576958 0.788701
vt 0.569882 0.775793
vt 0.577843 0.779869
vt 0.580497 0.769679
vt 0.585804 0.775114
vt 0.590675 0.750000
vt 0.584543 0.750000
vt 0.570766 0.285550
vt 0.576856 0.268983
vt 0.573420 0.255659
vt 0.578274 0.256778
vt 0.574584 0.250000
vt 0.579583 0.250000
vt 0.576074 0.286707
vt 0.568997 0.402398
vt 0.576074 0.406272
vt 0.569882 0.409669
vt 0.561921 0.405795
vt 0.561921 0.451109
vt 0.569882 0.444995
vt 0.569882 0.456544
vt 0.579612 0.451789
vt 0.579612 0.459261
vt 0.576958 0.461299
vt 0.569882 0.474207
vt 0.577843 0.470131
vt 0.580497 0.480321
vt 0.585804 0.474886
vt 0.590675 0.500000
vt 0.584543 0.500000
vt 0.579583 0.000000
vt 0.574584 0.000000
vt 0.525000 0.000000
s 1
f 1/1/1 2/2/2 3/3/1
f 2/2/2 1/1/1 4/4/2
f 5/5/3 6/6/3 7/6/3
f 6/6/3 5/5/3 8/5/3
f 9/7/3 7/6/3 6/6/3
f 5/5/3 10/8/3 8/5/3
f 7/6/3 9/7/3 11/7/3
f 5/5/3 12/8/3 10/8/3
f 13/4/3 10/8/3 12/8/3
f 12/8/3 14/4/3 13/4/3
f 9/7/3 15/9/3 11/7/3
f 15/9/3 9/7/3 16/9/3
f 17/10/3 15/9/3 16/9/3
f 17/10/3 16/9/3 18/10/3
f 19/11/3 17/10/3 18/10/3
f 17/10/3 19/11/3 20/11/3
f 21/1/3 20/11/3 19/11/3
f 20/11/3 21/1/3 22/1/3
f 23/11/4 24/10/5 25/10/5
f 25/10/5 24/10/5 26/9/6
f 24/10/5 23/11/4 27/11/7
f 23/11/4 28/1/8 27/11/7
f 28/1/8 23/11/4 29/1/9
f 24/10/5 30/9/10 26/9/6
f 31/7/11 26/9/6 30/9/10
f 26/9/6 31/7/11 32/7/12
f 31/7/11 33/6/13 32/7/12
f 33/6/13 31/7/11 34/6/14
f 35/5/15 33/6/13 34/6/14
f 33/6/13 35/5/15 36/5/16
f 35/5/15 37/8/17 36/5/16
f 37/8/17 35/5/15 38/8/18
f 39/4/8 37/8/17 38/8/18
f 37/8/17 39/4/8 40/4/8
f 41/8/19 42/4/20 43/8/21
f 44/5/22 41/8/19 45/5/3
f 46/6/23 44/5/24 47/6/21
f 48/7/25 46/6/26 49/7/3
f 50/9/27 48/7/28 51/9/3
f 52/10/29 50/9/30 53/10/3
f 54/11/31 52/10/32 55/11/3
f 56/1/33 54/11/31 57/1/3
f 58/2/34 59/4/35 60/2/35
f 60/2/35 59/4/35 61/4/34
f 62/1/36 63/1/37 64/3/36
f 65/3/38 64/3/36 63/1/37
f 65/3/38 63/1/37 66/1/39
f 66/1/39 67/3/40 65/3/38
f 67/3/40 66/1/39 68/1/41
f 69/3/42 67/3/40 68/1/41
f 69/3/42 68/1/41 70/1/1
f 70/1/1 71/3/1 69/3/42
f 72/4/43 73/12/44 74/2/45
f 73/12/44 72/4/43 75/7/44
f 76/13/46 77/14/47 78/15/48
f 76/13/46 78/15/48 79/16/46
f 80/14/47 78/15/48 77/14/47
f 78/15/48 80/14/47 81/15/48
f 82/14/49 81/15/48 80/14/47
f 81/15/48 82/14/49 83/15/50
f 84/14/51 83/15/50 82/14/49
f 83/15/50 84/14/51 85/15/51
f 84/14/51 86/17/52 85/15/51
f 87/18/53 86/17/52 84/14/51
f 87/18/53 88/19/54 86/17/52
f 87/18/53 89/20/54 88/19/54
f 90/10/3 91/11/3 92/11/3
f 91/11/3 93/1/3 92/11/3
f 93/1/3 91/11/3 94/1/3
f 92/11/3 95/10/3 90/10/3
f 96/9/3 90/10/3 95/10/3
f 90/10/3 96/9/3 97/9/3
f 98/7/3 97/9/3 96/9/3
f 97/9/3 98/7/3 99/7/3
f 100/6/3 99/7/3 98/7/3
f 98/7/3 101/6/3 100/6/3
f 101/6/3 102/5/3 100/6/3
f 102/5/3 101/6/3 103/5/3
f 104/8/3 102/5/3 103/5/3
f 102/5/3 104/8/3 105/8/3
f 106/4/3 105/8/3 104/8/3
f 105/8/3 106/4/3 107/4/21
f 108/21/55 109/22/55 110/12/56
f 110/12/56 109/22/55 111/23/57
f 111/23/57 112/24/56 110/12/56
f 112/24/56 111/23/57 113/25/58
f 114/22/55 115/22/55 116/23/56
f 116/23/56 115/22/55 117/23/57
f 117/23/57 118/25/55 116/23/56
f 118/25/55 117/23/57 119/25/55
f 117/23/57 120/25/58 119/25/55
f 120/25/58 117/23/57 121/23/55
f 115/22/55 121/23/55 117/23/57
f 121/23/55 115/22/55 122/22/56
f 123/22/57 124/12/55 125/23/57
f 124/12/55 123/22/57 126/21/56
f 127/24/55 125/23/57 124/12/55
f 125/23/57 127/24/55 128/25/58
f 129/2/59 130/1/59 131/3/60
f 130/1/59 129/2/59 132/4/61
f 133/24/3 134/21/3 135/22/3
f 133/24/3 135/22/3 136/25/3
f 137/22/3 138/24/3 139/25/21
f 138/24/3 137/22/3 140/21/3
f 141/22/3 142/24/3 143/21/3
f 142/24/3 141/22/3 144/25/3
f 145/22/3 146/24/3 147/25/3
f 146/24/3 145/22/3 148/21/3
f 149/24/3 150/21/3 151/22/3
f 149/24/3 151/22/3 152/25/3
f 153/22/3 154/24/3 155/25/3
f 154/24/3 153/22/3 156/21/3
f 157/26/62 158/26/63 159/4/64
f 157/26/62 159/4/64 160/4/63
f 160/4/63 161/4/65 157/26/62
f 162/26/66 157/26/62 161/4/65
f 163/26/67 162/26/66 161/4/65
f 163/26/67 161/4/65 164/4/68
f 164/4/68 165/26/69 163/26/67
f 164/4/68 166/4/70 165/26/69
f 166/4/70 167/27/71 165/26/69
f 166/4/70 168/2/70 167/27/71
f 168/2/70 169/2/67 167/27/71
f 170/27/68 167/27/71 169/2/67
f 169/2/67 171/27/65 170/27/68
f 169/2/67 172/2/66 171/27/65
f 172/2/66 173/27/63 171/27/65
f 172/2/66 174/2/62 173/27/63
f 174/2/62 175/27/63 173/27/63
f 175/27/63 174/2/62 176/2/63
f 177/1/72 178/3/72 179/3/73
f 179/3/73 180/1/73 177/1/72
f 181/23/74 182/24/75 183/12/74
f 182/24/75 181/23/74 184/25/75
f 185/24/3 186/21/3 187/22/3
f 185/24/3 187/22/3 188/25/3
f 189/22/3 190/24/3 191/25/3
f 190/24/3 189/22/3 192/21/3
f 193/13/76 194/15/76 195/16/76
f 194/15/76 193/13/76 196/14/76
f 197/18/77 198/20/75 199/19/75
f 197/18/77 199/19/75 200/17/78
f 197/18/77 200/17/78 201/28/79
f 201/28/79 200/17/78 202/29/79
f 203/15/80 204/18/81 205/17/80
f 204/18/81 203/15/80 206/14/81
f 207/14/82 208/6/82 209/18/83
f 209/18/83 208/6/82 210/7/82
f 211/9/82 209/18/83 210/7/82
f 212/6/82 213/9/83 214/18/82
f 214/18/82 215/14/82 212/6/82
f 216/22/84 217/7/85 218/13/84
f 217/7/85 216/22/84 219/23/86
f 220/25/87 221/7/88 219/23/89
f 221/7/88 220/25/87 222/9/90
f 223/14/91 224/13/92 225/15/91
f 226/16/92 225/15/91 224/13/92
f 227/24/3 228/21/3 229/22/3
f 227/24/3 229/22/3 230/25/3
f 231/13/93 232/14/94 233/15/95
f 231/13/93 233/15/95 234/16/93
f 234/16/93 235/16/96 231/13/93
f 236/13/97 231/13/93 235/16/96
f 235/16/96 237/16/98 236/13/97
f 238/13/99 236/13/97 237/16/98
f 238/13/99 237/16/98 239/16/100
f 240/13/101 238/13/99 239/16/100
f 241/21/102 242/22/102 243/12/103
f 243/12/103 242/22/102 244/23/104
f 245/16/101 246/16/105 247/13/99
f 245/16/101 247/13/99 248/13/106
f 246/16/105 249/13/97 247/13/99
f 246/16/105 250/16/97 249/13/97
f 250/16/97 251/13/92 249/13/97
f 250/16/97 252/16/92 251/13/92
f 253/22/107 254/15/107 255/25/107
f 253/22/107 255/25/107 256/30/107
f 257/17/107 255/25/107 254/15/107
f 258/15/107 257/17/107 254/15/107
f 259/15/107 257/17/107 258/15/107
f 257/17/107 259/15/107 260/15/107
f 261/31/108 262/9/108 263/6/108
f 264/14/108 263/6/108 262/9/108
f 264/14/108 262/9/108 265/18/108
f 265/18/108 266/14/108 264/14/108
f 266/14/108 265/18/108 267/14/108
f 267/14/108 265/18/108 268/14/108
f 269/7/109 270/1/110 271/1/111
f 269/7/109 271/1/111 272/1/111
f 270/1/110 273/1/112 274/1/112
f 273/1/112 270/1/110 275/1/113
f 269/7/109 275/1/113 270/1/110
f 275/1/113 269/7/109 276/1/114
f 269/7/109 277/1/112 276/1/114
f 277/1/112 269/7/109 278/4/112
f 279/17/107 280/19/107 281/19/107
f 279/17/107 281/19/107 282/17/107
f 283/29/107 279/17/107 282/17/107
f 279/17/107 283/29/107 284/29/107
f 285/15/107 284/29/107 283/29/107
f 285/15/107 283/29/107 286/15/107
f 287/16/107 285/15/107 286/15/107
f 285/15/107 287/16/107 288/16/115
f 289/22/107 290/23/107 291/23/107
f 290/23/107 289/22/107 292/22/115
f 293/25/107 291/23/107 290/23/107
f 293/25/107 290/23/107 294/25/107
f 295/3/116 296/2/117 297/12/118
f 297/12/118 298/3/119 295/3/116
f 297/12/118 299/3/119 298/3/119
f 297/12/118 300/3/120 299/3/119
f 300/3/120 301/3/116 299/3/119
f 301/3/116 300/3/120 302/3/117
f 297/12/118 303/3/121 300/3/120
f 303/3/121 297/12/118 304/3/121
f 305/4/107 306/4/107 307/4/107
f 306/4/107 305/4/107 308/4/107
f 307/4/107 309/4/107 305/4/107
f 308/4/107 310/4/107 306/4/107
f 309/4/107 307/4/107 311/4/107
f 312/4/107 306/4/107 310/4/107
f 313/4/107 309/4/107 311/4/107
f 310/4/107 314/4/107 312/4/107
f 309/4/107 313/4/107 315/4/107
f 314/4/107 310/4/107 316/4/107
f 313/4/107 316/4/107 315/4/107
f 316/4/107 313/4/107 314/4/107
f 317/2/122 318/3/123 319/32/123
f 317/2/122 319/32/123 320/27/122
f 321/26/122 322/33/123 323/1/123
f 321/26/122 323/1/123 324/4/122
f 325/6/107 326/7/124 327/7/107
f 326/7/124 325/6/107 328/6/107
f 329/6/107 326/7/124 328/6/107
f 330/9/107 327/7/107 326/7/124
f 327/7/107 330/9/107 331/9/107
f 326/7/124 329/6/107 332/7/124
f 332/7/124 330/9/107 326/7/124
f 333/6/107 332/7/124 329/6/107
f 330/9/107 332/7/124 334/9/107
f 332/7/124 333/6/107 335/7/107
f 335/7/107 334/9/107 332/7/124
f 334/9/107 335/7/107 336/9/107
f 337/28/107 338/7/107 339/6/107
f 337/28/107 339/6/107 340/14/107
f 341/7/107 342/28/115 343/18/107
f 343/18/107 344/9/107 341/7/107
f 345/13/108 346/14/108 347/13/125
f 346/14/108 345/13/108 348/14/108
f 349/28/108 346/14/108 348/14/108
f 346/14/108 349/28/108 350/28/108
f 351/18/108 350/28/108 349/28/108
f 351/18/108 349/28/108 352/18/108
f 353/20/108 351/18/108 352/18/108
f 351/18/108 353/20/108 354/20/108
f 355/21/108 356/12/108 357/12/108
f 355/21/108 357/12/108 358/21/125
f 359/24/108 357/12/108 356/12/108
f 357/12/108 359/24/108 360/24/108
f 361/4/107 362/4/107 363/4/107
f 363/4/107 364/4/107 361/4/107
f 363/4/107 365/4/107 364/4/107
f 365/4/107 366/4/107 364/4/107
f 367/4/107 364/4/107 366/4/107
f 362/4/107 361/4/107 368/4/126
f 368/4/126 369/4/107 362/4/107
f 369/4/107 368/4/126 370/4/107
f 370/4/107 368/4/126 371/4/107
f 371/4/107 368/4/126 372/4/107
f 372/4/107 373/4/107 371/4/107
f 373/4/107 372/4/107 374/1/107
f 375/1/107 373/4/107 374/1/107
f 373/4/107 375/1/107 376/4/107
f 375/1/107 377/4/107 376/4/107
f 378/1/107 377/4/107 375/1/107
f 377/4/107 378/1/107 379/4/107
f 380/1/107 379/4/107 378/1/107
f 379/4/107 380/1/107 381/4/107
f 380/1/107 382/4/107 381/4/107
f 382/4/107 380/1/107 383/1/107
f 384/2/108 385/2/108 386/2/108
f 385/2/108 384/2/108 387/2/108
f 385/2/108 388/2/108 386/2/108
f 384/2/108 389/2/108 387/2/108
f 390/2/108 386/2/108 388/2/108
f 389/2/108 384/2/108 391/2/108
f 388/2/108 392/2/108 390/2/108
f 393/2/108 389/2/108 391/2/108
f 392/2/108 388/2/108 394/2/108
f 389/2/108 393/2/108 395/2/108
f 393/2/108 392/2/108 395/2/108
f 395/2/108 392/2/108 394/2/108
f 396/6/107 397/18/107 398/9/107
f 397/18/107 396/6/107 399/14/107
f 400/6/107 401/18/107 402/9/107
f 401/18/107 400/6/107 403/14/115
f 404/6/107 405/18/107 406/9/115
f 405/18/107 404/6/107 407/14/115
f 408/6/107 409/18/107 410/9/107
f 409/18/107 408/6/107 411/14/107
f 412/6/108 413/7/127 414/6/108
f 413/7/127 415/6/108 414/6/108
f 413/7/127 412/6/108 416/7/108
f 416/7/108 417/9/108 413/7/127
f 417/9/108 416/7/108 418/9/108
f 415/6/108 413/7/127 419/7/127
f 417/9/108 419/7/127 413/7/127
f 419/7/127 420/6/108 415/6/108
f 419/7/127 417/9/108 421/9/108
f 420/6/108 419/7/127 422/7/108
f 421/9/108 422/7/108 419/7/127
f 422/7/108 421/9/108 423/9/108
f 424/7/108 425/14/108 426/6/108
f 425/14/108 424/7/108 427/28/108
f 428/7/108 429/18/108 430/28/108
f 429/18/108 428/7/108 431/9/108
f 432/2/108 433/3/108 434/2/108
f 433/3/108 432/2/108 435/3/108
f 433/3/108 436/2/108 434/2/108
f 436/2/108 433/3/108 437/3/108
f 437/3/108 438/2/108 436/2/108
f 439/3/108 438/2/108 437/3/108
f 438/2/108 439/3/108 440/2/108
f 441/2/108 440/2/108 439/3/108
f 442/3/108 441/2/108 439/3/108
f 443/2/108 441/2/108 442/3/108
f 441/2/108 443/2/108 444/2/108
f 444/2/108 443/2/108 445/2/128
f 445/2/128 446/2/108 444/2/108
f 446/2/108 445/2/128 447/2/108
f 447/2/108 445/2/128 448/2/108
f 449/2/108 448/2/108 445/2/128
f 448/2/108 449/2/108 450/2/108
f 451/2/108 450/2/108 449/2/108
f 450/2/108 451/2/108 452/2/108
f 451/2/108 453/2/108 452/2/108
f 453/2/108 451/2/108 454/2/108
f 455/21/129 456/25/129 457/24/129
f 456/25/129 455/21/129 458/22/129
f 459/6/108 460/18/108 461/14/108
f 460/18/108 459/6/108 462/9/108
f 463/6/108 464/18/108 465/14/125
f 464/18/108 463/6/108 466/9/108
f 467/6/108 468/18/108 469/14/125
f 468/18/108 467/6/108 470/9/125
f 471/6/108 472/18/108 473/14/108
f 472/18/108 471/6/108 474/9/108
f 475/6/108 476/18/108 477/14/108
f 476/18/108 475/6/108 478/9/108
f 479/18/108 480/6/108 481/9/108
f 480/6/108 479/18/108 482/14/108
f 483/14/130 484/28/131 485/29/132
f 483/14/130 485/29/132 486/15/130
f 484/28/131 487/17/133 485/29/132
f 484/28/131 488/18/134 487/17/133
f 489/16/105 490/16/100 491/16/101
f 491/16/101 490/16/100 492/16/100
f 490/16/100 493/16/100 492/16/100
f 493/16/100 490/16/100 494/16/105
f 495/12/135 496/7/135 497/3/136
f 497/3/136 496/7/135 498/1/136
f 499/27/137 500/27/138 501/2/139
f 501/2/139 502/2/140 499/27/137
f 503/2/141 501/2/139 500/27/138
f 502/2/140 504/26/140 499/27/137
f 503/2/141 500/27/138 505/27/142
f 502/2/140 506/4/140 504/26/140
f 507/27/143 503/2/141 505/27/142
f 508/4/139 504/26/140 506/4/140
f 503/2/141 507/27/143 509/2/144
f 504/26/140 508/4/139 510/26/145
f 509/2/144 507/27/143 511/2/146
f 512/26/141 510/26/145 508/4/139
f 511/2/146 507/27/143 513/27/147
f 512/26/141 508/4/139 514/4/142
f 515/27/148 511/2/146 513/27/147
f 514/4/142 516/4/143 512/26/141
f 511/2/146 515/27/148 517/2/149
f 518/26/144 512/26/141 516/4/143
f 515/27/148 519/2/149 517/2/149
f 520/26/146 518/26/144 516/4/143
f 519/2/149 515/27/148 521/27/148
f 520/26/146 516/4/143 522/4/147
f 523/27/150 519/2/149 521/27/148
f 522/4/147 524/4/148 520/26/146
f 519/2/149 523/27/150 525/2/151
f 526/26/149 520/26/146 524/4/148
f 523/27/150 527/2/151 525/2/151
f 528/26/149 526/26/149 524/4/148
f 527/2/151 523/27/150 529/27/150
f 528/26/149 524/4/148 530/4/148
f 531/27/152 527/2/151 529/27/150
f 530/4/148 532/4/150 528/26/149
f 527/2/151 531/27/152 533/2/153
f 534/26/151 528/26/149 532/4/150
f 535/27/154 533/2/153 531/27/152
f 536/26/151 534/26/151 532/4/150
f 533/2/153 535/27/154 537/2/154
f 536/26/151 532/4/150 538/4/150
f 539/27/155 537/2/154 535/27/154
f 538/4/150 540/4/152 536/26/151
f 537/2/154 539/27/155 541/2/156
f 542/26/153 536/26/151 540/4/152
f 543/27/157 541/2/156 539/27/155
f 540/4/152 544/4/154 542/26/153
f 541/2/156 543/27/157 545/2/158
f 546/26/154 542/26/153 544/4/154
f 543/27/157 547/4/159 545/2/158
f 544/4/154 548/4/160 546/26/154
f 547/4/159 543/27/157 549/26/161
f 549/26/161 548/4/160 547/4/159
f 548/4/160 549/26/161 550/26/155
f 550/26/155 546/26/154 548/4/160
f 551/14/162 552/18/162 553/17/162
f 551/14/162 553/17/162 554/15/162
f 555/3/123 556/3/163 557/32/164
f 555/3/123 557/32/164 558/32/123
f 556/3/163 559/32/165 557/32/164
f 559/32/165 556/3/163 560/3/166
f 560/3/166 561/32/167 559/32/165
f 560/3/166 562/3/168 561/32/167
f 562/3/168 563/32/169 561/32/167
f 563/32/169 562/3/168 564/3/170
f 565/1/169 563/32/169 564/3/170
f 563/32/169 565/1/169 566/33/169
f 567/1/167 566/33/169 565/1/169
f 566/33/169 567/1/167 568/33/171
f 567/1/167 569/1/172 568/33/171
f 570/33/173 568/33/171 569/1/172
f 571/33/163 570/33/173 569/1/172
f 571/33/163 569/1/172 572/1/164
f 573/33/123 571/33/163 572/1/164
f 573/33/123 572/1/164 574/1/123
f 575/11/174 576/1/108 577/11/175
f 576/1/108 575/11/174 578/1/108
f 579/10/91 575/11/174 577/11/175
f 575/11/174 579/10/91 580/10/91
f 580/10/91 579/10/91 581/9/176
f 582/9/177 581/9/176 579/10/91
f 582/9/177 583/7/115 581/9/176
f 583/7/115 582/9/177 584/7/107
f 585/6/178 583/7/115 584/7/107
f 583/7/115 585/6/178 586/6/179
f 585/6/178 587/5/180 586/6/179
f 587/5/180 585/6/178 588/5/180
f 589/8/181 587/5/180 588/5/180
f 587/5/180 589/8/181 590/8/182
f 589/8/181 591/4/108 590/8/182
f 591/4/108 589/8/181 592/4/108
f 593/2/183 594/4/184 595/2/185
f 596/4/186 595/2/185 594/4/184
f 594/4/184 593/2/183 597/4/187
f 595/2/185 596/4/186 598/2/188
f 599/2/189 597/4/187 593/2/183
f 600/4/190 598/2/188 596/4/186
f 597/4/187 599/2/189 601/4/191
f 598/2/188 600/4/190 602/2/192
f 603/2/193 601/4/191 599/2/189
f 604/4/193 602/2/192 600/4/190
f 601/4/191 603/2/193 604/4/193
f 602/2/192 604/4/193 603/2/193
f 605/24/194 606/21/194 607/22/194
f 605/24/194 607/22/194 608/25/194
f 609/9/195 610/9/196 611/10/91
f 612/10/91 611/10/91 610/9/196
f 609/9/195 613/7/107 610/9/196
f 611/10/91 612/10/91 614/11/197
f 613/7/107 609/9/195 615/7/107
f 616/11/198 614/11/197 612/10/91
f 616/11/198 617/1/108 614/11/197
f 617/1/108 616/11/198 618/1/108
f 615/7/107 619/6/199 613/7/107
f 619/6/199 615/7/107 620/6/200
f 620/6/200 621/5/180 619/6/199
f 621/5/180 620/6/200 622/5/180
f 622/5/180 623/8/201 621/5/180
f 623/8/201 622/5/180 624/8/202
f 624/8/202 625/4/203 623/8/201
f 625/4/203 624/8/202 626/4/204
f 627/19/205 628/19/205 629/19/206
f 629/19/206 628/19/205 630/19/207
f 628/19/205 631/19/206 630/19/207
f 631/19/206 628/19/205 632/19/205
f 633/14/208 634/15/209 635/28/3
f 633/14/208 636/16/210 634/15/209
f 633/14/208 637/13/211 636/16/210
f 635/28/3 634/15/209 638/29/3
f 635/28/3 638/29/3 639/18/212
f 639/18/212 638/29/3 640/17/102
f 641/20/213 639/18/212 640/17/102
f 641/20/213 640/17/102 642/19/214
f 643/22/107 644/15/107 645/23/107
f 646/29/107 645/23/107 644/15/107
f 647/23/107 648/17/107 649/25/107
f 648/17/107 647/23/107 650/29/107
f 651/34/107 652/35/107 653/36/107
f 654/37/107 651/34/107 653/36/107
f 652/35/107 651/34/107 655/38/107
f 651/34/107 654/37/107 656/39/107
f 657/40/107 656/39/107 654/37/107
f 654/37/107 658/41/107 657/40/107
f 657/40/107 658/41/107 659/42/107
f 660/43/107 659/42/107 658/41/107
f 659/42/107 660/43/107 661/44/107
f 662/45/107 661/44/107 660/43/107
f 661/44/107 662/45/107 663/46/107
f 652/35/107 655/38/107 664/47/126
f 665/48/107 664/47/126 655/38/107
f 666/49/107 664/47/126 665/48/107
f 664/47/126 666/49/107 667/50/107
f 667/50/107 668/51/107 664/47/126
f 668/51/107 667/50/107 669/52/107
f 669/52/107 670/53/107 668/51/107
f 669/52/107 671/54/107 670/53/107
f 672/55/107 670/53/107 671/54/107
f 670/53/107 672/55/107 673/56/107
f 674/15/107 675/17/107 676/25/107
f 676/25/107 677/22/107 674/15/107
f 678/15/107 679/17/107 680/25/107
f 680/25/107 681/22/115 678/15/107
f 682/15/107 683/17/115 684/25/107
f 684/25/107 685/22/115 682/15/107
f 686/15/107 687/17/107 688/25/107
f 688/25/107 689/22/107 686/15/107
f 690/15/107 691/17/107 692/25/107
f 692/25/107 693/22/107 690/15/107
f 694/17/107 695/22/107 696/15/107
f 695/22/107 694/17/107 697/25/107
f 698/14/215 699/18/216 700/17/217
f 700/17/217 701/15/218 698/14/215
f 702/22/108 703/29/108 704/15/108
f 703/29/108 702/22/108 705/23/108
f 706/23/108 707/17/108 708/29/125
f 707/17/108 706/23/108 709/25/108
f 710/57/108 711/58/108 712/59/108
f 712/59/108 711/58/108 713/60/108
f 713/60/108 714/61/108 712/59/108
f 714/61/108 713/60/108 715/62/108
f 711/58/108 710/57/108 716/63/108
f 710/57/108 717/64/108 716/63/108
f 718/65/108 716/63/108 717/64/108
f 719/66/108 718/65/108 717/64/108
f 720/67/108 719/66/108 717/64/108
f 721/68/108 719/66/108 720/67/108
f 719/66/108 721/68/108 722/69/108
f 723/70/128 722/69/108 721/68/108
f 722/69/108 723/70/128 724/71/108
f 724/71/108 723/70/128 725/72/108
f 725/72/108 723/70/128 726/73/108
f 727/74/108 726/73/108 723/70/128
f 726/73/108 727/74/108 728/75/108
f 729/76/108 728/75/108 727/74/108
f 728/75/108 729/76/108 730/77/108
f 730/77/108 729/76/108 731/78/108
f 731/78/108 729/76/108 732/79/108
f 733/22/108 734/25/108 735/15/108
f 735/15/108 734/25/108 736/17/108
f 737/22/125 738/25/108 739/15/108
f 739/15/108 738/25/108 740/17/108
f 741/22/125 742/25/108 743/15/108
f 743/15/108 742/25/108 744/17/125
f 745/22/108 746/25/108 747/15/108
f 747/15/108 746/25/108 748/17/108
f 749/19/205 750/20/205 751/19/219
f 751/19/219 750/20/205 752/20/220
f 752/20/220 753/19/221 751/19/219
f 753/19/221 752/20/220 754/20/221
f 755/19/222 753/19/221 754/20/221
f 755/19/222 754/20/221 756/20/222
f 757/28/223 758/29/224 759/14/225
f 759/14/225 758/29/224 760/15/226
f 761/13/227 759/14/225 760/15/226
f 761/13/227 760/15/226 762/16/227
f 763/18/228 764/20/229 765/19/230
f 763/18/228 765/19/230 766/17/231
f 767/20/221 765/19/230 764/20/229
f 765/19/230 767/20/221 768/19/221
f 769/20/232 768/19/221 767/20/221
f 768/19/221 769/20/232 770/19/219
f 771/20/205 770/19/219 769/20/232
f 770/19/219 771/20/205 772/19/205
f 773/20/222 774/18/180 775/19/222
f 776/17/180 775/19/222 774/18/180
f 777/14/233 778/18/233 779/17/233
f 777/14/233 779/17/233 780/15/233
f 781/22/234 782/17/235 783/23/236
f 783/23/236 782/17/235 784/25/237
f 782/17/235 781/22/234 785/15/234
f 786/22/234 787/17/234 788/25/234
f 787/17/234 786/22/234 789/15/238
f 790/17/239 791/9/239 792/25/240
f 791/9/239 790/17/239 793/18/239
f 794/24/214 795/25/213 796/12/233
f 796/12/233 795/25/213 797/23/241
f 796/12/233 797/23/241 798/21/210
f 798/21/210 797/23/241 799/22/211
f 800/15/242 801/29/243 802/14/244
f 801/29/243 803/28/243 802/14/244
f 801/29/243 804/17/245 803/28/243
f 804/17/245 805/18/245 803/28/243
f 806/20/246 807/17/246 808/18/246
f 807/17/246 806/20/246 809/19/246
f 810/2/247 811/4/248 812/2/249
f 813/2/250 812/2/249 811/4/248
f 811/4/248 810/2/247 814/4/251
f 813/2/250 811/4/248 815/4/252
f 816/2/253 814/4/251 810/2/247
f 817/2/254 813/2/250 815/4/252
f 814/4/251 816/2/253 818/4/253
f 817/2/254 815/4/252 819/4/255
f 816/2/253 820/4/256 818/4/253
f 821/2/257 817/2/254 819/4/255
f 816/2/253 821/2/257 820/4/256
f 821/2/257 819/4/255 820/4/256
f 822/14/233 823/18/233 824/17/233
f 822/14/233 824/17/233 825/15/233
f 826/18/233 827/14/233 828/17/233
f 829/15/233 828/17/233 827/14/233
f 830/14/233 831/18/233 832/17/233
f 830/14/233 832/17/233 833/15/233
f 834/18/233 835/14/233 836/17/233
f 837/15/233 836/17/233 835/14/233
f 838/14/233 839/18/233 840/17/233
f 838/14/233 840/17/233 841/15/233
f 842/18/233 843/14/233 844/17/233
f 845/15/233 844/17/233 843/14/233
f 846/25/258 847/23/124 848/25/107
f 848/25/107 849/23/107 850/25/107
f 847/23/124 849/23/107 848/25/107
f 847/23/124 851/22/107 849/23/107
f 852/22/107 851/22/107 847/23/124
f 847/23/124 846/25/258 853/23/259
f 853/23/259 852/22/107 847/23/124
f 846/25/258 854/25/260 853/23/259
f 852/22/107 853/23/259 855/22/261
f 856/23/262 855/22/261 853/23/259
f 853/23/259 854/25/260 856/23/262
f 855/22/261 856/23/262 857/22/260
f 856/23/262 858/22/263 857/22/260
f 854/25/260 859/23/264 856/23/262
f 858/22/263 856/23/262 859/23/264
f 859/23/264 854/25/260 860/25/265
f 861/22/108 858/22/263 859/23/264
f 862/23/127 859/23/264 860/25/265
f 861/22/108 859/23/264 862/23/127
f 863/22/108 861/22/108 862/23/127
f 862/23/127 860/25/265 864/25/108
f 862/23/127 865/23/108 863/22/108
f 865/23/108 862/23/127 864/25/108
f 864/25/108 866/25/108 865/23/108
f 867/61/233 868/80/233 869/81/233
f 868/80/233 867/61/233 870/62/233
f 871/14/233 872/18/233 873/17/233
f 871/14/233 873/17/233 874/15/233
f 875/18/233 876/14/233 877/17/233
f 878/15/241 877/17/233 876/14/233
f 879/6/233 880/5/233 881/5/233
f 882/8/233 881/5/233 880/5/233
f 880/5/233 879/6/233 883/6/233
f 881/5/233 882/8/233 884/8/233
f 885/4/233 884/8/233 882/8/233
f 884/8/233 885/4/233 886/4/241
f 887/7/233 883/6/233 879/6/233
f 883/6/233 887/7/233 888/7/233
f 887/7/233 889/9/233 888/7/233
f 889/9/233 887/7/233 890/9/233
f 890/9/233 891/10/233 889/9/233
f 890/9/233 892/10/233 891/10/233
f 893/11/233 891/10/233 892/10/233
f 893/11/233 892/10/233 894/11/233
f 894/11/233 895/1/233 893/11/233
f 894/11/233 896/1/233 895/1/233
f 897/21/266 898/22/266 899/82/267
f 899/82/267 898/22/266 900/30/268
f 899/82/267 900/30/268 901/24/269
f 901/24/269 900/30/268 902/25/270
f 903/1/73 904/3/73 905/3/271
f 905/3/271 906/1/272 903/1/73
f 907/11/273 908/1/274 909/1/274
f 908/1/274 907/11/273 910/11/275
f 911/10/276 910/11/275 907/11/273
f 907/11/273 912/10/276 911/10/276
f 913/9/277 911/10/276 912/10/276
f 911/10/276 913/9/277 914/9/278
f 915/7/279 914/9/278 913/9/277
f 915/7/279 913/9/277 916/7/279
f 917/6/280 915/7/279 916/7/279
f 915/7/279 917/6/280 918/6/281
f 919/5/282 918/6/281 917/6/280
f 919/5/282 917/6/280 920/5/282
f 921/8/283 919/5/282 920/5/282
f 919/5/282 921/8/283 922/8/284
f 923/4/274 922/8/284 921/8/283
f 923/4/274 921/8/283 924/4/274
f 925/1/285 926/1/285 927/3/285
f 928/3/285 927/3/285 926/1/285
f 929/55/3 930/79/286 931/56/286
f 930/79/286 929/55/3 932/78/3
o 139674293880495
v -1.612851 0.138087 0.097734
v -1.662862 0.088895 0.055258
v -1.612858 0.076597 0.069080
v -1.612877 0.051127 -0.000095
v -1.662856 0.138087 0.078181
v -1.662877 0.068519 -0.000082
v -1.662862 0.187278 0.055258
v -1.662891 0.088895 -0.055423
v -1.612858 0.199576 0.069080
v -1.612895 0.076597 -0.069271
v -1.612877 0.225046 -0.000095
v -1.612902 0.138087 -0.097925
v -1.662877 0.207654 -0.000082
v -1.662897 0.138087 -0.078346
v -1.662891 0.187278 -0.055423
v -1.612895 0.199576 -0.069271
v 0.177123 0.215729 -0.000567
v -1.352861 0.192988 0.054737
v 0.177138 0.192988 0.054334
v 0.177144 0.138087 0.077075
v -1.352877 0.215729 -0.000164
v -1.352855 0.138087 0.077478
v -1.352890 0.192988 -0.055065
v 0.177138 0.083185 0.054334
v 0.177109 0.192988 -0.055469
v -1.352861 0.083185 0.054737
v 0.177103 0.138087 -0.078209
v 0.177123 0.060444 -0.000567
v -1.352897 0.138087 -0.077806
v -1.352877 0.060444 -0.000164
v -1.352890 0.083185 -0.055065
v 0.177109 0.083185 -0.055469
v 1.950662 0.773944 -0.001072
v 1.972033 0.826068 -0.022157
v 1.959151 0.771923 -0.022154
v 1.979656 0.767044 -0.030892
v 1.963545 0.828089 -0.001075
v 1.992539 0.821189 -0.030895
v 1.972045 0.826068 0.020002
v 2.000166 0.762165 -0.022165
v 1.959163 0.771923 0.020006
v 2.013049 0.816310 -0.022168
v 1.979672 0.767044 0.028732
v 2.021549 0.814289 -0.001091
v 1.992555 0.821189 0.028729
v 2.008667 0.760143 -0.001087
v 2.000178 0.762165 0.019995
v 2.013060 0.816310 0.019992
v 1.852334 0.322121 -0.021931
v 1.866084 0.289694 -0.030586
v 1.845769 0.294528 -0.021929
v 1.837358 0.296530 -0.001042
v 1.872649 0.317287 -0.030587
v 1.843923 0.324123 -0.001044
v 1.892970 0.312453 -0.021942
v 1.852345 0.322121 0.019839
v 1.886405 0.284859 -0.021940
v 1.845780 0.294528 0.019841
v 1.901391 0.310450 -0.001059
v 1.866100 0.289694 0.028486
v 1.894826 0.282857 -0.001057
v 1.872665 0.317287 0.028485
v 1.886416 0.284859 0.019830
v 1.892981 0.312453 0.019828
v 1.993590 0.825594 -0.021951
v 1.979235 0.829009 -0.015835
v 2.007946 0.822178 -0.015843
v 1.973294 0.830424 -0.001078
v 2.013896 0.820764 -0.001089
v 2.007954 0.822178 0.013669
v 1.979244 0.829009 0.013677
v 1.993601 0.825594 0.019785
v 2.013049 0.816310 -0.022168
v 1.993590 0.825594 -0.021951
v 2.007946 0.822178 -0.015843
v 1.992539 0.821189 -0.030895
v 2.021549 0.814289 -0.001091
v 1.979235 0.829009 -0.015835
v 2.013896 0.820764 -0.001089
v 1.972033 0.826068 -0.022157
v 2.007954 0.822178 0.013669
v 1.973294 0.830424 -0.001078
v 2.013060 0.816310 0.019992
v 1.963545 0.828089 -0.001075
v 1.993601 0.825594 0.019785
v 1.972045 0.826068 0.020002
v 1.992555 0.821189 0.028729
v 1.979244 0.829009 0.013677
v 0.177123 0.041034 -0.000567
v 0.177109 0.083185 -0.055469
v 0.177105 0.069460 -0.069194
v 0.177098 0.138087 -0.097620
v 0.177123 0.060444 -0.000567
v 0.177103 0.138087 -0.078209
v 0.177141 0.069460 0.068059
v 0.177109 0.192988 -0.055469
v 0.177138 0.083185 0.054334
v 0.177105 0.206713 -0.069194
v 0.177144 0.138087 0.077075
v 0.177123 0.235139 -0.000567
v 0.177149 0.138087 0.096486
v 0.177123 0.215729 -0.000567
v 0.177141 0.206713 0.068059
v 0.177138 0.192988 0.054334
v 1.259727 -0.355970 0.099110
v 1.259674 -0.355970 -0.100890
v 1.259727 -0.425970 0.099110
v 1.159727 -0.205970 0.099137
v 1.259674 -0.425970 -0.100890
v 1.159674 -0.205970 -0.100863
v 1.224727 -0.125970 0.099120
v 1.224674 -0.125970 -0.100880
v 1.659727 -0.425970 0.099005
v 1.659674 -0.425970 -0.100995
v 1.849727 -0.215970 0.098955
v 1.849674 -0.215970 -0.101045
v 1.919506 0.514228 -0.030600
v 1.906050 0.524376 -0.016503
v 1.921072 0.520802 -0.022904
v 1.899191 0.519062 -0.021943
v 1.939827 0.509394 -0.021954
v 1.899831 0.525857 -0.001058
v 1.936097 0.517227 -0.016511
v 1.890780 0.521064 -0.001056
v 1.948248 0.507391 -0.001071
v 1.899202 0.519062 0.019827
v 1.942324 0.515747 -0.001070
v 1.906058 0.524376 0.014383
v 1.936105 0.517227 0.014375
v 1.919522 0.514228 0.028472
v 1.939838 0.509394 0.019816
v 1.921083 0.520802 0.020776
v 1.331190 0.138086 -0.097925
v 1.331241 0.138086 0.096180
v 1.331197 0.069460 -0.069499
v 1.331233 0.069460 0.067754
v 1.331215 0.041033 -0.000872
v 1.331215 0.235139 -0.000872
v 1.331233 0.206713 0.067754
v 1.331197 0.206713 -0.069499
v 1.874292 0.324185 -0.022892
v 1.889317 0.320610 -0.016499
v 1.872649 0.317287 -0.030587
v 1.859270 0.327759 -0.016491
v 1.892970 0.312453 -0.021942
v 1.852334 0.322121 -0.021931
v 1.901391 0.310450 -0.001059
v 1.853051 0.329240 -0.001046
v 1.895545 0.319130 -0.001057
v 1.843923 0.324123 -0.001044
v 1.889325 0.320610 0.014387
v 1.852345 0.322121 0.019839
v 1.892981 0.312453 0.019828
v 1.859278 0.327759 0.014395
v 1.872665 0.317287 0.028485
v 1.874304 0.324185 0.020788
v 1.122289 0.466948 -0.019257
v 1.131208 0.445716 -0.021019
v 1.122033 0.460802 -0.030066
v 1.103862 0.483170 -0.016496
v 1.124587 0.460136 -0.009109
v 1.124354 0.445198 -0.032052
v 1.127198 0.444457 -0.008717
v 1.126964 0.429519 -0.031661
v 1.129519 0.428853 -0.010703
v 1.129263 0.422707 -0.021512
v 1.116748 0.401424 -0.020663
v 0.915247 0.448828 0.179586
v 0.905056 0.441812 0.178319
v 0.915097 0.426803 0.186535
v 0.917192 0.466833 0.162783
v 0.925881 0.442746 0.181728
v 0.904411 0.425949 0.179181
v 0.927599 0.426988 0.182978
v 0.906128 0.410192 0.180431
v 0.926953 0.411125 0.183841
v 0.916762 0.404110 0.182573
v 0.919991 0.384204 0.168302
v 0.732488 0.134281 0.084042
v 0.732465 0.213528 -0.000714
v 0.732440 0.138087 -0.097767
v 0.732482 0.188078 0.062431
v 0.732447 0.206713 -0.069341
v 0.732465 0.235139 -0.000714
v 1.849674 -0.215970 -0.101045
v 1.647674 -0.355970 -0.100992
v 1.813207 -0.163244 -0.101036
v 1.659674 -0.425970 -0.100995
v 1.382074 -0.355970 -0.100922
v 1.259674 -0.425970 -0.100890
v 1.259674 -0.355970 -0.100890
v 1.242074 -0.205970 -0.100885
v 1.159674 -0.205970 -0.100863
v 1.224674 -0.125970 -0.100880
v 1.249964 -0.125970 -0.100887
v 1.849727 -0.215970 0.098955
v 1.647727 -0.355970 0.099008
v 1.659727 -0.425970 0.099005
v 1.813260 -0.163244 0.098964
v 1.382127 -0.355970 0.099078
v 1.259727 -0.425970 0.099110
v 1.259727 -0.355970 0.099110
v 1.242127 -0.205970 0.099115
v 1.159727 -0.205970 0.099137
v 1.224727 -0.125970 0.099120
v 1.250017 -0.125970 0.099113
v 0.732482 0.188078 0.062431
v 0.474015 0.188078 0.062500
v 0.473998 0.213528 -0.000645
v 0.732465 0.213528 -0.000714
v 0.732488 0.134281 0.084042
v 0.474021 0.134281 0.084111
v 0.732465 0.213528 -0.000714
v 0.473998 0.213528 -0.000645
v 0.473998 0.235139 -0.000645
v 0.732465 0.235139 -0.000714
v -2.312891 0.088895 -0.055251
v -1.662897 0.138087 -0.078346
v -1.662891 0.088895 -0.055423
v -2.312897 0.138087 -0.078174
v -2.312876 0.068519 0.000090
v -1.662891 0.187278 -0.055423
v -1.662877 0.068519 -0.000082
v -2.312891 0.187278 -0.055251
v -2.312862 0.088895 0.055430
v -1.662877 0.207654 -0.000082
v -1.662862 0.088895 0.055258
v -2.312876 0.207654 0.000090
v -2.312856 0.138087 0.078353
v -1.662862 0.187278 0.055258
v -1.662856 0.138087 0.078181
v -2.312862 0.187278 0.055430
v 1.331241 0.138086 0.096180
v 0.764800 0.138087 0.096330
v 0.764792 0.069460 0.067904
v 1.331233 0.069460 0.067754
v 1.331233 0.206713 0.067754
v 0.764774 0.041033 -0.000722
v 1.331215 0.041033 -0.000872
v 0.764756 0.069460 -0.069349
v 1.331197 0.069460 -0.069499
v 1.331190 0.138086 -0.097925
v 0.732440 0.138087 -0.097767
v 1.331197 0.206713 -0.069499
v 0.441671 0.069460 -0.069264
v 0.732447 0.206713 -0.069341
v 0.473972 0.138087 -0.097698
v 0.732465 0.235139 -0.000714
v 1.331215 0.235139 -0.000872
v 0.177098 0.138087 -0.097620
v 0.177105 0.206713 -0.069194
v 0.177105 0.069460 -0.069194
v 0.473979 0.206713 -0.069272
v 0.441689 0.041034 -0.000637
v 0.177123 0.235139 -0.000567
v 0.177123 0.041034 -0.000567
v 0.473998 0.235139 -0.000645
v 0.441707 0.069460 0.067989
v 0.177141 0.069460 0.068059
v 0.441707 0.206713 0.067989
v 0.177141 0.206713 0.068059
v 0.441715 0.138087 0.096416
v 0.177149 0.138087 0.096486
v 0.764792 0.206713 0.067904
v 0.604976 0.138087 -0.097733
v 0.474021 0.134281 0.084111
v 0.732488 0.134281 0.084042
v 0.473972 0.138087 -0.097698
v 0.732440 0.138087 -0.097767
v 1.845769 0.294528 -0.021929
v 1.866084 0.289694 -0.030586
v 1.849423 0.286370 -0.016488
v 1.837358 0.296530 -0.001042
v 1.864444 0.282795 -0.022889
v 1.843203 0.287850 -0.001044
v 1.879470 0.279221 -0.016496
v 1.849431 0.286370 0.014398
v 1.886405 0.284859 -0.021940
v 1.845780 0.294528 0.019841
v 1.885697 0.277740 -0.001055
v 1.866100 0.289694 0.028486
v 1.894826 0.282857 -0.001057
v 1.864456 0.282795 0.020791
v 1.886416 0.284859 0.019830
v 1.879478 0.279221 0.014390
v 1.909227 0.471025 -0.030597
v 1.922690 0.460875 -0.016508
v 1.907664 0.464450 -0.022901
v 1.929547 0.466191 -0.021951
v 1.888911 0.475859 -0.021941
v 1.928917 0.459395 -0.001066
v 1.892642 0.468024 -0.016500
v 1.937969 0.464188 -0.001069
v 1.880501 0.477861 -0.001053
v 1.929558 0.466191 0.019819
v 1.886423 0.469505 -0.001055
v 1.922698 0.460875 0.014378
v 1.892650 0.468024 0.014386
v 1.909243 0.471025 0.028475
v 1.888922 0.475859 0.019829
v 1.907676 0.464450 0.020779
v 0.473998 0.213528 -0.000645
v 0.473979 0.206713 -0.069272
v 0.473998 0.235139 -0.000645
v 0.473972 0.138087 -0.097698
v 0.474021 0.134281 0.084111
v 0.474015 0.188078 0.062500
v 1.242127 -0.205970 0.099115
v 1.382127 -0.355970 0.099078
v 1.242074 -0.205970 -0.100885
v 1.249964 -0.125970 -0.100887
v 1.250017 -0.125970 0.099113
v 1.382074 -0.355970 -0.100922
v 1.647674 -0.355970 -0.100992
v 1.647727 -0.355970 0.099008
v 1.813260 -0.163244 0.098964
v 1.813207 -0.163244 -0.101036
v 1.963229 0.764669 0.014368
v 1.950662 0.773944 -0.001072
v 1.957002 0.766149 -0.001074
v 1.963221 0.764669 -0.016518
v 1.959163 0.771923 0.020006
v 1.959151 0.771923 -0.022154
v 1.978255 0.761094 0.020761
v 1.978243 0.761094 -0.022919
v 1.979672 0.767044 0.028732
v 1.979656 0.767044 -0.030892
v 1.993277 0.757520 0.014360
v 1.993269 0.757520 -0.016526
v 2.000178 0.762165 0.019995
v 2.000166 0.762165 -0.022165
v 1.999496 0.756039 -0.001085
v 2.008667 0.760143 -0.001087
v -1.612902 0.138087 -0.097925
v -1.492895 0.199576 -0.069303
v -1.492902 0.138087 -0.097956
v -1.612895 0.199576 -0.069271
v -1.612895 0.076597 -0.069271
v -1.492877 0.225046 -0.000127
v -1.492895 0.076597 -0.069303
v -1.612877 0.225046 -0.000095
v -1.612877 0.051127 -0.000095
v -1.612858 0.199576 0.069080
v -1.492877 0.051127 -0.000127
v -1.492857 0.199576 0.069048
v -1.612858 0.076597 0.069080
v -1.492850 0.138087 0.097702
v -1.492857 0.076597 0.069048
v -1.612851 0.138087 0.097734
v 1.919506 0.514228 -0.030600
v 1.929547 0.466191 -0.021951
v 1.909227 0.471025 -0.030597
v 1.939827 0.509394 -0.021954
v 1.899191 0.519062 -0.021943
v 1.948248 0.507391 -0.001071
v 1.888911 0.475859 -0.021941
v 1.937969 0.464188 -0.001069
v 1.880501 0.477861 -0.001053
v 1.929558 0.466191 0.019819
v 1.890780 0.521064 -0.001056
v 1.939838 0.509394 0.019816
v 1.899202 0.519062 0.019827
v 1.919522 0.514228 0.028472
v 1.888922 0.475859 0.019829
v 1.909243 0.471025 0.028475
vn -0.3636 0.0005 0.9316
vn -0.3452 -0.6967 0.6288
vn -0.3461 -0.6855 0.6406
vn -0.3289 -0.9444 -0.0005
vn -0.3637 0.0004 0.9315
vn -0.3288 -0.9444 -0.0003
vn -0.3452 0.6967 0.6288
vn -0.3455 -0.6967 -0.6286
vn -0.3461 0.6855 0.6406
vn -0.3465 -0.6855 -0.6404
vn -0.3289 0.9444 -0.0005
vn -0.3641 0.0006 -0.9314
vn -0.3642 0.0004 -0.9313
vn -0.3455 0.6967 -0.6286
vn -0.3465 0.6855 -0.6404
vn -0.0005 1.0000 -0.0005
vn -0.0003 0.7071 0.7071
vn -0.0002 0.0005 1.0000
vn -0.0007 0.7071 -0.7071
vn 0.0002 -0.7071 0.7071
vn -0.0005 0.7071 -0.7071
vn -0.0008 0.0005 -1.0000
vn -0.0005 -1.0000 -0.0005
vn -0.0007 0.0005 -1.0000
vn -0.0006 -0.7071 -0.7071
vn -0.0007 -0.7071 -0.7071
vn -0.9729 0.2311 -0.0002
vn -0.6881 0.1637 -0.7069
vn -0.6883 0.1636 -0.7067
vn -0.9729 0.2312 -0.0002
vn -0.6877 0.1637 0.7073
vn 0.6881 -0.1636 -0.7070
vn -0.6881 0.1636 0.7069
vn 0.6877 -0.1637 -0.7073
vn 0.9729 -0.2311 -0.0008
vn 0.6881 -0.1637 0.7069
vn 0.6885 -0.1636 0.7066
vn -0.6885 0.1636 -0.7066
vn -0.6880 0.1636 0.7071
vn 0.9729 -0.2312 -0.0007
vn 0.2312 0.9729 -0.0005
vn 0.2311 0.9729 -0.0005
vn 0.5173 0.7940 -0.3192
vn 0.2064 0.8680 -0.4517
vn 0.5174 0.7940 -0.3192
vn 0.6461 0.7633 -0.0006
vn -0.1043 0.9419 -0.3193
vn -0.1042 0.9420 -0.3190
vn 0.5173 0.7940 0.3192
vn -0.2330 0.9725 -0.0004
vn 0.2066 0.8680 0.4516
vn -0.1040 0.9420 0.3191
vn -0.1040 0.9420 0.3190
vn -1.0000 0.0005 -0.0002
vn -0.9571 -0.2897 -0.0002
vn -0.7071 -0.7071 0.0002
vn -0.9989 0.0473 -0.0002
vn -0.7071 -0.7071 -0.0003
vn -0.9989 0.0473 -0.0001
vn -0.7761 0.6306 -0.0003
vn 0.4059 -0.9139 -0.0006
vn 0.7414 -0.6710 -0.0006
vn 0.7415 -0.6710 -0.0005
vn 0.1733 0.7311 -0.6599
vn -0.2801 0.8390 -0.4665
vn 0.1737 0.7311 -0.6598
vn 0.6278 0.6229 -0.4669
vn -0.4676 0.8840 -0.0004
vn 0.6277 0.6231 -0.4667
vn -0.4676 0.8839 -0.0004
vn 0.8158 0.5783 -0.0007
vn -0.2798 0.8390 0.4666
vn 0.6279 0.6231 0.4663
vn 0.1741 0.7311 0.6597
vn 1.0000 0.0005 -0.0007
vn 0.1703 0.7156 -0.6775
vn 0.6362 0.6046 -0.4793
vn 0.1701 0.7155 -0.6776
vn -0.2957 0.8263 -0.4794
vn 0.6363 0.6044 -0.4793
vn -0.2958 0.8263 -0.4793
vn 0.8294 0.5587 -0.0002
vn -0.4891 0.8722 -0.0003
vn 0.8294 0.5586 -0.0007
vn 0.6366 0.6044 0.4790
vn -0.2954 0.8263 0.4795
vn -0.2955 0.8263 0.4794
vn 0.1704 0.7155 0.6775
vn 0.1708 0.7156 0.6773
vn 0.7654 0.6395 -0.0730
vn 0.9804 0.1606 -0.1142
vn 0.8177 0.4431 -0.3675
vn 0.6549 0.7536 -0.0562
vn 0.8853 0.4254 0.1876
vn 0.8354 0.1585 -0.5264
vn 0.9384 0.1314 0.3196
vn 0.9083 -0.1320 -0.3969
vn 0.9759 -0.1499 0.1584
vn 0.9231 -0.3641 -0.1239
vn 0.8537 -0.5068 -0.1202
vn -0.1583 0.5590 0.8139
vn -0.4358 0.3335 0.8360
vn -0.1642 0.0601 0.9846
vn -0.1479 0.6835 0.7148
vn 0.1160 0.3581 0.9264
vn -0.5685 0.0356 0.8219
vn 0.2722 0.0737 0.9594
vn -0.4155 -0.2477 0.8752
vn 0.1356 -0.2232 0.9653
vn -0.1243 -0.4556 0.8814
vn -0.1049 -0.5909 0.7999
vn -0.0007 -0.7066 -0.7076
vn -0.0006 -0.9276 -0.3737
vn -0.0008 -0.3728 -0.9279
vn -0.0007 -0.3728 -0.9279
vn -0.0005 -0.7358 -0.6771
vn -0.0002 -0.7359 -0.6771
vn -0.0005 0.7358 -0.6771
vn -0.0002 0.7359 -0.6771
vn 0.0002 -0.7359 0.6771
vn -0.0003 0.7358 0.6772
vn 0.0002 0.7359 0.6771
vn -0.0001 0.0003 1.0000
vn -0.0003 -0.6037 0.7972
vn 0.0002 0.7071 0.7071
vn -0.0007 -0.6037 -0.7972
vn -0.0006 -0.1372 -0.9905
vn -0.0007 -0.1372 -0.9905
vn -0.0004 0.9905 0.1373
vn -0.0002 0.7071 -0.7071
vn -0.0002 -0.7071 -0.7071
vn -0.0001 -0.7071 0.7071
vn -0.0004 0.7071 0.7071
vn -0.0003 0.9998 0.0210
vn -0.0005 0.9998 0.0210
vn -0.6365 -0.6046 -0.4790
vn -0.1704 -0.7154 -0.6776
vn -0.6365 -0.6045 -0.4790
vn -0.8294 -0.5586 -0.0001
vn -0.1708 -0.7156 -0.6773
vn -0.8294 -0.5586 -0.0003
vn 0.2954 -0.8263 -0.4796
vn -0.6362 -0.6045 0.4793
vn 0.2957 -0.8264 -0.4792
vn -0.6362 -0.6046 0.4793
vn 0.4891 -0.8722 -0.0006
vn -0.1703 -0.7156 0.6775
vn -0.1704 -0.7156 0.6774
vn 0.2958 -0.8263 0.4793
vn 0.2960 -0.8264 0.4790
vn -0.1736 -0.7311 -0.6598
vn 0.2799 -0.8390 -0.4667
vn -0.6280 -0.6230 -0.4664
vn 0.4684 -0.8835 -0.0006
vn -0.8162 -0.5778 -0.0003
vn 0.2801 -0.8390 0.4665
vn 0.2802 -0.8390 0.4665
vn -0.6277 -0.6230 0.4668
vn -0.1733 -0.7311 0.6599
vn 0.9471 0.3209 -0.0007
vn 0.3983 0.9172 -0.0005
vn 0.9952 -0.0982 -0.0007
vn 0.3983 0.9173 -0.0006
vn -0.4175 0.9087 -0.0004
vn -0.4175 0.9087 -0.0002
vn -0.7588 0.6514 -0.0002
vn -0.6022 -0.6723 0.4305
vn -0.7761 -0.6306 -0.0003
vn -0.6025 -0.6723 -0.4302
vn -0.6022 -0.6723 0.4306
vn -0.1831 -0.7723 0.6083
vn -0.1834 -0.7723 -0.6082
vn -0.1843 -0.7722 -0.6081
vn 0.2352 -0.8715 0.4303
vn 0.2350 -0.8715 -0.4305
vn 0.2352 -0.8715 0.4304
vn 0.2349 -0.8715 -0.4305
vn 0.4087 -0.9127 -0.0006
vn -0.0006 0.7358 -0.6772
vn -0.0005 -0.7358 -0.6772
vn -0.0003 -0.7358 0.6772
vn 0.6880 -0.1636 -0.7071
vn -0.9729 0.2312 -0.0001
vn 0.6884 -0.1636 0.7066
vn 0.6883 -0.1636 0.7067
vt 0.000000 0.000000
s 1
f 933/83/287 934/83/288 935/83/289
f 934/83/288 936/83/290 935/83/289
f 934/83/288 933/83/287 937/83/291
f 936/83/290 934/83/288 938/83/292
f 933/83/287 939/83/293 937/83/291
f 940/83/294 936/83/290 938/83/292
f 939/83/293 933/83/287 941/83/295
f 936/83/290 940/83/294 942/83/296
f 943/83/297 939/83/293 941/83/295
f 940/83/294 944/83/298 942/83/296
f 939/83/293 943/83/297 945/83/297
f 944/83/298 940/83/294 946/83/299
f 945/83/297 943/83/297 947/83/300
f 947/83/300 944/83/298 946/83/299
f 943/83/297 948/83/301 947/83/300
f 944/83/298 947/83/300 948/83/301
f 949/83/302 950/83/303 951/83/303
f 950/83/303 952/83/304 951/83/303
f 950/83/303 949/83/302 953/83/302
f 952/83/304 950/83/303 954/83/304
f 953/83/302 949/83/302 955/83/305
f 954/83/304 956/83/306 952/83/304
f 957/83/307 955/83/305 949/83/302
f 956/83/306 954/83/304 958/83/306
f 959/83/308 955/83/305 957/83/307
f 958/83/306 960/83/309 956/83/306
f 955/83/305 959/83/308 961/83/310
f 960/83/309 958/83/306 962/83/309
f 959/83/308 963/83/311 961/83/310
f 963/83/311 960/83/309 962/83/309
f 963/83/311 959/83/308 964/83/312
f 960/83/309 963/83/311 964/83/312
f 965/83/313 966/83/314 967/83/315
f 966/83/314 968/83/308 967/83/315
f 966/83/314 965/83/313 969/83/316
f 968/83/308 966/83/314 970/83/308
f 965/83/313 971/83/317 969/83/316
f 970/83/308 972/83/318 968/83/308
f 971/83/317 965/83/313 973/83/319
f 972/83/318 970/83/308 974/83/320
f 975/83/304 971/83/317 973/83/319
f 976/83/321 972/83/318 974/83/320
f 971/83/317 975/83/304 977/83/304
f 972/83/318 976/83/321 978/83/321
f 979/83/322 977/83/304 975/83/304
f 978/83/321 976/83/321 979/83/322
f 977/83/304 979/83/322 980/83/323
f 980/83/323 979/83/322 976/83/321
f 981/83/314 982/83/310 983/83/324
f 984/83/313 981/83/314 983/83/324
f 982/83/310 981/83/314 985/83/310
f 986/83/316 981/83/314 984/83/313
f 982/83/310 985/83/310 987/83/320
f 984/83/313 988/83/317 986/83/316
f 982/83/310 987/83/320 989/83/320
f 988/83/317 984/83/313 990/83/325
f 991/83/326 989/83/320 987/83/320
f 992/83/304 988/83/317 990/83/325
f 991/83/326 993/83/326 989/83/320
f 988/83/317 992/83/304 994/83/304
f 991/83/326 995/83/322 993/83/326
f 992/83/304 996/83/322 994/83/304
f 995/83/322 991/83/326 996/83/322
f 996/83/322 992/83/304 995/83/322
f 997/83/327 998/83/327 999/83/328
f 1000/83/328 999/83/328 998/83/327
f 999/83/328 1000/83/328 1001/83/327
f 1000/83/328 1002/83/327 1001/83/327
f 1002/83/327 1000/83/328 1003/83/327
f 1002/83/327 1003/83/327 1004/83/327
f 1005/83/329 1006/83/330 1007/83/331
f 1006/83/330 1005/83/329 1008/83/330
f 1009/83/332 1005/83/329 1007/83/331
f 1010/83/333 1006/83/330 1008/83/330
f 1009/83/332 1007/83/331 1011/83/332
f 1008/83/330 1012/83/334 1010/83/333
f 1013/83/335 1009/83/332 1011/83/332
f 1012/83/334 1014/83/336 1010/83/333
f 1009/83/332 1013/83/335 1015/83/335
f 1014/83/336 1012/83/334 1016/83/336
f 1017/83/337 1015/83/335 1013/83/335
f 1018/83/338 1014/83/336 1016/83/336
f 1015/83/335 1017/83/337 1019/83/337
f 1014/83/336 1018/83/338 1020/83/339
f 1020/83/339 1019/83/337 1017/83/337
f 1019/83/337 1020/83/339 1018/83/338
f 1021/83/340 1022/83/340 1023/83/340
f 1024/83/340 1023/83/340 1022/83/340
f 1022/83/340 1021/83/340 1025/83/340
f 1022/83/340 1026/83/340 1024/83/340
f 1027/83/340 1025/83/340 1021/83/340
f 1028/83/340 1024/83/340 1026/83/340
f 1025/83/340 1027/83/340 1029/83/340
f 1024/83/340 1028/83/340 1030/83/340
f 1031/83/340 1029/83/340 1027/83/340
f 1032/83/340 1030/83/340 1028/83/340
f 1027/83/340 1033/83/340 1031/83/340
f 1032/83/340 1028/83/340 1034/83/340
f 1035/83/340 1031/83/340 1033/83/340
f 1035/83/340 1032/83/340 1034/83/340
f 1031/83/340 1035/83/340 1036/83/340
f 1035/83/340 1034/83/340 1036/83/340
f 1037/83/341 1038/83/341 1039/83/342
f 1040/83/343 1038/83/341 1037/83/341
f 1039/83/342 1038/83/341 1041/83/344
f 1038/83/341 1040/83/343 1042/83/345
f 1043/83/346 1042/83/345 1040/83/343
f 1042/83/345 1043/83/346 1044/83/346
f 1045/83/347 1039/83/342 1041/83/344
f 1045/83/347 1041/83/344 1046/83/347
f 1047/83/348 1045/83/347 1046/83/347
f 1047/83/348 1046/83/347 1048/83/349
f 1049/83/350 1050/83/351 1051/83/352
f 1050/83/351 1049/83/350 1052/83/351
f 1051/83/352 1053/83/353 1049/83/350
f 1052/83/351 1054/83/354 1050/83/351
f 1053/83/353 1051/83/352 1055/83/355
f 1054/83/354 1052/83/351 1056/83/356
f 1055/83/355 1057/83/357 1053/83/353
f 1058/83/358 1054/83/354 1056/83/356
f 1057/83/357 1055/83/355 1059/83/357
f 1054/83/354 1058/83/358 1060/83/358
f 1061/83/359 1057/83/357 1059/83/357
f 1058/83/358 1062/83/360 1060/83/358
f 1063/83/359 1057/83/357 1061/83/359
f 1062/83/360 1064/83/360 1060/83/358
f 1064/83/360 1063/83/359 1061/83/359
f 1062/83/360 1063/83/359 1064/83/360
f 1065/83/361 1066/83/361 1067/83/361
f 1067/83/361 1066/83/361 1068/83/361
f 1067/83/361 1068/83/361 1069/83/361
f 1065/83/361 1070/83/361 1066/83/361
f 1066/83/361 1070/83/361 1071/83/361
f 1070/83/361 1065/83/361 1072/83/361
f 1073/83/362 1074/83/363 1075/83/364
f 1075/83/364 1076/83/365 1073/83/362
f 1077/83/366 1075/83/364 1074/83/363
f 1076/83/365 1075/83/364 1078/83/367
f 1074/83/363 1079/83/368 1077/83/366
f 1078/83/367 1080/83/369 1076/83/365
f 1079/83/368 1074/83/363 1081/83/370
f 1080/83/369 1078/83/367 1082/83/369
f 1083/83/371 1079/83/368 1081/83/370
f 1084/83/372 1080/83/369 1082/83/369
f 1079/83/368 1083/83/371 1085/83/371
f 1080/83/369 1084/83/372 1086/83/373
f 1083/83/371 1087/83/374 1085/83/371
f 1084/83/372 1087/83/374 1086/83/373
f 1087/83/374 1083/83/371 1088/83/375
f 1087/83/374 1088/83/375 1086/83/373
f 1089/83/376 1090/83/377 1091/83/378
f 1092/83/379 1089/83/376 1091/83/378
f 1092/83/379 1093/83/380 1089/83/376
f 1093/83/380 1090/83/377 1089/83/376
f 1091/83/378 1090/83/377 1094/83/381
f 1095/83/382 1090/83/377 1093/83/380
f 1094/83/381 1090/83/377 1096/83/383
f 1097/83/384 1090/83/377 1095/83/382
f 1096/83/383 1090/83/377 1098/83/385
f 1098/83/385 1090/83/377 1097/83/384
f 1099/83/386 1096/83/383 1098/83/385
f 1097/83/384 1099/83/386 1098/83/385
f 1100/83/387 1101/83/388 1102/83/389
f 1103/83/390 1101/83/388 1100/83/387
f 1103/83/390 1100/83/387 1104/83/391
f 1104/83/391 1100/83/387 1102/83/389
f 1101/83/388 1105/83/392 1102/83/389
f 1106/83/393 1104/83/391 1102/83/389
f 1105/83/392 1107/83/394 1102/83/389
f 1108/83/395 1106/83/393 1102/83/389
f 1107/83/394 1109/83/396 1102/83/389
f 1109/83/396 1108/83/395 1102/83/389
f 1110/83/397 1109/83/396 1107/83/394
f 1108/83/395 1109/83/396 1110/83/397
f 1111/83/340 1112/83/340 1113/83/340
f 1112/83/340 1111/83/340 1114/83/340
f 1113/83/340 1112/83/340 1115/83/340
f 1116/83/340 1115/83/340 1112/83/340
f 1117/83/310 1118/83/310 1119/83/310
f 1118/83/310 1117/83/310 1120/83/310
f 1120/83/310 1121/83/310 1118/83/310
f 1120/83/310 1122/83/310 1121/83/310
f 1121/83/310 1122/83/310 1123/83/310
f 1123/83/310 1124/83/310 1121/83/310
f 1123/83/310 1125/83/310 1124/83/310
f 1126/83/310 1124/83/310 1125/83/310
f 1124/83/310 1126/83/310 1127/83/310
f 1128/83/304 1129/83/304 1130/83/304
f 1129/83/304 1128/83/304 1131/83/304
f 1132/83/304 1130/83/304 1129/83/304
f 1130/83/304 1132/83/304 1133/83/304
f 1133/83/304 1132/83/304 1134/83/304
f 1132/83/304 1135/83/304 1134/83/304
f 1136/83/304 1134/83/304 1135/83/304
f 1135/83/304 1137/83/304 1136/83/304
f 1137/83/304 1135/83/304 1138/83/304
f 1139/83/398 1140/83/398 1141/83/399
f 1139/83/398 1141/83/399 1142/83/399
f 1143/83/400 1140/83/398 1139/83/398
f 1143/83/400 1144/83/401 1140/83/398
f 1145/83/310 1146/83/310 1147/83/310
f 1145/83/310 1147/83/310 1148/83/310
f 1149/83/402 1150/83/308 1151/83/403
f 1150/83/308 1149/83/402 1152/83/308
f 1151/83/403 1153/83/309 1149/83/402
f 1152/83/308 1154/83/404 1150/83/308
f 1153/83/309 1151/83/403 1155/83/309
f 1154/83/404 1152/83/308 1156/83/405
f 1155/83/309 1157/83/406 1153/83/309
f 1154/83/404 1156/83/405 1158/83/302
f 1157/83/406 1155/83/309 1159/83/406
f 1160/83/302 1158/83/302 1156/83/405
f 1159/83/406 1161/83/304 1157/83/406
f 1158/83/302 1160/83/302 1162/83/407
f 1161/83/304 1159/83/406 1163/83/304
f 1164/83/408 1162/83/407 1160/83/302
f 1163/83/304 1164/83/408 1161/83/304
f 1164/83/408 1163/83/304 1162/83/407
f 1165/83/304 1166/83/409 1167/83/410
f 1165/83/304 1167/83/410 1168/83/306
f 1169/83/411 1166/83/409 1165/83/304
f 1168/83/306 1167/83/410 1170/83/309
f 1168/83/306 1170/83/309 1171/83/309
f 1171/83/309 1170/83/309 1172/83/412
f 1171/83/309 1172/83/412 1173/83/312
f 1172/83/412 1174/83/308 1173/83/312
f 1174/83/308 1172/83/412 1175/83/413
f 1175/83/413 1176/83/305 1174/83/308
f 1172/83/412 1177/83/412 1175/83/413
f 1176/83/305 1175/83/413 1178/83/305
f 1175/83/413 1177/83/412 1179/83/414
f 1180/83/415 1176/83/305 1178/83/305
f 1180/83/415 1181/83/302 1176/83/305
f 1177/83/412 1182/83/308 1179/83/414
f 1179/83/414 1182/83/308 1183/83/416
f 1177/83/412 1184/83/417 1182/83/308
f 1179/83/414 1183/83/416 1185/83/416
f 1186/83/309 1184/83/417 1177/83/412
f 1187/83/302 1185/83/416 1183/83/416
f 1186/83/309 1188/83/309 1184/83/417
f 1187/83/302 1189/83/415 1185/83/416
f 1190/83/410 1188/83/309 1186/83/309
f 1188/83/309 1190/83/410 1191/83/418
f 1187/83/302 1192/83/419 1189/83/415
f 1192/83/419 1180/83/415 1189/83/415
f 1192/83/419 1187/83/302 1193/83/303
f 1194/83/409 1191/83/418 1190/83/410
f 1167/83/410 1194/83/409 1190/83/410
f 1194/83/409 1195/83/304 1191/83/418
f 1195/83/304 1192/83/419 1193/83/303
f 1192/83/419 1195/83/304 1194/83/409
f 1194/83/409 1167/83/410 1166/83/409
f 1166/83/409 1192/83/419 1194/83/409
f 1180/83/415 1192/83/419 1196/83/303
f 1192/83/419 1166/83/409 1196/83/303
f 1181/83/302 1180/83/415 1196/83/303
f 1169/83/411 1196/83/303 1166/83/409
f 1196/83/303 1169/83/411 1181/83/302
f 1197/83/420 1198/83/421 1199/83/421
f 1198/83/421 1197/83/420 1200/83/420
f 1199/83/421 1201/83/420 1197/83/420
f 1202/83/422 1203/83/423 1204/83/424
f 1204/83/424 1205/83/425 1202/83/422
f 1204/83/424 1203/83/423 1206/83/426
f 1205/83/425 1204/83/424 1207/83/427
f 1203/83/423 1208/83/428 1206/83/426
f 1209/83/429 1205/83/425 1207/83/427
f 1208/83/428 1203/83/423 1210/83/430
f 1211/83/431 1205/83/425 1209/83/429
f 1210/83/430 1212/83/432 1208/83/428
f 1209/83/429 1213/83/433 1211/83/431
f 1212/83/432 1210/83/430 1214/83/432
f 1213/83/433 1209/83/429 1215/83/434
f 1212/83/432 1214/83/432 1216/83/435
f 1217/83/436 1213/83/433 1215/83/434
f 1217/83/436 1212/83/432 1216/83/435
f 1216/83/435 1213/83/433 1217/83/436
f 1218/83/437 1219/83/438 1220/83/437
f 1219/83/438 1218/83/437 1221/83/438
f 1220/83/437 1222/83/439 1218/83/437
f 1221/83/438 1223/83/440 1219/83/438
f 1222/83/439 1220/83/437 1224/83/439
f 1223/83/440 1221/83/438 1225/83/440
f 1224/83/439 1226/83/441 1222/83/439
f 1223/83/440 1225/83/440 1227/83/442
f 1226/83/441 1224/83/439 1228/83/441
f 1229/83/443 1223/83/440 1227/83/442
f 1230/83/444 1226/83/441 1228/83/441
f 1227/83/442 1231/83/445 1229/83/443
f 1232/83/444 1226/83/441 1230/83/444
f 1229/83/443 1231/83/445 1233/83/445
f 1232/83/444 1233/83/445 1231/83/445
f 1230/83/444 1233/83/445 1232/83/444
f 1234/83/361 1235/83/361 1236/83/361
f 1235/83/361 1234/83/361 1237/83/361
f 1234/83/361 1238/83/361 1237/83/361
f 1238/83/361 1234/83/361 1239/83/361
f 1240/83/446 1241/83/447 1242/83/446
f 1240/83/446 1242/83/446 1243/83/448
f 1243/83/448 1244/83/448 1240/83/446
f 1241/83/447 1245/83/449 1242/83/446
f 1241/83/447 1246/83/450 1245/83/449
f 1241/83/447 1247/83/451 1246/83/450
f 1248/83/452 1246/83/450 1247/83/451
f 1246/83/450 1248/83/452 1249/83/452
f 1250/83/453 1251/83/454 1252/83/454
f 1251/83/454 1253/83/455 1252/83/454
f 1251/83/454 1250/83/453 1254/83/456
f 1251/83/454 1255/83/455 1253/83/455
f 1256/83/457 1254/83/456 1250/83/453
f 1257/83/458 1253/83/455 1255/83/455
f 1254/83/456 1256/83/457 1258/83/457
f 1255/83/455 1259/83/459 1257/83/458
f 1260/83/460 1258/83/457 1256/83/457
f 1259/83/459 1261/83/461 1257/83/458
f 1258/83/457 1260/83/460 1262/83/462
f 1261/83/461 1259/83/459 1263/83/463
f 1264/83/464 1262/83/462 1260/83/460
f 1263/83/463 1264/83/464 1261/83/461
f 1262/83/462 1264/83/464 1265/83/464
f 1263/83/463 1265/83/464 1264/83/464
f 1266/83/310 1267/83/465 1268/83/310
f 1267/83/465 1266/83/310 1269/83/404
f 1268/83/310 1270/83/403 1266/83/310
f 1267/83/465 1269/83/404 1271/83/302
f 1270/83/403 1268/83/310 1272/83/466
f 1273/83/302 1271/83/302 1269/83/404
f 1272/83/466 1274/83/309 1270/83/403
f 1275/83/407 1271/83/302 1273/83/302
f 1274/83/309 1272/83/466 1276/83/309
f 1271/83/302 1275/83/407 1277/83/407
f 1276/83/309 1278/83/467 1274/83/309
f 1275/83/407 1279/83/304 1277/83/407
f 1278/83/467 1276/83/309 1280/83/406
f 1279/83/304 1275/83/407 1281/83/304
f 1280/83/406 1281/83/304 1278/83/467
f 1281/83/304 1280/83/406 1279/83/304
f 1282/83/310 1283/83/318 1284/83/310
f 1283/83/318 1282/83/310 1285/83/468
f 1284/83/310 1286/83/315 1282/83/310
f 1287/83/326 1283/83/318 1285/83/468
f 1286/83/315 1284/83/310 1288/83/314
f 1287/83/326 1289/83/321 1283/83/318
f 1290/83/469 1286/83/315 1288/83/314
f 1287/83/326 1291/83/470 1289/83/321
f 1290/83/469 1292/83/316 1286/83/315
f 1291/83/470 1287/83/326 1293/83/471
f 1290/83/469 1294/83/317 1292/83/316
f 1295/83/304 1291/83/470 1293/83/471
f 1294/83/317 1290/83/469 1296/83/319
f 1291/83/470 1295/83/304 1297/83/304
f 1294/83/317 1297/83/304 1295/83/304
f 1297/83/304 1294/83/317 1296/83/319
