# Blender 5.1.1
# www.blender.org
mtllib otherbody7.mtl
o default_83171717903112
v -1.398298 -0.447156 -0.082338
v -1.398298 -0.447156 -0.003114
v -1.398299 -0.317337 -0.003114
v -1.398299 -0.317337 -0.082338
v -1.398299 -0.047156 -0.003114
v -1.398299 -0.047156 -0.082338
v -1.398298 -0.447156 0.076110
v -1.398299 -0.317337 -0.003114
v -1.398298 -0.447156 -0.003114
v -1.398299 -0.317337 0.076110
v -1.398299 -0.047156 -0.003114
v -1.398299 -0.047156 0.076110
v 1.012169 -0.014712 0.184386
v 1.012169 -0.014712 -0.190614
v 0.872812 0.333244 0.184386
v 1.033117 -0.064968 -0.140614
v 1.033117 -0.064968 0.134386
v 0.872812 0.333244 -0.190614
v 0.851978 0.383243 -0.140614
v 0.851978 0.383243 0.134386
v 0.870691 0.280247 0.079784
v 0.899901 0.280247 -0.003114
v 0.815765 0.395196 0.079784
v 0.833613 0.418725 -0.003114
v 0.815765 0.395196 -0.086012
v 0.870691 0.280247 -0.086012
v -1.000386 0.236567 -0.003114
v -0.922765 0.353535 -0.138114
v -1.000400 0.236576 -0.138114
v -0.909648 0.373208 -0.003114
v -1.000386 0.236567 -0.003114
v -1.000400 0.236576 0.131886
v -0.922765 0.353535 0.131886
v -0.909648 0.373208 -0.003114
v 0.736816 -0.070166 0.184386
v 0.736816 -0.070166 -0.190614
v 0.572812 0.333244 0.184386
v 0.757763 -0.120423 0.134386
v 0.757763 -0.120423 -0.140614
v 0.572812 0.333244 -0.190614
v 0.551978 0.383243 -0.140614
v 0.551978 0.383243 0.134386
v 0.316797 -0.457156 -0.003114
v 0.165955 -0.563811 -0.118415
v 0.316797 -0.457156 -0.118415
v 0.165955 -0.563811 -0.003114
v 0.316797 -0.457156 -0.003114
v 0.165955 -0.563811 0.112187
v 0.165955 -0.563811 -0.003114
v 0.316797 -0.457156 0.112187
v -0.233182 -0.563811 -0.118415
v 0.165955 -0.563811 -0.118415
v 0.165955 -0.563811 -0.003114
v -0.233182 -0.563811 -0.003114
v 0.165955 -0.563811 0.112187
v -0.233182 -0.563811 0.112187
v 0.165955 -0.563811 -0.003114
v -0.233182 -0.563811 -0.003114
v 0.443182 0.280247 0.079784
v 0.472392 0.280247 -0.003114
v 0.388256 0.395196 0.079784
v 0.406104 0.418725 -0.003114
v 0.388256 0.395196 -0.086012
v 0.443182 0.280247 -0.086012
v 0.423715 -0.142156 -0.003114
v 0.316797 -0.457156 -0.003114
v 0.316797 -0.457156 -0.118415
v 0.423715 -0.142156 -0.118415
v 0.316797 -0.457156 -0.003114
v 0.423715 -0.142156 -0.003114
v 0.316797 -0.457156 0.112187
v 0.423715 -0.142156 0.112187
v -0.918439 0.155949 -0.003114
v -0.918439 0.155949 0.131886
v -1.000386 0.236567 -0.003114
v -1.000400 0.236576 0.131886
v -0.632790 0.365694 -0.003114
v -0.566428 0.385914 -0.096576
v -0.632790 0.352195 -0.100952
v -0.566428 0.400890 -0.003114
v -0.566428 0.385914 0.090348
v -0.538450 0.400890 -0.003114
v -0.538450 0.385914 0.090348
v -0.632790 0.352195 0.094724
v -0.566428 0.385914 0.090348
v -0.632790 0.365694 -0.003114
v -0.566428 0.400890 -0.003114
v -0.566428 0.385914 -0.096576
v -0.538450 0.400890 -0.003114
v -0.538450 0.385914 -0.096576
v 0.461463 -0.125621 0.184386
v 0.461463 -0.125621 -0.190614
v 0.272811 0.333244 0.184386
v 0.482410 -0.175878 -0.140614
v 0.482410 -0.175878 0.134386
v 0.272811 0.333244 -0.190614
v 0.251978 0.383243 -0.140614
v 0.251978 0.383243 0.134386
v 0.406104 0.418725 -0.003114
v 0.119296 0.395196 -0.086012
v 0.090085 0.418725 -0.003114
v 0.388256 0.395196 -0.086012
v 0.119296 0.395196 0.079784
v 0.388256 0.395196 0.079784
v 0.833613 0.418725 -0.003114
v 0.477514 0.395196 -0.086012
v 0.448303 0.418725 -0.003114
v 0.815765 0.395196 -0.086012
v 0.477514 0.395196 0.079784
v 0.815765 0.395196 0.079784
v 0.461463 -0.125621 0.184386
v 0.348238 -0.202899 0.134386
v 0.482410 -0.175878 0.134386
v 0.327291 -0.152642 0.184386
v 0.348238 -0.202899 -0.140614
v 0.482410 -0.175878 -0.140614
v 0.461463 -0.125621 -0.190614
v 0.327291 -0.152642 -0.190614
v 0.736816 -0.070166 0.184386
v 0.623592 -0.147444 0.134386
v 0.757763 -0.120423 0.134386
v 0.602645 -0.097188 0.184386
v 0.623592 -0.147444 -0.140614
v 0.757763 -0.120423 -0.140614
v 0.736816 -0.070166 -0.190614
v 0.602645 -0.097188 -0.190614
v 1.012169 -0.014712 0.184386
v 0.898945 -0.091990 0.134386
v 1.033117 -0.064968 0.134386
v 0.877998 -0.041733 0.184386
v 0.898945 -0.091990 -0.140614
v 1.033117 -0.064968 -0.140614
v 1.012169 -0.014712 -0.190614
v 0.877998 -0.041733 -0.190614
v 0.126630 0.333244 0.184386
v 0.272811 0.333244 0.184386
v 0.251978 0.383243 0.134386
v 0.105797 0.383243 0.134386
v 0.126630 0.333244 -0.190614
v 0.251978 0.383243 -0.140614
v 0.272811 0.333244 -0.190614
v 0.105797 0.383243 -0.140614
v 0.426631 0.333244 0.184386
v 0.572812 0.333244 0.184386
v 0.551978 0.383243 0.134386
v 0.405797 0.383243 0.134386
v 0.426631 0.333244 -0.190614
v 0.551978 0.383243 -0.140614
v 0.572812 0.333244 -0.190614
v 0.405797 0.383243 -0.140614
v 0.726631 0.333244 0.184386
v 0.872812 0.333244 0.184386
v 0.851978 0.383243 0.134386
v 0.705797 0.383243 0.134386
v 0.726631 0.333244 -0.190614
v 0.851978 0.383243 -0.140614
v 0.872812 0.333244 -0.190614
v 0.705797 0.383243 -0.140614
v 0.251978 0.383243 0.134386
v 0.251978 0.383243 -0.140614
v 0.105797 0.383243 0.134386
v 0.105797 0.383243 -0.140614
v 0.551978 0.383243 0.134386
v 0.551978 0.383243 -0.140614
v 0.405797 0.383243 0.134386
v 0.405797 0.383243 -0.140614
v 0.851978 0.383243 -0.140614
v 0.705797 0.383243 0.134386
v 0.851978 0.383243 0.134386
v 0.705797 0.383243 -0.140614
v -0.253516 0.353535 -0.138114
v -0.909648 0.373208 -0.003114
v -0.166825 0.373208 -0.003114
v -0.922765 0.353535 -0.138114
v -0.253516 0.353535 0.131886
v -0.909648 0.373208 -0.003114
v -0.922765 0.353535 0.131886
v -0.166825 0.373208 -0.003114
v -0.202458 0.307844 -0.138114
v -0.121123 0.329734 -0.003114
v -0.113281 0.307844 -0.138114
v 0.063931 0.329734 -0.003114
v 0.073830 0.307844 -0.138114
v -0.123180 0.329734 -0.003114
v -0.113281 0.307844 0.131886
v -0.123180 0.329734 -0.003114
v -0.202458 0.307844 0.131886
v 0.073830 0.307844 0.131886
v 0.063931 0.329734 -0.003114
v -0.113281 0.307844 0.131886
v -0.123180 0.329734 -0.003114
v 0.142760 0.155949 -0.003114
v 0.073830 0.307844 -0.138114
v 0.063931 0.329734 -0.003114
v 0.142760 0.155949 -0.138114
v 0.142760 0.155949 -0.003114
v 0.073830 0.307844 0.131886
v 0.142760 0.155949 0.131886
v 0.063931 0.329734 -0.003114
v 0.205751 -0.072975 -0.138114
v 0.205751 -0.072975 -0.003114
v 0.236168 -0.142156 -0.138114
v 0.236168 -0.142156 -0.003114
v 0.236168 -0.142156 0.131886
v 0.236168 -0.142156 -0.003114
v 0.205751 -0.072975 -0.003114
v 0.205751 -0.072975 0.131886
v -0.002458 -0.142156 -0.138114
v 0.125028 -0.142156 -0.138114
v 0.125028 -0.142156 -0.003114
v -0.002458 -0.142156 -0.003114
v 0.236168 -0.142156 -0.138114
v 0.236168 -0.142156 -0.003114
v -0.002458 -0.142156 -0.003114
v 0.125028 -0.142156 -0.003114
v -0.002458 -0.142156 0.131886
v 0.125028 -0.142156 0.131886
v 0.236168 -0.142156 -0.003114
v 0.236168 -0.142156 0.131886
v 0.125028 -0.142156 -0.003114
v 0.125028 -0.142156 0.131886
v 0.272811 0.333244 -0.190614
v 0.461463 -0.125621 -0.190614
v 0.327291 -0.152642 -0.190614
v 0.126630 0.333244 -0.190614
v 0.572812 0.333244 -0.190614
v 0.736816 -0.070166 -0.190614
v 0.602645 -0.097188 -0.190614
v 0.426631 0.333244 -0.190614
v 0.872812 0.333244 -0.190614
v 1.012169 -0.014712 -0.190614
v 0.877998 -0.041733 -0.190614
v 0.726631 0.333244 -0.190614
v 0.272811 0.333244 0.184386
v 0.327291 -0.152642 0.184386
v 0.461463 -0.125621 0.184386
v 0.126630 0.333244 0.184386
v 0.572812 0.333244 0.184386
v 0.602645 -0.097188 0.184386
v 0.736816 -0.070166 0.184386
v 0.426631 0.333244 0.184386
v 0.872812 0.333244 0.184386
v 0.877998 -0.041733 0.184386
v 1.012169 -0.014712 0.184386
v 0.726631 0.333244 0.184386
v -0.121123 0.329734 -0.003114
v -0.202458 0.307844 -0.138114
v -0.166825 0.373208 -0.003114
v -0.253516 0.353535 -0.138114
v -0.121123 0.329734 -0.003114
v -0.166825 0.373208 -0.003114
v -0.202458 0.307844 0.131886
v -0.253516 0.353535 0.131886
v -0.113281 0.307844 -0.138114
v -0.006042 0.155949 -0.138114
v -0.134949 0.155949 -0.138114
v -0.202458 0.307844 -0.138114
v -0.006042 0.155949 -0.138114
v 0.094611 -0.072975 -0.138114
v -0.033205 -0.072975 -0.138114
v -0.134949 0.155949 -0.138114
v -0.002458 -0.142156 -0.138114
v -0.033205 -0.072975 -0.138114
v 0.125028 -0.142156 -0.138114
v -0.165700 0.155949 -0.138114
v -0.202458 0.307844 -0.138114
v -0.134949 0.155949 -0.138114
v -0.253516 0.353535 -0.138114
v -0.365364 0.155949 -0.138114
v -0.794292 0.155949 -0.138114
v -0.922765 0.353535 -0.138114
v -0.759857 0.120950 -0.138114
v -0.390609 0.120950 -0.138114
v -0.918439 0.155949 -0.138114
v -1.000400 0.236576 -0.138114
v 0.073830 0.307844 -0.138114
v 0.142760 0.155949 -0.138114
v -0.006042 0.155949 -0.138114
v -0.113281 0.307844 -0.138114
v 0.236168 -0.142156 -0.138114
v 0.125028 -0.142156 -0.138114
v 0.205751 -0.072975 -0.138114
v 0.094611 -0.072975 -0.138114
v -0.006042 0.155949 0.131886
v -0.113281 0.307844 0.131886
v -0.134949 0.155949 0.131886
v -0.202458 0.307844 0.131886
v 0.094611 -0.072975 0.131886
v -0.006042 0.155949 0.131886
v -0.033205 -0.072975 0.131886
v -0.134949 0.155949 0.131886
v -0.002458 -0.142156 0.131886
v -0.033205 -0.072975 0.131886
v 0.125028 -0.142156 0.131886
v -0.253516 0.353535 0.131886
v -0.165700 0.155949 0.131886
v -0.202458 0.307844 0.131886
v -0.134949 0.155949 0.131886
v -0.365364 0.155949 0.131886
v -0.794292 0.155949 0.131886
v -0.922765 0.353535 0.131886
v -0.759857 0.120950 0.131886
v -0.390609 0.120950 0.131886
v -0.918439 0.155949 0.131886
v -1.000400 0.236576 0.131886
v 0.142760 0.155949 0.131886
v 0.073830 0.307844 0.131886
v -0.006042 0.155949 0.131886
v -0.113281 0.307844 0.131886
v 0.236168 -0.142156 0.131886
v 0.205751 -0.072975 0.131886
v 0.125028 -0.142156 0.131886
v 0.094611 -0.072975 0.131886
v -0.526380 0.352195 0.094724
v -0.566428 0.385914 0.090348
v -0.632790 0.352195 0.094724
v -0.538450 0.385914 0.090348
v -0.526380 0.352195 -0.100952
v -0.632790 0.352195 -0.100952
v -0.566428 0.385914 -0.096576
v -0.538450 0.385914 -0.096576
v -0.186035 -0.527229 -0.118415
v 0.165955 -0.563811 -0.118415
v -0.233182 -0.563811 -0.118415
v 0.316797 -0.457156 -0.118415
v -0.186035 -0.527229 -0.118415
v 0.078614 -0.433048 -0.118415
v 0.316797 -0.457156 -0.118415
v 0.181254 -0.142156 -0.118415
v 0.316797 -0.457156 -0.118415
v 0.078614 -0.433048 -0.118415
v 0.423715 -0.142156 -0.118415
v -0.186035 -0.527229 0.112187
v 0.165955 -0.563811 0.112187
v 0.316797 -0.457156 0.112187
v -0.233182 -0.563811 0.112187
v -0.186035 -0.527229 0.112187
v 0.316797 -0.457156 0.112187
v 0.078614 -0.433048 0.112187
v 0.316797 -0.457156 0.112187
v 0.181254 -0.142156 0.112187
v 0.078614 -0.433048 0.112187
v 0.423715 -0.142156 0.112187
v 0.094611 -0.072975 -0.003114
v 0.094611 -0.072975 -0.138114
v -0.006042 0.155949 -0.003114
v -0.006042 0.155949 -0.138114
v -0.006042 0.155949 -0.003114
v 0.094611 -0.072975 0.131886
v 0.094611 -0.072975 -0.003114
v -0.006042 0.155949 0.131886
v 0.388256 0.395196 0.079784
v 0.174221 0.280247 0.079784
v 0.443182 0.280247 0.079784
v 0.119296 0.395196 0.079784
v 0.119296 0.395196 -0.086012
v 0.388256 0.395196 -0.086012
v 0.174221 0.280247 -0.086012
v 0.443182 0.280247 -0.086012
v 0.815765 0.395196 0.079784
v 0.532439 0.280247 0.079784
v 0.870691 0.280247 0.079784
v 0.477514 0.395196 0.079784
v 0.477514 0.395196 -0.086012
v 0.815765 0.395196 -0.086012
v 0.532439 0.280247 -0.086012
v 0.870691 0.280247 -0.086012
v -1.298298 -0.447156 -0.082338
v -1.398298 -0.447156 -0.082338
v -1.398299 -0.317337 -0.082338
v -1.200934 -0.317337 -0.082338
v -1.198298 -0.447156 -0.082338
v -1.159467 -0.395381 -0.082338
v -1.398299 -0.047156 -0.082338
v -0.998298 -0.047156 -0.082338
v -1.298298 -0.447156 0.076110
v -1.398299 -0.317337 0.076110
v -1.398298 -0.447156 0.076110
v -1.200934 -0.317337 0.076110
v -1.198298 -0.447156 0.076110
v -1.159467 -0.395381 0.076110
v -1.398299 -0.047156 0.076110
v -0.998298 -0.047156 0.076110
v -0.033205 -0.072975 -0.138114
v -0.033205 -0.072975 -0.003114
v -0.134949 0.155949 -0.138114
v -0.134949 0.155949 -0.003114
v -0.002458 -0.142156 -0.003114
v -0.002458 -0.142156 -0.138114
v -0.033205 -0.072975 0.131886
v -0.134949 0.155949 0.131886
v -0.033205 -0.072975 -0.003114
v -0.134949 0.155949 -0.003114
v -0.002458 -0.142156 -0.003114
v -0.002458 -0.142156 0.131886
v -1.298298 -0.447156 -0.003114
v -1.198298 -0.447156 -0.003114
v -1.200934 -0.317337 -0.003114
v -1.159467 -0.395381 -0.003114
v 0.205751 -0.072975 -0.003114
v 0.125028 -0.142156 -0.003114
v 0.236168 -0.142156 -0.003114
v 0.094611 -0.072975 -0.003114
v -0.165700 0.155949 -0.003114
v -0.165700 0.155949 -0.138114
v -0.134949 0.155949 -0.138114
v -0.134949 0.155949 -0.003114
v -0.365364 0.155949 -0.003114
v -0.365364 0.155949 -0.138114
v -0.390609 0.120950 -0.003114
v -0.390609 0.120950 -0.138114
v -0.759857 0.120950 -0.003114
v -0.759857 0.120950 -0.138114
v -0.794292 0.155949 -0.003114
v -0.794292 0.155949 -0.138114
v -0.918439 0.155949 -0.003114
v -0.918439 0.155949 -0.138114
v -1.000386 0.236567 -0.003114
v -1.000400 0.236576 -0.138114
v -0.134949 0.155949 -0.003114
v -0.134949 0.155949 0.131886
v -0.165700 0.155949 -0.003114
v -0.165700 0.155949 0.131886
v -0.365364 0.155949 -0.003114
v -0.365364 0.155949 0.131886
v -0.390609 0.120950 -0.003114
v -0.390609 0.120950 0.131886
v -0.759857 0.120950 -0.003114
v -0.759857 0.120950 0.131886
v -0.794292 0.155949 -0.003114
v -0.794292 0.155949 0.131886
v -0.918439 0.155949 -0.003114
v -0.918439 0.155949 0.131886
v 0.142760 0.155949 -0.138114
v -0.006042 0.155949 -0.003114
v -0.006042 0.155949 -0.138114
v 0.142760 0.155949 -0.003114
v 0.142760 0.155949 -0.003114
v 0.142760 0.155949 0.131886
v -0.006042 0.155949 -0.003114
v -0.006042 0.155949 0.131886
v 0.205751 -0.072975 -0.003114
v 0.094611 -0.072975 -0.138114
v 0.094611 -0.072975 -0.003114
v 0.205751 -0.072975 -0.138114
v 0.205751 -0.072975 0.131886
v 0.205751 -0.072975 -0.003114
v 0.094611 -0.072975 0.131886
v 0.094611 -0.072975 -0.003114
v 0.181254 -0.142156 -0.003114
v 0.423715 -0.142156 -0.003114
v 0.423715 -0.142156 -0.118415
v 0.181254 -0.142156 -0.118415
v 0.423715 -0.142156 0.112187
v 0.181254 -0.142156 -0.003114
v 0.181254 -0.142156 0.112187
v 0.423715 -0.142156 -0.003114
v 0.327291 -0.152642 -0.190614
v 0.327291 -0.152642 0.184386
v 0.126630 0.333244 -0.190614
v 0.348238 -0.202899 -0.140614
v 0.348238 -0.202899 0.134386
v 0.126630 0.333244 0.184386
v 0.105797 0.383243 0.134386
v 0.105797 0.383243 -0.140614
v -0.526380 0.352195 -0.100952
v -0.632790 0.365694 -0.003114
v -0.632790 0.352195 -0.100952
v -0.526380 0.365694 -0.003114
v -0.632790 0.352195 0.094724
v -0.526380 0.352195 0.094724
v 0.174221 0.280247 -0.086012
v 0.156373 0.280247 -0.003114
v 0.119296 0.395196 -0.086012
v 0.090085 0.418725 -0.003114
v 0.119296 0.395196 0.079784
v 0.174221 0.280247 0.079784
v -0.526380 0.365694 -0.003114
v -0.538450 0.385914 0.090348
v -0.526380 0.352195 0.094724
v -0.538450 0.400890 -0.003114
v -0.526380 0.365694 -0.003114
v -0.526380 0.352195 -0.100952
v -0.538450 0.385914 -0.096576
v -0.538450 0.400890 -0.003114
v -1.159467 -0.395381 -0.003114
v -1.159467 -0.395381 -0.082338
v -1.200934 -0.317337 -0.082338
v -1.198298 -0.447156 -0.003114
v -1.200934 -0.317337 -0.003114
v -0.998298 -0.047156 -0.082338
v -0.998298 -0.047156 -0.003114
v -1.198298 -0.447156 -0.082338
v -1.298298 -0.447156 -0.003114
v -1.298298 -0.447156 -0.082338
v -1.398298 -0.447156 -0.003114
v -1.398298 -0.447156 -0.082338
v -1.159467 -0.395381 -0.003114
v -1.200934 -0.317337 0.076110
v -1.159467 -0.395381 0.076110
v -1.200934 -0.317337 -0.003114
v -0.998298 -0.047156 0.076110
v -0.998298 -0.047156 -0.003114
v -1.198298 -0.447156 -0.003114
v -1.198298 -0.447156 0.076110
v -1.298298 -0.447156 -0.003114
v -1.298298 -0.447156 0.076110
v -1.398298 -0.447156 -0.003114
v -1.398298 -0.447156 0.076110
v 0.602645 -0.097188 -0.190614
v 0.602645 -0.097188 0.184386
v 0.426631 0.333244 -0.190614
v 0.623592 -0.147444 -0.140614
v 0.623592 -0.147444 0.134386
v 0.426631 0.333244 0.184386
v 0.405797 0.383243 0.134386
v 0.405797 0.383243 -0.140614
v 0.532439 0.280247 -0.086012
v 0.514591 0.280247 -0.003114
v 0.477514 0.395196 -0.086012
v 0.448303 0.418725 -0.003114
v 0.477514 0.395196 0.079784
v 0.532439 0.280247 0.079784
v 0.877998 -0.041733 -0.190614
v 0.877998 -0.041733 0.184386
v 0.726631 0.333244 -0.190614
v 0.898945 -0.091990 0.134386
v 0.898945 -0.091990 -0.140614
v 0.726631 0.333244 0.184386
v 0.705797 0.383243 0.134386
v 0.705797 0.383243 -0.140614
vn -1.0000 0.0005 -0.0005
vn 0.9272 0.3745 -0.0005
vn 0.8601 0.4108 0.3024
vn 0.9022 0.4313 -0.0003
vn 0.8600 0.4111 0.3023
vn 0.9021 0.4315 -0.0003
vn 0.8600 0.4111 -0.3023
vn 0.8601 0.4108 -0.3024
vn -0.8329 0.5534 -0.0004
vn -0.8329 0.5535 0.0005
vn -0.8329 0.5534 0.0004
vn -0.8329 0.5535 -0.0005
vn -0.8329 0.5533 -0.0004
vn -0.8329 0.5534 -0.0005
vn 0.9259 0.3777 -0.0005
vn 0.8013 -0.5982 -0.0005
vn 0.3034 -0.9529 -0.0005
vn 0.0005 -1.0000 -0.0005
vn 0.3032 -0.9529 -0.0005
vn 0.8601 0.4108 0.3025
vn 0.9022 0.4314 -0.0000
vn 0.8602 0.4108 0.3023
vn 0.8601 0.4109 -0.3023
vn 0.9471 -0.3209 -0.0005
vn 0.8014 -0.5982 -0.0005
vn -0.3786 -0.9256 -0.0005
vn -0.7012 -0.7129 -0.0005
vn -0.4575 0.8892 -0.0005
vn -0.2487 0.9572 -0.1480
vn -0.4537 0.8814 -0.1314
vn -0.2478 0.9688 -0.0005
vn -0.2486 0.9572 0.1480
vn 0.7870 0.6169 -0.0004
vn -0.2477 0.9688 -0.0005
vn 0.8076 0.5828 0.0904
vn -0.4537 0.8814 0.1314
vn -0.2487 0.9572 0.1481
vn -0.2486 0.9572 -0.1480
vn -0.2476 0.9689 -0.0005
vn 0.7870 0.6169 -0.0005
vn 0.8076 0.5828 -0.0904
vn 0.9248 0.3805 -0.0005
vn 0.9247 0.3806 -0.0005
vn 0.9248 0.3806 -0.0005
vn 0.0005 1.0000 -0.0005
vn 0.0005 0.7433 -0.6690
vn 0.0005 0.5640 -0.8258
vn 0.0005 0.7433 0.6690
vn 0.0004 0.5640 0.8258
vn 0.0807 -0.3993 0.9133
vn 0.1796 -0.8918 0.4152
vn 0.1827 -0.9073 0.3786
vn 0.0650 -0.3220 0.9445
vn 0.1794 -0.8920 -0.4150
vn 0.1827 -0.9073 -0.3786
vn 0.0806 -0.3993 -0.9133
vn 0.0650 -0.3220 -0.9445
vn 0.0806 -0.3981 0.9138
vn 0.1793 -0.8920 0.4149
vn 0.1831 -0.9073 0.3786
vn 0.1832 -0.9072 -0.3786
vn 0.0806 -0.3981 -0.9138
vn 0.0796 -0.3981 0.9139
vn 0.0650 -0.3229 0.9442
vn 0.1793 -0.8920 -0.4149
vn 0.1831 -0.9073 -0.3786
vn 0.0796 -0.3981 -0.9139
vn 0.0650 -0.3229 -0.9442
vn 0.0005 0.4665 0.8845
vn 0.0005 0.3015 0.9535
vn 0.0005 0.9100 0.4147
vn 0.0005 0.9389 0.3442
vn 0.0005 0.4665 -0.8845
vn 0.0005 0.9100 -0.4147
vn 0.0005 0.3015 -0.9535
vn 0.0005 0.9389 -0.3442
vn 0.0005 0.4657 0.8849
vn 0.0005 0.3024 0.9532
vn 0.0005 0.4657 -0.8849
vn 0.0005 0.3024 -0.9532
vn 0.0005 0.4646 0.8855
vn 0.0005 0.4646 -0.8855
vn 0.0003 0.9896 -0.1442
vn 0.0003 0.9896 0.1442
vn 0.0005 1.0000 -0.0004
vn 0.0003 0.9871 -0.1599
vn 0.0005 0.9872 -0.1597
vn 0.0003 0.9871 0.1599
vn 0.0005 0.9872 0.1597
vn 0.9109 0.4127 -0.0005
vn 0.9107 0.4131 -0.0002
vn 0.9108 0.4128 -0.0004
vn 0.9109 0.4126 -0.0006
vn 0.9109 0.4127 0.0005
vn 0.9108 0.4128 0.0004
vn 0.9155 0.4024 -0.0003
vn 0.9154 0.4025 -0.0000
vn 0.0806 -0.3992 -0.9133
vn 0.0650 -0.3219 -0.9445
vn 0.0806 -0.3980 -0.9138
vn 0.0649 -0.3228 -0.9442
vn 0.0005 0.4645 -0.8856
vn 0.0806 -0.3992 0.9133
vn 0.0806 -0.3980 0.9138
vn 0.0649 -0.3228 0.9442
vn 0.0004 0.4645 0.8856
vn 0.6893 0.7245 -0.0005
vn 0.5917 0.6532 -0.4725
vn 0.6843 0.7292 -0.0005
vn 0.5877 0.6562 -0.4733
vn 0.5917 0.6532 0.4725
vn 0.5877 0.6562 0.4733
vn 0.0005 0.0005 -1.0000
vn 0.0005 0.0005 1.0000
vn 0.0005 0.1286 0.9917
vn 0.0003 0.1286 0.9917
vn 0.0003 0.1286 -0.9917
vn 0.0005 0.1286 -0.9917
vn 0.9155 0.4023 -0.0004
vn 0.9155 0.4023 -0.0005
vn 0.0005 0.5640 0.8257
vn 0.0004 0.7433 0.6690
vn 0.0005 0.5640 -0.8257
vn 0.0004 0.0004 -1.0000
vn 0.0004 0.0004 1.0000
vn -0.9139 -0.4059 -0.0004
vn -0.9139 -0.4059 -0.0005
vn -0.9139 -0.4059 -0.0006
vn 0.4556 -0.8902 -0.0003
vn 0.4555 -0.8902 -0.0000
vn 0.4556 -0.8902 -0.0005
vn -0.3863 -0.9224 -0.0005
vn -0.3864 -0.9223 -0.0000
vn -0.3785 -0.9256 -0.0005
vn -0.7012 -0.7129 -0.0004
vn -0.9239 -0.3826 -0.0004
vn -0.9239 -0.3825 -0.0006
vn -0.9239 -0.3826 -0.0005
vn -0.9239 -0.3825 -0.0005
vn -0.0000 -0.9906 0.1367
vn 0.0004 -0.9907 0.1364
vn 0.0004 -0.9907 -0.1364
vn -0.0000 -0.9906 -0.1367
vn -0.8855 -0.4235 -0.1910
vn -0.9022 -0.4313 -0.0005
vn -0.8855 -0.4235 -0.1911
vn -0.9022 -0.4314 -0.0004
vn -0.8856 -0.4235 0.1909
vn -0.8855 -0.4235 0.1910
vn 0.9427 0.3338 -0.0005
vn 0.9417 0.3328 0.0494
vn 0.7870 0.6170 -0.0005
vn 0.9417 0.3328 -0.0494
vn 0.9970 -0.0776 -0.0004
vn 0.9970 -0.0777 -0.0006
vn 0.4471 -0.8945 -0.0003
vn 0.9970 -0.0777 -0.0005
vn 0.7997 -0.6004 -0.0005
vn 0.7998 -0.6003 -0.0003
vn 0.4472 -0.8944 -0.0000
vn -0.9251 -0.3797 -0.0005
vn -0.9022 -0.4313 -0.0006
vn -0.8856 -0.4235 -0.1909
vn -0.9021 -0.4315 -0.0003
vn -0.9264 -0.3766 -0.0005
vn -0.9264 -0.3765 -0.0005
vt 0.500000 0.750000
vt 0.500000 0.625000
vt 0.385804 0.250000
vt 0.385420 0.000000
vt 0.614781 0.250000
vt 0.364642 0.033333
vt 0.364947 0.216667
vt 0.614749 0.000000
vt 0.635583 0.033333
vt 0.635583 0.233333
vt 0.375000 0.250000
vt 0.375000 0.125000
vt 0.625000 0.250000
vt 0.625000 0.125000
vt 0.625000 0.000000
vt 0.375000 0.000000
vt 0.540891 0.625000
vt 0.625000 0.750000
vt 0.543866 0.750000
vt 0.625000 0.625000
vt 0.437500 0.125000
vt 0.437500 0.000000
vt 0.373223 0.750000
vt 0.290482 0.750000
vt 0.290482 0.625000
vt 0.373223 0.625000
vt 0.565344 0.125000
vt 0.452796 0.125000
vt 0.450962 0.001453
vt 0.564709 0.000503
vt 0.623569 0.707695
vt 0.500000 0.702633
vt 0.376431 0.707695
vt 0.500000 0.047367
vt 0.376431 0.042305
vt 0.375000 0.750000
vt 0.875000 0.696988
vt 0.875000 0.625000
vt 0.875000 0.750000
vt 0.625000 0.500000
vt 0.875000 0.500000
vt 0.142821 0.500000
vt 0.357192 0.533333
vt 0.107192 0.533333
vt 0.369989 0.500000
vt 0.357192 0.716667
vt 0.107192 0.716667
vt 0.142821 0.750000
vt 0.369989 0.750000
vt 0.587704 0.500000
vt 0.606901 0.522222
vt 0.587704 0.750000
vt 0.635583 1.000000
vt 0.614824 1.000000
vt 0.606901 0.727778
vt 0.856901 0.533333
vt 0.856901 0.716667
vt 0.538837 0.125000
vt 0.538837 0.000000
vt 0.413021 0.000000
vt 0.413021 0.125000
vt 0.125000 0.750000
vt 0.125000 0.625000
vt 0.375000 0.625000
vt 0.386317 1.000000
vt 0.625000 1.000000
vt 0.538837 1.000000
vt 0.413021 1.000000
vt 0.404009 0.750000
vt 0.375000 1.000000
vt 0.125000 0.696988
vt 0.416315 0.751777
vt 0.375000 0.834518
vt 0.375000 0.751777
vt 0.423377 0.834518
vt 0.459507 0.893733
vt 0.626777 0.750000
vt 0.375000 0.500000
vt 0.404009 0.625000
vt 0.000000 0.000000
vt 0.626777 0.625000
vt 0.709518 0.625000
vt 0.709518 0.750000
vt 0.500000 1.000000
vt 0.500000 0.000000
vt 0.623569 0.042305
s 1
f 1/1/1 2/2/1 3/2/1
f 1/1/1 3/2/1 4/1/1
f 3/2/1 5/2/1 4/1/1
f 4/1/1 5/2/1 6/1/1
f 7/1/1 8/2/1 9/2/1
f 8/2/1 7/1/1 10/1/1
f 10/1/1 11/2/1 8/2/1
f 11/2/1 10/1/1 12/1/1
f 13/3/2 14/4/2 15/5/2
f 14/4/2 13/3/2 16/6/2
f 16/6/2 13/3/2 17/7/2
f 15/5/2 14/4/2 18/8/2
f 15/5/2 18/8/2 19/9/2
f 15/5/2 19/9/2 20/10/2
f 21/11/3 22/12/4 23/13/5
f 22/12/4 24/14/6 23/13/5
f 22/12/4 25/15/7 24/14/6
f 25/15/7 22/12/4 26/16/8
f 27/17/9 28/18/10 29/19/11
f 28/18/10 27/17/9 30/20/12
f 31/17/13 32/19/9 33/18/12
f 31/17/13 33/18/12 34/20/14
f 35/3/15 36/4/15 37/5/15
f 38/7/15 36/4/15 35/3/15
f 36/4/15 38/7/15 39/6/15
f 37/5/15 36/4/15 40/8/15
f 37/5/15 40/8/15 41/9/15
f 37/5/15 41/9/15 42/10/15
f 43/21/16 44/16/17 45/22/16
f 44/16/17 43/21/16 46/12/17
f 47/21/16 48/16/17 49/12/17
f 48/16/17 47/21/16 50/22/16
f 51/23/18 52/24/19 53/25/19
f 51/23/18 53/25/19 54/26/18
f 55/24/19 56/23/18 57/25/19
f 58/26/18 57/25/19 56/23/18
f 59/11/20 60/12/21 61/13/22
f 60/12/21 62/14/6 61/13/22
f 60/12/21 63/15/23 62/14/6
f 63/15/23 60/12/21 64/16/8
f 65/27/24 66/28/25 67/29/25
f 67/29/25 68/30/24 65/27/24
f 69/28/25 70/27/24 71/29/25
f 71/29/25 70/27/24 72/30/24
f 73/2/26 74/1/26 75/17/27
f 75/17/27 74/1/26 76/19/27
f 77/1/28 78/31/29 79/18/30
f 78/31/29 77/1/28 80/32/31
f 81/33/32 82/34/33 80/32/34
f 83/35/35 82/34/33 81/33/32
f 84/36/36 85/33/37 86/1/28
f 85/33/37 87/32/34 86/1/28
f 88/31/38 87/32/39 89/34/40
f 89/34/40 90/37/41 88/31/38
f 91/3/42 92/4/42 93/5/42
f 92/4/42 91/3/42 94/6/43
f 94/6/43 91/3/42 95/7/43
f 93/5/42 92/4/42 96/8/43
f 93/5/42 96/8/43 97/9/44
f 93/5/42 97/9/44 98/10/44
f 99/38/45 100/18/46 101/20/45
f 100/18/46 99/38/45 102/39/47
f 103/40/48 99/38/45 101/20/45
f 103/40/48 104/41/49 99/38/45
f 105/38/45 106/18/46 107/20/45
f 106/18/46 105/38/45 108/39/47
f 109/40/48 105/38/45 107/20/45
f 109/40/48 110/41/49 105/38/45
f 111/42/50 112/43/51 113/44/52
f 112/43/51 111/42/50 114/45/53
f 115/46/54 113/44/52 112/43/51
f 116/47/55 113/44/52 115/46/54
f 115/46/54 117/48/56 116/47/55
f 117/48/56 115/46/54 118/49/57
f 119/42/58 120/43/59 121/44/60
f 120/43/59 119/42/58 122/45/53
f 123/46/54 121/44/60 120/43/59
f 124/47/61 121/44/60 123/46/54
f 123/46/54 125/48/62 124/47/61
f 125/48/62 123/46/54 126/49/57
f 127/42/63 128/43/51 129/44/52
f 128/43/51 127/42/63 130/45/64
f 131/46/65 129/44/52 128/43/51
f 132/47/66 129/44/52 131/46/65
f 131/46/65 133/48/67 132/47/66
f 133/48/67 131/46/65 134/49/68
f 135/50/69 136/5/70 137/10/71
f 137/10/71 138/51/72 135/50/69
f 139/52/73 140/53/74 141/54/75
f 140/53/74 139/52/73 142/55/76
f 143/50/77 144/5/78 145/10/71
f 145/10/71 146/51/72 143/50/77
f 147/52/79 148/53/74 149/54/80
f 148/53/74 147/52/79 150/55/76
f 151/50/81 152/5/78 153/10/71
f 153/10/71 154/51/72 151/50/81
f 155/52/82 156/53/74 157/54/80
f 156/53/74 155/52/82 158/55/76
f 159/56/71 160/57/74 161/51/72
f 161/51/72 160/57/74 162/55/76
f 163/56/71 164/57/74 165/51/72
f 165/51/72 164/57/74 166/55/76
f 167/57/74 168/51/72 169/56/71
f 168/51/72 167/57/74 170/55/76
f 171/18/83 172/20/45 173/20/45
f 172/20/45 171/18/83 174/18/83
f 175/18/84 176/20/85 177/18/84
f 176/20/85 175/18/84 178/20/85
f 179/18/86 180/20/45 181/39/86
f 181/39/87 182/38/45 183/39/87
f 182/38/45 181/39/87 184/38/45
f 185/39/88 186/38/45 187/18/88
f 188/39/89 189/38/45 190/39/89
f 190/39/89 189/38/45 191/38/45
f 192/58/90 193/15/90 194/14/91
f 193/15/90 192/58/90 195/59/92
f 196/58/93 197/15/94 198/59/95
f 197/15/94 196/58/93 199/14/92
f 200/60/96 201/61/96 202/16/96
f 203/12/97 202/16/96 201/61/96
f 204/16/96 205/12/97 206/61/96
f 204/16/96 206/61/96 207/60/96
f 208/36/18 209/62/18 210/63/18
f 208/36/18 210/63/18 211/64/18
f 212/62/18 210/63/18 209/62/18
f 210/63/18 212/62/18 213/63/18
f 214/64/18 215/63/18 216/36/18
f 215/63/18 217/62/18 216/36/18
f 218/63/18 219/62/18 220/63/18
f 220/63/18 219/62/18 221/62/18
f 222/54/75 223/65/98 224/49/99
f 224/49/99 225/52/73 222/54/75
f 226/54/80 227/65/100 228/49/57
f 228/49/57 229/52/79 226/54/80
f 230/54/80 231/65/67 232/49/101
f 232/49/101 233/52/102 230/54/80
f 234/5/70 235/45/53 236/3/103
f 235/45/53 234/5/70 237/50/69
f 238/5/78 239/45/53 240/3/104
f 239/45/53 238/5/78 241/50/77
f 242/5/78 243/45/105 244/3/63
f 243/45/105 242/5/78 245/50/106
f 246/20/107 247/18/108 248/20/109
f 248/20/109 247/18/108 249/18/110
f 250/20/107 251/20/109 252/18/111
f 251/20/109 253/18/112 252/18/111
f 254/66/113 255/67/113 256/1/113
f 256/1/113 257/18/113 254/66/113
f 258/67/113 259/68/113 260/69/113
f 260/69/113 261/1/113 258/67/113
f 262/36/113 263/69/113 259/68/113
f 264/70/113 262/36/113 259/68/113
f 265/1/113 266/18/113 267/1/113
f 265/1/113 268/18/113 266/18/113
f 269/1/113 268/18/113 265/1/113
f 268/18/113 269/1/113 270/1/113
f 270/1/113 271/18/113 268/18/113
f 269/1/113 272/1/113 270/1/113
f 272/1/113 269/1/113 273/1/113
f 274/1/113 271/18/113 270/1/113
f 271/18/113 274/1/113 275/19/113
f 276/66/113 277/67/113 278/67/113
f 278/67/113 279/66/113 276/66/113
f 280/70/113 281/70/113 282/68/113
f 281/70/113 283/68/113 282/68/113
f 284/67/114 285/66/114 286/1/114
f 286/1/114 285/66/114 287/18/114
f 288/68/114 289/67/114 290/69/114
f 290/69/114 289/67/114 291/1/114
f 292/36/114 288/68/114 293/69/114
f 294/70/114 288/68/114 292/36/114
f 295/18/114 296/1/114 297/18/114
f 298/1/114 297/18/114 296/1/114
f 296/1/114 295/18/114 299/1/114
f 300/1/114 299/1/114 295/18/114
f 300/1/114 295/18/114 301/18/114
f 302/1/114 299/1/114 300/1/114
f 299/1/114 302/1/114 303/1/114
f 301/18/114 304/1/114 300/1/114
f 304/1/114 301/18/114 305/19/114
f 306/67/114 307/66/114 308/67/114
f 308/67/114 307/66/114 309/66/114
f 310/70/114 311/68/114 312/70/114
f 312/70/114 311/68/114 313/68/114
f 314/62/115 315/33/116 316/36/115
f 315/33/116 314/62/115 317/71/115
f 318/39/117 319/18/118 320/31/117
f 318/39/117 320/31/117 321/37/118
f 322/72/113 323/73/113 324/74/113
f 323/73/113 322/72/113 325/75/113
f 326/72/113 327/76/113 328/75/113
f 329/77/113 330/29/113 331/76/113
f 330/29/113 329/77/113 332/30/113
f 333/72/114 334/73/114 335/75/114
f 334/73/114 333/72/114 336/74/114
f 337/72/114 338/75/114 339/76/114
f 340/29/114 341/77/114 342/76/114
f 341/77/114 340/29/114 343/30/114
f 344/61/119 345/60/120 346/58/120
f 345/60/120 347/59/119 346/58/120
f 348/58/120 349/60/120 350/61/119
f 349/60/120 348/58/120 351/59/119
f 352/13/121 353/78/114 354/11/114
f 353/78/114 352/13/121 355/40/122
f 356/18/46 357/66/123 358/36/113
f 359/70/113 358/36/113 357/66/123
f 360/13/121 361/78/114 362/11/114
f 361/78/114 360/13/121 363/40/122
f 364/18/46 365/66/123 366/36/113
f 367/70/113 366/36/113 365/66/123
f 368/1/113 369/1/113 370/1/113
f 370/1/113 371/1/124 368/1/113
f 371/1/124 372/1/113 368/1/113
f 372/1/113 371/1/124 373/1/113
f 371/1/124 370/1/113 374/1/113
f 374/1/113 375/1/113 371/1/124
f 376/1/114 377/1/114 378/1/114
f 377/1/114 376/1/114 379/1/125
f 380/1/114 379/1/125 376/1/114
f 379/1/125 380/1/114 381/1/114
f 379/1/125 382/1/114 377/1/114
f 382/1/114 379/1/125 383/1/114
f 384/69/126 385/79/127 386/1/128
f 385/79/127 387/2/126 386/1/128
f 385/79/127 384/69/126 388/64/128
f 389/36/127 388/64/128 384/69/126
f 390/69/126 391/1/128 392/79/126
f 392/79/126 391/1/128 393/2/126
f 394/64/128 390/69/126 392/79/126
f 394/64/128 395/36/127 390/69/126
f 396/80/114 397/80/114 398/80/114
f 398/80/114 397/80/114 399/80/114
f 400/80/114 401/80/114 402/80/114
f 401/80/114 400/80/114 403/80/114
f 404/2/18 405/1/18 406/1/18
f 406/1/18 407/2/18 404/2/18
f 405/1/18 404/2/18 408/2/129
f 409/1/130 405/1/18 408/2/129
f 410/2/130 409/1/130 408/2/129
f 410/2/130 411/1/131 409/1/130
f 410/2/130 412/2/132 411/1/131
f 413/1/132 411/1/131 412/2/132
f 414/2/132 413/1/132 412/2/132
f 413/1/132 414/2/132 415/1/133
f 415/1/133 414/2/132 416/2/134
f 417/1/134 415/1/133 416/2/134
f 418/17/27 417/1/134 416/2/134
f 417/1/134 418/17/27 419/19/135
f 420/2/18 421/1/18 422/2/18
f 422/2/18 421/1/18 423/1/18
f 424/2/129 422/2/18 423/1/18
f 424/2/129 423/1/18 425/1/130
f 425/1/130 426/2/130 424/2/129
f 426/2/130 425/1/130 427/1/131
f 428/2/132 426/2/130 427/1/131
f 428/2/132 427/1/131 429/1/132
f 428/2/132 429/1/132 430/2/132
f 431/1/133 430/2/132 429/1/132
f 432/2/134 430/2/132 431/1/133
f 432/2/134 431/1/133 433/1/134
f 434/59/18 435/58/18 436/59/18
f 435/58/18 434/59/18 437/58/18
f 438/58/18 439/59/18 440/58/18
f 440/58/18 439/59/18 441/59/18
f 442/61/45 443/60/45 444/61/45
f 443/60/45 442/61/45 445/60/45
f 446/60/45 447/61/45 448/60/45
f 448/60/45 447/61/45 449/61/45
f 450/81/45 451/82/45 452/83/45
f 450/81/45 452/83/45 453/77/45
f 454/83/45 455/81/45 456/77/45
f 455/81/45 454/83/45 457/82/45
f 458/49/136 459/45/137 460/52/138
f 461/46/138 459/45/137 458/49/136
f 459/45/137 461/46/138 462/43/138
f 460/52/138 459/45/137 463/50/138
f 460/52/138 463/50/138 464/51/138
f 460/52/138 464/51/138 465/55/139
f 466/66/140 467/1/18 468/18/141
f 467/1/18 466/66/140 469/84/18
f 469/84/18 470/36/142 467/1/18
f 470/36/142 469/84/18 471/70/143
f 472/36/144 473/64/145 474/18/146
f 473/64/145 475/20/147 474/18/146
f 473/64/145 476/40/148 475/20/147
f 476/40/148 473/64/145 477/78/149
f 478/85/150 479/35/35 480/16/151
f 479/35/35 478/85/150 481/34/152
f 482/85/150 483/15/153 484/86/41
f 482/85/150 484/86/41 485/34/40
f 486/2/154 487/1/155 488/1/154
f 489/2/156 487/1/155 486/2/154
f 486/2/154 488/1/154 490/2/157
f 488/1/154 491/1/158 490/2/157
f 490/2/157 491/1/158 492/2/159
f 489/2/156 493/1/160 487/1/155
f 494/2/18 493/1/160 489/2/156
f 493/1/160 494/2/18 495/1/18
f 495/1/18 494/2/18 496/2/18
f 497/1/18 495/1/18 496/2/18
f 498/2/154 499/1/154 500/1/155
f 499/1/154 498/2/154 501/2/157
f 501/2/157 502/1/158 499/1/154
f 502/1/158 501/2/157 503/2/159
f 500/1/155 504/2/156 498/2/154
f 504/2/156 500/1/155 505/1/160
f 505/1/160 506/2/18 504/2/156
f 506/2/18 505/1/160 507/1/18
f 508/2/18 506/2/18 507/1/18
f 508/2/18 507/1/18 509/1/18
f 510/49/161 511/45/161 512/52/161
f 513/46/161 511/45/161 510/49/161
f 511/45/161 513/46/161 514/43/161
f 512/52/161 511/45/161 515/50/161
f 512/52/161 515/50/161 516/51/161
f 512/52/161 516/51/161 517/55/161
f 518/36/144 519/64/162 520/18/163
f 519/64/162 521/20/164 520/18/163
f 519/64/162 522/40/148 521/20/164
f 522/40/148 519/64/162 523/78/149
f 524/49/165 525/45/165 526/52/165
f 525/45/165 524/49/165 527/43/166
f 527/43/166 524/49/165 528/46/166
f 526/52/165 525/45/165 529/50/166
f 526/52/165 529/50/166 530/51/166
f 526/52/165 530/51/166 531/55/166
o default_81965401310328
v -1.457906 -0.048305 -0.125242
v -1.457906 -0.048305 -0.003112
v -1.457906 0.061934 -0.003112
v -1.457906 0.061934 -0.125242
v -1.457906 -0.048305 0.119018
v -1.457906 0.061934 0.119018
v -1.457906 -0.190384 -0.003112
v -1.457905 -0.119345 -0.125242
v -1.457905 -0.190385 -0.125242
v -1.457906 -0.119345 -0.003112
v -1.457905 -0.119345 0.119018
v -1.457905 -0.190385 0.119018
v 1.176058 0.326382 0.142424
v 1.280049 0.059620 0.122817
v 1.167889 0.345988 0.122818
v 1.271880 0.079226 0.142424
v 1.167889 0.345988 -0.129042
v 1.280049 0.059620 -0.129042
v 1.271880 0.079226 -0.148648
v 1.176058 0.326382 -0.148648
v 1.280049 0.059620 0.122817
v 1.375040 0.027908 -0.143720
v 1.280049 0.059620 -0.129042
v 1.375040 0.027908 0.137496
v 1.365918 0.049799 -0.165612
v 1.375040 0.027908 -0.143720
v 1.280049 0.059620 0.122817
v 1.365918 0.049800 0.159388
v 1.271880 0.079226 0.142424
v 1.271880 0.079226 0.142424
v 1.245574 0.355808 0.159388
v 1.176058 0.326382 0.142424
v 1.188005 0.373974 -0.003112
v 0.253161 0.373974 -0.133112
v 0.253161 0.373974 -0.003112
v 1.188005 0.373974 -0.133112
v 1.188005 0.373974 -0.003112
v 0.253161 0.373974 0.126888
v 1.188005 0.373974 0.126888
v 0.253161 0.373974 0.126888
v 1.188005 0.373974 -0.003112
v 0.253161 0.373974 -0.003112
v 1.280049 0.059620 -0.129042
v 1.365918 0.049799 -0.165612
v 1.271880 0.079226 -0.148648
v 1.313936 0.055160 -0.165612
v 0.469510 -0.150312 -0.133112
v 0.455894 -0.117645 -0.165612
v 1.327552 0.022494 -0.133112
v 1.313936 0.055161 0.159388
v 0.469510 -0.150312 0.126888
v 1.327552 0.022494 0.126888
v 0.266702 0.341474 -0.165612
v 1.188005 0.373974 -0.133112
v 1.201547 0.341474 -0.165612
v 0.253161 0.373974 -0.133112
v 0.299731 0.262206 -0.165612
v 1.234575 0.262206 -0.165612
v 1.188005 0.373974 0.126888
v 0.266702 0.341474 0.159388
v 1.201547 0.341474 0.159388
v 0.253161 0.373974 0.126888
v 0.299731 0.262206 0.159388
v 1.234575 0.262206 0.159388
v 1.327552 0.022494 0.126888
v 0.469510 -0.150312 0.126888
v 1.327552 0.022494 -0.003112
v 0.469510 -0.150312 -0.003112
v 1.313936 0.055161 0.159388
v 0.455894 -0.117645 0.159388
v 0.469510 -0.150312 -0.133112
v 1.327552 0.022494 -0.133112
v 1.327552 0.022494 -0.003112
v 0.469510 -0.150312 -0.003112
v 0.299731 0.262206 -0.165612
v 1.234575 0.262206 -0.165612
v 0.328127 0.194055 -0.165612
v 1.262971 0.194055 -0.165612
v 0.410873 -0.004535 -0.165612
v 1.264952 0.172682 -0.165612
v 0.455894 -0.117645 -0.165612
v 1.313936 0.055160 -0.165612
v 0.410873 -0.004535 -0.165612
v 0.328127 0.194055 -0.165612
v 1.262971 0.194055 -0.165612
v 0.410873 -0.004535 -0.165612
v 1.262971 0.194055 -0.165612
v 1.264952 0.172682 -0.165612
v 0.328127 0.194055 0.159388
v 1.262971 0.194055 0.159388
v 1.234575 0.262206 0.159388
v 0.328127 0.194055 0.159388
v 1.234575 0.262206 0.159388
v 0.299731 0.262206 0.159388
v 1.264952 0.172682 0.159388
v 0.455894 -0.117645 0.159388
v 1.313936 0.055161 0.159388
v 0.410873 -0.004535 0.159388
v 0.410873 -0.004535 0.159388
v 1.262971 0.194055 0.159388
v 0.328127 0.194055 0.159388
v 0.410873 -0.004535 0.159388
v 1.264952 0.172682 0.159388
v 1.262971 0.194055 0.159388
v 1.236453 0.377700 0.137496
v 1.167889 0.345988 -0.129042
v 1.236453 0.377700 -0.143720
v 1.245574 0.355808 -0.165612
v 1.176058 0.326382 -0.148648
v 1.245574 0.355808 0.159388
v 1.167889 0.345988 0.122818
v 1.236453 0.377700 0.137496
v 1.176058 0.326382 0.142424
v 1.167889 0.345988 -0.129042
v 1.236453 0.377700 0.137496
v 1.167889 0.345988 0.122818
v -0.146494 -0.498838 -0.125612
v -0.238875 -0.562982 -0.125612
v -0.184022 -0.470830 -0.125612
v -0.199797 -0.588662 -0.125612
v -0.146494 -0.498838 -0.125612
v 0.081460 -0.364637 -0.125612
v 0.124603 -0.388798 -0.125612
v -0.184022 -0.470830 -0.125612
v 0.163335 -0.163159 -0.125612
v 0.124603 -0.388798 -0.125612
v 0.081460 -0.364637 -0.125612
v 0.204219 -0.163159 -0.125612
v -0.199797 -0.588662 0.119388
v -0.146494 -0.498838 0.119388
v -0.238875 -0.562982 0.119388
v -0.184022 -0.470830 0.119388
v 0.081460 -0.364637 0.119388
v -0.146494 -0.498838 0.119388
v 0.124603 -0.388798 0.119388
v -0.184022 -0.470830 0.119388
v 0.124603 -0.388798 0.119388
v 0.163335 -0.163159 0.119388
v 0.081460 -0.364637 0.119388
v 0.204219 -0.163159 0.119388
v -1.457905 -0.119345 -0.125242
v -1.420328 -0.190385 -0.125242
v -1.457905 -0.190385 -0.125242
v -1.380027 -0.119345 -0.125242
v -1.457906 0.061934 -0.125242
v -1.339726 -0.048305 -0.125242
v -1.457906 -0.048305 -0.125242
v -1.277187 0.061934 -0.125242
v -1.420328 -0.190385 0.119018
v -1.457905 -0.119345 0.119018
v -1.457905 -0.190385 0.119018
v -1.380027 -0.119345 0.119018
v -1.339726 -0.048305 0.119018
v -1.457906 0.061934 0.119018
v -1.457906 -0.048305 0.119018
v -1.277187 0.061934 0.119018
v -0.529308 -0.071073 -0.114914
v -0.289471 -0.109825 -0.114914
v -0.552375 -0.109825 -0.114914
v -0.266404 -0.071073 -0.114914
v -0.565350 -0.131623 -0.114914
v -0.325512 -0.170375 -0.114914
v -0.588416 -0.170375 -0.114914
v -0.302446 -0.131623 -0.114914
v -0.289471 -0.109824 0.108690
v -0.529308 -0.071073 0.108690
v -0.552375 -0.109824 0.108690
v -0.266404 -0.071073 0.108690
v -0.325512 -0.170374 0.108690
v -0.565350 -0.131623 0.108690
v -0.588416 -0.170374 0.108690
v -0.302446 -0.131623 0.108690
v -1.086734 0.004777 -0.103790
v -1.256018 -0.260851 -0.103790
v -1.158387 0.004777 -0.103790
v -1.327671 -0.260851 -0.103790
v -1.158387 0.004777 0.097566
v -1.327671 -0.260851 0.097566
v -1.256018 -0.260851 0.097566
v -1.086734 0.004777 0.097566
v -0.725226 0.145228 -0.103790
v -0.842360 -0.025650 -0.103790
v -0.768372 0.145228 -0.103790
v -0.885505 -0.025650 -0.103790
v -0.825226 0.145228 -0.103790
v -0.942360 -0.025650 -0.103790
v -0.868372 0.145228 -0.103790
v -0.985505 -0.025650 -0.103790
v -0.643280 0.113469 -0.103790
v -0.742360 -0.025650 -0.103790
v -0.686425 0.113469 -0.103790
v -0.785505 -0.025650 -0.103790
v -0.768372 0.145228 0.097566
v -0.885505 -0.025650 0.097566
v -0.842360 -0.025650 0.097566
v -0.725226 0.145228 0.097566
v -0.868372 0.145228 0.097566
v -0.985505 -0.025650 0.097566
v -0.942360 -0.025650 0.097566
v -0.825226 0.145228 0.097566
v -0.686425 0.113469 0.097566
v -0.785505 -0.025650 0.097566
v -0.742360 -0.025650 0.097566
v -0.643280 0.113469 0.097566
v 1.245574 0.355808 -0.165612
v 1.271880 0.079226 -0.148648
v 1.365918 0.049799 -0.165612
v 1.176058 0.326382 -0.148648
v 0.475009 -0.520873 -0.079423
v 0.579467 -0.190626 -0.079423
v 0.528565 -0.520873 -0.079423
v 0.636666 -0.179106 -0.079423
v 0.565009 -0.520873 -0.079423
v 0.675590 -0.171267 -0.079423
v 0.618565 -0.520873 -0.079423
v 0.732789 -0.159748 -0.079423
v 0.579467 -0.190626 0.073199
v 0.475009 -0.520873 0.073199
v 0.528565 -0.520873 0.073199
v 0.636666 -0.179106 0.073199
v 0.675590 -0.171267 0.073199
v 0.565009 -0.520873 0.073199
v 0.618565 -0.520873 0.073199
v 0.732789 -0.159748 0.073199
v -0.341995 0.080543 0.053457
v 0.303727 0.080543 0.053457
v 0.303727 0.103974 -0.003112
v -0.341995 0.103974 -0.003112
v -0.341995 0.023974 0.076888
v 0.303727 0.023974 0.076888
v -0.341995 -0.032595 0.053457
v 0.303727 -0.032595 0.053457
v -0.341995 -0.056026 -0.003112
v 0.303727 -0.056026 -0.003112
v -0.341995 -0.032595 -0.059681
v 0.303727 -0.032595 -0.059681
v -0.341995 0.023974 -0.083112
v 0.303727 0.023974 -0.083112
v -0.341995 0.080543 -0.059681
v 0.303727 0.080543 -0.059681
v -0.341995 0.103974 -0.003112
v 0.303727 0.103974 -0.003112
vn -1.0000 0.0005 -0.0005
vn 0.7579 0.0112 -0.6523
vn 0.6356 0.7402 -0.2194
vn 0.8794 -0.3941 -0.2671
vn 0.6638 0.4156 -0.6218
vn 0.8794 -0.3941 0.2671
vn 0.6356 0.7402 0.2194
vn 0.6638 0.4157 0.6218
vn 0.7578 0.0112 0.6524
vn 0.3426 0.8959 0.2829
vn 0.3426 0.8959 -0.2829
vn 0.3142 0.5614 0.7656
vn 0.3426 0.8958 0.2830
vn 0.3426 0.8958 -0.2830
vn 0.3142 0.5614 -0.7656
vn 0.6638 0.4157 -0.6218
vn 0.6638 0.4157 -0.6217
vn 0.3239 -0.2399 -0.9152
vn 0.3141 0.5614 -0.7656
vn 0.0005 1.0000 -0.0005
vn 0.0005 0.9389 -0.3442
vn 0.0005 0.9100 -0.4147
vn 0.0005 0.9389 0.3442
vn 0.0005 0.9100 0.4147
vn 0.3141 0.5614 0.7656
vn 0.0806 -0.3993 -0.9133
vn 0.1794 -0.8920 -0.4150
vn 0.0650 -0.3229 -0.9442
vn 0.1832 -0.9072 -0.3786
vn 0.0806 -0.3993 0.9133
vn 0.1794 -0.8920 0.4150
vn 0.1832 -0.9072 0.3787
vn 0.0004 0.4665 -0.8845
vn 0.0005 0.9099 -0.4147
vn 0.0005 0.3016 -0.9535
vn 0.0005 0.0005 -1.0000
vn 0.0005 0.9099 0.4147
vn 0.0003 0.4665 0.8845
vn 0.0004 0.3015 0.9535
vn 0.0005 0.0005 1.0000
vn 0.1832 -0.9072 0.3786
vn 0.1794 -0.8920 0.4149
vn 0.1978 -0.9802 -0.0005
vn 0.0650 -0.3229 0.9442
vn 0.1794 -0.8920 -0.4149
vn 0.0650 -0.3228 -0.9442
vn 0.0806 -0.3992 -0.9133
vn 0.0649 -0.3228 0.9442
vn 0.0807 -0.3992 0.9133
vn 0.4529 -0.7792 -0.4333
vn 0.8794 -0.3940 0.2671
vn 0.4529 -0.7792 0.4333
vn 0.3240 -0.2399 0.9151
vn 0.7579 0.0113 0.6523
vn 0.3240 -0.2399 -0.9151
vn 0.8794 -0.3940 -0.2671
vn 0.7579 0.0113 -0.6523
vn 0.3239 -0.2399 0.9152
vn 0.6638 0.4157 0.6217
vn 0.7579 0.0112 0.6523
vn -0.0000 0.7071 0.7071
vn -0.0000 -0.7071 0.7071
vn 0.0003 -0.7071 0.7071
vn 0.0005 -1.0000 -0.0005
vn 0.0003 -0.7071 -0.7071
vn -0.0000 -0.7071 -0.7071
vn -0.0000 0.7071 -0.7071
vt 0.000000 0.000000
vt 0.617178 0.225051
vt 0.374158 0.207791
vt 0.626272 0.215680
vt 0.383287 0.220674
vt 0.626501 0.043271
vt 0.373569 0.042365
vt 0.382640 0.029492
vt 0.617402 0.030001
vt 0.875000 0.625000
vt 0.875000 0.725000
vt 0.679619 0.625000
vt 0.128398 0.750000
vt 0.125000 0.725000
vt 0.611458 1.000000
vt 0.625000 1.000000
vt 0.578430 1.000000
vt 0.125000 0.625000
vt 0.550187 0.999436
vt 0.550034 1.000000
vt 0.437259 1.000000
vt 0.388542 1.000000
vt 0.467226 0.998939
vt 0.467288 1.000000
vt 0.420256 0.751465
vt 0.400434 0.750350
vt 0.428113 0.750247
vt 0.392401 0.750768
vt 0.486387 0.777484
vt 0.475310 0.809505
vt 0.603558 0.756314
vt 0.603845 0.759413
vt 0.480283 0.778344
vt 0.457217 0.971656
vt 0.457217 0.778344
vt 0.480283 0.971656
vt 0.417783 0.778344
vt 0.394717 0.971656
vt 0.394717 0.778344
vt 0.417783 0.971656
vt 0.651644 0.625000
vt -0.159435 0.125000
vt 0.713392 0.625000
vt 0.809366 0.625000
vt 0.916092 0.625000
vt 0.318052 0.125000
vt 0.662646 0.625000
vt 0.407371 0.625000
vt 0.916093 0.625000
vt 0.861062 0.625000
vt 0.607615 0.625000
vt 0.875000 1.000000
vt 0.875000 0.500000
vt 1.000000 0.500000
vt 1.000000 1.000000
vt 0.750000 1.000000
vt 0.750000 0.500000
vt 0.625000 0.500000
vt 0.500000 1.000000
vt 0.500000 0.500000
vt 0.375000 1.000000
vt 0.375000 0.500000
vt 0.250000 1.000000
vt 0.250000 0.500000
vt 0.125000 1.000000
vt 0.125000 0.500000
vt 0.000000 1.000000
vt 0.000000 0.500000
s 1
f 532/87/167 533/87/167 534/87/167
f 532/87/167 534/87/167 535/87/167
f 536/87/167 534/87/167 533/87/167
f 534/87/167 536/87/167 537/87/167
f 538/87/167 539/87/167 540/87/167
f 539/87/167 538/87/167 541/87/167
f 538/87/167 542/87/167 541/87/167
f 542/87/167 538/87/167 543/87/167
f 544/88/168 545/89/169 546/90/170
f 545/89/169 544/88/168 547/91/171
f 545/89/169 548/92/172 546/90/170
f 548/92/172 545/89/169 549/93/173
f 550/94/174 548/92/172 549/93/173
f 548/92/172 550/94/174 551/95/175
f 552/89/169 553/93/176 554/93/173
f 553/93/176 552/89/169 555/89/177
f 556/94/178 554/93/173 557/93/179
f 555/89/180 558/89/169 559/91/181
f 560/91/182 559/91/181 558/89/169
f 561/91/183 562/88/184 559/91/185
f 562/88/184 561/91/183 563/88/168
f 564/96/186 565/97/187 566/98/186
f 565/97/187 564/96/186 567/97/188
f 568/96/186 569/97/189 570/97/190
f 571/97/189 572/96/186 573/98/186
f 574/93/173 575/94/191 576/94/174
f 577/99/192 578/100/193 579/99/194
f 578/100/193 577/99/192 580/100/195
f 581/99/196 582/100/197 583/100/198
f 584/101/199 585/102/200 586/101/201
f 585/102/200 584/101/199 587/102/187
f 584/101/199 586/101/201 588/103/202
f 589/103/202 588/103/202 586/101/201
f 590/102/203 591/101/204 592/101/205
f 591/101/204 590/102/203 593/102/189
f 594/103/206 592/101/205 591/101/204
f 594/103/206 595/103/206 592/101/205
f 596/100/207 597/100/208 598/104/209
f 599/104/209 598/104/209 597/100/208
f 597/100/197 600/99/196 601/99/210
f 602/100/211 603/100/195 604/104/209
f 602/100/211 604/104/209 605/104/209
f 606/103/202 607/103/202 608/105/202
f 609/106/202 608/105/202 607/103/202
f 610/107/202 611/107/202 612/108/212
f 613/108/213 612/108/212 611/107/202
f 614/109/202 615/105/202 616/110/202
f 617/109/202 618/110/202 619/107/202
f 620/105/206 621/106/206 622/103/206
f 623/105/206 624/103/206 625/103/206
f 626/107/206 627/108/214 628/108/215
f 627/108/214 626/107/206 629/107/206
f 630/109/206 631/110/206 632/105/206
f 633/109/206 634/107/206 635/110/206
f 636/90/216 637/92/217 638/92/218
f 638/92/218 637/92/217 639/95/219
f 639/95/219 637/92/217 640/95/220
f 641/88/221 642/90/222 643/90/216
f 642/90/222 641/88/221 644/88/223
f 645/92/217 646/90/216 647/90/222
f 648/111/202 649/112/202 650/113/202
f 649/112/202 648/111/202 651/114/202
f 652/111/202 653/115/202 654/116/202
f 653/115/202 652/111/202 655/113/202
f 656/117/202 657/116/202 658/115/202
f 657/116/202 656/117/202 659/118/202
f 660/114/206 661/111/206 662/112/206
f 663/113/206 662/112/206 661/111/206
f 664/115/206 665/111/206 666/116/206
f 665/111/206 664/115/206 667/113/206
f 668/116/206 669/117/206 670/115/206
f 669/117/206 668/116/206 671/118/206
f 672/87/202 673/87/202 674/87/202
f 673/87/202 672/87/202 675/87/202
f 676/87/202 677/87/202 678/87/202
f 677/87/202 676/87/202 679/87/202
f 680/87/206 681/87/206 682/87/206
f 681/87/206 680/87/206 683/87/206
f 684/87/206 685/87/206 686/87/206
f 685/87/206 684/87/206 687/87/206
f 688/119/202 689/120/202 690/121/202
f 689/120/202 688/119/202 691/122/202
f 692/123/202 693/124/202 694/125/202
f 693/124/202 692/123/202 695/126/202
f 696/120/206 697/119/206 698/121/206
f 697/119/206 696/120/206 699/122/206
f 700/124/206 701/123/206 702/125/206
f 701/123/206 700/124/206 703/126/206
f 704/127/202 705/128/202 706/129/202
f 707/130/202 706/129/202 705/128/202
f 708/129/206 709/130/206 710/128/206
f 708/129/206 710/128/206 711/127/206
f 712/131/202 713/132/202 714/133/202
f 715/134/202 714/133/202 713/132/202
f 716/135/202 717/132/202 718/133/202
f 719/134/202 718/133/202 717/132/202
f 720/136/202 721/132/202 722/137/202
f 723/134/202 722/137/202 721/132/202
f 724/133/206 725/134/206 726/132/206
f 724/133/206 726/132/206 727/131/206
f 728/133/206 729/134/206 730/132/206
f 728/133/206 730/132/206 731/135/206
f 732/137/206 733/134/206 734/132/206
f 732/137/206 734/132/206 735/136/206
f 736/95/224 737/94/225 738/94/178
f 737/94/225 736/95/224 739/95/226
f 740/87/202 741/87/202 742/87/202
f 742/87/202 741/87/202 743/87/202
f 744/87/202 745/87/202 746/87/202
f 746/87/202 745/87/202 747/87/202
f 748/87/206 749/87/206 750/87/206
f 750/87/206 751/87/206 748/87/206
f 752/87/206 753/87/206 754/87/206
f 754/87/206 755/87/206 752/87/206
f 756/138/227 757/139/227 758/140/186
f 756/138/227 758/140/186 759/141/186
f 760/142/206 757/139/227 756/138/227
f 760/142/206 761/143/206 757/139/227
f 762/102/228 761/143/206 760/142/206
f 762/102/228 763/144/229 761/143/206
f 764/145/230 763/144/229 762/102/228
f 764/145/230 765/146/230 763/144/229
f 766/147/231 765/146/230 764/145/230
f 766/147/231 767/148/232 765/146/230
f 767/148/232 766/147/231 768/149/202
f 767/148/232 768/149/202 769/150/202
f 769/150/202 768/149/202 770/151/233
f 769/150/202 770/151/233 771/152/233
f 772/153/186 771/152/233 770/151/233
f 772/153/186 773/154/186 771/152/233
